<?xml version="1.0" encoding="UTF-8" standalone="no"?>
<!-- Created with Inkscape (http://www.inkscape.org/) -->

<svg
   xmlns:dc="http://purl.org/dc/elements/1.1/"
   xmlns:cc="http://creativecommons.org/ns#"
   xmlns:rdf="http://www.w3.org/1999/02/22-rdf-syntax-ns#"
   xmlns:svg="http://www.w3.org/2000/svg"
   xmlns="http://www.w3.org/2000/svg"
   xmlns:sodipodi="http://sodipodi.sourceforge.net/DTD/sodipodi-0.dtd"
   xmlns:inkscape="http://www.inkscape.org/namespaces/inkscape"
   width="128"
   height="128"
   id="svg2985"
   version="1.1"
   inkscape:version="0.48.2 r9819"
   sodipodi:docname="anvil_top_damaged_2.svg"
   inkscape:export-filename="/Users/ianw/drawing.png"
   inkscape:export-xdpi="180"
   inkscape:export-ydpi="180">
  <title
     id="title3119">Template</title>
  <defs
     id="defs2987" />
  <sodipodi:namedview
     id="base"
     pagecolor="#ffffff"
     bordercolor="#000000"
     borderopacity="1"
     inkscape:pageopacity="0.0"
     inkscape:pageshadow="2"
     inkscape:zoom="5.656854"
     inkscape:cx="40.091471"
     inkscape:cy="52.807799"
     inkscape:current-layer="layer1"
     showgrid="true"
     inkscape:document-units="px"
     inkscape:grid-bbox="true"
     inkscape:snap-bbox="false"
     inkscape:snap-nodes="true"
     inkscape:snap-grids="true"
     inkscape:window-width="1417"
     inkscape:window-height="1247"
     inkscape:window-x="11"
     inkscape:window-y="1"
     inkscape:window-maximized="0"
     inkscape:showpageshadow="false"
     borderlayer="true">
    <inkscape:grid
       type="xygrid"
       id="grid2993"
       empspacing="4"
       visible="true"
       enabled="true"
       snapvisiblegridlinesonly="true"
       spacingx="16px"
       spacingy="16px"
       empcolor="#d60053"
       empopacity="0.29803922" />
    <inkscape:grid
       type="xygrid"
       id="grid3043"
       empspacing="4"
       visible="true"
       enabled="true"
       snapvisiblegridlinesonly="true"
       color="#ff00f8"
       opacity="0.1254902"
       dotted="true" />
  </sodipodi:namedview>
  <metadata
     id="metadata2990">
    <rdf:RDF>
      <cc:Work
         rdf:about="">
        <dc:format>image/svg+xml</dc:format>
        <dc:type
           rdf:resource="http://purl.org/dc/dcmitype/StillImage" />
        <dc:title>Template</dc:title>
        <cc:license
           rdf:resource="https://www.gnu.org/copyleft/gpl.html" />
        <dc:creator>
          <cc:Agent>
            <dc:title>Ian Walters</dc:title>
          </cc:Agent>
        </dc:creator>
        <dc:source>SimpleRP</dc:source>
      </cc:Work>
    </rdf:RDF>
  </metadata>
  <g
     id="layer1"
     inkscape:label="Layer 1"
     inkscape:groupmode="layer"
     transform="translate(0,64)">
    <rect
       style="fill:#434343;fill-opacity:1;stroke:#015a01;stroke-width:0.5;stroke-linecap:round;stroke-miterlimit:4;stroke-opacity:1;stroke-dasharray:none"
       id="rect4034"
       width="80"
       height="128"
       x="24"
       y="0"
       transform="translate(0,-64)" />
    <path
       style="opacity:0.29999999999999999;fill:#aaaaaa;fill-opacity:1;stroke:none"
       d="M 40,8 52,-8 40,-24 56,-12 72,-24 60,-8 72,8 56,-4 z"
       id="path4036"
       inkscape:connector-curvature="0"
       sodipodi:nodetypes="ccccccccc" />
    <path
       sodipodi:nodetypes="ccccccccc"
       inkscape:connector-curvature="0"
       id="path4038"
       d="M 52,32 64,16 52,0 68,12 84,0 72,16 84,32 68,20 z"
       style="opacity:0.3;fill:#333333;stroke:none" />
    <path
       style="opacity:0.3;fill:#333333;stroke:none"
       d="M 36,-16 48,-32 36,-48 52,-36 68,-48 56,-32 68,-16 52,-28 z"
       id="path4808"
       inkscape:connector-curvature="0"
       sodipodi:nodetypes="ccccccccc" />
    <path
       sodipodi:nodetypes="ccccccccc"
       inkscape:connector-curvature="0"
       id="path4840"
       d="M 64,52 76,36 64,20 80,32 96,20 84,36 96,52 80,40 z"
       style="opacity:0.3;fill:#aaaaaa;fill-opacity:1;stroke:none" />
    <path
       style="opacity:0.3;fill:#aaaaaa;fill-opacity:1;stroke:none"
       d="M 60,-20 72,-36 60,-52 76,-40 92,-52 80,-36 92,-20 76,-32 z"
       id="path4842"
       inkscape:connector-curvature="0"
       sodipodi:nodetypes="ccccccccc" />
    <path
       style="opacity:0.3;fill:#333333;stroke:none"
       d="M 64,4 76,-12 64,-28 80,-16 96,-28 84,-12 96,4 80,-8 z"
       id="path4846"
       inkscape:connector-curvature="0"
       sodipodi:nodetypes="ccccccccc" />
    <path
       sodipodi:nodetypes="ccccccccc"
       inkscape:connector-curvature="0"
       id="path4848"
       d="M 36,40 48,24 36,8 52,20 68,8 56,24 68,40 52,28 z"
       style="opacity:0.3;fill:#333333;stroke:none" />
    <path
       sodipodi:nodetypes="ccccccccc"
       inkscape:connector-curvature="0"
       id="path4850"
       d="M 32,52 44,36 32,20 48,32 64,20 52,36 64,52 48,40 z"
       style="opacity:0.3;fill:#aaaaaa;fill-opacity:1;stroke:none" />
  </g>
</svg>
