<?xml version="1.0" encoding="UTF-8" standalone="no"?>
<!-- Created with Inkscape (http://www.inkscape.org/) -->

<svg
   xmlns:dc="http://purl.org/dc/elements/1.1/"
   xmlns:cc="http://creativecommons.org/ns#"
   xmlns:rdf="http://www.w3.org/1999/02/22-rdf-syntax-ns#"
   xmlns:svg="http://www.w3.org/2000/svg"
   xmlns="http://www.w3.org/2000/svg"
   xmlns:sodipodi="http://sodipodi.sourceforge.net/DTD/sodipodi-0.dtd"
   xmlns:inkscape="http://www.inkscape.org/namespaces/inkscape"
   width="128"
   height="128"
   id="svg2985"
   version="1.1"
   inkscape:version="0.48.2 r9819"
   sodipodi:docname="brewing_stand_base.svg"
   inkscape:export-filename="/Users/ianw/drawing.png"
   inkscape:export-xdpi="180"
   inkscape:export-ydpi="180">
  <title
     id="title3119">Template</title>
  <defs
     id="defs2987">
    <filter
       inkscape:collect="always"
       id="filter5253"
       x="-0.18"
       width="1.36"
       y="-0.18"
       height="1.36">
      <feGaussianBlur
         inkscape:collect="always"
         stdDeviation="1.8"
         id="feGaussianBlur5255" />
    </filter>
  </defs>
  <sodipodi:namedview
     id="base"
     pagecolor="#ffffff"
     bordercolor="#000000"
     borderopacity="1"
     inkscape:pageopacity="0.0"
     inkscape:pageshadow="2"
     inkscape:zoom="2.828427"
     inkscape:cx="-8.4377341"
     inkscape:cy="21.768112"
     inkscape:current-layer="layer1"
     showgrid="true"
     inkscape:document-units="px"
     inkscape:grid-bbox="true"
     inkscape:snap-bbox="false"
     inkscape:snap-nodes="true"
     inkscape:snap-grids="true"
     inkscape:window-width="2560"
     inkscape:window-height="1305"
     inkscape:window-x="0"
     inkscape:window-y="0"
     inkscape:window-maximized="1"
     inkscape:showpageshadow="false"
     borderlayer="true">
    <inkscape:grid
       type="xygrid"
       id="grid2993"
       empspacing="4"
       visible="true"
       enabled="true"
       snapvisiblegridlinesonly="true"
       spacingx="16px"
       spacingy="16px"
       empcolor="#d60053"
       empopacity="0.29803922" />
    <inkscape:grid
       type="xygrid"
       id="grid3043"
       empspacing="4"
       visible="true"
       enabled="true"
       snapvisiblegridlinesonly="true"
       color="#ff00f8"
       opacity="0.1254902"
       dotted="true" />
  </sodipodi:namedview>
  <metadata
     id="metadata2990">
    <rdf:RDF>
      <cc:Work
         rdf:about="">
        <dc:format>image/svg+xml</dc:format>
        <dc:type
           rdf:resource="http://purl.org/dc/dcmitype/StillImage" />
        <dc:title>Template</dc:title>
        <cc:license
           rdf:resource="https://www.gnu.org/copyleft/gpl.html" />
        <dc:creator>
          <cc:Agent>
            <dc:title>Ian Walters</dc:title>
          </cc:Agent>
        </dc:creator>
        <dc:source>SimpleRP</dc:source>
      </cc:Work>
    </rdf:RDF>
  </metadata>
  <g
     id="layer1"
     inkscape:label="Layer 1"
     inkscape:groupmode="layer"
     transform="translate(0,64)">
    <rect
       style="fill:#737373;fill-opacity:1;stroke:none"
       id="rect4717"
       width="128"
       height="128"
       x="0"
       y="0"
       transform="translate(0,-64)" />
    <g
       id="g5257">
      <rect
         transform="translate(0,-64)"
         y="8"
         x="16"
         height="48"
         width="48"
         id="rect4719"
         style="fill:#666666;fill-opacity:1;stroke:none" />
      <path
         transform="translate(0,-64)"
         inkscape:connector-curvature="0"
         id="path4721"
         d="m 64,8 -4,4 0,40 -40,0 -4,4 48,0 z"
         style="fill:#585252;stroke:none;stroke-width:1px;stroke-linecap:butt;stroke-linejoin:miter;stroke-opacity:1;fill-opacity:1" />
      <path
         transform="translate(0,-64)"
         inkscape:connector-curvature="0"
         id="path4723"
         d="m 16,8 0,48 4,-4 0,-40 40,0 4,-4 z"
         style="fill:#9a9a9a;stroke:none;stroke-width:1px;stroke-linecap:butt;stroke-linejoin:miter;stroke-opacity:1;fill-opacity:1" />
      <path
         transform="translate(0,-64)"
         d="m 52,32 a 12,12 0 1 1 -24,0 12,12 0 1 1 24,0 z"
         sodipodi:ry="12"
         sodipodi:rx="12"
         sodipodi:cy="32"
         sodipodi:cx="40"
         id="path5233"
         style="fill:#585252;fill-opacity:1;stroke:none;filter:url(#filter5253)"
         sodipodi:type="arc" />
    </g>
    <g
       id="g5263"
       transform="translate(56,32)">
      <rect
         style="fill:#666666;fill-opacity:1;stroke:none"
         id="rect5265"
         width="48"
         height="48"
         x="16"
         y="8"
         transform="translate(0,-64)" />
      <path
         style="fill:#585252;fill-opacity:1;stroke:none"
         d="m 64,8 -4,4 0,40 -40,0 -4,4 48,0 z"
         id="path5267"
         inkscape:connector-curvature="0"
         transform="translate(0,-64)" />
      <path
         style="fill:#9a9a9a;fill-opacity:1;stroke:none"
         d="m 16,8 0,48 4,-4 0,-40 40,0 4,-4 z"
         id="path5269"
         inkscape:connector-curvature="0"
         transform="translate(0,-64)" />
      <path
         sodipodi:type="arc"
         style="fill:#585252;fill-opacity:1;stroke:none;filter:url(#filter5253)"
         id="path5271"
         sodipodi:cx="40"
         sodipodi:cy="32"
         sodipodi:rx="12"
         sodipodi:ry="12"
         d="m 52,32 a 12,12 0 1 1 -24,0 12,12 0 1 1 24,0 z"
         transform="translate(0,-64)" />
    </g>
    <g
       transform="translate(0,64)"
       id="g5273">
      <rect
         transform="translate(0,-64)"
         y="8"
         x="16"
         height="48"
         width="48"
         id="rect5275"
         style="fill:#666666;fill-opacity:1;stroke:none" />
      <path
         transform="translate(0,-64)"
         inkscape:connector-curvature="0"
         id="path5277"
         d="m 64,8 -4,4 0,40 -40,0 -4,4 48,0 z"
         style="fill:#585252;fill-opacity:1;stroke:none" />
      <path
         transform="translate(0,-64)"
         inkscape:connector-curvature="0"
         id="path5279"
         d="m 16,8 0,48 4,-4 0,-40 40,0 4,-4 z"
         style="fill:#9a9a9a;fill-opacity:1;stroke:none" />
      <path
         transform="translate(0,-64)"
         d="m 52,32 a 12,12 0 1 1 -24,0 12,12 0 1 1 24,0 z"
         sodipodi:ry="12"
         sodipodi:rx="12"
         sodipodi:cy="32"
         sodipodi:cx="40"
         id="path5281"
         style="fill:#585252;fill-opacity:1;stroke:none;filter:url(#filter5253)"
         sodipodi:type="arc" />
    </g>
  </g>
</svg>
