<?xml version="1.0" encoding="UTF-8" standalone="no"?>
<!-- Created with Inkscape (http://www.inkscape.org/) -->

<svg
   xmlns:dc="http://purl.org/dc/elements/1.1/"
   xmlns:cc="http://creativecommons.org/ns#"
   xmlns:rdf="http://www.w3.org/1999/02/22-rdf-syntax-ns#"
   xmlns:svg="http://www.w3.org/2000/svg"
   xmlns="http://www.w3.org/2000/svg"
   xmlns:sodipodi="http://sodipodi.sourceforge.net/DTD/sodipodi-0.dtd"
   xmlns:inkscape="http://www.inkscape.org/namespaces/inkscape"
   width="128"
   height="128"
   id="svg2985"
   version="1.1"
   inkscape:version="0.48.2 r9819"
   sodipodi:docname="brewing_stand.svg"
   inkscape:export-filename="/Users/ianw/drawing.png"
   inkscape:export-xdpi="180"
   inkscape:export-ydpi="180">
  <title
     id="title3119">Template</title>
  <defs
     id="defs2987">
    <filter
       id="filter3136"
       inkscape:label="Simple blur"
       inkscape:menu="ABCs"
       inkscape:menu-tooltip="Simple Gaussian blur, same as the blur slider in Fill and Stroke dialog"
       color-interpolation-filters="sRGB">
      <feGaussianBlur
         id="feGaussianBlur3138"
         stdDeviation="2" />
    </filter>
    <mask
       maskUnits="userSpaceOnUse"
       id="mask3158">
      <path
         style="fill:#cbc168;fill-opacity:1;stroke:none;filter:url(#filter3136)"
         d="m 80,64 c 0,0 -16,12 -20,16 -1.333333,1.333333 3.333333,4.666667 2,6 -4,4 -18,14 -18,14 l 4,4 c 0,0 18,-14 22,-18 1.333333,-1.333333 -3.333333,-4.666667 -2,-6 4,-4 16,-12 16,-12 l -4,-4"
         id="path3160"
         inkscape:connector-curvature="0"
         sodipodi:nodetypes="cssccsscc" />
    </mask>
  </defs>
  <sodipodi:namedview
     id="base"
     pagecolor="#ffffff"
     bordercolor="#000000"
     borderopacity="1"
     inkscape:pageopacity="0.0"
     inkscape:pageshadow="2"
     inkscape:zoom="2.828427"
     inkscape:cx="113.44883"
     inkscape:cy="101.56043"
     inkscape:current-layer="layer1"
     showgrid="true"
     inkscape:document-units="px"
     inkscape:grid-bbox="true"
     inkscape:snap-bbox="false"
     inkscape:snap-nodes="true"
     inkscape:snap-grids="false"
     inkscape:window-width="1510"
     inkscape:window-height="1273"
     inkscape:window-x="0"
     inkscape:window-y="0"
     inkscape:window-maximized="0"
     inkscape:showpageshadow="false"
     borderlayer="true"
     inkscape:object-paths="true"
     inkscape:snap-intersection-paths="true">
    <inkscape:grid
       type="xygrid"
       id="grid2993"
       empspacing="4"
       visible="true"
       enabled="true"
       snapvisiblegridlinesonly="true"
       spacingx="16px"
       spacingy="16px"
       empcolor="#d60053"
       empopacity="0.29803922" />
    <inkscape:grid
       type="xygrid"
       id="grid3043"
       empspacing="4"
       visible="true"
       enabled="true"
       snapvisiblegridlinesonly="true"
       color="#ff00f8"
       opacity="0.1254902"
       dotted="true" />
  </sodipodi:namedview>
  <metadata
     id="metadata2990">
    <rdf:RDF>
      <cc:Work
         rdf:about="">
        <dc:format>image/svg+xml</dc:format>
        <dc:type
           rdf:resource="http://purl.org/dc/dcmitype/StillImage" />
        <dc:title>Template</dc:title>
        <cc:license
           rdf:resource="https://www.gnu.org/copyleft/gpl.html" />
        <dc:creator>
          <cc:Agent>
            <dc:title>Ian Walters</dc:title>
          </cc:Agent>
        </dc:creator>
        <dc:source>SimpleRP</dc:source>
      </cc:Work>
    </rdf:RDF>
  </metadata>
  <g
     id="layer1"
     inkscape:label="Layer 1"
     inkscape:groupmode="layer"
     transform="translate(0,64)">
    <rect
       style="fill:#bea84a;fill-opacity:1;stroke:none"
       id="rect3132"
       width="16"
       height="96"
       x="56"
       y="-32" />
    <rect
       transform="matrix(0.50237417,0,0,1,31.810067,-64)"
       y="32"
       x="48"
       height="96"
       width="32"
       id="rect3156"
       style="fill:#e6e379;fill-opacity:1;stroke:none"
       mask="url(#mask3158)" />
    <path
       style="fill:#313131;fill-opacity:1;stroke:none"
       d="m 18,0 c -1.108,0 -2.059805,0.89361516 -2,2 l 0,14 0,14 0,2 2,0 4,0 18,0 0,68 c 0,2.216 1.784,4 4,4 l 8,0 c 2.216,0 4,-1.784 4,-4 l 0,-68 16,0 0,68 c 0,2.216 1.784,4 4,4 l 8,0 c 2.216,0 4,-1.784 4,-4 l 0,-68 18,0 4,0 2,0 0,-2 0,-14 0,-14 c 0,-1.108 -2,-2 -2,-2 l -4,0 c 0,0 -2.01484,0.89209936 -2,2 l 0,14 -80,0 0,-14 C 24,0.892 23.108,0 22,0 z"
       transform="translate(0,-64)"
       id="rect3930"
       inkscape:connector-curvature="0"
       sodipodi:nodetypes="ssccccccssssccssssccccccssssccsss" />
    <rect
       y="-48"
       x="100"
       height="56"
       width="4"
       id="rect4129"
       style="fill:#5e2c22;fill-opacity:1;stroke:none" />
    <rect
       style="fill:#5e2c22;fill-opacity:1;stroke:none"
       id="rect4278"
       width="4"
       height="48"
       x="24"
       y="-48" />
    <rect
       style="fill:#666666;fill-opacity:1;stroke:none"
       id="rect4290"
       width="72"
       height="4"
       x="28"
       y="-48" />
    <g
       id="g4361"
       transform="translate(43.000001,10.000002)">
      <rect
         transform="translate(0,-64)"
         y="46"
         x="-32"
         height="10"
         width="16"
         id="rect4350"
         style="fill:#c6def6;fill-opacity:1;stroke:none" />
      <path
         transform="matrix(1.375,0,0,1.359375,-79,20.625)"
         d="m 48,-28 c 0,2.209139 -3.581722,4 -8,4 -4.418278,0 -8,-1.790861 -8,-4 0,-2.209139 3.581722,-4 8,-4 4.418278,0 8,1.790861 8,4 z"
         sodipodi:ry="4"
         sodipodi:rx="8"
         sodipodi:cy="-28"
         sodipodi:cx="40"
         id="path4314"
         style="fill:#aaccee;fill-opacity:1;stroke:none"
         sodipodi:type="arc" />
      <path
         id="path4322"
         d="m -24.000001,-10.000002 c -5.522847,0 -10,2.238576 -10,5 0,0 -6,8 -6,12 0,8 8,12 16,12 8,0 16,-4 16,-12 0,-4 -6,-12 -6,-12 0,-2.761424 -4.477153,-5 -10,-5 z"
         style="fill:#c6def6;fill-opacity:1;stroke:none"
         inkscape:connector-curvature="0" />
      <path
         transform="matrix(0.94736842,0,0,1.4999997,-0.78947368,-85.999989)"
         d="m -15,45 c 0,1.656854 -4.253295,3 -9.5,3 -5.246705,0 -9.5,-1.343146 -9.5,-3 0,-1.656854 4.253295,-3 9.5,-3 5.246705,0 9.5,1.343146 9.5,3 z"
         sodipodi:ry="3"
         sodipodi:rx="9.5"
         sodipodi:cy="45"
         sodipodi:cx="-24.5"
         id="path4352"
         style="fill:#c6def6;fill-opacity:1;stroke:none"
         sodipodi:type="arc" />
      <path
         transform="matrix(1,0,0,0.78571393,-64,9.464272)"
         d="m 46,-37.5 c 0,1.581545 -2.686292,2.86364 -6,2.86364 -3.313708,0 -6,-1.282095 -6,-2.86364 0,-1.581545 2.686292,-2.86364 6,-2.86364 3.313708,0 6,1.282095 6,2.86364 z"
         sodipodi:ry="2.8636398"
         sodipodi:rx="6"
         sodipodi:cy="-37.5"
         sodipodi:cx="40"
         id="path4308"
         style="fill:#d9bb7a;fill-opacity:1;stroke:none"
         sodipodi:type="arc" />
      <rect
         y="-23"
         x="-30"
         height="3"
         width="12"
         id="rect4310"
         style="fill:#d9bb7a;fill-opacity:1;stroke:none" />
      <path
         transform="matrix(1,0,0,1.6666667,-64,41.229167)"
         d="m 46,-38.5 c 0,0.828427 -2.686292,1.5 -6,1.5 -3.313708,0 -6,-0.671573 -6,-1.5 0,-0.828427 2.686292,-1.5 6,-1.5 3.313708,0 6,0.671573 6,1.5 z"
         sodipodi:ry="1.5"
         sodipodi:rx="6"
         sodipodi:cy="-38.5"
         sodipodi:cx="40"
         id="path4312"
         style="fill:#986601;fill-opacity:1;stroke:none"
         sodipodi:type="arc" />
      <path
         sodipodi:nodetypes="cssscsc"
         inkscape:connector-curvature="0"
         id="path4330"
         d="m -35.781251,0.88281 c -1.324899,1.672553 -2.21875,4.032313 -2.21875,6.117188 0,5.522847 6.268013,10 14,10 7.731987,0 14,-4.477153 14,-10 0,-2.084875 -0.977826,-4.402174 -2.179917,-6.048608 -1.421135,2.100857 -6.323457,4.048608 -11.820083,4.048608 -5.496626,0 -10.360115,-2.016331 -11.78125,-4.117188 z"
         style="fill:#980101;stroke:none" />
      <path
         transform="matrix(1.4598333,0,0,1.6499156,-53.032258,50.769111)"
         d="m 28.107495,-29.861595 c 0,1.171573 -3.680271,2.12132 -8.220116,2.12132 -4.539845,0 -8.220117,-0.949747 -8.220117,-2.12132 0,-1.171573 3.680272,-2.121321 8.220117,-2.121321 4.539845,0 8.220116,0.949748 8.220116,2.121321 z"
         sodipodi:ry="2.1213205"
         sodipodi:rx="8.2201166"
         sodipodi:cy="-29.861595"
         sodipodi:cx="19.887379"
         id="path4337"
         style="fill:#fd3301;fill-opacity:1;stroke:none"
         sodipodi:type="arc" />
    </g>
    <path
       style="fill:#5e2c22;fill-opacity:1;stroke:none"
       d="m 28,64 c -0.0221,4.032932 -18.031233,3.981699 -18.016466,-0.08839 l 0.015321,-4.22278 c 0,0 3.954462,2.280162 8.954367,2.311122 C 24,62.031204 27.000001,60.294543 27.000001,60.294543 27.000001,60.294543 28,63 28,64 z"
       id="path4372"
       inkscape:connector-curvature="0"
       transform="translate(0,-64)"
       sodipodi:nodetypes="cscscc" />
  </g>
</svg>
