<?xml version="1.0" encoding="UTF-8" standalone="no"?>
<!-- Created with Inkscape (http://www.inkscape.org/) -->

<svg
   xmlns:dc="http://purl.org/dc/elements/1.1/"
   xmlns:cc="http://creativecommons.org/ns#"
   xmlns:rdf="http://www.w3.org/1999/02/22-rdf-syntax-ns#"
   xmlns:svg="http://www.w3.org/2000/svg"
   xmlns="http://www.w3.org/2000/svg"
   xmlns:sodipodi="http://sodipodi.sourceforge.net/DTD/sodipodi-0.dtd"
   xmlns:inkscape="http://www.inkscape.org/namespaces/inkscape"
   width="128"
   height="128"
   id="svg2985"
   version="1.1"
   inkscape:version="0.48.2 r9819"
   sodipodi:docname="brick.svg"
   inkscape:export-filename="/Users/ianw/drawing.png"
   inkscape:export-xdpi="180"
   inkscape:export-ydpi="180">
  <title
     id="title3119">Template</title>
  <defs
     id="defs2987" />
  <sodipodi:namedview
     id="base"
     pagecolor="#ffffff"
     bordercolor="#000000"
     borderopacity="1"
     inkscape:pageopacity="0.0"
     inkscape:pageshadow="2"
     inkscape:zoom="3.9999998"
     inkscape:cx="36.364182"
     inkscape:cy="43.185039"
     inkscape:current-layer="layer1"
     showgrid="true"
     inkscape:document-units="px"
     inkscape:grid-bbox="true"
     inkscape:snap-bbox="true"
     inkscape:snap-nodes="false"
     inkscape:snap-grids="true"
     inkscape:window-width="1579"
     inkscape:window-height="1286"
     inkscape:window-x="0"
     inkscape:window-y="0"
     inkscape:window-maximized="0"
     inkscape:showpageshadow="false"
     borderlayer="true">
    <inkscape:grid
       type="xygrid"
       id="grid2993"
       empspacing="4"
       visible="true"
       enabled="true"
       snapvisiblegridlinesonly="true"
       spacingx="16px"
       spacingy="16px"
       empcolor="#d60053"
       empopacity="0.29803922" />
    <inkscape:grid
       type="xygrid"
       id="grid3043"
       empspacing="4"
       visible="true"
       enabled="true"
       snapvisiblegridlinesonly="true"
       color="#ff00f8"
       opacity="0.1254902"
       dotted="true" />
  </sodipodi:namedview>
  <metadata
     id="metadata2990">
    <rdf:RDF>
      <cc:Work
         rdf:about="">
        <dc:format>image/svg+xml</dc:format>
        <dc:type
           rdf:resource="http://purl.org/dc/dcmitype/StillImage" />
        <dc:title>Template</dc:title>
        <cc:license
           rdf:resource="https://www.gnu.org/copyleft/gpl.html" />
        <dc:creator>
          <cc:Agent>
            <dc:title>Ian Walters</dc:title>
          </cc:Agent>
        </dc:creator>
        <dc:source>SimpleRP</dc:source>
      </cc:Work>
    </rdf:RDF>
  </metadata>
  <g
     id="layer1"
     inkscape:label="Layer 1"
     inkscape:groupmode="layer"
     transform="translate(0,64)">
    <rect
       style="fill:#d5c0b8;fill-opacity:1;stroke:none"
       id="rect5548"
       width="128"
       height="128"
       x="0"
       y="0"
       transform="translate(0,-64)" />
    <g
       id="g6079"
       transform="translate(2,2)"
       style="fill:#aa4227;fill-opacity:1">
      <path
         sodipodi:nodetypes="sssssssssssssss"
         inkscape:connector-curvature="0"
         id="rect5550"
         d="m 4,-64 c 0,0 6,0 9.467962,0 1.651241,0 3.079784,2.78585 4.532038,2 0.594224,-0.32155 -1,-2 0.329321,-2 C 26,-64 56,-64 56,-64 c 2.216,0 4,1.784 4,4 l 0,20 c 0,2.216 -1.784,4 -4,4 0,0 -8,0 -12.187498,0 -1.370732,0 -1.44177,-3 -2.812502,-3 -4,0 -1.144898,3 -3,3 -6.312502,0 -34,0 -34,0 -2.216,0 -4,-1.784 -4,-4 l 0,-20 c 0,-2.216 1.784,-4 4,-4 z"
         style="fill:#aa4227;fill-opacity:1;stroke:none" />
      <path
         style="fill:#aa4227;fill-opacity:1;stroke:none"
         d="m 68,-64 c 0,0 6.070437,0 9,0 2.929563,0 0.949418,1 5,1 4.05058,0 0.63694,-1 4,-1 3.36306,0 15.27165,0 16.13864,0 1.65124,0 1.86136,2 2.86136,3 0.47775,0.477751 0.67068,-3 2,-3 7.67068,0 13,0 13,0 2.216,0 4,1.784 4,4 l 0,20 c 0,2.216 -1.784,4 -4,4 0,0 -24,0 -28.1875,0 -1.37073,0 -0.44177,-2 -1.8125,-2 -3,0 -2.1449,2 -4,2 -6.3125,0 -18,0 -18,0 -2.216,0 -4,-1.784 -4,-4 l 0,-20 c 0,-2.216 1.784,-4 4,-4 z"
         id="path5553"
         inkscape:connector-curvature="0"
         sodipodi:nodetypes="ssssssssssssssssss" />
      <path
         sodipodi:nodetypes="ssssssssssssssssss"
         inkscape:connector-curvature="0"
         id="path6063"
         d="m -28,-32 c 0,0 6.070437,0 9,0 2.929563,0 0.949418,1 5,1 4.05058,0 0.63694,-1 4,-1 3.36306,0 15.27165,0 16.13864,0 C 7.78988,-32 8,-30 9,-29 c 0.47775,0.477751 0.67068,-3 2,-3 7.67068,0 13,0 13,0 2.216,0 4,1.784 4,4 l 0,20 c 0,2.216 -1.784,4 -4,4 0,0 -24,0 -28.1875,0 -1.37073,0 -0.44177,-2 -1.8125,-2 -3,0 -2.1449,2 -4,2 -6.3125,0 -18,0 -18,0 -2.216,0 -4,-1.784 -4,-4 l 0,-20 c 0,-2.216 1.784,-4 4,-4 z"
         style="fill:#aa4227;fill-opacity:1;stroke:none" />
      <path
         sodipodi:nodetypes="ssssssssssssssssss"
         inkscape:connector-curvature="0"
         id="path6065"
         d="m 36,-32 c 0,0 6.070437,0 9,0 2.929563,0 0.949418,1 5,1 4.05058,0 0.63694,-1 4,-1 3.36306,0 15.27165,0 16.13864,0 1.65124,0 1.86136,2 2.86136,3 0.47775,0.477751 0.67068,-3 2,-3 7.67068,0 13,0 13,0 2.216,0 4,1.784 4,4 l 0,20 c 0,2.216 -1.784,4 -4,4 0,0 -24,0 -28.1875,0 -1.37073,0 -0.44177,-2 -1.8125,-2 -3,0 -2.1449,2 -4,2 -6.3125,0 -18,0 -18,0 -2.216,0 -4,-1.784 -4,-4 l 0,-20 c 0,-2.216 1.784,-4 4,-4 z"
         style="fill:#c44626;fill-opacity:1;stroke:none" />
      <path
         style="fill:#aa4227;fill-opacity:1;stroke:none"
         d="m 100,-32 c 0,0 6,0 9.46796,0 1.65124,0 3.07979,2.78585 4.53204,2 0.59422,-0.32155 -1,-2 0.32932,-2 C 122,-32 152,-32 152,-32 c 2.216,0 4,1.784 4,4 l 0,20 c 0,2.216 -1.784,4 -4,4 0,0 -8,0 -12.1875,0 -1.37073,0 -1.44177,-3 -2.8125,-3 -4,0 -1.1449,3 -3,3 -6.3125,0 -34,0 -34,0 -2.216,0 -4,-1.784 -4,-4 l 0,-20 c 0,-2.216 1.784,-4 4,-4 z"
         id="path6067"
         inkscape:connector-curvature="0"
         sodipodi:nodetypes="sssssssssssssss" />
      <path
         sodipodi:nodetypes="sssssssssssssss"
         inkscape:connector-curvature="0"
         id="path6069"
         d="M 4,0 C 4,0 10,0 13.46796,0 15.1192,0 16.54775,2.78585 18,2 18.59422,1.67845 17,0 18.32932,0 26,0 56,0 56,0 c 2.216,0 4,1.784 4,4 l 0,20 c 0,2.216 -1.784,4 -4,4 0,0 -8,0 -12.1875,0 C 42.44177,28 42.37073,25 41,25 37,25 39.8551,28 38,28 31.6875,28 4,28 4,28 1.784,28 0,26.216 0,24 L 0,4 C 0,1.784 1.784,0 4,0 z"
         style="fill:#aa4227;fill-opacity:1;stroke:none" />
      <path
         sodipodi:nodetypes="ssssssssssssssssss"
         inkscape:connector-curvature="0"
         id="path6071"
         d="m 68,0 c 0,0 6.070437,0 9,0 2.929563,0 0.949418,1 5,1 4.05058,0 0.63694,-1 4,-1 3.36306,0 15.27165,0 16.13864,0 C 103.78988,0 104,2 105,3 c 0.47775,0.477751 0.67068,-3 2,-3 7.67068,0 13,0 13,0 2.216,0 4,1.784 4,4 l 0,20 c 0,2.216 -1.784,4 -4,4 0,0 -24,0 -28.1875,0 -1.37073,0 -0.44177,-2 -1.8125,-2 -3,0 -2.1449,2 -4,2 -6.3125,0 -18,0 -18,0 -2.216,0 -4,-1.784 -4,-4 L 64,4 c 0,-2.216 1.784,-4 4,-4 z"
         style="fill:#aa4227;fill-opacity:1;stroke:none" />
      <path
         style="fill:#aa4227;fill-opacity:1;stroke:none"
         d="m 36,32 c 0,0 6.070437,0 9,0 2.929563,0 0.949418,1 5,1 4.05058,0 0.63694,-1 4,-1 3.36306,0 15.27165,0 16.13864,0 C 71.78988,32 72,34 73,35 c 0.47775,0.477751 0.67068,-3 2,-3 7.67068,0 13,0 13,0 2.216,0 4,1.784 4,4 l 0,20 c 0,2.216 -1.784,4 -4,4 0,0 -24,0 -28.1875,0 -1.37073,0 -0.44177,-2 -1.8125,-2 -3,0 -2.1449,2 -4,2 -6.3125,0 -18,0 -18,0 -2.216,0 -4,-1.784 -4,-4 l 0,-20 c 0,-2.216 1.784,-4 4,-4 z"
         id="path6073"
         inkscape:connector-curvature="0"
         sodipodi:nodetypes="ssssssssssssssssss" />
      <path
         sodipodi:nodetypes="sssssssssssssss"
         inkscape:connector-curvature="0"
         id="path6075"
         d="m 100,32 c 0,0 6,0 9.46796,0 1.65124,0 3.07979,2.78585 4.53204,2 0.59422,-0.32155 -1,-2 0.32932,-2 C 122,32 152,32 152,32 c 2.216,0 4,1.784 4,4 l 0,20 c 0,2.216 -1.784,4 -4,4 0,0 -8,0 -12.1875,0 -1.37073,0 -1.44177,-3 -2.8125,-3 -4,0 -1.1449,3 -3,3 -6.3125,0 -34,0 -34,0 -2.216,0 -4,-1.784 -4,-4 l 0,-20 c 0,-2.216 1.784,-4 4,-4 z"
         style="fill:#963b23;fill-opacity:1;stroke:none" />
      <path
         sodipodi:nodetypes="ssssssssssssssssss"
         inkscape:connector-curvature="0"
         id="path6077"
         d="m -28,32 c 0,0 6.070437,0 9,0 2.929563,0 0.949418,1 5,1 4.05058,0 0.63694,-1 4,-1 3.36306,0 15.27165,0 16.13864,0 C 7.78988,32 8,34 9,35 c 0.47775,0.477751 0.67068,-3 2,-3 7.67068,0 13,0 13,0 2.216,0 4,1.784 4,4 l 0,20 c 0,2.216 -1.784,4 -4,4 0,0 -24,0 -28.1875,0 -1.37073,0 -0.44177,-2 -1.8125,-2 -3,0 -2.1449,2 -4,2 -6.3125,0 -18,0 -18,0 -2.216,0 -4,-1.784 -4,-4 l 0,-20 c 0,-2.216 1.784,-4 4,-4 z"
         style="fill:#963b23;fill-opacity:1;stroke:none" />
    </g>
  </g>
</svg>
