<?xml version="1.0" encoding="UTF-8" standalone="no"?>
<!-- Created with Inkscape (http://www.inkscape.org/) -->

<svg
   xmlns:dc="http://purl.org/dc/elements/1.1/"
   xmlns:cc="http://creativecommons.org/ns#"
   xmlns:rdf="http://www.w3.org/1999/02/22-rdf-syntax-ns#"
   xmlns:svg="http://www.w3.org/2000/svg"
   xmlns="http://www.w3.org/2000/svg"
   xmlns:sodipodi="http://sodipodi.sourceforge.net/DTD/sodipodi-0.dtd"
   xmlns:inkscape="http://www.inkscape.org/namespaces/inkscape"
   width="128"
   height="128"
   id="svg2985"
   version="1.1"
   inkscape:version="0.48.2 r9819"
   sodipodi:docname="cactus_top.svg"
   inkscape:export-filename="/Users/ianw/drawing.png"
   inkscape:export-xdpi="180"
   inkscape:export-ydpi="180">
  <title
     id="title3119">Template</title>
  <defs
     id="defs2987" />
  <sodipodi:namedview
     id="base"
     pagecolor="#ffffff"
     bordercolor="#000000"
     borderopacity="1"
     inkscape:pageopacity="0.0"
     inkscape:pageshadow="2"
     inkscape:zoom="1.9999999"
     inkscape:cx="81.44198"
     inkscape:cy="-110.68052"
     inkscape:current-layer="layer1"
     showgrid="true"
     inkscape:document-units="px"
     inkscape:grid-bbox="true"
     inkscape:snap-bbox="false"
     inkscape:snap-nodes="true"
     inkscape:snap-grids="true"
     inkscape:window-width="1511"
     inkscape:window-height="1226"
     inkscape:window-x="0"
     inkscape:window-y="0"
     inkscape:window-maximized="0"
     inkscape:showpageshadow="false"
     borderlayer="true">
    <inkscape:grid
       type="xygrid"
       id="grid2993"
       empspacing="4"
       visible="true"
       enabled="true"
       snapvisiblegridlinesonly="true"
       spacingx="16px"
       spacingy="16px"
       empcolor="#d60053"
       empopacity="0.29803922" />
    <inkscape:grid
       type="xygrid"
       id="grid3043"
       empspacing="4"
       visible="true"
       enabled="true"
       snapvisiblegridlinesonly="true"
       color="#ff00f8"
       opacity="0.1254902"
       dotted="true" />
  </sodipodi:namedview>
  <metadata
     id="metadata2990">
    <rdf:RDF>
      <cc:Work
         rdf:about="">
        <dc:format>image/svg+xml</dc:format>
        <dc:type
           rdf:resource="http://purl.org/dc/dcmitype/StillImage" />
        <dc:title>Template</dc:title>
        <cc:license
           rdf:resource="https://www.gnu.org/copyleft/gpl.html" />
        <dc:creator>
          <cc:Agent>
            <dc:title>Ian Walters</dc:title>
          </cc:Agent>
        </dc:creator>
        <dc:source>SimpleRP</dc:source>
      </cc:Work>
    </rdf:RDF>
  </metadata>
  <g
     id="layer1"
     inkscape:label="Layer 1"
     inkscape:groupmode="layer"
     transform="translate(0,64)">
    <rect
       style="fill:#115a1a;fill-opacity:1;stroke:none"
       id="rect3393"
       width="112"
       height="112"
       x="8"
       y="8"
       transform="translate(0,-64)" />
    <rect
       style="fill:#138822;fill-opacity:1;stroke:none"
       id="rect4599"
       width="96"
       height="96"
       x="16"
       y="16"
       transform="translate(0,-64)"
       ry="16" />
    <path
       sodipodi:nodetypes="cssssc"
       inkscape:connector-curvature="0"
       id="path4581"
       d="m 16,0 c 0,0 7.78363,-4 12,-4 2,0 4,1 4,4 0,3 -2.114382,4 -4,4 C 27,4 25.297665,4.306337 24,4 21.098332,3.315009 16,0 16,0 z"
       style="fill:#000000;fill-opacity:1;stroke:none" />
    <path
       style="fill:#000000;fill-opacity:1;stroke:none"
       d="m 112,0 c 0,0 -2.04234,0.55954 -3,1 -1.76583,0.81217 -3.07091,3.23748 -5,3 -1.87149,-0.23039 -4,0 -4,-4 0,-4 2.13873,-3.69796 4,-4 1.47146,-0.238786 2.66667,1.33333 4,2 1.33333,0.66667 4,2 4,2 z"
       id="path4583"
       inkscape:connector-curvature="0"
       sodipodi:nodetypes="csssssc" />
    <path
       style="fill:#000000;fill-opacity:1;stroke:none"
       d="m 64,-48 c 0,0 4.47757,5.057074 4,8 -0.30204,1.86127 0,4 -4,4 -4,0 -3.69796,-2.13873 -4,-4 -0.47757,-2.942926 4,-8 4,-8 z"
       id="path4585"
       inkscape:connector-curvature="0"
       sodipodi:nodetypes="csssc" />
    <path
       style="fill:#000000;fill-opacity:1;stroke:none"
       d="m 64,48 c 0,0 -0.55954,-2.042343 -1,-3 -0.81217,-1.765832 -3.23748,-3.070912 -3,-5 0.23039,-1.87149 0,-4 4,-4 4,0 3.69796,2.13873 4,4 0.238786,1.471463 -1.33333,2.666667 -2,4 -0.66667,1.333333 -2,4 -2,4 z"
       id="path4587"
       inkscape:connector-curvature="0"
       sodipodi:nodetypes="csssssc" />
    <path
       style="fill:#000000;fill-opacity:1;stroke:none"
       d="m 28,36 c 0,0 0.409772,-6.742012 2.828427,-8.485282 1.529692,-1.102542 2.828428,-2.828427 5.656855,0 2.828427,2.828427 1.102542,4.127163 0,5.656855 C 34.742012,35.590228 28,36 28,36 z"
       id="path4589"
       inkscape:connector-curvature="0"
       sodipodi:nodetypes="csssc" />
    <path
       sodipodi:nodetypes="cssssc"
       inkscape:connector-curvature="0"
       id="path4591"
       d="m 100,-36 c 0,0 -0.409771,6.742011 -2.828427,8.485281 -1.529691,1.102542 -2.828427,2.828427 -5.656854,0 -2.828427,-2.828427 -1.038018,-4.082665 0,-5.656854 0.988165,-1.498583 3.23547,-1.588887 4.949747,-2.12132 C 97.612231,-35.649377 100,-36 100,-36 z"
       style="fill:#000000;fill-opacity:1;stroke:none" />
    <path
       sodipodi:nodetypes="cssssc"
       inkscape:connector-curvature="0"
       id="path4593"
       d="m 101.62422,37.735649 c 0,0 -3.142937,-2.61546 -4.949751,-3.535534 -1.992593,-1.014678 -5.05651,-0.307326 -6.363961,-2.12132 -1.102542,-1.529691 -2.828427,-2.828427 0,-5.656854 2.828427,-2.828427 4.052846,-0.991329 5.656854,0 3.586656,2.216679 5.656858,11.313708 5.656858,11.313708 z"
       style="fill:#000000;fill-opacity:1;stroke:none" />
    <path
       style="fill:#000000;fill-opacity:1;stroke:none"
       d="m 23.050249,-39.535534 c 0,0 3.142937,2.61546 4.949751,3.535534 1.992593,1.014678 5.05651,0.307326 6.363961,2.12132 1.102542,1.529691 2.828427,2.828427 0,5.656854 -2.828427,2.828427 -4.052846,0.991329 -5.656854,0 -3.586656,-2.216679 -5.656858,-11.313708 -5.656858,-11.313708 z"
       id="path4595"
       inkscape:connector-curvature="0"
       sodipodi:nodetypes="cssssc" />
    <rect
       style="fill:#115a1a;fill-opacity:1;stroke:none"
       id="rect4601"
       width="48"
       height="48"
       x="40"
       y="-24"
       ry="16" />
    <path
       sodipodi:type="arc"
       style="fill:#138822;fill-opacity:1;stroke:none"
       id="path4603"
       sodipodi:cx="64"
       sodipodi:cy="66"
       sodipodi:rx="8"
       sodipodi:ry="10"
       d="m 72,66 c 0,5.522847 -3.581722,10 -8,10 -4.418278,0 -8,-4.477153 -8,-10 0,-5.522847 3.581722,-10 8,-10 4.418278,0 8,4.477153 8,10 z"
       transform="matrix(1.5,0,0,1.2,-32,-79.2)" />
    <path
       transform="translate(-4,-180)"
       d="m 72,180 c 0,2.20914 -1.790861,4 -4,4 -2.209139,0 -4,-1.79086 -4,-4 0,-2.20914 1.790861,-4 4,-4 2.209139,0 4,1.79086 4,4 z"
       sodipodi:ry="4"
       sodipodi:rx="4"
       sodipodi:cy="180"
       sodipodi:cx="68"
       id="path4597"
       style="fill:#000000;fill-opacity:1;stroke:none"
       sodipodi:type="arc" />
  </g>
</svg>
