<?xml version="1.0" encoding="UTF-8" standalone="no"?>
<!-- Created with Inkscape (http://www.inkscape.org/) -->

<svg
   xmlns:dc="http://purl.org/dc/elements/1.1/"
   xmlns:cc="http://creativecommons.org/ns#"
   xmlns:rdf="http://www.w3.org/1999/02/22-rdf-syntax-ns#"
   xmlns:svg="http://www.w3.org/2000/svg"
   xmlns="http://www.w3.org/2000/svg"
   xmlns:sodipodi="http://sodipodi.sourceforge.net/DTD/sodipodi-0.dtd"
   xmlns:inkscape="http://www.inkscape.org/namespaces/inkscape"
   width="128"
   height="128"
   id="svg2985"
   version="1.1"
   inkscape:version="0.48.2 r9819"
   sodipodi:docname="cactus_side.svg"
   inkscape:export-filename="/Users/ianw/drawing.png"
   inkscape:export-xdpi="180"
   inkscape:export-ydpi="180">
  <title
     id="title3119">Template</title>
  <defs
     id="defs2987">
    <linearGradient
       id="linearGradient4209">
      <stop
         style="stop-color:#0b3d11;stop-opacity:1;"
         offset="0"
         id="stop4211" />
      <stop
         id="stop4223"
         offset="0.42857143"
         style="stop-color:#117d1f;stop-opacity:1;" />
      <stop
         id="stop4221"
         offset="0.5"
         style="stop-color:#0b3d11;stop-opacity:1;" />
      <stop
         id="stop4219"
         offset="0.5714286"
         style="stop-color:#117d1f;stop-opacity:1;" />
      <stop
         style="stop-color:#0b3d11;stop-opacity:1;"
         offset="1"
         id="stop4213" />
    </linearGradient>
    <linearGradient
       id="linearGradient4011">
      <stop
         id="stop4013"
         offset="0"
         style="stop-color:#816647;stop-opacity:1" />
      <stop
         id="stop4015"
         offset="1"
         style="stop-color:#000000;stop-opacity:0" />
    </linearGradient>
  </defs>
  <sodipodi:namedview
     id="base"
     pagecolor="#ffffff"
     bordercolor="#000000"
     borderopacity="1"
     inkscape:pageopacity="0.0"
     inkscape:pageshadow="2"
     inkscape:zoom="3.9999998"
     inkscape:cx="-18.790874"
     inkscape:cy="17.241624"
     inkscape:current-layer="layer1"
     showgrid="true"
     inkscape:document-units="px"
     inkscape:grid-bbox="true"
     inkscape:snap-bbox="false"
     inkscape:snap-nodes="true"
     inkscape:snap-grids="true"
     inkscape:window-width="1511"
     inkscape:window-height="1226"
     inkscape:window-x="0"
     inkscape:window-y="0"
     inkscape:window-maximized="0"
     inkscape:showpageshadow="false"
     borderlayer="true">
    <inkscape:grid
       type="xygrid"
       id="grid2993"
       empspacing="4"
       visible="true"
       enabled="true"
       snapvisiblegridlinesonly="true"
       spacingx="16px"
       spacingy="16px"
       empcolor="#d60053"
       empopacity="0.29803922" />
    <inkscape:grid
       type="xygrid"
       id="grid3043"
       empspacing="4"
       visible="true"
       enabled="true"
       snapvisiblegridlinesonly="true"
       color="#ff00f8"
       opacity="0.1254902"
       dotted="true" />
  </sodipodi:namedview>
  <metadata
     id="metadata2990">
    <rdf:RDF>
      <cc:Work
         rdf:about="">
        <dc:format>image/svg+xml</dc:format>
        <dc:type
           rdf:resource="http://purl.org/dc/dcmitype/StillImage" />
        <dc:title>Template</dc:title>
        <cc:license
           rdf:resource="https://www.gnu.org/copyleft/gpl.html" />
        <dc:creator>
          <cc:Agent>
            <dc:title>Ian Walters</dc:title>
          </cc:Agent>
        </dc:creator>
        <dc:source>SimpleRP</dc:source>
      </cc:Work>
    </rdf:RDF>
  </metadata>
  <g
     id="layer1"
     inkscape:label="Layer 1"
     inkscape:groupmode="layer"
     transform="translate(0,64)">
    <rect
       style="fill:#138822;fill-opacity:1;stroke:none"
       id="rect3395"
       width="112"
       height="128"
       x="8"
       y="-64" />
    <g
       id="g4413"
       transform="translate(0,-144)">
      <rect
         y="80"
         x="20"
         height="128"
         width="8"
         id="rect4401"
         style="fill:#115a1a;fill-opacity:1;stroke:none" />
      <rect
         style="fill:#115a1a;fill-opacity:1;stroke:none"
         id="rect4403"
         width="8"
         height="128"
         x="100"
         y="80" />
      <rect
         y="80"
         x="76"
         height="128"
         width="8"
         id="rect4405"
         style="fill:#115a1a;fill-opacity:1;stroke:none" />
      <rect
         style="fill:#115a1a;fill-opacity:1;stroke:none"
         id="rect4407"
         width="8"
         height="128"
         x="44"
         y="80" />
      <rect
         style="fill:#115a1a;fill-opacity:1;stroke:none"
         id="rect4409"
         width="4"
         height="128"
         x="8"
         y="80" />
      <rect
         y="80"
         x="116"
         height="128"
         width="4"
         id="rect4411"
         style="fill:#115a1a;fill-opacity:1;stroke:none" />
    </g>
    <path
       style="fill:#000000;fill-opacity:1;stroke:none"
       d="m 0,16 c 0,0 4.0717994,-0.37298 6,-1 2.126462,-0.69149 3.792805,-3.35818 6,-3 1.86127,0.30204 4,0 4,4 0,4 -2.164824,3.56677 -4,4 C 7.896422,20.96872 0,16 0,16 z"
       id="path3397"
       inkscape:connector-curvature="0"
       sodipodi:nodetypes="cssssc" />
    <path
       inkscape:connector-curvature="0"
       id="path3399"
       d="m 0,-20 c 0,0 4.0749996,-1.35833 6.1125,-2.0375 C 8.075,-22.69167 9.986682,-24.47528 12,-24 c 1.835176,0.43323 4,0 4,4 0,4 -2.164824,3.56677 -4,4 -4.103578,0.96872 -12,-4 -12,-4 z"
       style="fill:#000000;fill-opacity:1;stroke:none"
       sodipodi:nodetypes="cssssc" />
    <path
       style="fill:#000000;fill-opacity:1;stroke:none"
       d="m 0,-52 c 0,0 7.78363,-4 12,-4 2,0 4,1 4,4 0,3 -2.114382,4 -4,4 -1,0 -2.702335,0.306337 -4,0 -2.9016679,-0.684991 -8,-4 -8,-4 z"
       id="path3401"
       inkscape:connector-curvature="0"
       sodipodi:nodetypes="cssssc" />
    <path
       inkscape:connector-curvature="0"
       id="path3411"
       d="m 0,44 c 0,0 7.896422,-4.96872 12,-4 1.835176,0.43323 4,0 4,4 0,4 -2.12851,3.76961 -4,4 C 10.070912,48.23748 8.831634,45.6503 7,45 4.7788179,44.21139 0,44 0,44 z"
       style="fill:#000000;fill-opacity:1;stroke:none"
       sodipodi:nodetypes="cssssc" />
    <path
       style="fill:#000000;fill-opacity:1;stroke:none"
       d="m 28,-32 c 0,0 5.057074,-4.47757 8,-4 1.86127,0.30204 4,0 4,4 0,4 -2.119126,3.86633 -4,4 -1.662474,0.11815 -2.495104,-2.28371 -4,-3 -1.240969,-0.59066 -4,-1 -4,-1 z"
       id="path3413"
       inkscape:connector-curvature="0"
       sodipodi:nodetypes="cssssc" />
    <path
       sodipodi:nodetypes="csssc"
       inkscape:connector-curvature="0"
       id="path3415"
       d="m 28,0 c 0,0 5.057074,-4.47757 8,-4 1.86127,0.30204 4,0 4,4 0,4 -2.13873,3.69796 -4,4 -2.942926,0.47757 -8,-4 -8,-4 z"
       style="fill:#000000;fill-opacity:1;stroke:none" />
    <path
       style="fill:#000000;fill-opacity:1;stroke:none"
       d="m 28,32 c 0,0 3.234168,-2.18783 5,-3 0.957657,-0.44046 1.974105,-1.24218 3,-1 1.835176,0.43323 4,0 4,4 0,4 -2.13873,3.69796 -4,4 -2.942926,0.47757 -8,-4 -8,-4 z"
       id="path3417"
       inkscape:connector-curvature="0"
       sodipodi:nodetypes="cssssc" />
    <path
       style="fill:#000000;fill-opacity:1;stroke:none"
       d="m 28,-64 c 0,0 3.501441,-0.197996 5,-1 1.246876,-0.667308 1.585786,-3 3,-3 1.885618,0 4,0 4,4 0,4 -2.13873,3.697957 -4,4 -2.942926,0.477571 -8,-4 -8,-4 z"
       id="path3421"
       inkscape:connector-curvature="0"
       sodipodi:nodetypes="cssssc" />
    <path
       style="fill:#000000;fill-opacity:1;stroke:none"
       d="m 100,-8 c 0,0 -5.057074,4.47757 -8,4 -1.86127,-0.30204 -4,0 -4,-4 0,-4 2.152891,-3.62087 4,-4 1.758396,-0.36092 3.411336,1.16431 5,2 1.06366,0.55952 3,2 3,2 z"
       id="path3423"
       inkscape:connector-curvature="0"
       sodipodi:nodetypes="cssssc" />
    <path
       sodipodi:nodetypes="csssssc"
       inkscape:connector-curvature="0"
       id="path3425"
       d="m 100,24 c 0,0 -3.23417,2.18783 -5,3 -0.957657,0.44046 -1.974105,1.24218 -3,1 -1.835176,-0.43323 -4,0 -4,-4 0,-3 2.164824,-3.56677 4,-4 1.025895,-0.24218 2.042343,0.55954 3,1 1.76583,0.81217 5,3 5,3 z"
       style="fill:#000000;fill-opacity:1;stroke:none" />
    <path
       style="fill:#000000;fill-opacity:1;stroke:none"
       d="m 100,60 c 0,0 -5.057074,4.47757 -8,4 -1.86127,-0.30204 -4,0 -4,-4 0,-4 2.13873,-3.69796 4,-4 2.942926,-0.47757 8,4 8,4 z"
       id="path3427"
       inkscape:connector-curvature="0"
       sodipodi:nodetypes="csssc" />
    <path
       sodipodi:nodetypes="csssssc"
       inkscape:connector-curvature="0"
       id="path3429"
       d="m 100,-40 c 0,0 -2.04234,0.55954 -3,1 -1.765832,0.81217 -3.070912,3.23748 -5,3 -1.87149,-0.23039 -4,0 -4,-4 0,-4 2.13873,-3.69796 4,-4 1.471463,-0.238786 2.666667,1.33333 4,2 1.33333,0.66667 4,2 4,2 z"
       style="fill:#000000;fill-opacity:1;stroke:none" />
    <path
       sodipodi:type="arc"
       style="fill:#000000;fill-opacity:1;stroke:none"
       id="path3433"
       sodipodi:cx="68"
       sodipodi:cy="180"
       sodipodi:rx="4"
       sodipodi:ry="4"
       d="m 72,180 a 4,4 0 1 1 -8,0 4,4 0 1 1 8,0 z"
       transform="translate(-4,-228)" />
    <path
       transform="translate(-4,-204)"
       d="m 72,180 a 4,4 0 1 1 -8,0 4,4 0 1 1 8,0 z"
       sodipodi:ry="4"
       sodipodi:rx="4"
       sodipodi:cy="180"
       sodipodi:cx="68"
       id="path3435"
       style="fill:#000000;fill-opacity:1;stroke:none"
       sodipodi:type="arc" />
    <path
       sodipodi:type="arc"
       style="fill:#000000;fill-opacity:1;stroke:none"
       id="path3437"
       sodipodi:cx="68"
       sodipodi:cy="180"
       sodipodi:rx="4"
       sodipodi:ry="4"
       d="m 72,180 a 4,4 0 1 1 -8,0 4,4 0 1 1 8,0 z"
       transform="translate(-4,-168)" />
    <path
       transform="translate(-4,-136)"
       d="m 72,180 a 4,4 0 1 1 -8,0 4,4 0 1 1 8,0 z"
       sodipodi:ry="4"
       sodipodi:rx="4"
       sodipodi:cy="180"
       sodipodi:cx="68"
       id="path3439"
       style="fill:#000000;fill-opacity:1;stroke:none"
       sodipodi:type="arc" />
    <path
       sodipodi:nodetypes="cssssc"
       inkscape:connector-curvature="0"
       id="path4579"
       d="m 28,64 c 0,0 3.501441,-0.198 5,-1 1.246876,-0.66731 1.585786,-3 3,-3 1.885618,0 4,0 4,4 0,4 -2.13873,3.69796 -4,4 -2.942926,0.47757 -8,-4 -8,-4 z"
       style="fill:#000000;fill-opacity:1;stroke:none" />
    <path
       sodipodi:nodetypes="cssssc"
       inkscape:connector-curvature="0"
       id="path4958"
       d="m 128,16 c 0,0 -4.0718,-0.37298 -6,-1 -2.12646,-0.69149 -3.7928,-3.35818 -6,-3 -1.86127,0.30204 -4,0 -4,4 0,4 2.16482,3.56677 4,4 4.10358,0.96872 12,-4 12,-4 z"
       style="fill:#000000;fill-opacity:1;stroke:none" />
    <path
       sodipodi:nodetypes="cssssc"
       style="fill:#000000;fill-opacity:1;stroke:none"
       d="m 128,-20 c 0,0 -4.075,-1.35833 -6.1125,-2.0375 C 119.925,-22.69167 118.01332,-24.47528 116,-24 c -1.83518,0.43323 -4,0 -4,4 0,4 2.16482,3.56677 4,4 4.10358,0.96872 12,-4 12,-4 z"
       id="path4960"
       inkscape:connector-curvature="0" />
    <path
       sodipodi:nodetypes="cssssc"
       inkscape:connector-curvature="0"
       id="path4962"
       d="m 128,-52 c 0,0 -7.78363,-4 -12,-4 -2,0 -4,1 -4,4 0,3 2.11438,4 4,4 1,0 2.70234,0.306337 4,0 2.90167,-0.684991 8,-4 8,-4 z"
       style="fill:#000000;fill-opacity:1;stroke:none" />
    <path
       sodipodi:nodetypes="cssssc"
       style="fill:#000000;fill-opacity:1;stroke:none"
       d="m 128,44 c 0,0 -7.89642,-4.96872 -12,-4 -1.83518,0.43323 -4,0 -4,4 0,4 2.12851,3.76961 4,4 1.92909,0.23748 3.16837,-2.3497 5,-3 2.22118,-0.78861 7,-1 7,-1 z"
       id="path4964"
       inkscape:connector-curvature="0" />
  </g>
</svg>
