<?xml version="1.0" encoding="UTF-8" standalone="no"?>
<!-- Created with Inkscape (http://www.inkscape.org/) -->

<svg
   xmlns:dc="http://purl.org/dc/elements/1.1/"
   xmlns:cc="http://creativecommons.org/ns#"
   xmlns:rdf="http://www.w3.org/1999/02/22-rdf-syntax-ns#"
   xmlns:svg="http://www.w3.org/2000/svg"
   xmlns="http://www.w3.org/2000/svg"
   xmlns:xlink="http://www.w3.org/1999/xlink"
   xmlns:sodipodi="http://sodipodi.sourceforge.net/DTD/sodipodi-0.dtd"
   xmlns:inkscape="http://www.inkscape.org/namespaces/inkscape"
   width="128"
   height="128"
   id="svg2985"
   version="1.1"
   inkscape:version="0.48.2 r9819"
   sodipodi:docname="carrots_stage_2.svg"
   inkscape:export-filename="/Users/ianw/drawing.png"
   inkscape:export-xdpi="180"
   inkscape:export-ydpi="180">
  <title
     id="title3119">Template</title>
  <defs
     id="defs2987" />
  <sodipodi:namedview
     id="base"
     pagecolor="#ffffff"
     bordercolor="#000000"
     borderopacity="1"
     inkscape:pageopacity="0.0"
     inkscape:pageshadow="2"
     inkscape:zoom="7.9999996"
     inkscape:cx="112.81249"
     inkscape:cy="21.267557"
     inkscape:current-layer="layer1"
     showgrid="true"
     inkscape:document-units="px"
     inkscape:grid-bbox="true"
     inkscape:snap-bbox="false"
     inkscape:snap-nodes="true"
     inkscape:snap-grids="true"
     inkscape:window-width="2560"
     inkscape:window-height="1305"
     inkscape:window-x="57"
     inkscape:window-y="68"
     inkscape:window-maximized="0"
     inkscape:showpageshadow="false"
     borderlayer="true">
    <inkscape:grid
       type="xygrid"
       id="grid2993"
       empspacing="4"
       visible="true"
       enabled="true"
       snapvisiblegridlinesonly="true"
       spacingx="16px"
       spacingy="16px"
       empcolor="#d60053"
       empopacity="0.29803922" />
    <inkscape:grid
       type="xygrid"
       id="grid3043"
       empspacing="4"
       visible="true"
       enabled="true"
       snapvisiblegridlinesonly="true"
       color="#ff00f8"
       opacity="0.1254902"
       dotted="true" />
  </sodipodi:namedview>
  <metadata
     id="metadata2990">
    <rdf:RDF>
      <cc:Work
         rdf:about="">
        <dc:format>image/svg+xml</dc:format>
        <dc:type
           rdf:resource="http://purl.org/dc/dcmitype/StillImage" />
        <dc:title>Template</dc:title>
        <cc:license
           rdf:resource="https://www.gnu.org/copyleft/gpl.html" />
        <dc:creator>
          <cc:Agent>
            <dc:title>Ian Walters</dc:title>
          </cc:Agent>
        </dc:creator>
        <dc:source>SimpleRP</dc:source>
      </cc:Work>
    </rdf:RDF>
  </metadata>
  <g
     id="layer1"
     inkscape:label="Layer 1"
     inkscape:groupmode="layer"
     transform="translate(0,64)">
    <use
       x="0"
       y="0"
       xlink:href="#path3478"
       id="use3480"
       transform="translate(32,5)"
       width="128"
       height="128" />
    <use
       x="0"
       y="0"
       xlink:href="#use3480"
       id="use3482"
       transform="translate(32,-5)"
       width="128"
       height="128" />
    <path
       sodipodi:nodetypes="ccsccccccccccccccsc"
       inkscape:connector-curvature="0"
       id="path3478"
       d="m 24,64 16,0 c 0,0 0,-15.666663 0,-21 0,-9 8,-14 8,-14 l -3,-5 c 0,0 -6,3 -7,4 C 38,9 48,-9 48,-9 L 44.250001,-10.875 35,3 l 1,-16 -4,0 -3,16 -9,-16 -4,4 c 0,0 8,19 9,37 l -10,-7 -2,5 c 0,0 11,8 11,17 0,5.333337 0,21 0,21 z"
       style="fill:#00c617;fill-opacity:1;stroke:#007c00;stroke-width:2;stroke-linecap:butt;stroke-linejoin:miter;stroke-miterlimit:4;stroke-opacity:1;stroke-dasharray:none" />
    <path
       sodipodi:nodetypes="cssscc"
       inkscape:connector-curvature="0"
       id="use4254"
       d="m 16,80 c 0,0 -0.700975,-10.865799 0,-12 3.134855,-5.072301 10.037152,-8 16,-8 5.962848,0 12.865145,2.927699 16,8 0.700975,1.134201 0,12 0,12 z"
       style="fill:#f0a513;stroke:#c06b25;stroke-width:2;stroke-linecap:butt;stroke-linejoin:miter;stroke-miterlimit:4;stroke-opacity:1;stroke-dasharray:none" />
    <path
       sodipodi:nodetypes="cssscc"
       inkscape:connector-curvature="0"
       id="use4256"
       d="m 80,80 c 0,0 -0.700975,-10.865799 0,-12 3.134855,-5.072301 10.037152,-8 16,-8 5.96285,0 12.86514,2.927699 16,8 0.70098,1.134201 0,12 0,12 z"
       style="fill:#f0a513;stroke:#c06b25;stroke-width:2;stroke-linecap:butt;stroke-linejoin:miter;stroke-miterlimit:4;stroke-opacity:1;stroke-dasharray:none" />
    <image
       y="64"
       x="0"
       id="image6223"
       xlink:href="file:///Users/ianw/play/SimpleRP/build/64/assets/minecraft/textures/blocks/carrots_stage_0.png"
       height="64"
       width="64" />
    <image
       y="64"
       x="64"
       id="image6317"
       xlink:href="file:///Users/ianw/play/SimpleRP/build/64/assets/minecraft/textures/blocks/carrots_stage_1.png"
       height="64"
       width="64" />
    <image
       y="64"
       x="128"
       id="image6411"
       xlink:href="file:///Users/ianw/play/SimpleRP/build/64/assets/minecraft/textures/blocks/carrots_stage_2.png"
       height="64"
       width="64" />
    <image
       y="64"
       x="192"
       id="image6489"
       xlink:href="file:///Users/ianw/play/SimpleRP/build/64/assets/minecraft/textures/blocks/carrots_stage_3.png"
       height="64"
       width="64" />
  </g>
</svg>
