<?xml version="1.0" encoding="UTF-8" standalone="no"?>
<!-- Created with Inkscape (http://www.inkscape.org/) -->

<svg
   xmlns:dc="http://purl.org/dc/elements/1.1/"
   xmlns:cc="http://creativecommons.org/ns#"
   xmlns:rdf="http://www.w3.org/1999/02/22-rdf-syntax-ns#"
   xmlns:svg="http://www.w3.org/2000/svg"
   xmlns="http://www.w3.org/2000/svg"
   xmlns:xlink="http://www.w3.org/1999/xlink"
   xmlns:sodipodi="http://sodipodi.sourceforge.net/DTD/sodipodi-0.dtd"
   xmlns:inkscape="http://www.inkscape.org/namespaces/inkscape"
   width="128"
   height="128"
   id="svg2985"
   version="1.1"
   inkscape:version="0.48.2 r9819"
   sodipodi:docname="cobblestone.svg"
   inkscape:export-filename="/Users/ianw/drawing.png"
   inkscape:export-xdpi="180"
   inkscape:export-ydpi="180">
  <title
     id="title3119">Template</title>
  <defs
     id="defs2987">
    <linearGradient
       id="linearGradient4002">
      <stop
         id="stop4004"
         offset="0"
         style="stop-color:#ababab;stop-opacity:0.54237288;" />
      <stop
         style="stop-color:#ababab;stop-opacity:0;"
         offset="0.83333331"
         id="stop4006" />
      <stop
         id="stop4008"
         offset="1"
         style="stop-color:#676767;stop-opacity:1;" />
    </linearGradient>
    <linearGradient
       id="linearGradient3982">
      <stop
         style="stop-color:#afacac;stop-opacity:1;"
         offset="0"
         id="stop3992" />
      <stop
         id="stop3994"
         offset="0.83333331"
         style="stop-color:#ababab;stop-opacity:1;" />
      <stop
         style="stop-color:#ffffff;stop-opacity:1;"
         offset="1"
         id="stop3986" />
    </linearGradient>
    <radialGradient
       inkscape:collect="always"
       xlink:href="#linearGradient3982"
       id="radialGradient4450"
       gradientUnits="userSpaceOnUse"
       gradientTransform="matrix(-2.3095275e-7,-1.6666665,2.3333334,-3.2333388e-7,-297.33335,-10.666627)"
       cx="-64"
       cy="100"
       fx="-64"
       fy="100"
       r="12" />
    <radialGradient
       inkscape:collect="always"
       xlink:href="#linearGradient4002"
       id="radialGradient4452"
       gradientUnits="userSpaceOnUse"
       gradientTransform="matrix(-2.3095275e-7,-1.6666665,2.3333334,-3.2333388e-7,-297.33335,-10.666627)"
       cx="-64"
       cy="100"
       fx="-64"
       fy="100"
       r="12" />
    <radialGradient
       inkscape:collect="always"
       xlink:href="#linearGradient3982"
       id="radialGradient4835"
       gradientUnits="userSpaceOnUse"
       gradientTransform="matrix(-2.3095275e-7,-1.6666665,2.3333334,-3.2333388e-7,-297.33335,-10.666627)"
       cx="-64"
       cy="100"
       fx="-64"
       fy="100"
       r="12" />
    <radialGradient
       inkscape:collect="always"
       xlink:href="#linearGradient4002"
       id="radialGradient4837"
       gradientUnits="userSpaceOnUse"
       gradientTransform="matrix(-2.3095275e-7,-1.6666665,2.3333334,-3.2333388e-7,-297.33335,-10.666627)"
       cx="-64"
       cy="100"
       fx="-64"
       fy="100"
       r="12" />
    <radialGradient
       inkscape:collect="always"
       xlink:href="#linearGradient3982"
       id="radialGradient4845"
       gradientUnits="userSpaceOnUse"
       gradientTransform="matrix(-2.3095275e-7,-1.6666665,2.3333334,-3.2333388e-7,-297.33335,-10.666627)"
       cx="-64"
       cy="100"
       fx="-64"
       fy="100"
       r="12" />
    <radialGradient
       inkscape:collect="always"
       xlink:href="#linearGradient4002"
       id="radialGradient4847"
       gradientUnits="userSpaceOnUse"
       gradientTransform="matrix(-2.3095275e-7,-1.6666665,2.3333334,-3.2333388e-7,-297.33335,-10.666627)"
       cx="-64"
       cy="100"
       fx="-64"
       fy="100"
       r="12" />
    <radialGradient
       inkscape:collect="always"
       xlink:href="#linearGradient3982"
       id="radialGradient4855"
       gradientUnits="userSpaceOnUse"
       gradientTransform="matrix(-2.3095275e-7,-1.6666665,2.3333334,-3.2333388e-7,-297.33335,-10.666627)"
       cx="-64"
       cy="100"
       fx="-64"
       fy="100"
       r="12" />
    <radialGradient
       inkscape:collect="always"
       xlink:href="#linearGradient4002"
       id="radialGradient4857"
       gradientUnits="userSpaceOnUse"
       gradientTransform="matrix(-2.3095275e-7,-1.6666665,2.3333334,-3.2333388e-7,-297.33335,-10.666627)"
       cx="-64"
       cy="100"
       fx="-64"
       fy="100"
       r="12" />
    <radialGradient
       inkscape:collect="always"
       xlink:href="#linearGradient3982"
       id="radialGradient4865"
       gradientUnits="userSpaceOnUse"
       gradientTransform="matrix(-2.3095275e-7,-1.6666665,2.3333334,-3.2333388e-7,-297.33335,-10.666627)"
       cx="-64"
       cy="100"
       fx="-64"
       fy="100"
       r="12" />
    <radialGradient
       inkscape:collect="always"
       xlink:href="#linearGradient4002"
       id="radialGradient4867"
       gradientUnits="userSpaceOnUse"
       gradientTransform="matrix(-2.3095275e-7,-1.6666665,2.3333334,-3.2333388e-7,-297.33335,-10.666627)"
       cx="-64"
       cy="100"
       fx="-64"
       fy="100"
       r="12" />
    <radialGradient
       inkscape:collect="always"
       xlink:href="#linearGradient3982"
       id="radialGradient4875"
       gradientUnits="userSpaceOnUse"
       gradientTransform="matrix(-2.3095275e-7,-1.6666665,2.3333334,-3.2333388e-7,-297.33335,-10.666627)"
       cx="-64"
       cy="100"
       fx="-64"
       fy="100"
       r="12" />
    <radialGradient
       inkscape:collect="always"
       xlink:href="#linearGradient4002"
       id="radialGradient4877"
       gradientUnits="userSpaceOnUse"
       gradientTransform="matrix(-2.3095275e-7,-1.6666665,2.3333334,-3.2333388e-7,-297.33335,-10.666627)"
       cx="-64"
       cy="100"
       fx="-64"
       fy="100"
       r="12" />
    <radialGradient
       inkscape:collect="always"
       xlink:href="#linearGradient3982"
       id="radialGradient4885"
       gradientUnits="userSpaceOnUse"
       gradientTransform="matrix(-2.3095275e-7,-1.6666665,2.3333334,-3.2333388e-7,-297.33335,-10.666627)"
       cx="-64"
       cy="100"
       fx="-64"
       fy="100"
       r="12" />
    <radialGradient
       inkscape:collect="always"
       xlink:href="#linearGradient4002"
       id="radialGradient4887"
       gradientUnits="userSpaceOnUse"
       gradientTransform="matrix(-2.3095275e-7,-1.6666665,2.3333334,-3.2333388e-7,-297.33335,-10.666627)"
       cx="-64"
       cy="100"
       fx="-64"
       fy="100"
       r="12" />
    <radialGradient
       inkscape:collect="always"
       xlink:href="#linearGradient3982"
       id="radialGradient4895"
       gradientUnits="userSpaceOnUse"
       gradientTransform="matrix(-2.3095275e-7,-1.6666665,2.3333334,-3.2333388e-7,-297.33335,-10.666627)"
       cx="-64"
       cy="100"
       fx="-64"
       fy="100"
       r="12" />
    <radialGradient
       inkscape:collect="always"
       xlink:href="#linearGradient4002"
       id="radialGradient4897"
       gradientUnits="userSpaceOnUse"
       gradientTransform="matrix(-2.3095275e-7,-1.6666665,2.3333334,-3.2333388e-7,-297.33335,-10.666627)"
       cx="-64"
       cy="100"
       fx="-64"
       fy="100"
       r="12" />
    <radialGradient
       inkscape:collect="always"
       xlink:href="#linearGradient3982"
       id="radialGradient4905"
       gradientUnits="userSpaceOnUse"
       gradientTransform="matrix(-2.3095275e-7,-1.6666665,2.3333334,-3.2333388e-7,-297.33335,-10.666627)"
       cx="-64"
       cy="100"
       fx="-64"
       fy="100"
       r="12" />
    <radialGradient
       inkscape:collect="always"
       xlink:href="#linearGradient4002"
       id="radialGradient4907"
       gradientUnits="userSpaceOnUse"
       gradientTransform="matrix(-2.3095275e-7,-1.6666665,2.3333334,-3.2333388e-7,-297.33335,-10.666627)"
       cx="-64"
       cy="100"
       fx="-64"
       fy="100"
       r="12" />
    <radialGradient
       inkscape:collect="always"
       xlink:href="#linearGradient3982"
       id="radialGradient4915"
       gradientUnits="userSpaceOnUse"
       gradientTransform="matrix(-2.3095275e-7,-1.6666665,2.3333334,-3.2333388e-7,-297.33335,-10.666627)"
       cx="-64"
       cy="100"
       fx="-64"
       fy="100"
       r="12" />
    <radialGradient
       inkscape:collect="always"
       xlink:href="#linearGradient4002"
       id="radialGradient4917"
       gradientUnits="userSpaceOnUse"
       gradientTransform="matrix(-2.3095275e-7,-1.6666665,2.3333334,-3.2333388e-7,-297.33335,-10.666627)"
       cx="-64"
       cy="100"
       fx="-64"
       fy="100"
       r="12" />
    <radialGradient
       inkscape:collect="always"
       xlink:href="#linearGradient3982"
       id="radialGradient4925"
       gradientUnits="userSpaceOnUse"
       gradientTransform="matrix(-2.3095275e-7,-1.6666665,2.3333334,-3.2333388e-7,-297.33335,-10.666627)"
       cx="-64"
       cy="100"
       fx="-64"
       fy="100"
       r="12" />
    <radialGradient
       inkscape:collect="always"
       xlink:href="#linearGradient4002"
       id="radialGradient4927"
       gradientUnits="userSpaceOnUse"
       gradientTransform="matrix(-2.3095275e-7,-1.6666665,2.3333334,-3.2333388e-7,-297.33335,-10.666627)"
       cx="-64"
       cy="100"
       fx="-64"
       fy="100"
       r="12" />
    <radialGradient
       inkscape:collect="always"
       xlink:href="#linearGradient3982"
       id="radialGradient4935"
       gradientUnits="userSpaceOnUse"
       gradientTransform="matrix(-2.3095275e-7,-1.6666665,2.3333334,-3.2333388e-7,-297.33335,-10.666627)"
       cx="-64"
       cy="100"
       fx="-64"
       fy="100"
       r="12" />
    <radialGradient
       inkscape:collect="always"
       xlink:href="#linearGradient4002"
       id="radialGradient4937"
       gradientUnits="userSpaceOnUse"
       gradientTransform="matrix(-2.3095275e-7,-1.6666665,2.3333334,-3.2333388e-7,-297.33335,-10.666627)"
       cx="-64"
       cy="100"
       fx="-64"
       fy="100"
       r="12" />
    <radialGradient
       inkscape:collect="always"
       xlink:href="#linearGradient3982"
       id="radialGradient4945"
       gradientUnits="userSpaceOnUse"
       gradientTransform="matrix(-2.3095275e-7,-1.6666665,2.3333334,-3.2333388e-7,-297.33335,-10.666627)"
       cx="-64"
       cy="100"
       fx="-64"
       fy="100"
       r="12" />
    <radialGradient
       inkscape:collect="always"
       xlink:href="#linearGradient4002"
       id="radialGradient4947"
       gradientUnits="userSpaceOnUse"
       gradientTransform="matrix(-2.3095275e-7,-1.6666665,2.3333334,-3.2333388e-7,-297.33335,-10.666627)"
       cx="-64"
       cy="100"
       fx="-64"
       fy="100"
       r="12" />
    <radialGradient
       inkscape:collect="always"
       xlink:href="#linearGradient3982"
       id="radialGradient4955"
       gradientUnits="userSpaceOnUse"
       gradientTransform="matrix(-2.3095275e-7,-1.6666665,2.3333334,-3.2333388e-7,-297.33335,-10.666627)"
       cx="-64"
       cy="100"
       fx="-64"
       fy="100"
       r="12" />
    <radialGradient
       inkscape:collect="always"
       xlink:href="#linearGradient4002"
       id="radialGradient4957"
       gradientUnits="userSpaceOnUse"
       gradientTransform="matrix(-2.3095275e-7,-1.6666665,2.3333334,-3.2333388e-7,-297.33335,-10.666627)"
       cx="-64"
       cy="100"
       fx="-64"
       fy="100"
       r="12" />
    <radialGradient
       inkscape:collect="always"
       xlink:href="#linearGradient3982"
       id="radialGradient4965"
       gradientUnits="userSpaceOnUse"
       gradientTransform="matrix(-2.3095275e-7,-1.6666665,2.3333334,-3.2333388e-7,-297.33335,-10.666627)"
       cx="-64"
       cy="100"
       fx="-64"
       fy="100"
       r="12" />
    <radialGradient
       inkscape:collect="always"
       xlink:href="#linearGradient4002"
       id="radialGradient4967"
       gradientUnits="userSpaceOnUse"
       gradientTransform="matrix(-2.3095275e-7,-1.6666665,2.3333334,-3.2333388e-7,-297.33335,-10.666627)"
       cx="-64"
       cy="100"
       fx="-64"
       fy="100"
       r="12" />
    <radialGradient
       inkscape:collect="always"
       xlink:href="#linearGradient3982"
       id="radialGradient4975"
       gradientUnits="userSpaceOnUse"
       gradientTransform="matrix(-2.3095275e-7,-1.6666665,2.3333334,-3.2333388e-7,-297.33335,-10.666627)"
       cx="-64"
       cy="100"
       fx="-64"
       fy="100"
       r="12" />
    <radialGradient
       inkscape:collect="always"
       xlink:href="#linearGradient4002"
       id="radialGradient4977"
       gradientUnits="userSpaceOnUse"
       gradientTransform="matrix(-2.3095275e-7,-1.6666665,2.3333334,-3.2333388e-7,-297.33335,-10.666627)"
       cx="-64"
       cy="100"
       fx="-64"
       fy="100"
       r="12" />
    <radialGradient
       inkscape:collect="always"
       xlink:href="#linearGradient3982"
       id="radialGradient4985"
       gradientUnits="userSpaceOnUse"
       gradientTransform="matrix(-2.3095275e-7,-1.6666665,2.3333334,-3.2333388e-7,-297.33335,-10.666627)"
       cx="-64"
       cy="100"
       fx="-64"
       fy="100"
       r="12" />
    <radialGradient
       inkscape:collect="always"
       xlink:href="#linearGradient4002"
       id="radialGradient4987"
       gradientUnits="userSpaceOnUse"
       gradientTransform="matrix(-2.3095275e-7,-1.6666665,2.3333334,-3.2333388e-7,-297.33335,-10.666627)"
       cx="-64"
       cy="100"
       fx="-64"
       fy="100"
       r="12" />
    <radialGradient
       inkscape:collect="always"
       xlink:href="#linearGradient3982"
       id="radialGradient4995"
       gradientUnits="userSpaceOnUse"
       gradientTransform="matrix(-2.3095275e-7,-1.6666665,2.3333334,-3.2333388e-7,-297.33335,-10.666627)"
       cx="-64"
       cy="100"
       fx="-64"
       fy="100"
       r="12" />
    <radialGradient
       inkscape:collect="always"
       xlink:href="#linearGradient4002"
       id="radialGradient4997"
       gradientUnits="userSpaceOnUse"
       gradientTransform="matrix(-2.3095275e-7,-1.6666665,2.3333334,-3.2333388e-7,-297.33335,-10.666627)"
       cx="-64"
       cy="100"
       fx="-64"
       fy="100"
       r="12" />
    <radialGradient
       inkscape:collect="always"
       xlink:href="#linearGradient3982"
       id="radialGradient5005"
       gradientUnits="userSpaceOnUse"
       gradientTransform="matrix(-2.3095275e-7,-1.6666665,2.3333334,-3.2333388e-7,-297.33335,-10.666627)"
       cx="-64"
       cy="100"
       fx="-64"
       fy="100"
       r="12" />
    <radialGradient
       inkscape:collect="always"
       xlink:href="#linearGradient4002"
       id="radialGradient5007"
       gradientUnits="userSpaceOnUse"
       gradientTransform="matrix(-2.3095275e-7,-1.6666665,2.3333334,-3.2333388e-7,-297.33335,-10.666627)"
       cx="-64"
       cy="100"
       fx="-64"
       fy="100"
       r="12" />
  </defs>
  <sodipodi:namedview
     id="base"
     pagecolor="#ffffff"
     bordercolor="#000000"
     borderopacity="1"
     inkscape:pageopacity="0.0"
     inkscape:pageshadow="2"
     inkscape:zoom="2.8284271"
     inkscape:cx="27.752102"
     inkscape:cy="62.769386"
     inkscape:current-layer="layer1"
     showgrid="true"
     inkscape:document-units="px"
     inkscape:grid-bbox="true"
     inkscape:snap-bbox="true"
     inkscape:snap-nodes="false"
     inkscape:snap-grids="true"
     inkscape:window-width="2560"
     inkscape:window-height="1305"
     inkscape:window-x="0"
     inkscape:window-y="0"
     inkscape:window-maximized="1"
     inkscape:showpageshadow="false"
     borderlayer="true"
     inkscape:snap-global="true">
    <inkscape:grid
       type="xygrid"
       id="grid2993"
       empspacing="4"
       visible="true"
       enabled="true"
       snapvisiblegridlinesonly="true"
       spacingx="16px"
       spacingy="16px"
       empcolor="#d60053"
       empopacity="0.29803922" />
    <inkscape:grid
       type="xygrid"
       id="grid3043"
       empspacing="4"
       visible="true"
       enabled="true"
       snapvisiblegridlinesonly="true"
       color="#ff00f8"
       opacity="0.1254902"
       dotted="true" />
  </sodipodi:namedview>
  <metadata
     id="metadata2990">
    <rdf:RDF>
      <cc:Work
         rdf:about="">
        <dc:format>image/svg+xml</dc:format>
        <dc:type
           rdf:resource="http://purl.org/dc/dcmitype/StillImage" />
        <dc:title>Template</dc:title>
        <cc:license
           rdf:resource="https://www.gnu.org/copyleft/gpl.html" />
        <dc:creator>
          <cc:Agent>
            <dc:title>Ian Walters</dc:title>
          </cc:Agent>
        </dc:creator>
        <dc:source>SimpleRP</dc:source>
      </cc:Work>
    </rdf:RDF>
  </metadata>
  <g
     id="layer1"
     inkscape:label="Layer 1"
     inkscape:groupmode="layer"
     transform="translate(0,64)">
    <rect
       style="fill:#666666;fill-opacity:1;stroke:#666666;stroke-width:0.50505638;stroke-miterlimit:4;stroke-opacity:1;stroke-dasharray:none"
       id="rect4827"
       width="127.49494"
       height="127.49494"
       x="0.25252819"
       y="-63.747471" />
    <g
       id="g4969"
       transform="matrix(2.5545969,0,0,2.8318953,246.58614,-136.63791)"
       style="stroke:#666666">
      <path
         transform="translate(-8,-68)"
         d="m -64,88 c 0,4.418278 -5.372583,8 -12,8 -6.627417,0 -12,-3.581722 -12,-8 0,-4.418278 5.372583,-8 12,-8 6.627417,0 12,3.581722 12,8 z"
         sodipodi:ry="8"
         sodipodi:rx="12"
         sodipodi:cy="88"
         sodipodi:cx="-76"
         id="path4971"
         style="fill:url(#radialGradient4975);fill-opacity:1;stroke:#666666"
         sodipodi:type="arc" />
      <path
         sodipodi:type="arc"
         style="fill:url(#radialGradient4977);fill-opacity:1;stroke:#666666"
         id="path4973"
         sodipodi:cx="-76"
         sodipodi:cy="88"
         sodipodi:rx="12"
         sodipodi:ry="8"
         d="m -64,88 c 0,4.418278 -5.372583,8 -12,8 -6.627417,0 -12,-3.581722 -12,-8 0,-4.418278 5.372583,-8 12,-8 6.627417,0 12,3.581722 12,8 z"
         transform="matrix(-1,0,0,-1,-160,108)" />
    </g>
    <g
       style="stroke:#666666"
       transform="matrix(2.5545969,0,0,2.8318953,210.58614,-120.63791)"
       id="g4979">
      <path
         sodipodi:type="arc"
         style="fill:url(#radialGradient4985);fill-opacity:1;stroke:#666666"
         id="path4981"
         sodipodi:cx="-76"
         sodipodi:cy="88"
         sodipodi:rx="12"
         sodipodi:ry="8"
         d="m -64,88 c 0,4.418278 -5.372583,8 -12,8 -6.627417,0 -12,-3.581722 -12,-8 0,-4.418278 5.372583,-8 12,-8 6.627417,0 12,3.581722 12,8 z"
         transform="translate(-8,-68)" />
      <path
         transform="matrix(-1,0,0,-1,-160,108)"
         d="m -64,88 c 0,4.418278 -5.372583,8 -12,8 -6.627417,0 -12,-3.581722 -12,-8 0,-4.418278 5.372583,-8 12,-8 6.627417,0 12,3.581722 12,8 z"
         sodipodi:ry="8"
         sodipodi:rx="12"
         sodipodi:cy="88"
         sodipodi:cx="-76"
         id="path4983"
         style="fill:url(#radialGradient4987);fill-opacity:1;stroke:#666666"
         sodipodi:type="arc" />
    </g>
    <g
       style="stroke:#666666"
       transform="matrix(2.5545969,0,0,2.8318953,234.58614,-100.63791)"
       id="g4444">
      <path
         sodipodi:type="arc"
         style="fill:url(#radialGradient4450);fill-opacity:1;stroke:#666666"
         id="path4446"
         sodipodi:cx="-76"
         sodipodi:cy="88"
         sodipodi:rx="12"
         sodipodi:ry="8"
         d="m -64,88 c 0,4.418278 -5.372583,8 -12,8 -6.627417,0 -12,-3.581722 -12,-8 0,-4.418278 5.372583,-8 12,-8 6.627417,0 12,3.581722 12,8 z"
         transform="translate(-8,-68)" />
      <path
         transform="matrix(-1,0,0,-1,-160,108)"
         d="m -64,88 c 0,4.418278 -5.372583,8 -12,8 -6.627417,0 -12,-3.581722 -12,-8 0,-4.418278 5.372583,-8 12,-8 6.627417,0 12,3.581722 12,8 z"
         sodipodi:ry="8"
         sodipodi:rx="12"
         sodipodi:cy="88"
         sodipodi:cx="-76"
         id="path4448"
         style="fill:url(#radialGradient4452);fill-opacity:1;stroke:#666666"
         sodipodi:type="arc" />
    </g>
    <g
       id="g4869"
       transform="matrix(2.5545969,0,0,2.8318953,338.58614,-120.63791)"
       style="stroke:#666666">
      <path
         transform="translate(-8,-68)"
         d="m -64,88 c 0,4.418278 -5.372583,8 -12,8 -6.627417,0 -12,-3.581722 -12,-8 0,-4.418278 5.372583,-8 12,-8 6.627417,0 12,3.581722 12,8 z"
         sodipodi:ry="8"
         sodipodi:rx="12"
         sodipodi:cy="88"
         sodipodi:cx="-76"
         id="path4871"
         style="fill:url(#radialGradient4875);fill-opacity:1;stroke:#666666"
         sodipodi:type="arc" />
      <path
         sodipodi:type="arc"
         style="fill:url(#radialGradient4877);fill-opacity:1;stroke:#666666"
         id="path4873"
         sodipodi:cx="-76"
         sodipodi:cy="88"
         sodipodi:rx="12"
         sodipodi:ry="8"
         d="m -64,88 c 0,4.418278 -5.372583,8 -12,8 -6.627417,0 -12,-3.581722 -12,-8 0,-4.418278 5.372583,-8 12,-8 6.627417,0 12,3.581722 12,8 z"
         transform="matrix(-1,0,0,-1,-160,108)" />
    </g>
    <g
       id="g4849"
       transform="matrix(2.5545969,0,0,2.8318953,294.58614,-120.63791)"
       style="stroke:#666666">
      <path
         transform="translate(-8,-68)"
         d="m -64,88 c 0,4.418278 -5.372583,8 -12,8 -6.627417,0 -12,-3.581722 -12,-8 0,-4.418278 5.372583,-8 12,-8 6.627417,0 12,3.581722 12,8 z"
         sodipodi:ry="8"
         sodipodi:rx="12"
         sodipodi:cy="88"
         sodipodi:cx="-76"
         id="path4851"
         style="fill:url(#radialGradient4855);fill-opacity:1;stroke:#666666"
         sodipodi:type="arc" />
      <path
         sodipodi:type="arc"
         style="fill:url(#radialGradient4857);fill-opacity:1;stroke:#666666"
         id="path4853"
         sodipodi:cx="-76"
         sodipodi:cy="88"
         sodipodi:rx="12"
         sodipodi:ry="8"
         d="m -64,88 c 0,4.418278 -5.372583,8 -12,8 -6.627417,0 -12,-3.581722 -12,-8 0,-4.418278 5.372583,-8 12,-8 6.627417,0 12,3.581722 12,8 z"
         transform="matrix(-1,0,0,-1,-160,108)" />
    </g>
    <g
       style="stroke:#666666"
       transform="matrix(2.5545969,0,0,2.8318953,282.58614,-88.637906)"
       id="g4839">
      <path
         sodipodi:type="arc"
         style="fill:url(#radialGradient4845);fill-opacity:1;stroke:#666666"
         id="path4841"
         sodipodi:cx="-76"
         sodipodi:cy="88"
         sodipodi:rx="12"
         sodipodi:ry="8"
         d="m -64,88 c 0,4.418278 -5.372583,8 -12,8 -6.627417,0 -12,-3.581722 -12,-8 0,-4.418278 5.372583,-8 12,-8 6.627417,0 12,3.581722 12,8 z"
         transform="translate(-8,-68)" />
      <path
         transform="matrix(-1,0,0,-1,-160,108)"
         d="m -64,88 c 0,4.418278 -5.372583,8 -12,8 -6.627417,0 -12,-3.581722 -12,-8 0,-4.418278 5.372583,-8 12,-8 6.627417,0 12,3.581722 12,8 z"
         sodipodi:ry="8"
         sodipodi:rx="12"
         sodipodi:cy="88"
         sodipodi:cx="-76"
         id="path4843"
         style="fill:url(#radialGradient4847);fill-opacity:1;stroke:#666666"
         sodipodi:type="arc" />
    </g>
    <g
       style="stroke:#666666"
       transform="matrix(2.5545969,0,0,2.8318953,202.58614,-76.637906)"
       id="g4899">
      <path
         sodipodi:type="arc"
         style="fill:url(#radialGradient4905);fill-opacity:1;stroke:#666666"
         id="path4901"
         sodipodi:cx="-76"
         sodipodi:cy="88"
         sodipodi:rx="12"
         sodipodi:ry="8"
         d="m -64,88 c 0,4.418278 -5.372583,8 -12,8 -6.627417,0 -12,-3.581722 -12,-8 0,-4.418278 5.372583,-8 12,-8 6.627417,0 12,3.581722 12,8 z"
         transform="translate(-8,-68)" />
      <path
         transform="matrix(-1,0,0,-1,-160,108)"
         d="m -64,88 c 0,4.418278 -5.372583,8 -12,8 -6.627417,0 -12,-3.581722 -12,-8 0,-4.418278 5.372583,-8 12,-8 6.627417,0 12,3.581722 12,8 z"
         sodipodi:ry="8"
         sodipodi:rx="12"
         sodipodi:cy="88"
         sodipodi:cx="-76"
         id="path4903"
         style="fill:url(#radialGradient4907);fill-opacity:1;stroke:#666666"
         sodipodi:type="arc" />
    </g>
    <g
       id="g4909"
       transform="matrix(2.5545969,0,0,2.8318953,250.58614,-56.637906)"
       style="stroke:#666666">
      <path
         transform="translate(-8,-68)"
         d="m -64,88 c 0,4.418278 -5.372583,8 -12,8 -6.627417,0 -12,-3.581722 -12,-8 0,-4.418278 5.372583,-8 12,-8 6.627417,0 12,3.581722 12,8 z"
         sodipodi:ry="8"
         sodipodi:rx="12"
         sodipodi:cy="88"
         sodipodi:cx="-76"
         id="path4911"
         style="fill:url(#radialGradient4915);fill-opacity:1;stroke:#666666"
         sodipodi:type="arc" />
      <path
         sodipodi:type="arc"
         style="fill:url(#radialGradient4917);fill-opacity:1;stroke:#666666"
         id="path4913"
         sodipodi:cx="-76"
         sodipodi:cy="88"
         sodipodi:rx="12"
         sodipodi:ry="8"
         d="m -64,88 c 0,4.418278 -5.372583,8 -12,8 -6.627417,0 -12,-3.581722 -12,-8 0,-4.418278 5.372583,-8 12,-8 6.627417,0 12,3.581722 12,8 z"
         transform="matrix(-1,0,0,-1,-160,108)" />
    </g>
    <g
       id="g4929"
       transform="matrix(2.5545969,0,0,2.8318953,218.58614,-24.637906)"
       style="stroke:#666666">
      <path
         transform="translate(-8,-68)"
         d="m -64,88 c 0,4.418278 -5.372583,8 -12,8 -6.627417,0 -12,-3.581722 -12,-8 0,-4.418278 5.372583,-8 12,-8 6.627417,0 12,3.581722 12,8 z"
         sodipodi:ry="8"
         sodipodi:rx="12"
         sodipodi:cy="88"
         sodipodi:cx="-76"
         id="path4931"
         style="fill:url(#radialGradient4935);fill-opacity:1;stroke:#666666"
         sodipodi:type="arc" />
      <path
         sodipodi:type="arc"
         style="fill:url(#radialGradient4937);fill-opacity:1;stroke:#666666"
         id="path4933"
         sodipodi:cx="-76"
         sodipodi:cy="88"
         sodipodi:rx="12"
         sodipodi:ry="8"
         d="m -64,88 c 0,4.418278 -5.372583,8 -12,8 -6.627417,0 -12,-3.581722 -12,-8 0,-4.418278 5.372583,-8 12,-8 6.627417,0 12,3.581722 12,8 z"
         transform="matrix(-1,0,0,-1,-160,108)" />
    </g>
    <g
       id="g4989"
       transform="matrix(2.5545969,0,0,2.8318953,362.58614,-100.63791)"
       style="stroke:#666666">
      <path
         transform="translate(-8,-68)"
         d="m -64,88 c 0,4.418278 -5.372583,8 -12,8 -6.627417,0 -12,-3.581722 -12,-8 0,-4.418278 5.372583,-8 12,-8 6.627417,0 12,3.581722 12,8 z"
         sodipodi:ry="8"
         sodipodi:rx="12"
         sodipodi:cy="88"
         sodipodi:cx="-76"
         id="path4991"
         style="fill:url(#radialGradient4995);fill-opacity:1;stroke:#666666"
         sodipodi:type="arc" />
      <path
         sodipodi:type="arc"
         style="fill:url(#radialGradient4997);fill-opacity:1;stroke:#666666"
         id="path4993"
         sodipodi:cx="-76"
         sodipodi:cy="88"
         sodipodi:rx="12"
         sodipodi:ry="8"
         d="m -64,88 c 0,4.418278 -5.372583,8 -12,8 -6.627417,0 -12,-3.581722 -12,-8 0,-4.418278 5.372583,-8 12,-8 6.627417,0 12,3.581722 12,8 z"
         transform="matrix(-1,0,0,-1,-160,108)" />
    </g>
    <g
       id="g4889"
       transform="matrix(2.5545969,0,0,2.8318953,330.58614,-76.637906)"
       style="stroke:#666666">
      <path
         transform="translate(-8,-68)"
         d="m -64,88 c 0,4.418278 -5.372583,8 -12,8 -6.627417,0 -12,-3.581722 -12,-8 0,-4.418278 5.372583,-8 12,-8 6.627417,0 12,3.581722 12,8 z"
         sodipodi:ry="8"
         sodipodi:rx="12"
         sodipodi:cy="88"
         sodipodi:cx="-76"
         id="path4891"
         style="fill:url(#radialGradient4895);fill-opacity:1;stroke:#666666"
         sodipodi:type="arc" />
      <path
         sodipodi:type="arc"
         style="fill:url(#radialGradient4897);fill-opacity:1;stroke:#666666"
         id="path4893"
         sodipodi:cx="-76"
         sodipodi:cy="88"
         sodipodi:rx="12"
         sodipodi:ry="8"
         d="m -64,88 c 0,4.418278 -5.372583,8 -12,8 -6.627417,0 -12,-3.581722 -12,-8 0,-4.418278 5.372583,-8 12,-8 6.627417,0 12,3.581722 12,8 z"
         transform="matrix(-1,0,0,-1,-160,108)" />
    </g>
    <g
       style="stroke:#666666"
       transform="matrix(2.5545969,0,0,2.8318953,310.58614,-48.637906)"
       id="g4919">
      <path
         sodipodi:type="arc"
         style="fill:url(#radialGradient4925);fill-opacity:1;stroke:#666666"
         id="path4921"
         sodipodi:cx="-76"
         sodipodi:cy="88"
         sodipodi:rx="12"
         sodipodi:ry="8"
         d="m -64,88 c 0,4.418278 -5.372583,8 -12,8 -6.627417,0 -12,-3.581722 -12,-8 0,-4.418278 5.372583,-8 12,-8 6.627417,0 12,3.581722 12,8 z"
         transform="translate(-8,-68)" />
      <path
         transform="matrix(-1,0,0,-1,-160,108)"
         d="m -64,88 c 0,4.418278 -5.372583,8 -12,8 -6.627417,0 -12,-3.581722 -12,-8 0,-4.418278 5.372583,-8 12,-8 6.627417,0 12,3.581722 12,8 z"
         sodipodi:ry="8"
         sodipodi:rx="12"
         sodipodi:cy="88"
         sodipodi:cx="-76"
         id="path4923"
         style="fill:url(#radialGradient4927);fill-opacity:1;stroke:#666666"
         sodipodi:type="arc" />
    </g>
    <g
       style="stroke:#666666"
       transform="matrix(2.5545969,0,0,2.8318953,346.58614,-24.637906)"
       id="g4939">
      <path
         sodipodi:type="arc"
         style="fill:url(#radialGradient4945);fill-opacity:1;stroke:#666666"
         id="path4941"
         sodipodi:cx="-76"
         sodipodi:cy="88"
         sodipodi:rx="12"
         sodipodi:ry="8"
         d="m -64,88 c 0,4.418278 -5.372583,8 -12,8 -6.627417,0 -12,-3.581722 -12,-8 0,-4.418278 5.372583,-8 12,-8 6.627417,0 12,3.581722 12,8 z"
         transform="translate(-8,-68)" />
      <path
         transform="matrix(-1,0,0,-1,-160,108)"
         d="m -64,88 c 0,4.418278 -5.372583,8 -12,8 -6.627417,0 -12,-3.581722 -12,-8 0,-4.418278 5.372583,-8 12,-8 6.627417,0 12,3.581722 12,8 z"
         sodipodi:ry="8"
         sodipodi:rx="12"
         sodipodi:cy="88"
         sodipodi:cx="-76"
         id="path4943"
         style="fill:url(#radialGradient4947);fill-opacity:1;stroke:#666666"
         sodipodi:type="arc" />
    </g>
    <g
       id="g4949"
       transform="matrix(2.5545969,0,0,2.8318953,278.58614,-20.637906)"
       style="stroke:#666666">
      <path
         transform="translate(-8,-68)"
         d="m -64,88 c 0,4.418278 -5.372583,8 -12,8 -6.627417,0 -12,-3.581722 -12,-8 0,-4.418278 5.372583,-8 12,-8 6.627417,0 12,3.581722 12,8 z"
         sodipodi:ry="8"
         sodipodi:rx="12"
         sodipodi:cy="88"
         sodipodi:cx="-76"
         id="path4951"
         style="fill:url(#radialGradient4955);fill-opacity:1;stroke:#666666"
         sodipodi:type="arc" />
      <path
         sodipodi:type="arc"
         style="fill:url(#radialGradient4957);fill-opacity:1;stroke:#666666"
         id="path4953"
         sodipodi:cx="-76"
         sodipodi:cy="88"
         sodipodi:rx="12"
         sodipodi:ry="8"
         d="m -64,88 c 0,4.418278 -5.372583,8 -12,8 -6.627417,0 -12,-3.581722 -12,-8 0,-4.418278 5.372583,-8 12,-8 6.627417,0 12,3.581722 12,8 z"
         transform="matrix(-1,0,0,-1,-160,108)" />
    </g>
    <g
       style="stroke:#666666"
       transform="matrix(2.5545969,0,0,2.8318953,246.58614,-8.6379062)"
       id="g4959">
      <path
         sodipodi:type="arc"
         style="fill:url(#radialGradient4965);fill-opacity:1;stroke:#666666"
         id="path4961"
         sodipodi:cx="-76"
         sodipodi:cy="88"
         sodipodi:rx="12"
         sodipodi:ry="8"
         d="m -64,88 c 0,4.418278 -5.372583,8 -12,8 -6.627417,0 -12,-3.581722 -12,-8 0,-4.418278 5.372583,-8 12,-8 6.627417,0 12,3.581722 12,8 z"
         transform="translate(-8,-68)" />
      <path
         transform="matrix(-1,0,0,-1,-160,108)"
         d="m -64,88 c 0,4.418278 -5.372583,8 -12,8 -6.627417,0 -12,-3.581722 -12,-8 0,-4.418278 5.372583,-8 12,-8 6.627417,0 12,3.581722 12,8 z"
         sodipodi:ry="8"
         sodipodi:rx="12"
         sodipodi:cy="88"
         sodipodi:cx="-76"
         id="path4963"
         style="fill:url(#radialGradient4967);fill-opacity:1;stroke:#666666"
         sodipodi:type="arc" />
    </g>
    <g
       style="stroke:#666666"
       transform="matrix(2.5545969,0,0,2.8318953,338.58614,7.3620942)"
       id="g4879">
      <path
         sodipodi:type="arc"
         style="fill:url(#radialGradient4885);fill-opacity:1;stroke:#666666"
         id="path4881"
         sodipodi:cx="-76"
         sodipodi:cy="88"
         sodipodi:rx="12"
         sodipodi:ry="8"
         d="m -64,88 c 0,4.418278 -5.372583,8 -12,8 -6.627417,0 -12,-3.581722 -12,-8 0,-4.418278 5.372583,-8 12,-8 6.627417,0 12,3.581722 12,8 z"
         transform="translate(-8,-68)" />
      <path
         transform="matrix(-1,0,0,-1,-160,108)"
         d="m -64,88 c 0,4.418278 -5.372583,8 -12,8 -6.627417,0 -12,-3.581722 -12,-8 0,-4.418278 5.372583,-8 12,-8 6.627417,0 12,3.581722 12,8 z"
         sodipodi:ry="8"
         sodipodi:rx="12"
         sodipodi:cy="88"
         sodipodi:cx="-76"
         id="path4883"
         style="fill:url(#radialGradient4887);fill-opacity:1;stroke:#666666"
         sodipodi:type="arc" />
    </g>
    <g
       style="stroke:#666666"
       transform="matrix(2.5545969,0,0,2.8318953,294.58614,7.3620938)"
       id="g4859">
      <path
         sodipodi:type="arc"
         style="fill:url(#radialGradient4865);fill-opacity:1;stroke:#666666"
         id="path4861"
         sodipodi:cx="-76"
         sodipodi:cy="88"
         sodipodi:rx="12"
         sodipodi:ry="8"
         d="m -64,88 c 0,4.418278 -5.372583,8 -12,8 -6.627417,0 -12,-3.581722 -12,-8 0,-4.418278 5.372583,-8 12,-8 6.627417,0 12,3.581722 12,8 z"
         transform="translate(-8,-68)" />
      <path
         transform="matrix(-1,0,0,-1,-160,108)"
         d="m -64,88 c 0,4.418278 -5.372583,8 -12,8 -6.627417,0 -12,-3.581722 -12,-8 0,-4.418278 5.372583,-8 12,-8 6.627417,0 12,3.581722 12,8 z"
         sodipodi:ry="8"
         sodipodi:rx="12"
         sodipodi:cy="88"
         sodipodi:cx="-76"
         id="path4863"
         style="fill:url(#radialGradient4867);fill-opacity:1;stroke:#666666"
         sodipodi:type="arc" />
    </g>
    <g
       id="g4999"
       transform="matrix(2.5545969,0,0,2.8318953,210.58614,7.3620938)"
       style="stroke:#666666">
      <path
         transform="translate(-8,-68)"
         d="m -64,88 c 0,4.418278 -5.372583,8 -12,8 -6.627417,0 -12,-3.581722 -12,-8 0,-4.418278 5.372583,-8 12,-8 6.627417,0 12,3.581722 12,8 z"
         sodipodi:ry="8"
         sodipodi:rx="12"
         sodipodi:cy="88"
         sodipodi:cx="-76"
         id="path5001"
         style="fill:url(#radialGradient5005);fill-opacity:1;stroke:#666666"
         sodipodi:type="arc" />
      <path
         sodipodi:type="arc"
         style="fill:url(#radialGradient5007);fill-opacity:1;stroke:#666666"
         id="path5003"
         sodipodi:cx="-76"
         sodipodi:cy="88"
         sodipodi:rx="12"
         sodipodi:ry="8"
         d="m -64,88 c 0,4.418278 -5.372583,8 -12,8 -6.627417,0 -12,-3.581722 -12,-8 0,-4.418278 5.372583,-8 12,-8 6.627417,0 12,3.581722 12,8 z"
         transform="matrix(-1,0,0,-1,-160,108)" />
    </g>
    <g
       id="g4829"
       transform="matrix(2.5545969,0,0,2.8318953,234.58614,27.362094)"
       style="stroke:#666666">
      <path
         transform="translate(-8,-68)"
         d="m -64,88 c 0,4.418278 -5.372583,8 -12,8 -6.627417,0 -12,-3.581722 -12,-8 0,-4.418278 5.372583,-8 12,-8 6.627417,0 12,3.581722 12,8 z"
         sodipodi:ry="8"
         sodipodi:rx="12"
         sodipodi:cy="88"
         sodipodi:cx="-76"
         id="path4831"
         style="fill:url(#radialGradient4835);fill-opacity:1;stroke:#666666"
         sodipodi:type="arc" />
      <path
         sodipodi:type="arc"
         style="fill:url(#radialGradient4837);fill-opacity:1;stroke:#666666"
         id="path4833"
         sodipodi:cx="-76"
         sodipodi:cy="88"
         sodipodi:rx="12"
         sodipodi:ry="8"
         d="m -64,88 c 0,4.418278 -5.372583,8 -12,8 -6.627417,0 -12,-3.581722 -12,-8 0,-4.418278 5.372583,-8 12,-8 6.627417,0 12,3.581722 12,8 z"
         transform="matrix(-1,0,0,-1,-160,108)" />
    </g>
  </g>
</svg>
