<?xml version="1.0" encoding="UTF-8" standalone="no"?>
<!-- Created with Inkscape (http://www.inkscape.org/) -->

<svg
   xmlns:dc="http://purl.org/dc/elements/1.1/"
   xmlns:cc="http://creativecommons.org/ns#"
   xmlns:rdf="http://www.w3.org/1999/02/22-rdf-syntax-ns#"
   xmlns:svg="http://www.w3.org/2000/svg"
   xmlns="http://www.w3.org/2000/svg"
   xmlns:xlink="http://www.w3.org/1999/xlink"
   xmlns:sodipodi="http://sodipodi.sourceforge.net/DTD/sodipodi-0.dtd"
   xmlns:inkscape="http://www.inkscape.org/namespaces/inkscape"
   width="128"
   height="128"
   id="svg2985"
   version="1.1"
   inkscape:version="0.48.2 r9819"
   sodipodi:docname="cobblestone_mossy.svg"
   inkscape:export-filename="/Users/ianw/drawing.png"
   inkscape:export-xdpi="180"
   inkscape:export-ydpi="180">
  <title
     id="title3119">Template</title>
  <defs
     id="defs2987">
    <linearGradient
       id="linearGradient4002">
      <stop
         id="stop4004"
         offset="0"
         style="stop-color:#ababab;stop-opacity:0.54237288;" />
      <stop
         style="stop-color:#ababab;stop-opacity:0;"
         offset="0.83333331"
         id="stop4006" />
      <stop
         id="stop4008"
         offset="1"
         style="stop-color:#676767;stop-opacity:1;" />
    </linearGradient>
    <linearGradient
       id="linearGradient3982">
      <stop
         style="stop-color:#afacac;stop-opacity:1;"
         offset="0"
         id="stop3992" />
      <stop
         id="stop3994"
         offset="0.83333331"
         style="stop-color:#ababab;stop-opacity:1;" />
      <stop
         style="stop-color:#ffffff;stop-opacity:1;"
         offset="1"
         id="stop3986" />
    </linearGradient>
    <radialGradient
       inkscape:collect="always"
       xlink:href="#linearGradient3982"
       id="radialGradient5551"
       gradientUnits="userSpaceOnUse"
       gradientTransform="matrix(-2.3095275e-7,-1.6666665,2.3333334,-3.2333388e-7,-297.33335,-10.666627)"
       cx="-64"
       cy="100"
       fx="-64"
       fy="100"
       r="12" />
    <radialGradient
       inkscape:collect="always"
       xlink:href="#linearGradient4002"
       id="radialGradient5553"
       gradientUnits="userSpaceOnUse"
       gradientTransform="matrix(-2.3095275e-7,-1.6666665,2.3333334,-3.2333388e-7,-297.33335,-10.666627)"
       cx="-64"
       cy="100"
       fx="-64"
       fy="100"
       r="12" />
    <radialGradient
       inkscape:collect="always"
       xlink:href="#linearGradient3982"
       id="radialGradient5555"
       gradientUnits="userSpaceOnUse"
       gradientTransform="matrix(-2.3095275e-7,-1.6666665,2.3333334,-3.2333388e-7,-297.33335,-10.666627)"
       cx="-64"
       cy="100"
       fx="-64"
       fy="100"
       r="12" />
    <radialGradient
       inkscape:collect="always"
       xlink:href="#linearGradient4002"
       id="radialGradient5557"
       gradientUnits="userSpaceOnUse"
       gradientTransform="matrix(-2.3095275e-7,-1.6666665,2.3333334,-3.2333388e-7,-297.33335,-10.666627)"
       cx="-64"
       cy="100"
       fx="-64"
       fy="100"
       r="12" />
    <radialGradient
       inkscape:collect="always"
       xlink:href="#linearGradient3982"
       id="radialGradient5559"
       gradientUnits="userSpaceOnUse"
       gradientTransform="matrix(-2.3095275e-7,-1.6666665,2.3333334,-3.2333388e-7,-297.33335,-10.666627)"
       cx="-64"
       cy="100"
       fx="-64"
       fy="100"
       r="12" />
    <radialGradient
       inkscape:collect="always"
       xlink:href="#linearGradient4002"
       id="radialGradient5561"
       gradientUnits="userSpaceOnUse"
       gradientTransform="matrix(-2.3095275e-7,-1.6666665,2.3333334,-3.2333388e-7,-297.33335,-10.666627)"
       cx="-64"
       cy="100"
       fx="-64"
       fy="100"
       r="12" />
    <radialGradient
       inkscape:collect="always"
       xlink:href="#linearGradient3982"
       id="radialGradient5563"
       gradientUnits="userSpaceOnUse"
       gradientTransform="matrix(-2.3095275e-7,-1.6666665,2.3333334,-3.2333388e-7,-297.33335,-10.666627)"
       cx="-64"
       cy="100"
       fx="-64"
       fy="100"
       r="12" />
    <radialGradient
       inkscape:collect="always"
       xlink:href="#linearGradient4002"
       id="radialGradient5565"
       gradientUnits="userSpaceOnUse"
       gradientTransform="matrix(-2.3095275e-7,-1.6666665,2.3333334,-3.2333388e-7,-297.33335,-10.666627)"
       cx="-64"
       cy="100"
       fx="-64"
       fy="100"
       r="12" />
    <radialGradient
       inkscape:collect="always"
       xlink:href="#linearGradient3982"
       id="radialGradient5567"
       gradientUnits="userSpaceOnUse"
       gradientTransform="matrix(-2.3095275e-7,-1.6666665,2.3333334,-3.2333388e-7,-297.33335,-10.666627)"
       cx="-64"
       cy="100"
       fx="-64"
       fy="100"
       r="12" />
    <radialGradient
       inkscape:collect="always"
       xlink:href="#linearGradient4002"
       id="radialGradient5569"
       gradientUnits="userSpaceOnUse"
       gradientTransform="matrix(-2.3095275e-7,-1.6666665,2.3333334,-3.2333388e-7,-297.33335,-10.666627)"
       cx="-64"
       cy="100"
       fx="-64"
       fy="100"
       r="12" />
    <radialGradient
       inkscape:collect="always"
       xlink:href="#linearGradient3982"
       id="radialGradient5571"
       gradientUnits="userSpaceOnUse"
       gradientTransform="matrix(-2.3095275e-7,-1.6666665,2.3333334,-3.2333388e-7,-297.33335,-10.666627)"
       cx="-64"
       cy="100"
       fx="-64"
       fy="100"
       r="12" />
    <radialGradient
       inkscape:collect="always"
       xlink:href="#linearGradient4002"
       id="radialGradient5573"
       gradientUnits="userSpaceOnUse"
       gradientTransform="matrix(-2.3095275e-7,-1.6666665,2.3333334,-3.2333388e-7,-297.33335,-10.666627)"
       cx="-64"
       cy="100"
       fx="-64"
       fy="100"
       r="12" />
    <radialGradient
       inkscape:collect="always"
       xlink:href="#linearGradient3982"
       id="radialGradient5575"
       gradientUnits="userSpaceOnUse"
       gradientTransform="matrix(-2.3095275e-7,-1.6666665,2.3333334,-3.2333388e-7,-297.33335,-10.666627)"
       cx="-64"
       cy="100"
       fx="-64"
       fy="100"
       r="12" />
    <radialGradient
       inkscape:collect="always"
       xlink:href="#linearGradient4002"
       id="radialGradient5577"
       gradientUnits="userSpaceOnUse"
       gradientTransform="matrix(-2.3095275e-7,-1.6666665,2.3333334,-3.2333388e-7,-297.33335,-10.666627)"
       cx="-64"
       cy="100"
       fx="-64"
       fy="100"
       r="12" />
    <radialGradient
       inkscape:collect="always"
       xlink:href="#linearGradient3982"
       id="radialGradient5579"
       gradientUnits="userSpaceOnUse"
       gradientTransform="matrix(-2.3095275e-7,-1.6666665,2.3333334,-3.2333388e-7,-297.33335,-10.666627)"
       cx="-64"
       cy="100"
       fx="-64"
       fy="100"
       r="12" />
    <radialGradient
       inkscape:collect="always"
       xlink:href="#linearGradient4002"
       id="radialGradient5581"
       gradientUnits="userSpaceOnUse"
       gradientTransform="matrix(-2.3095275e-7,-1.6666665,2.3333334,-3.2333388e-7,-297.33335,-10.666627)"
       cx="-64"
       cy="100"
       fx="-64"
       fy="100"
       r="12" />
    <radialGradient
       inkscape:collect="always"
       xlink:href="#linearGradient3982"
       id="radialGradient5583"
       gradientUnits="userSpaceOnUse"
       gradientTransform="matrix(-2.3095275e-7,-1.6666665,2.3333334,-3.2333388e-7,-297.33335,-10.666627)"
       cx="-64"
       cy="100"
       fx="-64"
       fy="100"
       r="12" />
    <radialGradient
       inkscape:collect="always"
       xlink:href="#linearGradient4002"
       id="radialGradient5585"
       gradientUnits="userSpaceOnUse"
       gradientTransform="matrix(-2.3095275e-7,-1.6666665,2.3333334,-3.2333388e-7,-297.33335,-10.666627)"
       cx="-64"
       cy="100"
       fx="-64"
       fy="100"
       r="12" />
    <radialGradient
       inkscape:collect="always"
       xlink:href="#linearGradient3982"
       id="radialGradient5587"
       gradientUnits="userSpaceOnUse"
       gradientTransform="matrix(-2.3095275e-7,-1.6666665,2.3333334,-3.2333388e-7,-297.33335,-10.666627)"
       cx="-64"
       cy="100"
       fx="-64"
       fy="100"
       r="12" />
    <radialGradient
       inkscape:collect="always"
       xlink:href="#linearGradient4002"
       id="radialGradient5589"
       gradientUnits="userSpaceOnUse"
       gradientTransform="matrix(-2.3095275e-7,-1.6666665,2.3333334,-3.2333388e-7,-297.33335,-10.666627)"
       cx="-64"
       cy="100"
       fx="-64"
       fy="100"
       r="12" />
    <radialGradient
       inkscape:collect="always"
       xlink:href="#linearGradient3982"
       id="radialGradient5591"
       gradientUnits="userSpaceOnUse"
       gradientTransform="matrix(-2.3095275e-7,-1.6666665,2.3333334,-3.2333388e-7,-297.33335,-10.666627)"
       cx="-64"
       cy="100"
       fx="-64"
       fy="100"
       r="12" />
    <radialGradient
       inkscape:collect="always"
       xlink:href="#linearGradient4002"
       id="radialGradient5593"
       gradientUnits="userSpaceOnUse"
       gradientTransform="matrix(-2.3095275e-7,-1.6666665,2.3333334,-3.2333388e-7,-297.33335,-10.666627)"
       cx="-64"
       cy="100"
       fx="-64"
       fy="100"
       r="12" />
    <radialGradient
       inkscape:collect="always"
       xlink:href="#linearGradient3982"
       id="radialGradient5595"
       gradientUnits="userSpaceOnUse"
       gradientTransform="matrix(-2.3095275e-7,-1.6666665,2.3333334,-3.2333388e-7,-297.33335,-10.666627)"
       cx="-64"
       cy="100"
       fx="-64"
       fy="100"
       r="12" />
    <radialGradient
       inkscape:collect="always"
       xlink:href="#linearGradient4002"
       id="radialGradient5597"
       gradientUnits="userSpaceOnUse"
       gradientTransform="matrix(-2.3095275e-7,-1.6666665,2.3333334,-3.2333388e-7,-297.33335,-10.666627)"
       cx="-64"
       cy="100"
       fx="-64"
       fy="100"
       r="12" />
    <radialGradient
       inkscape:collect="always"
       xlink:href="#linearGradient3982"
       id="radialGradient5599"
       gradientUnits="userSpaceOnUse"
       gradientTransform="matrix(-2.3095275e-7,-1.6666665,2.3333334,-3.2333388e-7,-297.33335,-10.666627)"
       cx="-64"
       cy="100"
       fx="-64"
       fy="100"
       r="12" />
    <radialGradient
       inkscape:collect="always"
       xlink:href="#linearGradient4002"
       id="radialGradient5601"
       gradientUnits="userSpaceOnUse"
       gradientTransform="matrix(-2.3095275e-7,-1.6666665,2.3333334,-3.2333388e-7,-297.33335,-10.666627)"
       cx="-64"
       cy="100"
       fx="-64"
       fy="100"
       r="12" />
    <radialGradient
       inkscape:collect="always"
       xlink:href="#linearGradient3982"
       id="radialGradient5603"
       gradientUnits="userSpaceOnUse"
       gradientTransform="matrix(-2.3095275e-7,-1.6666665,2.3333334,-3.2333388e-7,-297.33335,-10.666627)"
       cx="-64"
       cy="100"
       fx="-64"
       fy="100"
       r="12" />
    <radialGradient
       inkscape:collect="always"
       xlink:href="#linearGradient4002"
       id="radialGradient5605"
       gradientUnits="userSpaceOnUse"
       gradientTransform="matrix(-2.3095275e-7,-1.6666665,2.3333334,-3.2333388e-7,-297.33335,-10.666627)"
       cx="-64"
       cy="100"
       fx="-64"
       fy="100"
       r="12" />
    <radialGradient
       inkscape:collect="always"
       xlink:href="#linearGradient3982"
       id="radialGradient5607"
       gradientUnits="userSpaceOnUse"
       gradientTransform="matrix(-2.3095275e-7,-1.6666665,2.3333334,-3.2333388e-7,-297.33335,-10.666627)"
       cx="-64"
       cy="100"
       fx="-64"
       fy="100"
       r="12" />
    <radialGradient
       inkscape:collect="always"
       xlink:href="#linearGradient4002"
       id="radialGradient5609"
       gradientUnits="userSpaceOnUse"
       gradientTransform="matrix(-2.3095275e-7,-1.6666665,2.3333334,-3.2333388e-7,-297.33335,-10.666627)"
       cx="-64"
       cy="100"
       fx="-64"
       fy="100"
       r="12" />
    <radialGradient
       inkscape:collect="always"
       xlink:href="#linearGradient3982"
       id="radialGradient5611"
       gradientUnits="userSpaceOnUse"
       gradientTransform="matrix(-2.3095275e-7,-1.6666665,2.3333334,-3.2333388e-7,-297.33335,-10.666627)"
       cx="-64"
       cy="100"
       fx="-64"
       fy="100"
       r="12" />
    <radialGradient
       inkscape:collect="always"
       xlink:href="#linearGradient4002"
       id="radialGradient5613"
       gradientUnits="userSpaceOnUse"
       gradientTransform="matrix(-2.3095275e-7,-1.6666665,2.3333334,-3.2333388e-7,-297.33335,-10.666627)"
       cx="-64"
       cy="100"
       fx="-64"
       fy="100"
       r="12" />
    <radialGradient
       inkscape:collect="always"
       xlink:href="#linearGradient3982"
       id="radialGradient5615"
       gradientUnits="userSpaceOnUse"
       gradientTransform="matrix(-2.3095275e-7,-1.6666665,2.3333334,-3.2333388e-7,-297.33335,-10.666627)"
       cx="-64"
       cy="100"
       fx="-64"
       fy="100"
       r="12" />
    <radialGradient
       inkscape:collect="always"
       xlink:href="#linearGradient4002"
       id="radialGradient5617"
       gradientUnits="userSpaceOnUse"
       gradientTransform="matrix(-2.3095275e-7,-1.6666665,2.3333334,-3.2333388e-7,-297.33335,-10.666627)"
       cx="-64"
       cy="100"
       fx="-64"
       fy="100"
       r="12" />
    <radialGradient
       inkscape:collect="always"
       xlink:href="#linearGradient3982"
       id="radialGradient5619"
       gradientUnits="userSpaceOnUse"
       gradientTransform="matrix(-2.3095275e-7,-1.6666665,2.3333334,-3.2333388e-7,-297.33335,-10.666627)"
       cx="-64"
       cy="100"
       fx="-64"
       fy="100"
       r="12" />
    <radialGradient
       inkscape:collect="always"
       xlink:href="#linearGradient4002"
       id="radialGradient5621"
       gradientUnits="userSpaceOnUse"
       gradientTransform="matrix(-2.3095275e-7,-1.6666665,2.3333334,-3.2333388e-7,-297.33335,-10.666627)"
       cx="-64"
       cy="100"
       fx="-64"
       fy="100"
       r="12" />
    <radialGradient
       inkscape:collect="always"
       xlink:href="#linearGradient3982"
       id="radialGradient5623"
       gradientUnits="userSpaceOnUse"
       gradientTransform="matrix(-2.3095275e-7,-1.6666665,2.3333334,-3.2333388e-7,-297.33335,-10.666627)"
       cx="-64"
       cy="100"
       fx="-64"
       fy="100"
       r="12" />
    <radialGradient
       inkscape:collect="always"
       xlink:href="#linearGradient4002"
       id="radialGradient5625"
       gradientUnits="userSpaceOnUse"
       gradientTransform="matrix(-2.3095275e-7,-1.6666665,2.3333334,-3.2333388e-7,-297.33335,-10.666627)"
       cx="-64"
       cy="100"
       fx="-64"
       fy="100"
       r="12" />
  </defs>
  <sodipodi:namedview
     id="base"
     pagecolor="#ffffff"
     bordercolor="#000000"
     borderopacity="1"
     inkscape:pageopacity="0.0"
     inkscape:pageshadow="2"
     inkscape:zoom="2"
     inkscape:cx="11.814357"
     inkscape:cy="129.41986"
     inkscape:current-layer="layer1"
     showgrid="true"
     inkscape:document-units="px"
     inkscape:grid-bbox="true"
     inkscape:snap-bbox="true"
     inkscape:snap-nodes="false"
     inkscape:snap-grids="true"
     inkscape:window-width="2560"
     inkscape:window-height="1305"
     inkscape:window-x="0"
     inkscape:window-y="0"
     inkscape:window-maximized="1"
     inkscape:showpageshadow="false"
     borderlayer="true"
     inkscape:snap-global="true">
    <inkscape:grid
       type="xygrid"
       id="grid2993"
       empspacing="4"
       visible="true"
       enabled="true"
       snapvisiblegridlinesonly="true"
       spacingx="16px"
       spacingy="16px"
       empcolor="#d60053"
       empopacity="0.29803922" />
    <inkscape:grid
       type="xygrid"
       id="grid3043"
       empspacing="4"
       visible="true"
       enabled="true"
       snapvisiblegridlinesonly="true"
       color="#ff00f8"
       opacity="0.1254902"
       dotted="true" />
  </sodipodi:namedview>
  <metadata
     id="metadata2990">
    <rdf:RDF>
      <cc:Work
         rdf:about="">
        <dc:format>image/svg+xml</dc:format>
        <dc:type
           rdf:resource="http://purl.org/dc/dcmitype/StillImage" />
        <dc:title>Template</dc:title>
        <cc:license
           rdf:resource="https://www.gnu.org/copyleft/gpl.html" />
        <dc:creator>
          <cc:Agent>
            <dc:title>Ian Walters</dc:title>
          </cc:Agent>
        </dc:creator>
        <dc:source>SimpleRP</dc:source>
      </cc:Work>
    </rdf:RDF>
  </metadata>
  <g
     id="layer1"
     inkscape:label="Layer 1"
     inkscape:groupmode="layer"
     transform="translate(0,64)">
    <rect
       style="fill:#666666;fill-opacity:1;stroke:#666666;stroke-width:0.50505638;stroke-miterlimit:4;stroke-opacity:1;stroke-dasharray:none"
       id="rect4827"
       width="127.49494"
       height="127.49494"
       x="0.25252819"
       y="-63.747471" />
    <g
       id="g4969"
       transform="matrix(2.5545969,0,0,2.8318953,246.58614,-136.63791)"
       style="stroke:#666666">
      <path
         transform="translate(-8,-68)"
         d="m -64,88 c 0,4.418278 -5.372583,8 -12,8 -6.627417,0 -12,-3.581722 -12,-8 0,-4.418278 5.372583,-8 12,-8 6.627417,0 12,3.581722 12,8 z"
         sodipodi:ry="8"
         sodipodi:rx="12"
         sodipodi:cy="88"
         sodipodi:cx="-76"
         id="path4971"
         style="fill:url(#radialGradient5551);fill-opacity:1;stroke:#666666"
         sodipodi:type="arc" />
      <path
         sodipodi:type="arc"
         style="fill:url(#radialGradient5553);fill-opacity:1;stroke:#666666"
         id="path4973"
         sodipodi:cx="-76"
         sodipodi:cy="88"
         sodipodi:rx="12"
         sodipodi:ry="8"
         d="m -64,88 c 0,4.418278 -5.372583,8 -12,8 -6.627417,0 -12,-3.581722 -12,-8 0,-4.418278 5.372583,-8 12,-8 6.627417,0 12,3.581722 12,8 z"
         transform="matrix(-1,0,0,-1,-160,108)" />
    </g>
    <g
       style="stroke:#666666"
       transform="matrix(2.5545969,0,0,2.8318953,210.58614,-120.63791)"
       id="g4979">
      <path
         sodipodi:type="arc"
         style="fill:url(#radialGradient5555);fill-opacity:1;stroke:#666666"
         id="path4981"
         sodipodi:cx="-76"
         sodipodi:cy="88"
         sodipodi:rx="12"
         sodipodi:ry="8"
         d="m -64,88 c 0,4.418278 -5.372583,8 -12,8 -6.627417,0 -12,-3.581722 -12,-8 0,-4.418278 5.372583,-8 12,-8 6.627417,0 12,3.581722 12,8 z"
         transform="translate(-8,-68)" />
      <path
         transform="matrix(-1,0,0,-1,-160,108)"
         d="m -64,88 c 0,4.418278 -5.372583,8 -12,8 -6.627417,0 -12,-3.581722 -12,-8 0,-4.418278 5.372583,-8 12,-8 6.627417,0 12,3.581722 12,8 z"
         sodipodi:ry="8"
         sodipodi:rx="12"
         sodipodi:cy="88"
         sodipodi:cx="-76"
         id="path4983"
         style="fill:url(#radialGradient5557);fill-opacity:1;stroke:#666666"
         sodipodi:type="arc" />
    </g>
    <g
       style="stroke:#666666"
       transform="matrix(2.5545969,0,0,2.8318953,234.58614,-100.63791)"
       id="g4444">
      <path
         sodipodi:type="arc"
         style="fill:url(#radialGradient5559);fill-opacity:1;stroke:#666666"
         id="path4446"
         sodipodi:cx="-76"
         sodipodi:cy="88"
         sodipodi:rx="12"
         sodipodi:ry="8"
         d="m -64,88 c 0,4.418278 -5.372583,8 -12,8 -6.627417,0 -12,-3.581722 -12,-8 0,-4.418278 5.372583,-8 12,-8 6.627417,0 12,3.581722 12,8 z"
         transform="translate(-8,-68)" />
      <path
         transform="matrix(-1,0,0,-1,-160,108)"
         d="m -64,88 c 0,4.418278 -5.372583,8 -12,8 -6.627417,0 -12,-3.581722 -12,-8 0,-4.418278 5.372583,-8 12,-8 6.627417,0 12,3.581722 12,8 z"
         sodipodi:ry="8"
         sodipodi:rx="12"
         sodipodi:cy="88"
         sodipodi:cx="-76"
         id="path4448"
         style="fill:url(#radialGradient5561);fill-opacity:1;stroke:#666666"
         sodipodi:type="arc" />
    </g>
    <g
       id="g4869"
       transform="matrix(2.5545969,0,0,2.8318953,338.58614,-120.63791)"
       style="stroke:#666666">
      <path
         transform="translate(-8,-68)"
         d="m -64,88 c 0,4.418278 -5.372583,8 -12,8 -6.627417,0 -12,-3.581722 -12,-8 0,-4.418278 5.372583,-8 12,-8 6.627417,0 12,3.581722 12,8 z"
         sodipodi:ry="8"
         sodipodi:rx="12"
         sodipodi:cy="88"
         sodipodi:cx="-76"
         id="path4871"
         style="fill:url(#radialGradient5563);fill-opacity:1;stroke:#666666"
         sodipodi:type="arc" />
      <path
         sodipodi:type="arc"
         style="fill:url(#radialGradient5565);fill-opacity:1;stroke:#666666"
         id="path4873"
         sodipodi:cx="-76"
         sodipodi:cy="88"
         sodipodi:rx="12"
         sodipodi:ry="8"
         d="m -64,88 c 0,4.418278 -5.372583,8 -12,8 -6.627417,0 -12,-3.581722 -12,-8 0,-4.418278 5.372583,-8 12,-8 6.627417,0 12,3.581722 12,8 z"
         transform="matrix(-1,0,0,-1,-160,108)" />
    </g>
    <g
       id="g4849"
       transform="matrix(2.5545969,0,0,2.8318953,294.58614,-120.63791)"
       style="stroke:#666666">
      <path
         transform="translate(-8,-68)"
         d="m -64,88 c 0,4.418278 -5.372583,8 -12,8 -6.627417,0 -12,-3.581722 -12,-8 0,-4.418278 5.372583,-8 12,-8 6.627417,0 12,3.581722 12,8 z"
         sodipodi:ry="8"
         sodipodi:rx="12"
         sodipodi:cy="88"
         sodipodi:cx="-76"
         id="path4851"
         style="fill:url(#radialGradient5567);fill-opacity:1;stroke:#666666"
         sodipodi:type="arc" />
      <path
         sodipodi:type="arc"
         style="fill:url(#radialGradient5569);fill-opacity:1;stroke:#666666"
         id="path4853"
         sodipodi:cx="-76"
         sodipodi:cy="88"
         sodipodi:rx="12"
         sodipodi:ry="8"
         d="m -64,88 c 0,4.418278 -5.372583,8 -12,8 -6.627417,0 -12,-3.581722 -12,-8 0,-4.418278 5.372583,-8 12,-8 6.627417,0 12,3.581722 12,8 z"
         transform="matrix(-1,0,0,-1,-160,108)" />
    </g>
    <path
       style="fill:#339900;stroke:#015a01;stroke-width:1px;stroke-linecap:butt;stroke-linejoin:miter;stroke-opacity:1"
       d="M 19,41.25 15.184136,37.368718 C 15.184136,37.368718 23.5,35.25 27.25,35.25 31,35.25 38.5,35.5 38.5,35.5 L 42,41.25 29,42 19.5,44.75 z"
       id="path5412"
       inkscape:connector-curvature="0"
       transform="translate(0,-64)"
       sodipodi:nodetypes="ccsccccc" />
    <g
       style="stroke:#666666"
       transform="matrix(2.5545969,0,0,2.8318953,202.58614,-76.637906)"
       id="g4899">
      <path
         sodipodi:type="arc"
         style="fill:url(#radialGradient5575);fill-opacity:1;stroke:#666666"
         id="path4901"
         sodipodi:cx="-76"
         sodipodi:cy="88"
         sodipodi:rx="12"
         sodipodi:ry="8"
         d="m -64,88 c 0,4.418278 -5.372583,8 -12,8 -6.627417,0 -12,-3.581722 -12,-8 0,-4.418278 5.372583,-8 12,-8 6.627417,0 12,3.581722 12,8 z"
         transform="translate(-8,-68)" />
      <path
         transform="matrix(-1,0,0,-1,-160,108)"
         d="m -64,88 c 0,4.418278 -5.372583,8 -12,8 -6.627417,0 -12,-3.581722 -12,-8 0,-4.418278 5.372583,-8 12,-8 6.627417,0 12,3.581722 12,8 z"
         sodipodi:ry="8"
         sodipodi:rx="12"
         sodipodi:cy="88"
         sodipodi:cx="-76"
         id="path4903"
         style="fill:url(#radialGradient5577);fill-opacity:1;stroke:#666666"
         sodipodi:type="arc" />
    </g>
    <path
       style="fill:#339900;stroke:#015a01;stroke-width:1px;stroke-linecap:butt;stroke-linejoin:miter;stroke-opacity:1"
       d="m 60.25,75.25 8.5,1.5 c 0,0 -3.25,-3.5 -1.25,-8.25 2,-4.75 9.25,-12.75 14.25,-14.25 5,-1.5 9.75,-5 9.75,-5 0,0 3.25,-11 6.25,-14 3,-3 4.5,-9.25 8,-11.25 3.5,-2 9.25,-1.5 10.25,-1.75 1,-0.25 0,-6.5 0,-6.5 0,0 -8,0 -11.5,0.75 C 101,17.25 95.75,16.25 92,13 88.25,9.7499999 74.5,4.9999999 72.75,4.9999999 c -1.75,0 -9.5,1.5 -12.5,1.25 C 57.25,5.9999999 52,4 52,0 52,-4 46,-31 46,-31 l -7.25,0.5 c 0,0 9.25,26.5 9.25,30.5 0,4 -1,10.5 -1,10.5 l 3,4.5 c 0,0 7.25,-4.75 13,-5 5.75,-0.25 19,2 22,4 1.860521,1.240347 9,5.25 10.5,8.25 1.5,3 -0.5,6.5 -2.5,9.5 -2,3 -7,11.25 -8.25,13.5 -1.25,2.25 -4,1.5 -9.5,4.5 -5.5,3 -7.5,-1.75 -9.25,6 -1.75,7.75 -5.75,19.5 -5.75,19.5 z"
       id="path5414"
       inkscape:connector-curvature="0"
       transform="translate(0,-64)"
       sodipodi:nodetypes="ccsscssscsssszcczccsssssssc" />
    <g
       id="g4989"
       transform="matrix(2.5545969,0,0,2.8318953,362.58614,-100.63791)"
       style="stroke:#666666">
      <path
         transform="translate(-8,-68)"
         d="m -64,88 c 0,4.418278 -5.372583,8 -12,8 -6.627417,0 -12,-3.581722 -12,-8 0,-4.418278 5.372583,-8 12,-8 6.627417,0 12,3.581722 12,8 z"
         sodipodi:ry="8"
         sodipodi:rx="12"
         sodipodi:cy="88"
         sodipodi:cx="-76"
         id="path4991"
         style="fill:url(#radialGradient5587);fill-opacity:1;stroke:#666666"
         sodipodi:type="arc" />
      <path
         sodipodi:type="arc"
         style="fill:url(#radialGradient5589);fill-opacity:1;stroke:#666666"
         id="path4993"
         sodipodi:cx="-76"
         sodipodi:cy="88"
         sodipodi:rx="12"
         sodipodi:ry="8"
         d="m -64,88 c 0,4.418278 -5.372583,8 -12,8 -6.627417,0 -12,-3.581722 -12,-8 0,-4.418278 5.372583,-8 12,-8 6.627417,0 12,3.581722 12,8 z"
         transform="matrix(-1,0,0,-1,-160,108)" />
    </g>
    <path
       style="fill:#339900;stroke:#015a01;stroke-width:1px;stroke-linecap:butt;stroke-linejoin:miter;stroke-opacity:1"
       d="m 83.84375,-20.5 c -1.02272,1.703571 -1.91999,3.237233 -2.34375,4 -1.25,2.25 -4,1.5 -9.5,4.5 -5.5,3 -7.5,-1.75 -9.25,6 C 61,1.75 57,13.5 57,13.5 l 8.5,1.5 c 0,0 -3.25,-3.5 -1.25,-8.25 C 66.25,2 73.5,-6 78.5,-7.5 c 5,-1.5 9.75,-5 9.75,-5 0,0 1.24276,-4.115266 2.875,-8 l -7.28125,0 z"
       id="path5685"
       inkscape:connector-curvature="0" />
    <g
       style="stroke:#666666"
       transform="matrix(2.5545969,0,0,2.8318953,282.58614,-88.637906)"
       id="g4839">
      <path
         sodipodi:type="arc"
         style="fill:url(#radialGradient5571);fill-opacity:1;stroke:#666666"
         id="path4841"
         sodipodi:cx="-76"
         sodipodi:cy="88"
         sodipodi:rx="12"
         sodipodi:ry="8"
         d="m -64,88 c 0,4.418278 -5.372583,8 -12,8 -6.627417,0 -12,-3.581722 -12,-8 0,-4.418278 5.372583,-8 12,-8 6.627417,0 12,3.581722 12,8 z"
         transform="translate(-8,-68)" />
      <path
         transform="matrix(-1,0,0,-1,-160,108)"
         d="m -64,88 c 0,4.418278 -5.372583,8 -12,8 -6.627417,0 -12,-3.581722 -12,-8 0,-4.418278 5.372583,-8 12,-8 6.627417,0 12,3.581722 12,8 z"
         sodipodi:ry="8"
         sodipodi:rx="12"
         sodipodi:cy="88"
         sodipodi:cx="-76"
         id="path4843"
         style="fill:url(#radialGradient5573);fill-opacity:1;stroke:#666666"
         sodipodi:type="arc" />
    </g>
    <g
       id="g4909"
       transform="matrix(2.5545969,0,0,2.8318953,250.58614,-56.637906)"
       style="stroke:#666666">
      <path
         transform="translate(-8,-68)"
         d="m -64,88 c 0,4.418278 -5.372583,8 -12,8 -6.627417,0 -12,-3.581722 -12,-8 0,-4.418278 5.372583,-8 12,-8 6.627417,0 12,3.581722 12,8 z"
         sodipodi:ry="8"
         sodipodi:rx="12"
         sodipodi:cy="88"
         sodipodi:cx="-76"
         id="path4911"
         style="fill:url(#radialGradient5579);fill-opacity:1;stroke:#666666"
         sodipodi:type="arc" />
      <path
         sodipodi:type="arc"
         style="fill:url(#radialGradient5581);fill-opacity:1;stroke:#666666"
         id="path4913"
         sodipodi:cx="-76"
         sodipodi:cy="88"
         sodipodi:rx="12"
         sodipodi:ry="8"
         d="m -64,88 c 0,4.418278 -5.372583,8 -12,8 -6.627417,0 -12,-3.581722 -12,-8 0,-4.418278 5.372583,-8 12,-8 6.627417,0 12,3.581722 12,8 z"
         transform="matrix(-1,0,0,-1,-160,108)" />
    </g>
    <path
       style="fill:#339900;stroke:#015a01;stroke-width:1px;stroke-linecap:butt;stroke-linejoin:miter;stroke-opacity:1"
       d="m 136,4 -12,0 0,4 12,0 z"
       id="path5549"
       inkscape:connector-curvature="0" />
    <g
       id="g4889"
       transform="matrix(2.5545969,0,0,2.8318953,330.58614,-76.637906)"
       style="stroke:#666666">
      <path
         transform="translate(-8,-68)"
         d="m -64,88 c 0,4.418278 -5.372583,8 -12,8 -6.627417,0 -12,-3.581722 -12,-8 0,-4.418278 5.372583,-8 12,-8 6.627417,0 12,3.581722 12,8 z"
         sodipodi:ry="8"
         sodipodi:rx="12"
         sodipodi:cy="88"
         sodipodi:cx="-76"
         id="path4891"
         style="fill:url(#radialGradient5591);fill-opacity:1;stroke:#666666"
         sodipodi:type="arc" />
      <path
         sodipodi:type="arc"
         style="fill:url(#radialGradient5593);fill-opacity:1;stroke:#666666"
         id="path4893"
         sodipodi:cx="-76"
         sodipodi:cy="88"
         sodipodi:rx="12"
         sodipodi:ry="8"
         d="m -64,88 c 0,4.418278 -5.372583,8 -12,8 -6.627417,0 -12,-3.581722 -12,-8 0,-4.418278 5.372583,-8 12,-8 6.627417,0 12,3.581722 12,8 z"
         transform="matrix(-1,0,0,-1,-160,108)" />
    </g>
    <g
       style="stroke:#666666"
       transform="matrix(2.5545969,0,0,2.8318953,310.58614,-48.637906)"
       id="g4919">
      <path
         sodipodi:type="arc"
         style="fill:url(#radialGradient5595);fill-opacity:1;stroke:#666666"
         id="path4921"
         sodipodi:cx="-76"
         sodipodi:cy="88"
         sodipodi:rx="12"
         sodipodi:ry="8"
         d="m -64,88 c 0,4.418278 -5.372583,8 -12,8 -6.627417,0 -12,-3.581722 -12,-8 0,-4.418278 5.372583,-8 12,-8 6.627417,0 12,3.581722 12,8 z"
         transform="translate(-8,-68)" />
      <path
         transform="matrix(-1,0,0,-1,-160,108)"
         d="m -64,88 c 0,4.418278 -5.372583,8 -12,8 -6.627417,0 -12,-3.581722 -12,-8 0,-4.418278 5.372583,-8 12,-8 6.627417,0 12,3.581722 12,8 z"
         sodipodi:ry="8"
         sodipodi:rx="12"
         sodipodi:cy="88"
         sodipodi:cx="-76"
         id="path4923"
         style="fill:url(#radialGradient5597);fill-opacity:1;stroke:#666666"
         sodipodi:type="arc" />
    </g>
    <g
       id="g4949"
       transform="matrix(2.5545969,0,0,2.8318953,278.58614,-20.637906)"
       style="stroke:#666666">
      <path
         transform="translate(-8,-68)"
         d="m -64,88 c 0,4.418278 -5.372583,8 -12,8 -6.627417,0 -12,-3.581722 -12,-8 0,-4.418278 5.372583,-8 12,-8 6.627417,0 12,3.581722 12,8 z"
         sodipodi:ry="8"
         sodipodi:rx="12"
         sodipodi:cy="88"
         sodipodi:cx="-76"
         id="path4951"
         style="fill:url(#radialGradient5603);fill-opacity:1;stroke:#666666"
         sodipodi:type="arc" />
      <path
         sodipodi:type="arc"
         style="fill:url(#radialGradient5605);fill-opacity:1;stroke:#666666"
         id="path4953"
         sodipodi:cx="-76"
         sodipodi:cy="88"
         sodipodi:rx="12"
         sodipodi:ry="8"
         d="m -64,88 c 0,4.418278 -5.372583,8 -12,8 -6.627417,0 -12,-3.581722 -12,-8 0,-4.418278 5.372583,-8 12,-8 6.627417,0 12,3.581722 12,8 z"
         transform="matrix(-1,0,0,-1,-160,108)" />
    </g>
    <g
       style="stroke:#666666"
       transform="matrix(2.5545969,0,0,2.8318953,346.58614,-24.637906)"
       id="g4939">
      <path
         sodipodi:type="arc"
         style="fill:url(#radialGradient5599);fill-opacity:1;stroke:#666666"
         id="path4941"
         sodipodi:cx="-76"
         sodipodi:cy="88"
         sodipodi:rx="12"
         sodipodi:ry="8"
         d="m -64,88 c 0,4.418278 -5.372583,8 -12,8 -6.627417,0 -12,-3.581722 -12,-8 0,-4.418278 5.372583,-8 12,-8 6.627417,0 12,3.581722 12,8 z"
         transform="translate(-8,-68)" />
      <path
         transform="matrix(-1,0,0,-1,-160,108)"
         d="m -64,88 c 0,4.418278 -5.372583,8 -12,8 -6.627417,0 -12,-3.581722 -12,-8 0,-4.418278 5.372583,-8 12,-8 6.627417,0 12,3.581722 12,8 z"
         sodipodi:ry="8"
         sodipodi:rx="12"
         sodipodi:cy="88"
         sodipodi:cx="-76"
         id="path4943"
         style="fill:url(#radialGradient5601);fill-opacity:1;stroke:#666666"
         sodipodi:type="arc" />
    </g>
    <path
       style="fill:#339900;stroke:#015a01;stroke-width:1px;stroke-linecap:butt;stroke-linejoin:miter;stroke-opacity:1"
       d="m 0,72 c 4,0 29.521708,7.032855 33.410795,13.75037 3.889088,6.717514 15.202796,4.596194 20.152544,8.662058 C 58.513086,98.478292 63.30504,106.69496 62,108 c -1,1 -6.645899,4.6459 -10,8 -4,4 -4,8 -4,12 0,4 0.260038,8.83883 0.260038,8.83883 l 5.419417,0 C 53.676562,136.70577 52,136 52,128 c 0,-8 8.280853,-16.44023 13.053824,-18.38478 4.772971,-1.94454 12.020815,-5.12652 18.915106,-3.71231 6.894292,1.41422 10.783379,0.88389 15.202796,3.88909 4.419414,3.0052 18.561554,-5.3033 18.561554,-5.3033 l -4.59619,-1.41421 c 0,0 -4.41942,1.41421 -6.18719,1.23743 -1.76777,-0.17677 -3.35876,-7.954948 -5.83363,-10.253046 -2.474874,-2.298097 -4.949748,-1.944543 -6.894291,-1.59099 -1.944544,0.353554 -1.944544,-2.474874 -1.767767,3.181981 0.176776,5.656855 -5.656854,7.247845 -5.656854,7.247845 0,0 -15.733126,0.70711 -17.67767,0.35355 C 67.175144,102.89771 60.98796,95.119535 57.452426,92.467884 53.916892,89.816234 48.260038,90.876894 41.012193,85.75037 33.764349,80.623846 25.986174,73.199224 21.38998,71.431457 16.793786,69.66369 4,68 0,68 c -4,0 -7.4246212,0.0727 -7.4246212,0.0727 l 0.7071068,3.535534 C -6.7175144,71.608234 -4,72 0,72 z"
       id="path5402"
       inkscape:connector-curvature="0"
       transform="translate(0,-64)"
       sodipodi:nodetypes="zsssszcczsssccsssscsssszccz" />
    <g
       style="stroke:#666666"
       transform="matrix(2.5545969,0,0,2.8318953,338.58614,7.3620942)"
       id="g4879">
      <path
         sodipodi:type="arc"
         style="fill:url(#radialGradient5611);fill-opacity:1;stroke:#666666"
         id="path4881"
         sodipodi:cx="-76"
         sodipodi:cy="88"
         sodipodi:rx="12"
         sodipodi:ry="8"
         d="m -64,88 c 0,4.418278 -5.372583,8 -12,8 -6.627417,0 -12,-3.581722 -12,-8 0,-4.418278 5.372583,-8 12,-8 6.627417,0 12,3.581722 12,8 z"
         transform="translate(-8,-68)" />
      <path
         transform="matrix(-1,0,0,-1,-160,108)"
         d="m -64,88 c 0,4.418278 -5.372583,8 -12,8 -6.627417,0 -12,-3.581722 -12,-8 0,-4.418278 5.372583,-8 12,-8 6.627417,0 12,3.581722 12,8 z"
         sodipodi:ry="8"
         sodipodi:rx="12"
         sodipodi:cy="88"
         sodipodi:cx="-76"
         id="path4883"
         style="fill:url(#radialGradient5613);fill-opacity:1;stroke:#666666"
         sodipodi:type="arc" />
    </g>
    <g
       id="g4929"
       transform="matrix(2.5545969,0,0,2.8318953,218.58614,-24.637906)"
       style="stroke:#666666">
      <path
         transform="translate(-8,-68)"
         d="m -64,88 c 0,4.418278 -5.372583,8 -12,8 -6.627417,0 -12,-3.581722 -12,-8 0,-4.418278 5.372583,-8 12,-8 6.627417,0 12,3.581722 12,8 z"
         sodipodi:ry="8"
         sodipodi:rx="12"
         sodipodi:cy="88"
         sodipodi:cx="-76"
         id="path4931"
         style="fill:url(#radialGradient5583);fill-opacity:1;stroke:#666666"
         sodipodi:type="arc" />
      <path
         sodipodi:type="arc"
         style="fill:url(#radialGradient5585);fill-opacity:1;stroke:#666666"
         id="path4933"
         sodipodi:cx="-76"
         sodipodi:cy="88"
         sodipodi:rx="12"
         sodipodi:ry="8"
         d="m -64,88 c 0,4.418278 -5.372583,8 -12,8 -6.627417,0 -12,-3.581722 -12,-8 0,-4.418278 5.372583,-8 12,-8 6.627417,0 12,3.581722 12,8 z"
         transform="matrix(-1,0,0,-1,-160,108)" />
    </g>
    <g
       style="stroke:#666666"
       transform="matrix(2.5545969,0,0,2.8318953,246.58614,-8.6379062)"
       id="g4959">
      <path
         sodipodi:type="arc"
         style="fill:url(#radialGradient5607);fill-opacity:1;stroke:#666666"
         id="path4961"
         sodipodi:cx="-76"
         sodipodi:cy="88"
         sodipodi:rx="12"
         sodipodi:ry="8"
         d="m -64,88 c 0,4.418278 -5.372583,8 -12,8 -6.627417,0 -12,-3.581722 -12,-8 0,-4.418278 5.372583,-8 12,-8 6.627417,0 12,3.581722 12,8 z"
         transform="translate(-8,-68)" />
      <path
         transform="matrix(-1,0,0,-1,-160,108)"
         d="m -64,88 c 0,4.418278 -5.372583,8 -12,8 -6.627417,0 -12,-3.581722 -12,-8 0,-4.418278 5.372583,-8 12,-8 6.627417,0 12,3.581722 12,8 z"
         sodipodi:ry="8"
         sodipodi:rx="12"
         sodipodi:cy="88"
         sodipodi:cx="-76"
         id="path4963"
         style="fill:url(#radialGradient5609);fill-opacity:1;stroke:#666666"
         sodipodi:type="arc" />
    </g>
    <g
       id="g4999"
       transform="matrix(2.5545969,0,0,2.8318953,210.58614,7.3620938)"
       style="stroke:#666666">
      <path
         transform="translate(-8,-68)"
         d="m -64,88 c 0,4.418278 -5.372583,8 -12,8 -6.627417,0 -12,-3.581722 -12,-8 0,-4.418278 5.372583,-8 12,-8 6.627417,0 12,3.581722 12,8 z"
         sodipodi:ry="8"
         sodipodi:rx="12"
         sodipodi:cy="88"
         sodipodi:cx="-76"
         id="path5001"
         style="fill:url(#radialGradient5619);fill-opacity:1;stroke:#666666"
         sodipodi:type="arc" />
      <path
         sodipodi:type="arc"
         style="fill:url(#radialGradient5621);fill-opacity:1;stroke:#666666"
         id="path5003"
         sodipodi:cx="-76"
         sodipodi:cy="88"
         sodipodi:rx="12"
         sodipodi:ry="8"
         d="m -64,88 c 0,4.418278 -5.372583,8 -12,8 -6.627417,0 -12,-3.581722 -12,-8 0,-4.418278 5.372583,-8 12,-8 6.627417,0 12,3.581722 12,8 z"
         transform="matrix(-1,0,0,-1,-160,108)" />
    </g>
    <g
       id="g4829"
       transform="matrix(2.5545969,0,0,2.8318953,234.58614,27.362094)"
       style="stroke:#666666">
      <path
         transform="translate(-8,-68)"
         d="m -64,88 c 0,4.418278 -5.372583,8 -12,8 -6.627417,0 -12,-3.581722 -12,-8 0,-4.418278 5.372583,-8 12,-8 6.627417,0 12,3.581722 12,8 z"
         sodipodi:ry="8"
         sodipodi:rx="12"
         sodipodi:cy="88"
         sodipodi:cx="-76"
         id="path4831"
         style="fill:url(#radialGradient5623);fill-opacity:1;stroke:#666666"
         sodipodi:type="arc" />
      <path
         sodipodi:type="arc"
         style="fill:url(#radialGradient5625);fill-opacity:1;stroke:#666666"
         id="path4833"
         sodipodi:cx="-76"
         sodipodi:cy="88"
         sodipodi:rx="12"
         sodipodi:ry="8"
         d="m -64,88 c 0,4.418278 -5.372583,8 -12,8 -6.627417,0 -12,-3.581722 -12,-8 0,-4.418278 5.372583,-8 12,-8 6.627417,0 12,3.581722 12,8 z"
         transform="matrix(-1,0,0,-1,-160,108)" />
    </g>
    <g
       style="stroke:#666666"
       transform="matrix(2.5545969,0,0,2.8318953,294.58614,7.3620938)"
       id="g4859">
      <path
         sodipodi:type="arc"
         style="fill:url(#radialGradient5615);fill-opacity:1;stroke:#666666"
         id="path4861"
         sodipodi:cx="-76"
         sodipodi:cy="88"
         sodipodi:rx="12"
         sodipodi:ry="8"
         d="m -64,88 c 0,4.418278 -5.372583,8 -12,8 -6.627417,0 -12,-3.581722 -12,-8 0,-4.418278 5.372583,-8 12,-8 6.627417,0 12,3.581722 12,8 z"
         transform="translate(-8,-68)" />
      <path
         transform="matrix(-1,0,0,-1,-160,108)"
         d="m -64,88 c 0,4.418278 -5.372583,8 -12,8 -6.627417,0 -12,-3.581722 -12,-8 0,-4.418278 5.372583,-8 12,-8 6.627417,0 12,3.581722 12,8 z"
         sodipodi:ry="8"
         sodipodi:rx="12"
         sodipodi:cy="88"
         sodipodi:cx="-76"
         id="path4863"
         style="fill:url(#radialGradient5617);fill-opacity:1;stroke:#666666"
         sodipodi:type="arc" />
    </g>
    <path
       style="fill:#339900;fill-opacity:1;stroke:#015a01;stroke-width:0.5;stroke-linecap:round;stroke-miterlimit:4;stroke-opacity:1;stroke-dasharray:none"
       d="M 49.1875 120 C 48.004067 122.66535 48 125.33465 48 128 C 48 132 48.25 136.84375 48.25 136.84375 L 53.6875 136.84375 C 53.684607 136.71069 52 136 52 128 C 52 125.28878 52.962931 122.54237 54.40625 120 L 49.1875 120 z "
       transform="translate(0,-64)"
       id="rect5690" />
    <g
       id="g5408"
       transform="matrix(-0.87149925,0.49039683,-0.49039683,-0.87149925,-14.513011,66.833303)"
       inkscape:transform-center-x="75.25"
       inkscape:transform-center-y="-23.25">
      <path
         transform="translate(0,-64)"
         inkscape:connector-curvature="0"
         id="path5404"
         d="m -41.012193,78.856079 c 0,0 -5.303301,-5.303301 -10.076272,-6.010408 -4.772971,-0.707107 -12.727922,2.12132 -14.495689,3.712311 -1.767767,1.59099 9.722718,6.187184 14.318912,5.833631 4.596194,-0.353554 10.253049,-3.535534 10.253049,-3.535534 z"
         style="fill:#339900;stroke:#015a01;stroke-width:1px;stroke-linecap:butt;stroke-linejoin:miter;stroke-opacity:1" />
      <path
         inkscape:connector-curvature="0"
         id="path5406"
         d="m -44.90128,14.325748 -15.55635,-1.06066"
         style="fill:none;stroke:#98fc66;stroke-width:1px;stroke-linecap:round;stroke-linejoin:miter;stroke-opacity:1" />
    </g>
    <g
       id="g5422"
       transform="matrix(0.83268999,-0.55373944,0.55373944,0.83268999,105.89559,-16.118072)">
      <path
         transform="translate(0,-64)"
         inkscape:connector-curvature="0"
         id="path5424"
         d="m -41.012193,78.856079 c 0,0 -5.303301,-5.303301 -10.076272,-6.010408 -4.772971,-0.707107 -12.727922,2.12132 -14.495689,3.712311 -1.767767,1.59099 9.722718,6.187184 14.318912,5.833631 4.596194,-0.353554 10.253049,-3.535534 10.253049,-3.535534 z"
         style="fill:#339900;stroke:#015a01;stroke-width:1px;stroke-linecap:butt;stroke-linejoin:miter;stroke-opacity:1" />
      <path
         inkscape:connector-curvature="0"
         id="path5426"
         d="m -44.90128,14.325748 -15.55635,-1.06066"
         style="fill:none;stroke:#98fc66;stroke-width:1px;stroke-linecap:round;stroke-linejoin:miter;stroke-opacity:1" />
    </g>
    <g
       id="g5528"
       transform="matrix(0.89737264,-0.44127355,0.44127355,0.89737264,28.596121,39.778658)">
      <g
         transform="matrix(-0.99634391,0.08543304,-0.08543304,-0.99634391,34.83547,-25.02087)"
         id="g5510">
        <path
           style="fill:#339900;stroke:#015a01;stroke-width:1px;stroke-linecap:butt;stroke-linejoin:miter;stroke-opacity:1"
           d="m -41.012193,78.856079 c 0,0 -5.303301,-5.303301 -10.076272,-6.010408 -4.772971,-0.707107 -12.727922,2.12132 -14.495689,3.712311 -1.767767,1.59099 9.722718,6.187184 14.318912,5.833631 4.596194,-0.353554 10.253049,-3.535534 10.253049,-3.535534 z"
           id="path5512"
           inkscape:connector-curvature="0"
           transform="translate(0,-64)" />
        <path
           style="fill:none;stroke:#98fc66;stroke-width:1px;stroke-linecap:round;stroke-linejoin:miter;stroke-opacity:1"
           d="m -44.90128,14.325748 -15.55635,-1.06066"
           id="path5514"
           inkscape:connector-curvature="0" />
      </g>
    </g>
    <g
       transform="matrix(-0.65507875,0.7555606,-0.7555606,-0.65507875,17.216473,4.3950424)"
       id="g5516">
      <path
         style="fill:#339900;stroke:#015a01;stroke-width:1px;stroke-linecap:butt;stroke-linejoin:miter;stroke-opacity:1"
         d="m -41.012193,78.856079 c 0,0 -5.303301,-5.303301 -10.076272,-6.010408 -4.772971,-0.707107 -12.727922,2.12132 -14.495689,3.712311 -1.767767,1.59099 9.722718,6.187184 14.318912,5.833631 4.596194,-0.353554 10.253049,-3.535534 10.253049,-3.535534 z"
         id="path5518"
         inkscape:connector-curvature="0"
         transform="translate(0,-64)" />
      <path
         style="fill:none;stroke:#98fc66;stroke-width:1px;stroke-linecap:round;stroke-linejoin:miter;stroke-opacity:1"
         d="m -44.90128,14.325748 -15.55635,-1.06066"
         id="path5520"
         inkscape:connector-curvature="0" />
    </g>
    <g
       id="g5522"
       transform="matrix(0.6275033,-0.7786139,0.7786139,0.6275033,123.70901,-28.636433)">
      <path
         transform="translate(0,-64)"
         inkscape:connector-curvature="0"
         id="path5524"
         d="m -41.012193,78.856079 c 0,0 -5.303301,-5.303301 -10.076272,-6.010408 -4.772971,-0.707107 -12.727922,2.12132 -14.495689,3.712311 -1.767767,1.59099 9.722718,6.187184 14.318912,5.833631 4.596194,-0.353554 10.253049,-3.535534 10.253049,-3.535534 z"
         style="fill:#339900;stroke:#015a01;stroke-width:1px;stroke-linecap:butt;stroke-linejoin:miter;stroke-opacity:1" />
      <path
         inkscape:connector-curvature="0"
         id="path5526"
         d="m -44.90128,14.325748 -15.55635,-1.06066"
         style="fill:none;stroke:#98fc66;stroke-width:1px;stroke-linecap:round;stroke-linejoin:miter;stroke-opacity:1" />
    </g>
    <g
       id="g5541"
       transform="matrix(-0.64865053,0.76108639,-0.76108639,-0.64865053,103.97646,-160.25024)">
      <g
         transform="matrix(-0.99634391,0.08543304,-0.08543304,-0.99634391,34.83547,-25.02087)"
         id="g5543">
        <path
           style="fill:#339900;stroke:#015a01;stroke-width:1px;stroke-linecap:butt;stroke-linejoin:miter;stroke-opacity:1"
           d="m -41.012193,78.856079 c 0,0 -5.303301,-5.303301 -10.076272,-6.010408 -4.772971,-0.707107 -12.727922,2.12132 -14.495689,3.712311 -1.767767,1.59099 9.722718,6.187184 14.318912,5.833631 4.596194,-0.353554 10.253049,-3.535534 10.253049,-3.535534 z"
           id="path5545"
           inkscape:connector-curvature="0"
           transform="translate(0,-64)" />
        <path
           style="fill:none;stroke:#98fc66;stroke-width:1px;stroke-linecap:round;stroke-linejoin:miter;stroke-opacity:1"
           d="m -44.90128,14.325748 -15.55635,-1.06066"
           id="path5547"
           inkscape:connector-curvature="0" />
      </g>
    </g>
    <g
       id="g5844"
       transform="matrix(-0.67881251,0.73431163,-0.73431163,-0.67881251,83.895833,-42.442528)">
      <g
         transform="matrix(-0.99634391,0.08543304,-0.08543304,-0.99634391,34.83547,-25.02087)"
         id="g5846">
        <path
           style="fill:#339900;stroke:#015a01;stroke-width:1px;stroke-linecap:butt;stroke-linejoin:miter;stroke-opacity:1"
           d="m -41.012193,78.856079 c 0,0 -5.303301,-5.303301 -10.076272,-6.010408 -4.772971,-0.707107 -12.727922,2.12132 -14.495689,3.712311 -1.767767,1.59099 9.722718,6.187184 14.318912,5.833631 4.596194,-0.353554 10.253049,-3.535534 10.253049,-3.535534 z"
           id="path5848"
           inkscape:connector-curvature="0"
           transform="translate(0,-64)" />
        <path
           style="fill:none;stroke:#98fc66;stroke-width:1px;stroke-linecap:round;stroke-linejoin:miter;stroke-opacity:1"
           d="m -44.90128,14.325748 -15.55635,-1.06066"
           id="path5850"
           inkscape:connector-curvature="0" />
      </g>
    </g>
    <g
       transform="matrix(-0.64865053,0.76108639,-0.76108639,-0.64865053,103.97646,-32.250245)"
       id="g5852">
      <g
         id="g5854"
         transform="matrix(-0.99634391,0.08543304,-0.08543304,-0.99634391,34.83547,-25.02087)">
        <path
           transform="translate(0,-64)"
           inkscape:connector-curvature="0"
           id="path5856"
           d="m -41.012193,78.856079 c 0,0 -5.303301,-5.303301 -10.076272,-6.010408 -4.772971,-0.707107 -12.727922,2.12132 -14.495689,3.712311 -1.767767,1.59099 9.722718,6.187184 14.318912,5.833631 4.596194,-0.353554 10.253049,-3.535534 10.253049,-3.535534 z"
           style="fill:#339900;stroke:#015a01;stroke-width:1px;stroke-linecap:butt;stroke-linejoin:miter;stroke-opacity:1" />
        <path
           inkscape:connector-curvature="0"
           id="path5858"
           d="m -44.90128,14.325748 -15.55635,-1.06066"
           style="fill:none;stroke:#98fc66;stroke-width:1px;stroke-linecap:round;stroke-linejoin:miter;stroke-opacity:1" />
      </g>
    </g>
  </g>
</svg>
