<?xml version="1.0" encoding="UTF-8" standalone="no"?>
<!-- Created with Inkscape (http://www.inkscape.org/) -->

<svg
   xmlns:dc="http://purl.org/dc/elements/1.1/"
   xmlns:cc="http://creativecommons.org/ns#"
   xmlns:rdf="http://www.w3.org/1999/02/22-rdf-syntax-ns#"
   xmlns:svg="http://www.w3.org/2000/svg"
   xmlns="http://www.w3.org/2000/svg"
   xmlns:xlink="http://www.w3.org/1999/xlink"
   xmlns:sodipodi="http://sodipodi.sourceforge.net/DTD/sodipodi-0.dtd"
   xmlns:inkscape="http://www.inkscape.org/namespaces/inkscape"
   width="128"
   height="128"
   id="svg2985"
   version="1.1"
   inkscape:version="0.48.5 r10040"
   sodipodi:docname="cocoa_stage_1.svg"
   inkscape:export-filename="/Users/ianw/drawing.png"
   inkscape:export-xdpi="180"
   inkscape:export-ydpi="180">
  <title
     id="title3119">Template</title>
  <defs
     id="defs2987">
    <linearGradient
       id="linearGradient3913">
      <stop
         style="stop-color:#534a20;stop-opacity:1;"
         offset="0"
         id="stop3915" />
      <stop
         style="stop-color:#937e1b;stop-opacity:0.05932203;"
         offset="1"
         id="stop3917" />
    </linearGradient>
    <filter
       id="filter5093"
       inkscape:collect="always">
      <feGaussianBlur
         id="feGaussianBlur5095"
         stdDeviation="0.092914936"
         inkscape:collect="always" />
    </filter>
    <linearGradient
       id="linearGradient4987">
      <stop
         style="stop-color:#7f6905;stop-opacity:0;"
         offset="0"
         id="stop4989" />
      <stop
         style="stop-color:#937e1b;stop-opacity:1;"
         offset="1"
         id="stop4991" />
    </linearGradient>
    <linearGradient
       id="linearGradient4993">
      <stop
         id="stop4995"
         offset="0"
         style="stop-color:#d4ad6d;stop-opacity:0;" />
      <stop
         id="stop4997"
         offset="1"
         style="stop-color:#d4ad6d;stop-opacity:1;" />
    </linearGradient>
    <linearGradient
       inkscape:collect="always"
       xlink:href="#linearGradient4993"
       id="linearGradient4748"
       gradientUnits="userSpaceOnUse"
       gradientTransform="matrix(0.74999974,0,0,0.7,24.000019,-12.800007)"
       x1="80.000008"
       y1="144.00002"
       x2="63.999996"
       y2="64" />
    <linearGradient
       inkscape:collect="always"
       xlink:href="#linearGradient4993"
       id="linearGradient4751"
       gradientUnits="userSpaceOnUse"
       gradientTransform="matrix(0.74999974,0,0,0.7,-59.999935,9.6000014)"
       x1="240"
       y1="47.999996"
       x2="176"
       y2="31.999998" />
    <linearGradient
       inkscape:collect="always"
       xlink:href="#linearGradient4987"
       id="linearGradient4754"
       gradientUnits="userSpaceOnUse"
       gradientTransform="matrix(-0.74999974,0,0,-0.7,120,155.2)"
       x1="16"
       y1="176"
       x2="0"
       y2="96" />
    <linearGradient
       inkscape:collect="always"
       xlink:href="#linearGradient4987"
       id="linearGradient4757"
       gradientUnits="userSpaceOnUse"
       gradientTransform="matrix(-0.74999974,0,0,-0.7,119.99997,144)"
       x1="63.999981"
       y1="96"
       x2="-2.0000001e-05"
       y2="80" />
    <radialGradient
       gradientUnits="userSpaceOnUse"
       gradientTransform="matrix(-0.00242989,-1.4127656,1.1255514,-0.00193591,-12.297614,158.27149)"
       r="60.187702"
       fy="73.860695"
       fx="63.724075"
       cy="73.860695"
       cx="63.724075"
       id="radialGradient4726"
       xlink:href="#linearGradient4343"
       inkscape:collect="always" />
    <filter
       id="filter4711"
       color-interpolation-filters="sRGB"
       inkscape:menu-tooltip="Glow of object's own color at the edges"
       inkscape:menu="Shadows and Glows"
       inkscape:label="Glow">
      <feGaussianBlur
         id="feGaussianBlur4713"
         result="result91"
         stdDeviation="3.2529189189189189" />
      <feComposite
         id="feComposite4715"
         in2="result91"
         operator="over"
         in="SourceGraphic" />
    </filter>
    <linearGradient
       gradientUnits="userSpaceOnUse"
       y2="107.26165"
       x2="107.79061"
       y1="68.460556"
       x1="13.843578"
       id="linearGradient4270"
       xlink:href="#linearGradient4240"
       inkscape:collect="always" />
    <linearGradient
       gradientUnits="userSpaceOnUse"
       y2="66.918594"
       x2="82.77285"
       y1="53.277584"
       x1="57.881115"
       id="linearGradient4262"
       xlink:href="#linearGradient4240"
       inkscape:collect="always" />
    <linearGradient
       gradientUnits="userSpaceOnUse"
       y2="47.359772"
       x2="110.4144"
       y1="29.778028"
       x1="78.073326"
       id="linearGradient4254"
       xlink:href="#linearGradient4240"
       inkscape:collect="always" />
    <linearGradient
       gradientUnits="userSpaceOnUse"
       y2="41.40456"
       x2="51.339294"
       y1="24.732212"
       x1="31.988363"
       id="linearGradient4246"
       xlink:href="#linearGradient4240"
       inkscape:collect="always" />
    <linearGradient
       id="linearGradient4240">
      <stop
         id="stop4242"
         offset="0"
         style="stop-color:#000000;stop-opacity:1;" />
      <stop
         id="stop4244"
         offset="1"
         style="stop-color:#624917;stop-opacity:1;" />
    </linearGradient>
    <linearGradient
       id="linearGradient4343">
      <stop
         style="stop-color:#fff663;stop-opacity:1;"
         offset="0"
         id="stop4345" />
      <stop
         style="stop-color:#ffbb3e;stop-opacity:1;"
         offset="1"
         id="stop4347" />
    </linearGradient>
    <linearGradient
       inkscape:collect="always"
       xlink:href="#linearGradient4240"
       id="linearGradient5088"
       gradientUnits="userSpaceOnUse"
       x1="57.881115"
       y1="53.277584"
       x2="82.77285"
       y2="66.918594"
       gradientTransform="translate(192,8)" />
    <linearGradient
       inkscape:collect="always"
       xlink:href="#linearGradient4240"
       id="linearGradient5091"
       gradientUnits="userSpaceOnUse"
       x1="78.073326"
       y1="29.778028"
       x2="110.4144"
       y2="47.359772"
       gradientTransform="translate(192,8)" />
    <linearGradient
       inkscape:collect="always"
       xlink:href="#linearGradient4240"
       id="linearGradient5094"
       gradientUnits="userSpaceOnUse"
       x1="31.988363"
       y1="24.732212"
       x2="51.339294"
       y2="41.40456"
       gradientTransform="translate(192,8)" />
    <linearGradient
       inkscape:collect="always"
       xlink:href="#linearGradient4240"
       id="linearGradient5097"
       gradientUnits="userSpaceOnUse"
       x1="13.843578"
       y1="68.460556"
       x2="107.79061"
       y2="107.26165"
       gradientTransform="translate(192,8)" />
    <linearGradient
       inkscape:collect="always"
       xlink:href="#linearGradient4993"
       id="linearGradient5199"
       gradientUnits="userSpaceOnUse"
       gradientTransform="matrix(0.74999981,0,0,0.75,-47.999986,-48.000008)"
       x1="80"
       y1="128"
       x2="63.999996"
       y2="64" />
    <linearGradient
       inkscape:collect="always"
       xlink:href="#linearGradient4993"
       id="linearGradient5202"
       gradientUnits="userSpaceOnUse"
       gradientTransform="matrix(0.74999981,0,0,0.75,-47.999985,-47.999998)"
       x1="128"
       y1="80"
       x2="64"
       y2="64" />
    <linearGradient
       inkscape:collect="always"
       xlink:href="#linearGradient4987"
       id="linearGradient5205"
       gradientUnits="userSpaceOnUse"
       gradientTransform="matrix(-0.74999981,0,0,-0.75,47.999997,120)"
       x1="15.999996"
       y1="160"
       x2="0"
       y2="96" />
    <linearGradient
       inkscape:collect="always"
       xlink:href="#linearGradient4987"
       id="linearGradient5208"
       gradientUnits="userSpaceOnUse"
       gradientTransform="matrix(-0.74999981,0,0,-0.75,47.999985,120)"
       x1="64"
       y1="112"
       x2="0"
       y2="96" />
    <radialGradient
       inkscape:collect="always"
       xlink:href="#linearGradient3913"
       id="radialGradient5241"
       cx="128"
       cy="32"
       fx="128"
       fy="32"
       r="16"
       gradientUnits="userSpaceOnUse"
       gradientTransform="matrix(0,-2,2,0,64,288)" />
  </defs>
  <sodipodi:namedview
     id="base"
     pagecolor="#ffffff"
     bordercolor="#000000"
     borderopacity="1"
     inkscape:pageopacity="0.0"
     inkscape:pageshadow="2"
     inkscape:zoom="1.9999999"
     inkscape:cx="45.187932"
     inkscape:cy="64.032056"
     inkscape:current-layer="layer2"
     showgrid="true"
     inkscape:document-units="px"
     inkscape:grid-bbox="true"
     inkscape:snap-bbox="false"
     inkscape:snap-nodes="true"
     inkscape:snap-grids="true"
     inkscape:window-width="1440"
     inkscape:window-height="768"
     inkscape:window-x="0"
     inkscape:window-y="0"
     inkscape:window-maximized="1"
     inkscape:showpageshadow="false"
     borderlayer="true">
    <inkscape:grid
       type="xygrid"
       id="grid2993"
       empspacing="4"
       visible="true"
       enabled="true"
       snapvisiblegridlinesonly="true"
       spacingx="16px"
       spacingy="16px"
       empcolor="#d60053"
       empopacity="0.29803922" />
    <inkscape:grid
       type="xygrid"
       id="grid3043"
       empspacing="4"
       visible="true"
       enabled="true"
       snapvisiblegridlinesonly="true"
       color="#ff00f8"
       opacity="0.1254902"
       dotted="true" />
  </sodipodi:namedview>
  <metadata
     id="metadata2990">
    <rdf:RDF>
      <cc:Work
         rdf:about="">
        <dc:format>image/svg+xml</dc:format>
        <dc:type
           rdf:resource="http://purl.org/dc/dcmitype/StillImage" />
        <dc:title>Template</dc:title>
        <cc:license
           rdf:resource="https://www.gnu.org/copyleft/gpl.html" />
        <dc:creator>
          <cc:Agent>
            <dc:title>Ian Walters</dc:title>
          </cc:Agent>
        </dc:creator>
        <dc:source>SimpleRP</dc:source>
      </cc:Work>
    </rdf:RDF>
  </metadata>
  <g
     id="layer1"
     inkscape:label="Layer 1"
     inkscape:groupmode="layer"
     transform="translate(0,64)"
     style="display:inline">
    <image
       y="-64"
       x="-128"
       id="image3015"
       xlink:href="file:///Users/ianw/play/SimpleRP/src/default/assets/minecraft/textures/blocks/cocoa_stage_0.png"
       height="64"
       width="64" />
    <image
       y="-64"
       x="-128"
       id="image3045"
       xlink:href="file:///Users/ianw/play/SimpleRP/src/default/assets/minecraft/textures/blocks/cocoa_stage_1.png"
       height="128"
       width="128" />
    <image
       y="63.999996"
       x="-128"
       id="image3075"
       xlink:href="file:///Users/ianw/play/SimpleRP/src/default/assets/minecraft/textures/blocks/cocoa_stage_2.png"
       height="64"
       width="64" />
    <g
       id="g5035"
       transform="matrix(-0.99993721,-0.01120565,0.01120565,-0.99993721,-6.876713,143.87848)"
       style="filter:url(#filter5093)" />
  </g>
  <g
     inkscape:groupmode="layer"
     id="layer2"
     inkscape:label="new">
    <path
       style="fill:#b89e47;fill-opacity:1;stroke:none"
       d="m 120,32 c 0.81273,-6.569292 -2.08821,-15.614359 8,-16 L 128,0 C 105.12546,3.1265126 96.23709,14.891535 96,32 z"
       id="path3851"
       inkscape:connector-curvature="0"
       sodipodi:nodetypes="ccccc" />
    <rect
       style="fill:#b1b753;fill-opacity:1;stroke:none"
       id="rect4928"
       width="47.999989"
       height="48"
       x="-5.0000028e-07"
       y="0" />
    <path
       style="fill:url(#linearGradient5208);fill-opacity:1;stroke:none"
       d="M 48.000001,0 48,48 -5.0000031e-7,48 9.9999938e-7,0 z"
       id="path4932"
       inkscape:connector-curvature="0"
       sodipodi:nodetypes="ccccc" />
    <path
       inkscape:connector-curvature="0"
       id="path4934"
       d="m 47.999991,0 0,48 -47.99999150000031,0 0,-48 z"
       style="fill:url(#linearGradient5205);fill-opacity:1;stroke:none"
       sodipodi:nodetypes="ccccc" />
    <path
       inkscape:connector-curvature="0"
       id="path4938"
       d="M 9.9999938e-7,48 -5.0000031e-7,0 47.99999,0 l 3e-6,48 z"
       style="fill:url(#linearGradient5202);fill-opacity:1;stroke:none"
       sodipodi:nodetypes="ccccc" />
    <path
       style="fill:url(#linearGradient5199);fill-opacity:1;stroke:none"
       d="M -2e-6,48 -5.0000031e-7,0 47.999999,0 l -2e-6,48 z"
       id="path4940"
       inkscape:connector-curvature="0"
       sodipodi:nodetypes="ccccc" />
    <rect
       y="32"
       x="72.000015"
       height="56"
       width="47.999985"
       id="rect4699"
       style="fill:#b6965e;fill-opacity:1;stroke:none" />
    <path
       sodipodi:nodetypes="ccccc"
       inkscape:connector-curvature="0"
       id="path4701"
       d="M 119.99998,32 120,88 72,88 71.999985,32 z"
       style="fill:url(#linearGradient4757);fill-opacity:1;stroke:none" />
    <path
       sodipodi:nodetypes="ccccc"
       style="fill:url(#linearGradient4754);fill-opacity:1;stroke:none"
       d="m 120,32 0,56 -47.999985,0 0,-56 z"
       id="path4703"
       inkscape:connector-curvature="0" />
    <path
       sodipodi:nodetypes="ccccc"
       style="fill:url(#linearGradient4751);fill-opacity:1;stroke:none"
       d="m 72.000017,88 -2e-6,-56 L 120,32 l 0,56 z"
       id="path4705"
       inkscape:connector-curvature="0" />
    <path
       sodipodi:nodetypes="ccccc"
       inkscape:connector-curvature="0"
       id="path4707"
       d="M 72.000007,88 72,32 l 48,0 0,56 z"
       style="fill:url(#linearGradient4748);fill-opacity:1;stroke:none" />
    <path
       sodipodi:nodetypes="cccc"
       inkscape:connector-curvature="0"
       id="path3037"
       d="m 107.5,88 -7.5,0 0,-7 c 1.25,2.333332 0.40389,4.425028 7.5,7 z"
       style="fill:#7a6925;fill-opacity:0.81176472;stroke:none;opacity:0.80000000000000004" />
    <path
       sodipodi:nodetypes="cccc"
       inkscape:connector-curvature="0"
       id="path3014"
       d="M 103.5,32 96,32 99.75,88 C 101,69.333332 96.40389,52.599776 103.5,32 z"
       style="fill:#efdb81;fill-opacity:0.74901962;stroke:none;opacity:0.80000000000000004" />
    <path
       style="fill:#78681d;fill-opacity:0.74901960999999995;stroke:none;opacity:0.8"
       d="m 88.5,32 7.5,0 0,7 c -1.249995,-2.333334 -0.40389,-4.425028 -7.5,-7 z"
       id="path3033"
       inkscape:connector-curvature="0"
       sodipodi:nodetypes="cccc" />
    <path
       style="fill:#7a6925;fill-opacity:0.81176472;stroke:none;opacity:0.80000000000000004"
       d="m 92.25,88 7.5,0 L 96,32 c -1.249995,18.666668 3.34611,35.400224 -3.75,56 z"
       id="path3029"
       inkscape:connector-curvature="0"
       sodipodi:nodetypes="cccc" />
    <path
       sodipodi:nodetypes="csscccccc"
       inkscape:connector-curvature="0"
       id="path4232"
       d="m 205.73731,76.524778 c 0,0 17.21853,32.743792 31.18957,40.014952 12.12896,6.31247 27.015,4.59137 39.67139,0 10.14073,-3.67876 28.45188,-33.132632 28.45188,-33.132632 -14.46452,8.118958 -16.05734,11.757294 -29.64994,13.608143 l 0,5.281359 -8.81587,0 0,-5.281359 C 243.10927,99.155849 220.86477,86.762319 205.73731,76.524778 z"
       style="fill:url(#linearGradient5097);fill-opacity:1;stroke:#000000;stroke-width:1;stroke-linecap:butt;stroke-linejoin:miter;stroke-miterlimit:4;stroke-opacity:1;stroke-dasharray:none;display:none" />
    <path
       sodipodi:nodetypes="cscc"
       inkscape:connector-curvature="0"
       id="path4234"
       d="m 215.69749,53.995969 c 0,0 7.60008,-19.417828 15.69302,-22.978736 9.84549,-4.332033 22.66472,11.404255 22.66472,11.404255 -16.03055,3.149964 -23.35727,0.505918 -38.35774,11.574481 z"
       style="fill:url(#linearGradient5094);fill-opacity:1;stroke:#000000;stroke-width:1;stroke-linecap:butt;stroke-linejoin:miter;stroke-miterlimit:4;stroke-opacity:1;stroke-dasharray:none;display:none" />
    <path
       sodipodi:nodetypes="cscc"
       inkscape:connector-curvature="0"
       id="path4236"
       d="m 266.63259,42.188935 c 0,0 12.83587,-13.008051 19.98782,-10.764758 9.32501,2.924897 14.99086,26.911894 14.99086,26.911894 -10.41453,-8.064484 -20.64079,-16.534568 -34.97868,-16.147136 z"
       style="fill:url(#linearGradient5091);fill-opacity:1;stroke:#000000;stroke-width:1;stroke-linecap:butt;stroke-linejoin:miter;stroke-miterlimit:4;stroke-opacity:1;stroke-dasharray:none;display:none" />
    <path
       inkscape:connector-curvature="0"
       id="path4238"
       d="m 245.83411,71.739688 c 1.66844,0 27.52934,2.847864 27.52934,2.847864 L 260.85011,52.211483 z"
       style="fill:url(#linearGradient5088);fill-opacity:1;stroke:#000000;stroke-width:1;stroke-linecap:butt;stroke-linejoin:miter;stroke-miterlimit:4;stroke-opacity:1;stroke-dasharray:none;display:none" />
    <g
       id="layer1-1"
       inkscape:label="mouth"
       transform="translate(192,72)"
       style="display:none">
      <path
         style="fill:url(#linearGradient4270);fill-opacity:1;stroke:#000000;stroke-width:1;stroke-linecap:butt;stroke-linejoin:miter;stroke-miterlimit:4;stroke-opacity:1;stroke-dasharray:none;display:inline"
         d="m 13.737311,68.524778 c 0,0 17.218526,32.743792 31.189573,40.014952 12.128961,6.31247 27.015,4.59137 39.67139,0 C 94.738999,104.86097 113.05015,75.407098 113.05015,75.407098 98.585634,83.526056 96.992812,87.164392 83.400206,89.015241 l 0,5.281363 -8.815864,0 0,-5.281363 C 51.109271,91.155849 28.86477,78.762319 13.737311,68.524778 z"
         id="path4331"
         inkscape:connector-curvature="0"
         sodipodi:nodetypes="csscccccc"
         transform="translate(0,-64)" />
      <path
         style="fill:url(#linearGradient4246);fill-opacity:1;stroke:#000000;stroke-width:1;stroke-linecap:butt;stroke-linejoin:miter;stroke-miterlimit:4;stroke-opacity:1;stroke-dasharray:none;display:inline"
         d="m 23.69749,45.995969 c 0,0 7.600077,-19.417828 15.693019,-22.978736 C 49.235998,18.6852 62.055234,34.421488 62.055234,34.421488 46.024685,37.571452 38.697962,34.927406 23.69749,45.995969 z"
         id="path4333"
         inkscape:connector-curvature="0"
         sodipodi:nodetypes="cscc"
         transform="translate(0,-64)" />
      <path
         style="fill:url(#linearGradient4254);fill-opacity:1;stroke:#000000;stroke-width:1;stroke-linecap:butt;stroke-linejoin:miter;stroke-miterlimit:4;stroke-opacity:1;stroke-dasharray:none;display:inline"
         d="m 74.632593,34.188935 c 0,0 12.835864,-13.008051 19.98782,-10.764758 9.325007,2.924897 14.990857,26.911894 14.990857,26.911894 C 99.196744,42.271587 88.970476,33.801503 74.632593,34.188935 z"
         id="path4335"
         inkscape:connector-curvature="0"
         sodipodi:nodetypes="cscc"
         transform="translate(0,-64)" />
      <path
         style="fill:url(#linearGradient4262);fill-opacity:1;stroke:#000000;stroke-width:1;stroke-linecap:butt;stroke-linejoin:miter;stroke-miterlimit:4;stroke-opacity:1;stroke-dasharray:none;display:inline"
         d="m 53.834109,63.739688 c 1.668445,0 27.529339,2.847864 27.529339,2.847864 L 68.850112,44.211483 z"
         id="path4337"
         inkscape:connector-curvature="0"
         transform="translate(0,-64)" />
    </g>
    <g
       id="layer3"
       inkscape:label="mouth light"
       style="display:none"
       transform="translate(192,8)">
      <path
         id="path4279"
         style="fill:url(#radialGradient4726);fill-opacity:1;stroke:#8f7103;stroke-width:1;stroke-linecap:butt;stroke-linejoin:miter;stroke-miterlimit:4;stroke-opacity:1;stroke-dasharray:none;display:inline;filter:url(#filter4711)"
         d="m 53.834109,63.739688 c 1.668445,0 27.529339,2.847864 27.529339,2.847864 L 68.850112,44.211483 z M 74.632593,34.188935 c 0,0 12.835864,-13.008051 19.98782,-10.764758 9.325007,2.924897 14.990857,26.911894 14.990857,26.911894 C 99.196744,42.271587 88.970476,33.801503 74.632593,34.188935 z M 23.69749,45.995969 c 0,0 7.600077,-19.417828 15.693019,-22.978736 C 49.235998,18.6852 62.055234,34.421488 62.055234,34.421488 46.024685,37.571452 38.697962,34.927406 23.69749,45.995969 z m -9.960179,22.528809 c 0,0 17.218526,32.743792 31.189573,40.014952 12.128961,6.31247 27.015,4.59137 39.67139,0 C 94.738999,104.86097 113.05015,75.407098 113.05015,75.407098 98.585634,83.526056 96.992812,87.164392 83.400206,89.015241 l 0,5.281363 -8.815864,0 0,-5.281363 C 51.109271,91.155849 28.86477,78.762319 13.737311,68.524778 z"
         inkscape:connector-curvature="0" />
    </g>
    <path
       style="fill:#efdb81;fill-opacity:0.74901962;stroke:none;opacity:0.80000000000000004"
       d="M 79.5,32 72,32 72,88 C 73.249995,69.333332 72.40389,52.599776 79.5,32 z"
       id="path5168"
       inkscape:connector-curvature="0"
       sodipodi:nodetypes="cccc" />
    <path
       sodipodi:nodetypes="cccc"
       inkscape:connector-curvature="0"
       id="path5170"
       d="m 112.5,88 7.5,0 0,-56 c -1.25,18.666668 -0.40389,35.400224 -7.5,56 z"
       style="fill:#7a6925;fill-opacity:0.81176472;stroke:none;opacity:0.80000000000000004" />
    <path
       style="fill:#7a6925;fill-opacity:0.81176472;stroke:none;opacity:0.80000000000000004"
       d="m 79.5,88 -7.5,0 0,-7 c 1.249995,2.333332 0.40389,4.425028 7.5,7 z"
       id="path5172"
       inkscape:connector-curvature="0"
       sodipodi:nodetypes="cccc" />
    <path
       sodipodi:nodetypes="cccc"
       inkscape:connector-curvature="0"
       id="path5174"
       d="m 112.5,32 7.5,0 0,7 c -1.25,-2.333334 -0.40389,-4.425028 -7.5,-7 z"
       style="fill:#efdb81;fill-opacity:0.74901962;stroke:none;opacity:0.80000000000000004" />
    <path
       sodipodi:nodetypes="cccc"
       inkscape:connector-curvature="0"
       id="path5211"
       d="M 7.4999994,0 9.9999938e-7,0 l 0,48 C 1.2499957,27.999999 0.40389092,22.071189 7.4999994,0 z"
       style="opacity:0.7;fill:#e2c86b;fill-opacity:1;stroke:none" />
    <path
       style="opacity:0.7;fill:#b0912d;fill-opacity:1;stroke:none"
       d="m 40.499993,48 7.499998,0 0,-48 c -1.249995,20.000001 -0.40389,25.928811 -7.499998,48 z"
       id="path5213"
       inkscape:connector-curvature="0"
       sodipodi:nodetypes="cccc" />
    <path
       style="opacity:0.7;fill:#e2c86b;fill-opacity:1;stroke:none"
       d="m 9.9999938e-7,7.5 0,-7.5 L 47.999991,0 C 27.999993,1.249995 22.071185,0.40389 9.9999938e-7,7.5 z"
       id="path5215"
       inkscape:connector-curvature="0"
       sodipodi:nodetypes="cccc" />
    <path
       sodipodi:nodetypes="cccc"
       inkscape:connector-curvature="0"
       id="path5217"
       d="M 47.99999,40.499994 47.999991,48 2.4999991e-6,47.999997 C 19.999996,46.750002 25.928808,47.596107 47.99999,40.499994 z"
       style="opacity:0.7;fill:#b0912d;fill-opacity:1;stroke:none" />
    <path
       sodipodi:nodetypes="cccc"
       inkscape:connector-curvature="0"
       id="path5219"
       d="M 7.4999994,48 9.9999938e-7,48 l 0,-7.5 C 1.2499957,42.999999 0.40389092,45.241101 7.4999994,48 z"
       style="opacity:0.7;fill:#605d19;fill-opacity:0.24705882;stroke:none" />
    <path
       style="opacity:0.7;fill:#e2c86b;fill-opacity:1;stroke:none"
       d="m 40.499993,0 7.499998,0 0,7.5 C 46.749996,4.9999995 47.596101,2.758899 40.499993,0 z"
       id="path5221"
       inkscape:connector-curvature="0"
       sodipodi:nodetypes="cccc" />
    <path
       sodipodi:nodetypes="ccccc"
       inkscape:connector-curvature="0"
       id="path5231"
       d="m 120,32 c 0.81273,-6.569292 -2.08821,-15.614359 8,-16 L 128,0 C 105.12546,3.1265126 96.23709,14.891535 96,32 z"
       style="fill:url(#radialGradient5241);fill-opacity:1;stroke:none" />
  </g>
</svg>
