<?xml version="1.0" encoding="UTF-8" standalone="no"?>
<!-- Created with Inkscape (http://www.inkscape.org/) -->

<svg
   xmlns:dc="http://purl.org/dc/elements/1.1/"
   xmlns:cc="http://creativecommons.org/ns#"
   xmlns:rdf="http://www.w3.org/1999/02/22-rdf-syntax-ns#"
   xmlns:svg="http://www.w3.org/2000/svg"
   xmlns="http://www.w3.org/2000/svg"
   xmlns:xlink="http://www.w3.org/1999/xlink"
   xmlns:sodipodi="http://sodipodi.sourceforge.net/DTD/sodipodi-0.dtd"
   xmlns:inkscape="http://www.inkscape.org/namespaces/inkscape"
   width="128"
   height="128"
   id="svg2985"
   version="1.1"
   inkscape:version="0.48.2 r9819"
   sodipodi:docname="double_plant_sunflower_top.svg"
   inkscape:export-filename="/Users/ianw/drawing.png"
   inkscape:export-xdpi="180"
   inkscape:export-ydpi="180">
  <title
     id="title3119">Template</title>
  <defs
     id="defs2987">
    <linearGradient
       id="linearGradient16979">
      <stop
         style="stop-color:#6a2b20;stop-opacity:1;"
         offset="0"
         id="stop16981" />
      <stop
         style="stop-color:#c06e5d;stop-opacity:1;"
         offset="1"
         id="stop16983" />
    </linearGradient>
    <linearGradient
       id="linearGradient4011">
      <stop
         id="stop4013"
         offset="0"
         style="stop-color:#816647;stop-opacity:1" />
      <stop
         id="stop4015"
         offset="1"
         style="stop-color:#000000;stop-opacity:0" />
    </linearGradient>
    <linearGradient
       y2="16"
       x2="90.182915"
       y1="40"
       x1="37.817081"
       gradientUnits="userSpaceOnUse"
       id="linearGradient3950"
       xlink:href="#linearGradient3938"
       inkscape:collect="always" />
    <linearGradient
       y2="12.501157"
       x2="76"
       y1="56.499306"
       x1="82"
       gradientUnits="userSpaceOnUse"
       id="linearGradient3948"
       xlink:href="#linearGradient3938"
       inkscape:collect="always" />
    <linearGradient
       y2="16"
       x2="36"
       y1="60"
       x1="84"
       gradientUnits="userSpaceOnUse"
       id="linearGradient3946"
       xlink:href="#linearGradient3938"
       inkscape:collect="always" />
    <linearGradient
       gradientUnits="userSpaceOnUse"
       y2="-8"
       x2="84"
       y1="0"
       x1="92"
       id="linearGradient3944"
       xlink:href="#linearGradient3938"
       inkscape:collect="always" />
    <filter
       color-interpolation-filters="sRGB"
       inkscape:menu-tooltip="Small-scale roughening to edges and content"
       inkscape:menu="ABCs"
       inkscape:label="Roughen"
       id="filter3141">
      <feTurbulence
         result="result91"
         baseFrequency="0.04"
         type="turbulence"
         seed="2"
         numOctaves="3"
         id="feTurbulence3143" />
      <feDisplacementMap
         in="SourceGraphic"
         xChannelSelector="R"
         yChannelSelector="G"
         scale="6.6"
         in2="result91"
         id="feDisplacementMap3145" />
    </filter>
    <linearGradient
       id="linearGradient3938">
      <stop
         id="stop3940"
         offset="0"
         style="stop-color:#cd6fed;stop-opacity:1;" />
      <stop
         id="stop3942"
         offset="1"
         style="stop-color:#e2b1f0;stop-opacity:1;" />
    </linearGradient>
    <radialGradient
       inkscape:collect="always"
       xlink:href="#linearGradient16979"
       id="radialGradient16985"
       cx="60"
       cy="-68.000008"
       fx="60"
       fy="-68.000008"
       r="12"
       gradientUnits="userSpaceOnUse"
       gradientTransform="matrix(1.0202511e-6,1.6666664,-1.6666669,1.0202514e-6,-53.333429,-167.9999)" />
  </defs>
  <sodipodi:namedview
     id="base"
     pagecolor="#ffffff"
     bordercolor="#000000"
     borderopacity="1"
     inkscape:pageopacity="0.0"
     inkscape:pageshadow="2"
     inkscape:zoom="4.7535597"
     inkscape:cx="64.898964"
     inkscape:cy="162.20097"
     inkscape:current-layer="layer1"
     showgrid="true"
     inkscape:document-units="px"
     inkscape:grid-bbox="true"
     inkscape:snap-bbox="false"
     inkscape:snap-nodes="true"
     inkscape:snap-grids="true"
     inkscape:window-width="1705"
     inkscape:window-height="1254"
     inkscape:window-x="340"
     inkscape:window-y="9"
     inkscape:window-maximized="0"
     inkscape:showpageshadow="false"
     borderlayer="true">
    <inkscape:grid
       type="xygrid"
       id="grid2993"
       empspacing="4"
       visible="true"
       enabled="true"
       snapvisiblegridlinesonly="true"
       spacingx="16px"
       spacingy="16px"
       empcolor="#d60053"
       empopacity="0.29803922" />
    <inkscape:grid
       type="xygrid"
       id="grid3043"
       empspacing="4"
       visible="true"
       enabled="true"
       snapvisiblegridlinesonly="true"
       color="#ff00f8"
       opacity="0.1254902"
       dotted="true" />
  </sodipodi:namedview>
  <metadata
     id="metadata2990">
    <rdf:RDF>
      <cc:Work
         rdf:about="">
        <dc:format>image/svg+xml</dc:format>
        <dc:type
           rdf:resource="http://purl.org/dc/dcmitype/StillImage" />
        <dc:title>Template</dc:title>
        <cc:license
           rdf:resource="https://www.gnu.org/copyleft/gpl.html" />
        <dc:creator>
          <cc:Agent>
            <dc:title>Ian Walters</dc:title>
          </cc:Agent>
        </dc:creator>
        <dc:source>SimpleRP</dc:source>
      </cc:Work>
    </rdf:RDF>
  </metadata>
  <g
     id="layer1"
     inkscape:label="Layer 1"
     inkscape:groupmode="layer"
     transform="translate(0,64)">
    <g
       id="g17086"
       transform="translate(0,-128)">
      <g
         transform="translate(0,4)"
         style="stroke-width:2;stroke-miterlimit:4;stroke-dasharray:none"
         id="g3952">
        <path
           style="fill:#8ac862;fill-opacity:1;stroke:#558b3a;stroke-width:2;stroke-linecap:butt;stroke-linejoin:miter;stroke-miterlimit:4;stroke-opacity:1;stroke-dasharray:none"
           d="m 68,28 c 0,0 2.018576,-8.018576 5,-11 2.981424,-2.981424 11,-5 11,-5 0,0 -2.018576,8.018576 -5,11 -2.981424,2.981424 -11,5 -11,5 z"
           id="path3917"
           inkscape:connector-curvature="0"
           sodipodi:nodetypes="cscsc" />
        <path
           sodipodi:nodetypes="cscsc"
           inkscape:connector-curvature="0"
           id="path3919"
           d="m 60,40 c 0,0 -2.018576,-8.018576 -5,-11 -2.981424,-2.981424 -11,-5 -11,-5 0,0 2.018576,8.018576 5,11 2.981424,2.981424 11,5 11,5 z"
           style="fill:#8ac862;fill-opacity:1;stroke:#558b3a;stroke-width:2;stroke-linecap:butt;stroke-linejoin:miter;stroke-miterlimit:4;stroke-opacity:1;stroke-dasharray:none" />
      </g>
      <rect
         y="-16"
         x="60"
         height="212"
         width="8"
         id="rect3915"
         style="fill:#8ac862;fill-opacity:1;stroke:#558b3a;stroke-width:2;stroke-linecap:round;stroke-miterlimit:4;stroke-opacity:1;stroke-dasharray:none" />
      <g
         id="g16404"
         style="stroke-width:2;stroke-miterlimit:4;stroke-dasharray:none"
         transform="translate(0,54)">
        <path
           sodipodi:nodetypes="cscsc"
           inkscape:connector-curvature="0"
           id="path16406"
           d="m 68,34 c 0,0 2.018576,-8.018576 5,-11 2.981424,-2.981424 11,-5 11,-5 0,0 -2.018576,8.018576 -5,11 -2.981424,2.981424 -11,5 -11,5 z"
           style="fill:#8ac862;fill-opacity:1;stroke:#558b3a;stroke-width:2;stroke-linecap:butt;stroke-linejoin:miter;stroke-miterlimit:4;stroke-opacity:1;stroke-dasharray:none" />
        <path
           style="fill:#8ac862;fill-opacity:1;stroke:#558b3a;stroke-width:2;stroke-linecap:butt;stroke-linejoin:miter;stroke-miterlimit:4;stroke-opacity:1;stroke-dasharray:none"
           d="m 60,30 c 0,0 -2.018576,-8.018576 -5,-11 -2.981424,-2.981424 -11,-5 -11,-5 0,0 2.018576,8.018576 5,11 2.981424,2.981424 11,5 11,5 z"
           id="path16408"
           inkscape:connector-curvature="0"
           sodipodi:nodetypes="cscsc" />
      </g>
      <g
         transform="translate(0,100)"
         style="stroke-width:2;stroke-miterlimit:4;stroke-dasharray:none"
         id="g16410">
        <path
           style="fill:#8ac862;fill-opacity:1;stroke:#558b3a;stroke-width:2;stroke-linecap:butt;stroke-linejoin:miter;stroke-miterlimit:4;stroke-opacity:1;stroke-dasharray:none"
           d="m 68,34 c 0,0 2.018576,-8.018576 5,-11 2.981424,-2.981424 11,-5 11,-5 0,0 -2.018576,8.018576 -5,11 -2.981424,2.981424 -11,5 -11,5 z"
           id="path16412"
           inkscape:connector-curvature="0"
           sodipodi:nodetypes="cscsc" />
        <path
           sodipodi:nodetypes="cscsc"
           inkscape:connector-curvature="0"
           id="path16414"
           d="M 60,20 C 60,20 57.981424,11.981424 55,9 52.018576,6.018576 44,4 44,4 c 0,0 2.018576,8.018576 5,11 2.981424,2.981424 11,5 11,5 z"
           style="fill:#8ac862;fill-opacity:1;stroke:#558b3a;stroke-width:2;stroke-linecap:butt;stroke-linejoin:miter;stroke-miterlimit:4;stroke-opacity:1;stroke-dasharray:none" />
      </g>
    </g>
    <path
       style="fill:#ffff00;fill-opacity:1;stroke:#eec73e;stroke-width:2.82842707999999998;stroke-linecap:round;stroke-miterlimit:4;stroke-opacity:1;stroke-dasharray:none"
       d="M 66.875 -95.875 C 65.458296 -96.002587 63.951404 -93.142514 62.84375 -88.75 C 61.330731 -93.01054 59.553096 -95.728165 58.15625 -95.46875 C 56.783179 -95.21375 56.098758 -92.146194 56.1875 -87.75 C 53.645173 -91.351947 51.289769 -93.391884 50.03125 -92.78125 C 48.504557 -92.040497 49.044064 -87.589065 51.125 -81.96875 C 46.482178 -85.747421 42.443152 -87.73605 41.25 -86.53125 C 40.084132 -85.354 41.97195 -81.503596 45.625 -77.03125 C 40.194429 -78.994807 35.942852 -79.490249 35.21875 -78 C 34.610352 -76.747876 36.650461 -74.374095 40.21875 -71.84375 C 35.838829 -71.932628 32.786876 -71.244717 32.53125 -69.875 C 32.314548 -68.713846 34.182933 -67.286009 37.25 -65.96875 C 34.019844 -65.115112 31.987058 -63.993529 32.03125 -62.8125 C 32.083586 -61.41381 34.996535 -60.270175 39.375 -59.71875 C 35.4477 -57.727795 33.078882 -55.676533 33.5 -54.34375 C 33.840386 -53.266473 35.939392 -52.879659 39.03125 -53.09375 C 36.774563 -50.969246 35.659007 -49.137644 36.21875 -48.15625 C 36.904239 -46.954384 39.9341 -47.257847 44 -48.75 C 41.493773 -45.235841 40.368843 -42.383962 41.34375 -41.40625 C 42.435914 -40.310944 45.891008 -41.873884 50 -45.03125 C 48.190632 -40.174247 47.694167 -36.409185 49.0625 -35.6875 C 50.240949 -35.065964 52.487869 -36.857722 55 -40.0625 C 54.784703 -36.002304 55.329815 -33.182057 56.625 -32.875 C 58.076742 -32.530828 60.088651 -35.445738 61.875 -40 C 62.83186 -35.196184 64.290434 -31.979136 65.78125 -32.0625 C 67.50092 -32.158662 68.715961 -36.590098 68.9375 -42.71875 C 71.830543 -37.317572 74.851722 -33.861631 76.4375 -34.53125 C 77.703017 -35.065634 77.728025 -38.082465 76.75 -42.25 C 79.917075 -39.355192 82.570928 -37.904677 83.65625 -38.75 C 84.934473 -39.745567 83.65833 -43.648954 80.75 -48.40625 C 85.695483 -45.844811 89.660207 -44.811991 90.5625 -46.15625 C 91.490418 -47.538686 88.90739 -51.024479 84.4375 -54.75 C 90.189135 -53.838674 94.476972 -54.140455 94.90625 -55.75 C 95.339522 -57.374522 91.714692 -59.850998 86.1875 -61.9375 C 91.998601 -62.963306 96.030705 -64.699583 95.90625 -66.375 C 95.789867 -67.941757 92.055211 -68.988003 86.75 -69.25 C 91.401963 -71.817418 94.302898 -74.447461 93.71875 -75.90625 C 93.157678 -77.307411 89.523552 -77.2341 84.6875 -76.03125 C 88.124029 -79.644296 89.941703 -82.788519 89 -83.96875 C 88.08636 -85.11381 84.826284 -84.104659 80.71875 -81.71875 C 82.86296 -85.959503 83.665278 -89.279282 82.46875 -90.125 C 81.396598 -90.882809 78.976169 -89.45779 76.125 -86.6875 C 76.843188 -90.596286 76.694372 -93.404873 75.46875 -93.875 C 74.123084 -94.391174 71.85778 -91.955468 69.5625 -87.9375 C 69.273214 -92.567318 68.312666 -95.745525 66.875 -95.875 z "
       transform="translate(0,-64)"
       id="path16424" />
    <path
       sodipodi:type="arc"
       style="fill:url(#radialGradient16985);fill-opacity:1.0;stroke:none;stroke-width:2;stroke-linecap:round;stroke-miterlimit:4;stroke-opacity:1;stroke-dasharray:none"
       id="path16977"
       sodipodi:cx="64"
       sodipodi:cy="-64"
       sodipodi:rx="12"
       sodipodi:ry="12"
       d="m 76,-64 a 12,12 0 1 1 -24,0 12,12 0 1 1 24,0 z"
       transform="translate(0,-64)" />
    <path
       id="path17065"
       d="m 182.875,-159.125 c -1.4167,-0.12759 -2.9236,2.73249 -4.03125,7.125 -1.51302,-4.26054 -3.29065,-6.97816 -4.6875,-6.71875 -1.37307,0.255 -2.05749,3.32256 -1.96875,7.71875 -2.54233,-3.60195 -4.89773,-5.64188 -6.15625,-5.03125 -1.52669,0.74075 -0.98719,5.19219 1.09375,10.8125 -4.64282,-3.77867 -8.68185,-5.7673 -9.875,-4.5625 -1.16587,1.17725 0.72195,5.02765 4.375,9.5 -5.43057,-1.96356 -9.68215,-2.459 -10.40625,-0.96875 -0.6084,1.25212 1.43171,3.62591 5,6.15625 -4.37992,-0.0889 -7.43187,0.59903 -7.6875,1.96875 -0.2167,1.16115 1.65168,2.58899 4.71875,3.90625 -3.23016,0.85364 -5.26294,1.97522 -5.21875,3.15625 0.0523,1.39869 2.96528,2.54233 7.34375,3.09375 -3.9273,1.99095 -6.29612,4.04222 -5.875,5.375 0.34039,1.07728 2.43939,1.46409 5.53125,1.25 -2.25669,2.1245 -3.37224,3.95611 -2.8125,4.9375 0.68549,1.20187 3.71535,0.8984 7.78125,-0.59375 -2.50623,3.51416 -3.63116,6.36604 -2.65625,7.34375 1.09216,1.09531 4.54726,-0.46763 8.65625,-3.625 -1.80937,4.857 -2.30583,8.622065 -0.9375,9.34375 1.17845,0.621536 3.42537,-1.17022 5.9375,-4.375 -0.2153,4.060196 0.32981,6.880443 1.625,7.1875 1.45174,0.344172 3.46365,-2.570738 5.25,-7.125 0.95686,4.803816 2.41543,8.020864 3.90625,7.9375 1.71967,-0.09616 2.93471,-4.527598 3.15625,-10.65625 2.89304,5.40118 5.91422,8.857119 7.5,8.1875 1.26552,-0.534384 1.29052,-3.55122 0.3125,-7.71875 3.16707,2.89481 5.82093,4.34532 6.90625,3.5 1.27822,-0.99557 0.002,-4.89895 -2.90625,-9.65625 4.94548,2.56144 8.91021,3.59426 9.8125,2.25 0.92792,-1.38244 -1.65511,-4.86823 -6.125,-8.59375 5.75163,0.91133 10.03947,0.60954 10.46875,-1 0.43327,-1.62452 -3.19156,-4.101 -8.71875,-6.1875 5.8111,-1.02581 9.8432,-2.76208 9.71875,-4.4375 -0.11638,-1.56676 -3.85104,-2.613 -9.15625,-2.875 4.65196,-2.56742 7.5529,-5.19746 6.96875,-6.65625 -0.56107,-1.40116 -4.1952,-1.32785 -9.03125,-0.125 3.43653,-3.61305 5.2542,-6.75727 4.3125,-7.9375 -0.91364,-1.14506 -4.17372,-0.13591 -8.28125,2.25 2.14421,-4.24075 2.94653,-7.56053 1.75,-8.40625 -1.07215,-0.75781 -3.49258,0.66721 -6.34375,3.4375 0.71819,-3.90879 0.56937,-6.71737 -0.65625,-7.1875 -1.34567,-0.51617 -3.61097,1.91953 -5.90625,5.9375 -0.28929,-4.62982 -1.24983,-7.80802 -2.6875,-7.9375 z"
       style="fill:#8ac862;fill-opacity:1;stroke:#558b3a;stroke-width:2.82842707999999998;stroke-linecap:round;stroke-miterlimit:4;stroke-opacity:1;stroke-dasharray:none"
       inkscape:connector-curvature="0" />
  </g>
</svg>
