<?xml version="1.0" encoding="UTF-8" standalone="no"?>
<!-- Created with Inkscape (http://www.inkscape.org/) -->

<svg
   xmlns:dc="http://purl.org/dc/elements/1.1/"
   xmlns:cc="http://creativecommons.org/ns#"
   xmlns:rdf="http://www.w3.org/1999/02/22-rdf-syntax-ns#"
   xmlns:svg="http://www.w3.org/2000/svg"
   xmlns="http://www.w3.org/2000/svg"
   xmlns:sodipodi="http://sodipodi.sourceforge.net/DTD/sodipodi-0.dtd"
   xmlns:inkscape="http://www.inkscape.org/namespaces/inkscape"
   width="128"
   height="128"
   id="svg2985"
   version="1.1"
   inkscape:version="0.48.2 r9819"
   sodipodi:docname="double_plant_syringa_bottom.svg"
   inkscape:export-filename="/Users/ianw/drawing.png"
   inkscape:export-xdpi="180"
   inkscape:export-ydpi="180">
  <title
     id="title3119">Template</title>
  <defs
     id="defs2987" />
  <sodipodi:namedview
     id="base"
     pagecolor="#ffffff"
     bordercolor="#000000"
     borderopacity="1"
     inkscape:pageopacity="0.0"
     inkscape:pageshadow="2"
     inkscape:zoom="2.3767798"
     inkscape:cx="-31.585512"
     inkscape:cy="100.73039"
     inkscape:current-layer="layer1"
     showgrid="true"
     inkscape:document-units="px"
     inkscape:grid-bbox="true"
     inkscape:snap-bbox="false"
     inkscape:snap-nodes="true"
     inkscape:snap-grids="true"
     inkscape:window-width="1031"
     inkscape:window-height="935"
     inkscape:window-x="340"
     inkscape:window-y="9"
     inkscape:window-maximized="0"
     inkscape:showpageshadow="false"
     borderlayer="true">
    <inkscape:grid
       type="xygrid"
       id="grid2993"
       empspacing="4"
       visible="true"
       enabled="true"
       snapvisiblegridlinesonly="true"
       spacingx="16px"
       spacingy="16px"
       empcolor="#d60053"
       empopacity="0.29803922" />
    <inkscape:grid
       type="xygrid"
       id="grid3043"
       empspacing="4"
       visible="true"
       enabled="true"
       snapvisiblegridlinesonly="true"
       color="#ff00f8"
       opacity="0.1254902"
       dotted="true" />
  </sodipodi:namedview>
  <metadata
     id="metadata2990">
    <rdf:RDF>
      <cc:Work
         rdf:about="">
        <dc:format>image/svg+xml</dc:format>
        <dc:type
           rdf:resource="http://purl.org/dc/dcmitype/StillImage" />
        <dc:title>Template</dc:title>
        <cc:license
           rdf:resource="https://www.gnu.org/copyleft/gpl.html" />
        <dc:creator>
          <cc:Agent>
            <dc:title>Ian Walters</dc:title>
          </cc:Agent>
        </dc:creator>
        <dc:source>SimpleRP</dc:source>
      </cc:Work>
    </rdf:RDF>
  </metadata>
  <g
     id="layer1"
     inkscape:label="Layer 1"
     inkscape:groupmode="layer"
     transform="translate(0,64)">
    <g
       id="g6937">
      <path
         sodipodi:nodetypes="ssssscssscccsccssscs"
         inkscape:connector-curvature="0"
         id="path7212"
         d="m 57.621457,64 c 0,-8 4,-24 -20,-36 C 23.310622,20.84458 5.6214568,0 9.6214568,-4 12.449884,-6.82843 57.621457,36 61.621457,24 c 1.111738,-3.33521 -1.925946,-36.68952 0,-44 3.180006,-12.07063 -44,-24 -40,-28 12.456744,1.449363 34.658969,11.439149 38.378543,4 4,-8 -37.249827,-49.455105 -36,-52 1.417714,-2.886746 35.281178,31.147348 36,28 1.933237,-8.464634 -2.499285,-21.997141 -4,-28 -1.621457,-24 -20,-60 -16,-64 8.109404,-7.05642 29.171573,66.828427 32,64 20,-20 32,-68 40,-56 3.57753,5.3663 -33.621457,56 -40,68 -1.621457,16 1.492157,41.999374 1.621457,76 0,20 31.401943,-38.37978 32.000003,-32 1.27473,13.59812 -45.783023,80 -36.000003,80 4,0 36.000003,-12 36.000003,-8 0,4 -32.000003,4 -32.000003,32 0,16 -16,16 -16,0 z"
         style="fill:#0e610b;fill-opacity:1;stroke:#11471a;stroke-width:2;stroke-linecap:butt;stroke-linejoin:miter;stroke-miterlimit:4;stroke-opacity:1;stroke-dasharray:none" />
      <path
         sodipodi:nodetypes="cscsc"
         inkscape:connector-curvature="0"
         id="path7736"
         d="m 99.174247,-128.01714 c 0,0 5.748383,-5.94377 6.709233,-10.0492 0.96085,-4.10542 -1.55279,-11.98285 -1.55279,-11.98285 0,0 -5.748383,5.94377 -6.709233,10.04919 -0.96084,4.10542 1.55279,11.98286 1.55279,11.98286 z"
         style="fill:#8ac862;fill-opacity:1;stroke:#558b3a;stroke-width:2;stroke-linecap:butt;stroke-linejoin:miter;stroke-miterlimit:4;stroke-opacity:1;stroke-dasharray:none" />
      <path
         style="fill:#8ac862;fill-opacity:1;stroke:#558b3a;stroke-width:2;stroke-linecap:butt;stroke-linejoin:miter;stroke-miterlimit:4;stroke-opacity:1;stroke-dasharray:none"
         d="m 74.186626,-53.035137 c 0,0 -2.398114,-7.91336 -5.518115,-10.749439 -3.120007,-2.836072 -11.22561,-4.470536 -11.22561,-4.470536 0,0 2.398112,7.913365 5.518117,10.749436 3.120004,2.836071 11.225608,4.470539 11.225608,4.470539 z"
         id="path7738"
         inkscape:connector-curvature="0"
         sodipodi:nodetypes="cscsc" />
      <path
         sodipodi:nodetypes="cscsc"
         inkscape:connector-curvature="0"
         id="path7740"
         d="m 96.8954,-96.17752 c 0,0 -8.17067,-1.26983 -12.07902,0.31212 -3.90835,1.58195 -8.8954,8.17752 -8.8954,8.17752 0,0 8.17067,1.26983 12.07902,-0.31212 3.90834,-1.58195 8.8954,-8.17752 8.8954,-8.17752 z"
         style="fill:#8ac862;fill-opacity:1;stroke:#558b3a;stroke-width:2;stroke-linecap:butt;stroke-linejoin:miter;stroke-miterlimit:4;stroke-opacity:1;stroke-dasharray:none" />
      <path
         sodipodi:nodetypes="cscsc"
         inkscape:connector-curvature="0"
         id="path7754"
         d="m 59.883603,-86.843101 c 0,0 1.535153,-8.124993 0.08128,-12.082773 -1.453878,-3.957776 -7.883603,-9.156896 -7.883603,-9.156896 0,0 -1.535154,8.124994 -0.08128,12.08277 1.45388,3.957775 7.883603,9.156899 7.883603,9.156899 z"
         style="fill:#8ac862;fill-opacity:1;stroke:#558b3a;stroke-width:2;stroke-linecap:butt;stroke-linejoin:miter;stroke-miterlimit:4;stroke-opacity:1;stroke-dasharray:none" />
      <path
         style="fill:#8ac862;fill-opacity:1;stroke:#558b3a;stroke-width:2;stroke-linecap:butt;stroke-linejoin:miter;stroke-miterlimit:4;stroke-opacity:1;stroke-dasharray:none"
         d="m 31.126462,-37.521582 c 0,0 0.432349,-8.257437 -1.538855,-11.984652 -1.971202,-3.727215 -9.039731,-8.017684 -9.039731,-8.017684 0,0 -0.432349,8.257442 1.538856,11.984653 1.971204,3.727213 9.03973,8.017683 9.03973,8.017683 z"
         id="path7756"
         inkscape:connector-curvature="0"
         sodipodi:nodetypes="cscsc" />
      <path
         style="fill:#8ac862;fill-opacity:1;stroke:#558b3a;stroke-width:2;stroke-linecap:butt;stroke-linejoin:miter;stroke-miterlimit:4;stroke-opacity:1;stroke-dasharray:none"
         d="m 103.17425,-36.01714 c 0,0 5.74838,-5.94377 6.70923,-10.049196 0.96085,-4.105427 -1.55279,-11.982856 -1.55279,-11.982856 0,0 -5.74838,5.943767 -6.70923,10.049192 -0.96084,4.105424 1.55279,11.98286 1.55279,11.98286 z"
         id="path7760"
         inkscape:connector-curvature="0"
         sodipodi:nodetypes="cscsc" />
      <path
         style="fill:#8ac862;fill-opacity:1;stroke:#558b3a;stroke-width:2;stroke-linecap:butt;stroke-linejoin:miter;stroke-miterlimit:4;stroke-opacity:1;stroke-dasharray:none"
         d="m 66.18008,-20.02781 c 0,0 7.2188,-4.032517 9.323258,-7.686143 2.104466,-3.653632 1.97047,-11.921296 1.97047,-11.921296 0,0 -7.218801,4.032515 -9.323258,7.686143 -2.10446,3.65364 -1.97047,11.921296 -1.97047,11.921296 z"
         id="path7766"
         inkscape:connector-curvature="0"
         sodipodi:nodetypes="cscsc" />
      <path
         sodipodi:nodetypes="cscsc"
         inkscape:connector-curvature="0"
         id="path7774"
         d="m 70.253196,9.8826596 c 0,0 -2.300369,-7.9423227 -5.385178,-10.81664766 C 61.783209,-3.8083148 53.698373,-5.5425792 53.698373,-5.5425792 c 0,0 2.300366,7.9423292 5.385179,10.8166477 3.084809,2.8743258 11.169644,4.6085911 11.169644,4.6085911 z"
         style="fill:#8ac862;fill-opacity:1;stroke:#558b3a;stroke-width:2;stroke-linecap:butt;stroke-linejoin:miter;stroke-miterlimit:4;stroke-opacity:1;stroke-dasharray:none" />
      <path
         sodipodi:nodetypes="cscsc"
         inkscape:connector-curvature="0"
         id="path7768"
         d="m 96.484122,36.32701 c 0,0 8.263188,-0.30302 11.800528,-2.5976 3.53734,-2.29456 7.18281,-9.71634 7.18281,-9.71634 0,0 -8.2632,0.30302 -11.80053,2.5976 -3.53734,2.29456 -7.182808,9.71634 -7.182808,9.71634 z"
         style="fill:#8ac862;fill-opacity:1;stroke:#558b3a;stroke-width:2;stroke-linecap:butt;stroke-linejoin:miter;stroke-miterlimit:4;stroke-opacity:1;stroke-dasharray:none" />
      <path
         style="fill:#8ac862;fill-opacity:1;stroke:#558b3a;stroke-width:2;stroke-linecap:butt;stroke-linejoin:miter;stroke-miterlimit:4;stroke-opacity:1;stroke-dasharray:none"
         d="m 59.348151,62.96542 c 0,0 -4.398244,-7.00197 -8.155223,-8.91584 C 47.435951,52.1357 39.186105,52.6945 39.186105,52.6945 c 0,0 4.398249,7.00197 8.155223,8.91584 3.756977,1.91388 12.006823,1.35508 12.006823,1.35508 z"
         id="path7778"
         inkscape:connector-curvature="0"
         sodipodi:nodetypes="cscsc" />
      <path
         sodipodi:nodetypes="cscsc"
         inkscape:connector-curvature="0"
         id="path7780"
         d="m 94.79907,53.60916 c 0,0 -7.779616,-2.80173 -11.917615,-1.99256 -4.138004,0.80916 -10.289211,6.335 -10.289211,6.335 0,0 7.77962,2.80173 11.917615,1.99256 4.138004,-0.80916 10.289211,-6.335 10.289211,-6.335 z"
         style="fill:#8ac862;fill-opacity:1;stroke:#558b3a;stroke-width:2;stroke-linecap:butt;stroke-linejoin:miter;stroke-miterlimit:4;stroke-opacity:1;stroke-dasharray:none" />
      <path
         style="fill:#8ac862;fill-opacity:1;stroke:#558b3a;stroke-width:2;stroke-linecap:butt;stroke-linejoin:miter;stroke-miterlimit:4;stroke-opacity:1;stroke-dasharray:none"
         d="m 75.354397,24.04186 c 0,0 -7.13715,4.17531 -9.168514,7.87008 -2.031375,3.69477 -1.73294,11.95814 -1.73294,11.95814 0,0 7.137153,-4.17531 9.168514,-7.87008 2.031375,-3.69477 1.73294,-11.95814 1.73294,-11.95814 z"
         id="path7782"
         inkscape:connector-curvature="0"
         sodipodi:nodetypes="cscsc" />
      <path
         style="fill:#ba9dbe;fill-opacity:1;stroke:#9f78a4;stroke-width:1.83613837;stroke-linecap:round;stroke-miterlimit:4;stroke-opacity:1"
         d="M 123.24623,18.854261 C 124.587,22.914188 118.63419,37.260481 116,32 c -1.73482,6.862685 -10.59999,14.955365 -12,8 -1.79131,5.550418 -8.929218,10.549637 -12,4 -1.689005,8.465775 -10.498147,-0.09468 -12,-4 -1.463645,-3.805964 -0.551429,-13.033459 8,-12 -5.88193,-6.946715 6.738715,-9.067354 12,-4 -3.103239,-9.396805 3.39224,-6.024337 9.26706,-4.53123 -3.56518,-8.079522 12.71579,-4.440136 13.97917,-0.614509 z"
         id="path6904"
         inkscape:connector-curvature="0"
         sodipodi:nodetypes="scccscccs" />
      <path
         style="fill:#ba9dbe;fill-opacity:1;stroke:#9f78a4;stroke-width:1.90728748;stroke-linecap:round;stroke-miterlimit:4;stroke-opacity:1"
         d="M 4.1256106,-3.736853 C 7.0978203,-6.589484 27.169908,-7.5069758 23.763874,-2.915976 30.773374,-3.746251 41.566695,3.7934252 36.029696,7.785658 41.891501,7.501445 48.344421,10.492376 44,16 52.423072,14.525799 47.284428,28.559947 44.530674,31.515586 41.846978,34.396031 32.00923,37.760612 28.691822,28.843851 25.386568,37.304119 18.070597,27.139772 20,20 13.120745,26.602486 12.919185,18.863947 11.341773,12.445906 5.8719619,19.017651 1.3249282,-1.0488494 4.1256106,-3.736853 z"
         id="path6906"
         inkscape:connector-curvature="0"
         sodipodi:nodetypes="scccscccs" />
      <path
         sodipodi:nodetypes="scccscccs"
         inkscape:connector-curvature="0"
         id="path6908"
         d="m 5.9140923,-56.486038 c 2.5698288,-3.219862 22.3453637,-6.777771 19.5748747,-1.777497 6.838664,-1.747893 18.53245,4.301723 13.570622,8.989638 5.773054,-1.055172 12.564197,1.05817 8.984471,7.090871 8.154912,-2.572706 4.912951,12.016765 2.573259,15.30991 -2.280168,3.209365 -11.587959,7.842584 -16.052897,-0.558497 -2.160054,8.822415 -10.753209,-0.287748 -9.782742,-7.619674 -5.947934,7.452452 -7.168804,-0.191833 -9.579261,-6.345626 -4.554871,7.236009 -11.7098501,-12.055083 -9.2883267,-15.089125 z"
         style="fill:#ba9dbe;fill-opacity:1;stroke:#9f78a4;stroke-width:1.90728748;stroke-linecap:round;stroke-miterlimit:4;stroke-opacity:1" />
      <path
         sodipodi:nodetypes="scccscccs"
         inkscape:connector-curvature="0"
         id="path6910"
         d="m 114.35801,-66.747216 c 3.4801,2.483863 7.15146,17.576019 1.91854,14.887495 2.6541,6.56215 0.28144,18.328762 -4.95684,13.543621 1.83334,5.536677 -0.97299,13.786917 -7.31971,10.3161 3.63804,7.828588 -8.526676,6.125016 -12.045422,3.861056 -3.429226,-2.206361 -8.143995,-10.190705 -0.633535,-14.408283 -8.849542,-2.130625 0.08112,-11.296929 7.319705,-10.3161 -8.054775,-5.748968 -0.821533,-6.864766 4.800742,-9.13035 -7.649365,-4.413204 7.63727,-11.094065 10.91652,-8.753539 z"
         style="fill:#ba9dbe;fill-opacity:1;stroke:#9f78a4;stroke-width:1.83613837;stroke-linecap:round;stroke-miterlimit:4;stroke-opacity:1" />
      <path
         style="fill:#ba9dbe;fill-opacity:1;stroke:#9f78a4;stroke-width:1.90728748;stroke-linecap:round;stroke-miterlimit:4;stroke-opacity:1"
         d="m 26.195961,-174.01795 c 3.78628,-1.62346 22.896074,4.58511 18.091678,7.68286 6.852974,1.69092 14.30044,12.54807 7.712361,14.33509 5.586507,1.79791 10.573112,6.86936 4.567679,10.49464 8.402748,1.58594 -1.348205,12.9121 -4.966286,14.70888 -3.526039,1.75108 -13.918471,1.43637 -13.883884,-8.07745 -6.072428,6.75474 -9.341087,-5.33464 -5.021348,-11.33788 -8.763442,3.75753 -6.227388,-3.55643 -5.444017,-10.11889 -7.433433,4.22502 -4.623955,-16.15749 -1.056183,-17.68725 z"
         id="path6912"
         inkscape:connector-curvature="0"
         sodipodi:nodetypes="scccscccs" />
      <path
         style="fill:#ba9dbe;fill-opacity:1;stroke:#9f78a4;stroke-width:1.83613837;stroke-linecap:round;stroke-miterlimit:4;stroke-opacity:1"
         d="m 111.71726,-161.88389 c 3.4801,2.48386 7.15146,17.57602 1.91854,14.8875 2.6541,6.56215 0.28144,18.32876 -4.95684,13.54362 1.83334,5.53667 -0.97299,13.78691 -7.31971,10.3161 3.63804,7.82859 -8.526674,6.12501 -12.04542,3.86105 -3.429226,-2.20636 -8.143995,-10.1907 -0.633535,-14.40828 C 79.830753,-135.81452 88.761415,-144.98083 96,-144 c -8.054775,-5.74897 -0.821533,-6.86477 4.80074,-9.13035 -7.649363,-4.4132 7.63727,-11.09406 10.91652,-8.75354 z"
         id="path6914"
         inkscape:connector-curvature="0"
         sodipodi:nodetypes="scccscccs" />
      <path
         style="fill:#ba9dbe;fill-opacity:1;stroke:#9f78a4;stroke-width:1.90728748;stroke-linecap:round;stroke-miterlimit:4;stroke-opacity:1"
         d="M 6.6983034,-105.32712 C 9.6894988,-108.15985 27.436618,-108.56815 24,-104 c 7.014889,-0.78345 13.563538,4.044835 8,8 5.863573,-0.245058 16.381106,6.521513 12,12 8.432729,-1.417915 5.640466,11.257188 2.867034,14.19437 C 44.164161,-66.943172 35.257784,-67.061282 32,-76 c -3.361682,8.438006 -9.977043,-0.873272 -8,-8 -6.923195,6.556396 -6.465487,-1.571568 -8,-8 -5.51358,6.535069 -12.1202679,-10.65789 -9.3016966,-13.32712 z"
         id="path6916"
         inkscape:connector-curvature="0"
         sodipodi:nodetypes="scccscccs" />
    </g>
  </g>
</svg>
