<?xml version="1.0" encoding="UTF-8" standalone="no"?>
<!-- Created with Inkscape (http://www.inkscape.org/) -->

<svg
   xmlns:dc="http://purl.org/dc/elements/1.1/"
   xmlns:cc="http://creativecommons.org/ns#"
   xmlns:rdf="http://www.w3.org/1999/02/22-rdf-syntax-ns#"
   xmlns:svg="http://www.w3.org/2000/svg"
   xmlns="http://www.w3.org/2000/svg"
   xmlns:xlink="http://www.w3.org/1999/xlink"
   xmlns:sodipodi="http://sodipodi.sourceforge.net/DTD/sodipodi-0.dtd"
   xmlns:inkscape="http://www.inkscape.org/namespaces/inkscape"
   width="128"
   height="128"
   id="svg2985"
   version="1.1"
   inkscape:version="0.48.2 r9819"
   sodipodi:docname="double_plant_sunflower_back.svg"
   inkscape:export-filename="/Users/ianw/drawing.png"
   inkscape:export-xdpi="180"
   inkscape:export-ydpi="180">
  <title
     id="title3119">Template</title>
  <defs
     id="defs2987">
    <linearGradient
       id="linearGradient16979">
      <stop
         style="stop-color:#6a2b20;stop-opacity:1;"
         offset="0"
         id="stop16981" />
      <stop
         style="stop-color:#c06e5d;stop-opacity:1;"
         offset="1"
         id="stop16983" />
    </linearGradient>
    <radialGradient
       inkscape:collect="always"
       xlink:href="#linearGradient16979"
       id="radialGradient17121"
       gradientUnits="userSpaceOnUse"
       gradientTransform="matrix(1.0202511e-6,1.6666664,-1.6666669,1.0202514e-6,-53.333429,-167.9999)"
       cx="60"
       cy="-68.000008"
       fx="60"
       fy="-68.000008"
       r="12" />
  </defs>
  <sodipodi:namedview
     id="base"
     pagecolor="#ffffff"
     bordercolor="#000000"
     borderopacity="1"
     inkscape:pageopacity="0.0"
     inkscape:pageshadow="2"
     inkscape:zoom="4.7535597"
     inkscape:cx="64.898964"
     inkscape:cy="136.95673"
     inkscape:current-layer="layer1"
     showgrid="true"
     inkscape:document-units="px"
     inkscape:grid-bbox="true"
     inkscape:snap-bbox="false"
     inkscape:snap-nodes="true"
     inkscape:snap-grids="true"
     inkscape:window-width="1705"
     inkscape:window-height="1254"
     inkscape:window-x="340"
     inkscape:window-y="9"
     inkscape:window-maximized="0"
     inkscape:showpageshadow="false"
     borderlayer="true">
    <inkscape:grid
       type="xygrid"
       id="grid2993"
       empspacing="4"
       visible="true"
       enabled="true"
       snapvisiblegridlinesonly="true"
       spacingx="16px"
       spacingy="16px"
       empcolor="#d60053"
       empopacity="0.29803922" />
    <inkscape:grid
       type="xygrid"
       id="grid3043"
       empspacing="4"
       visible="true"
       enabled="true"
       snapvisiblegridlinesonly="true"
       color="#ff00f8"
       opacity="0.1254902"
       dotted="true" />
  </sodipodi:namedview>
  <metadata
     id="metadata2990">
    <rdf:RDF>
      <cc:Work
         rdf:about="">
        <dc:format>image/svg+xml</dc:format>
        <dc:type
           rdf:resource="http://purl.org/dc/dcmitype/StillImage" />
        <dc:title>Template</dc:title>
        <cc:license
           rdf:resource="https://www.gnu.org/copyleft/gpl.html" />
        <dc:creator>
          <cc:Agent>
            <dc:title>Ian Walters</dc:title>
          </cc:Agent>
        </dc:creator>
        <dc:source>SimpleRP</dc:source>
      </cc:Work>
    </rdf:RDF>
  </metadata>
  <g
     id="layer1"
     inkscape:label="Layer 1"
     inkscape:groupmode="layer"
     transform="translate(0,64)">
    <g
       id="g17117"
       transform="translate(-32,0)">
      <path
         id="path16424"
         transform="translate(0,-64)"
         d="m 66.875,-95.875 c -1.416704,-0.127587 -2.923596,2.732486 -4.03125,7.125 -1.513019,-4.26054 -3.290654,-6.978165 -4.6875,-6.71875 -1.373071,0.255 -2.057492,3.322556 -1.96875,7.71875 -2.542327,-3.601947 -4.897731,-5.641884 -6.15625,-5.03125 -1.526693,0.740753 -0.987186,5.192185 1.09375,10.8125 -4.642822,-3.778671 -8.681848,-5.7673 -9.875,-4.5625 -1.165868,1.17725 0.72195,5.027654 4.375,9.5 -5.430571,-1.963557 -9.682148,-2.458999 -10.40625,-0.96875 -0.608398,1.252124 1.431711,3.625905 5,6.15625 -4.379921,-0.08888 -7.431874,0.599033 -7.6875,1.96875 -0.216702,1.161154 1.651683,2.588991 4.71875,3.90625 -3.230156,0.853638 -5.262942,1.975221 -5.21875,3.15625 0.05234,1.39869 2.965285,2.542325 7.34375,3.09375 -3.9273,1.990955 -6.296118,4.042217 -5.875,5.375 0.340386,1.077277 2.439392,1.464091 5.53125,1.25 -2.256687,2.124504 -3.372243,3.956106 -2.8125,4.9375 0.685489,1.201866 3.71535,0.898403 7.78125,-0.59375 -2.506227,3.514159 -3.631157,6.366038 -2.65625,7.34375 1.092164,1.095306 4.547258,-0.467634 8.65625,-3.625 -1.809368,4.857003 -2.305833,8.622065 -0.9375,9.34375 1.178449,0.621536 3.425369,-1.170222 5.9375,-4.375 -0.215297,4.060196 0.329815,6.880443 1.625,7.1875 1.451742,0.344172 3.463651,-2.570738 5.25,-7.125 0.95686,4.803816 2.415434,8.020864 3.90625,7.9375 1.71967,-0.09616 2.934711,-4.527598 3.15625,-10.65625 2.893043,5.401178 5.914222,8.857119 7.5,8.1875 1.265517,-0.534384 1.290525,-3.551215 0.3125,-7.71875 3.167075,2.894808 5.820928,4.345323 6.90625,3.5 1.278223,-0.995567 0.0021,-4.898954 -2.90625,-9.65625 4.945483,2.561439 8.910207,3.594259 9.8125,2.25 0.927918,-1.382436 -1.65511,-4.868229 -6.125,-8.59375 5.751635,0.911326 10.039472,0.609545 10.46875,-1 0.433272,-1.624522 -3.191558,-4.100998 -8.71875,-6.1875 5.811101,-1.025806 9.843205,-2.762083 9.71875,-4.4375 -0.116383,-1.566757 -3.851039,-2.613003 -9.15625,-2.875 4.651963,-2.567418 7.552898,-5.197461 6.96875,-6.65625 -0.561072,-1.401161 -4.195198,-1.32785 -9.03125,-0.125 3.436529,-3.613046 5.254203,-6.757269 4.3125,-7.9375 -0.91364,-1.14506 -4.173716,-0.135909 -8.28125,2.25 2.14421,-4.240753 2.946528,-7.560532 1.75,-8.40625 -1.072152,-0.757809 -3.492581,0.66721 -6.34375,3.4375 0.718188,-3.908786 0.569372,-6.717373 -0.65625,-7.1875 -1.345666,-0.516174 -3.61097,1.919532 -5.90625,5.9375 -0.289286,-4.629818 -1.249834,-7.808025 -2.6875,-7.9375 z"
         style="fill:#ffff00;fill-opacity:1;stroke:#eec73e;stroke-width:2.82842708;stroke-linecap:round;stroke-miterlimit:4;stroke-opacity:1;stroke-dasharray:none"
         inkscape:connector-curvature="0" />
      <path
         transform="translate(0,-64)"
         d="m 76,-64 a 12,12 0 1 1 -24,0 12,12 0 1 1 24,0 z"
         sodipodi:ry="12"
         sodipodi:rx="12"
         sodipodi:cy="-64"
         sodipodi:cx="64"
         id="path16977"
         style="fill:url(#radialGradient17121);fill-opacity:1;stroke:none"
         sodipodi:type="arc" />
    </g>
    <path
       id="path17065"
       d="m 67.5,-32.15625 c -1.4167,-0.12759 -2.9236,2.73249 -4.03125,7.125 -1.51302,-4.26054 -3.29065,-6.97816 -4.6875,-6.71875 -1.37307,0.255 -2.05749,3.32256 -1.96875,7.71875 -2.54233,-3.60195 -4.89773,-5.64188 -6.15625,-5.03125 -1.52669,0.74075 -0.98719,5.19219 1.09375,10.8125 -4.64282,-3.77867 -8.68185,-5.7673 -9.875,-4.5625 -1.16587,1.17725 0.72195,5.02765 4.375,9.5 -5.43057,-1.96356 -9.68215,-2.459 -10.40625,-0.96875 -0.6084,1.25212 1.43171,3.62591 5,6.15625 -4.37992,-0.0889 -7.43187,0.59903 -7.6875,1.96875 -0.2167,1.16115 1.65168,2.58899 4.71875,3.90625 -3.23016,0.85364 -5.26294,1.97522 -5.21875,3.15625 C 32.70855,2.30494 35.62153,3.44858 40,4 c -3.9273,1.99095 -6.29612,4.04222 -5.875,5.375 0.34039,1.07728 2.43939,1.46409 5.53125,1.25 -2.25669,2.1245 -3.37224,3.95611 -2.8125,4.9375 0.68549,1.20187 3.71535,0.8984 7.78125,-0.59375 -2.50623,3.51416 -3.63116,6.36604 -2.65625,7.34375 1.09216,1.09531 4.54726,-0.46763 8.65625,-3.625 -1.80937,4.857 -2.30583,8.622065 -0.9375,9.34375 1.17845,0.621536 3.42537,-1.17022 5.9375,-4.375 -0.2153,4.060196 0.32981,6.880443 1.625,7.1875 1.45174,0.344172 3.46365,-2.570738 5.25,-7.125 0.95686,4.803816 2.41543,8.020864 3.90625,7.9375 C 68.12592,31.56009 69.34096,27.128652 69.5625,21 c 2.89304,5.40118 5.91422,8.857119 7.5,8.1875 1.26552,-0.534384 1.29052,-3.55122 0.3125,-7.71875 3.16707,2.89481 5.82093,4.34532 6.90625,3.5 1.27822,-0.99557 0.002,-4.89895 -2.90625,-9.65625 4.94548,2.56144 8.91021,3.59426 9.8125,2.25 0.92792,-1.38244 -1.65511,-4.86823 -6.125,-8.59375 5.75163,0.91133 10.03947,0.60954 10.46875,-1 0.43327,-1.62452 -3.19156,-4.101 -8.71875,-6.1875 5.8111,-1.02581 9.8432,-2.76208 9.71875,-4.4375 -0.11638,-1.56676 -3.85104,-2.613 -9.15625,-2.875 4.65196,-2.56742 7.5529,-5.19746 6.96875,-6.65625 -0.56107,-1.40116 -4.1952,-1.32785 -9.03125,-0.125 3.43653,-3.61305 5.2542,-6.75727 4.3125,-7.9375 -0.91364,-1.14506 -4.17372,-0.13591 -8.28125,2.25 2.14421,-4.24075 2.94653,-7.56053 1.75,-8.40625 -1.07215,-0.75781 -3.49258,0.66721 -6.34375,3.4375 0.71819,-3.90879 0.56937,-6.71737 -0.65625,-7.1875 -1.34567,-0.51617 -3.61097,1.91953 -5.90625,5.9375 -0.28929,-4.62982 -1.24983,-7.80802 -2.6875,-7.9375 z"
       style="fill:#8ac862;fill-opacity:1;stroke:#558b3a;stroke-width:2.82842708;stroke-linecap:round;stroke-miterlimit:4;stroke-opacity:1;stroke-dasharray:none"
       inkscape:connector-curvature="0" />
  </g>
</svg>
