<?xml version="1.0" encoding="UTF-8" standalone="no"?>
<!-- Created with Inkscape (http://www.inkscape.org/) -->

<svg
   xmlns:dc="http://purl.org/dc/elements/1.1/"
   xmlns:cc="http://creativecommons.org/ns#"
   xmlns:rdf="http://www.w3.org/1999/02/22-rdf-syntax-ns#"
   xmlns:svg="http://www.w3.org/2000/svg"
   xmlns="http://www.w3.org/2000/svg"
   xmlns:sodipodi="http://sodipodi.sourceforge.net/DTD/sodipodi-0.dtd"
   xmlns:inkscape="http://www.inkscape.org/namespaces/inkscape"
   width="128"
   height="128"
   id="svg2985"
   version="1.1"
   inkscape:version="0.48.2 r9819"
   sodipodi:docname="fern.svg"
   inkscape:export-filename="/Users/ianw/drawing.png"
   inkscape:export-xdpi="180"
   inkscape:export-ydpi="180">
  <title
     id="title3119">Template</title>
  <defs
     id="defs2987" />
  <sodipodi:namedview
     id="base"
     pagecolor="#ffffff"
     bordercolor="#000000"
     borderopacity="1"
     inkscape:pageopacity="0.0"
     inkscape:pageshadow="2"
     inkscape:zoom="3.3612742"
     inkscape:cx="76.52388"
     inkscape:cy="102.43594"
     inkscape:current-layer="layer1"
     showgrid="true"
     inkscape:document-units="px"
     inkscape:grid-bbox="true"
     inkscape:snap-bbox="false"
     inkscape:snap-nodes="true"
     inkscape:snap-grids="true"
     inkscape:window-width="1563"
     inkscape:window-height="1243"
     inkscape:window-x="34"
     inkscape:window-y="0"
     inkscape:window-maximized="0"
     inkscape:showpageshadow="false"
     borderlayer="true">
    <inkscape:grid
       type="xygrid"
       id="grid2993"
       empspacing="4"
       visible="true"
       enabled="true"
       snapvisiblegridlinesonly="true"
       spacingx="16px"
       spacingy="16px"
       empcolor="#d60053"
       empopacity="0.29803922" />
    <inkscape:grid
       type="xygrid"
       id="grid3043"
       empspacing="4"
       visible="true"
       enabled="true"
       snapvisiblegridlinesonly="true"
       color="#ff00f8"
       opacity="0.1254902"
       dotted="true" />
  </sodipodi:namedview>
  <metadata
     id="metadata2990">
    <rdf:RDF>
      <cc:Work
         rdf:about="">
        <dc:format>image/svg+xml</dc:format>
        <dc:type
           rdf:resource="http://purl.org/dc/dcmitype/StillImage" />
        <dc:title>Template</dc:title>
        <cc:license
           rdf:resource="https://www.gnu.org/copyleft/gpl.html" />
        <dc:creator>
          <cc:Agent>
            <dc:title>Ian Walters</dc:title>
          </cc:Agent>
        </dc:creator>
        <dc:source>SimpleRP</dc:source>
      </cc:Work>
    </rdf:RDF>
  </metadata>
  <g
     id="layer1"
     inkscape:label="Layer 1"
     inkscape:groupmode="layer"
     transform="translate(0,64)">
    <path
       style="fill:#b5b5b5;fill-opacity:1;stroke:#616161;stroke-width:1.94371283;stroke-linecap:butt;stroke-linejoin:miter;stroke-miterlimit:4;stroke-opacity:1;stroke-dasharray:none"
       d="M 56,68 72,68 64,-49.340589 z"
       id="path7949"
       inkscape:connector-curvature="0"
       sodipodi:nodetypes="cccc" />
    <path
       style="fill:#b5b5b5;fill-opacity:1;stroke:#616161;stroke-width:0.76731789;stroke-linecap:butt;stroke-linejoin:miter;stroke-miterlimit:4;stroke-opacity:1;stroke-dasharray:none"
       d="m 58.909086,-38.951046 5.090862,0.404787 -4.704501,0.98667 3.9e-5,0.01264 c 0.04333,0.07717 0.08691,0.140458 0.136362,0.215044 l 4.568139,0.404805 -3.272696,0.923421 c 0.140151,0.104729 0.285368,0.194814 0.431815,0.290942 l 2.840882,0.404787 -1.818165,0.40479 c 1.392024,0.74403 2.545432,0.809577 2.545432,0.809577 0,0 0.802451,-0.06613 2.181797,-0.809574 l -1.454532,-0.40479 2.795429,-0.40479 c 0.150033,-0.09807 0.299403,-0.196952 0.443178,-0.303589 l -3.238606,-0.910777 4.556776,-0.404788 c 0.05023,-0.07363 0.09223,-0.151664 0.13636,-0.227692 l -4.693137,-0.98667 5.090862,-0.404788 c 10e-7,-0.06474 0.0012,-0.136057 10e-7,-0.202392 l -5.090862,-1.011972 4.988589,-0.404787 c -0.0087,-0.08019 -0.01295,-0.158753 -0.02271,-0.24034 l -4.965866,-0.974022 4.761321,-0.404787 c -0.0124,-0.07201 -0.03245,-0.142329 -0.04545,-0.215044 l -4.715866,-0.999319 4.44314,-0.404789 c -0.01615,-0.07496 -0.02883,-0.152257 -0.04545,-0.227693 l -4.397688,-0.98667 4.068145,-0.404788 c -0.02083,-0.08412 -0.04691,-0.168557 -0.06817,-0.252993 l -3.999961,-0.961372 3.647692,-0.404787 c -0.02772,-0.101521 -0.06273,-0.20193 -0.09091,-0.303593 l -3.556787,-0.910768 3.193151,-0.404788 c -0.03758,-0.127919 -0.07558,-0.251838 -0.113635,-0.379488 l -3.079517,-0.834873 2.704519,-0.404788 c -0.05066,-0.162685 -0.10806,-0.319308 -0.159088,-0.480685 l -2.545432,-0.733677 2.181797,-0.404785 c -0.07189,-0.220078 -0.14419,-0.429353 -0.215907,-0.645133 l -1.238625,-0.569231 0.909083,-0.404788 c -0.08695,-0.255483 -0.164707,-0.487394 -0.249998,-0.733678 l -0.659085,-0.480682 0.363633,-0.404801 c -0.148073,-0.419298 -0.283273,-0.747024 -0.42045,-1.125812 l -0.181827,-0.493335 C 65.242267,-58.677797 64.727271,-60 64.727271,-60 c 0,0 -0.514996,1.322203 -1.215898,3.238296 l -0.181821,0.493334 c -0.137182,0.378787 -0.261017,0.706514 -0.409091,1.12581 l 0.352269,0.404801 -0.659084,0.480683 c -0.0853,0.246284 -0.163054,0.478195 -0.249996,0.733679 l 0.909083,0.404788 -1.238625,0.56923 c -0.07171,0.21578 -0.144014,0.425057 -0.21591,0.645133 l 2.181788,0.404784 -2.545431,0.733681 c -0.05106,0.161368 -0.108425,0.318 -0.159091,0.480684 l 2.70452,0.404788 -3.079517,0.834874 c -0.03808,0.127648 -0.07603,0.251577 -0.113661,0.379482 l 3.193152,0.404787 -3.556785,0.910773 c -0.02818,0.101664 -0.06323,0.202065 -0.09089,0.303598 l 3.647694,0.404786 -3.999964,0.961369 c -0.02126,0.08444 -0.04734,0.168889 -0.06815,0.253001 l 4.068147,0.404787 -4.397686,0.986671 c -0.01664,0.07544 -0.02931,0.152734 -0.04546,0.227692 l 4.443142,0.404789 -4.715865,0.999318 c -0.01307,0.07271 -0.03302,0.143039 -0.04546,0.215045 L 64,-41.784549 l -4.965864,0.97402 c -0.0098,0.08159 -0.01404,0.16015 -0.02273,0.240343 l 4.988598,0.404785 -5.090862,1.011972 c -0.0011,0.06633 10e-7,0.13765 0,0.202391 z"
       id="path8745"
       inkscape:connector-curvature="0"
       sodipodi:nodetypes="cccccccccccccccccccccccccccccccccccccccccccccccccccccccccccccccccccccccccccccccccccccc" />
    <g
       id="g8749"
       transform="matrix(1,0,0,0.94450491,0,3.551686)">
      <path
         style="fill:#b5b5b5;fill-opacity:1;stroke:#616161;stroke-width:1.67857146;stroke-linecap:butt;stroke-linejoin:miter;stroke-miterlimit:4;stroke-opacity:1;stroke-dasharray:none"
         d="m 74.252685,36.422297 2.230436,11.566852 -4.786375,-9.958791 -0.0253,0.0068 c -0.128668,0.138004 -0.22938,0.269144 -0.349219,0.419406 l 1.918141,10.401498 -3.804389,-6.800649 c -0.126019,0.368656 -0.219691,0.740746 -0.32473,1.11882 l 0.886368,6.550722 -1.896804,-3.836215 C 67.442268,49.393404 68,52 68,52 c 0,0 0.611813,1.753504 2.924714,4.42968 l -0.05821,-3.459974 2.480591,6.014939 c 0.28603,0.28186 0.573303,0.561801 0.872756,0.825109 l -0.110596,-7.708941 3.532766,9.941708 c 0.177498,0.07248 0.358843,0.124231 0.53747,0.18182 l -0.827484,-10.99242 3.851811,11.132405 c 0.129661,-0.03474 0.273187,-0.0704 0.405343,-0.108611 l -1.014403,-11.892687 3.790716,10.9044 c 0.155417,-0.0624 0.310211,-0.114055 0.467771,-0.179639 l -1.015736,-11.593653 3.654952,10.397719 c 0.136815,-0.06629 0.265663,-0.148716 0.403526,-0.216734 l -0.815728,-11.049878 3.464883,9.688368 c 0.14048,-0.07622 0.28771,-0.145979 0.428859,-0.223522 l -0.650991,-10.333738 3.240872,8.852346 c 0.156,-0.09158 0.30956,-0.195018 0.465951,-0.287768 l -0.464072,-9.433471 2.989708,7.914989 c 0.186755,-0.116268 0.36694,-0.248203 0.55371,-0.365589 l -0.300667,-8.418292 2.718175,6.901629 c 0.23375,-0.152422 0.45923,-0.303633 0.692143,-0.456987 l -0.16756,-7.313535 2.42628,5.812266 c 0.29555,-0.200249 0.57494,-0.412261 0.86765,-0.612627 l -0.0512,-6.068532 2.11402,4.646904 c 0.39781,-0.278378 0.77375,-0.551867 1.16306,-0.827546 l 0.40011,-3.066875 1.35374,1.809498 c 0.45973,-0.330945 0.87775,-0.628753 1.32004,-0.951067 l 0.56897,-1.727323 1.02791,0.593464 c 0.75131,-0.555127 1.3269,-1.032415 2.00356,-1.541509 l 0.87942,-0.670084 c 3.41875,-2.590841 5.75916,-4.448523 5.75916,-4.448523 0,0 -2.9557,-0.438593 -7.21184,-0.972951 l -1.09664,-0.140604 c -0.84056,-0.102555 -1.57089,-0.202772 -2.4991,-0.307872 l -0.60026,1.002578 -1.3564,-1.21142 c -0.54419,-0.05798 -1.05511,-0.106888 -1.61872,-0.16363 l -0.26762,2.243942 -1.87994,-2.455937 c -0.475,-0.04409 -0.93731,-0.09297 -1.42102,-0.135144 l 0.49266,5.081348 -2.989943,-5.281097 c -0.35368,-0.02716 -0.70164,-0.07108 -1.05772,-0.09672 l 0.8049,6.246713 -3.511648,-6.417489 c -0.278388,-0.01636 -0.549261,-0.03456 -0.827902,-0.04969 l 1.096803,7.336075 -3.948761,-7.440787 c -0.220441,-0.0083 -0.442453,-0.03244 -0.662322,-0.03976 l 1.368332,8.349435 -4.314838,-8.40166 c -0.181809,-0.0021 -0.36652,-0.01493 -0.547409,-0.01624 l 1.619495,9.286792 -4.603093,-9.274774 c -0.161005,0.0034 -0.323398,0.01662 -0.483164,0.02085 l 1.843534,10.122796 -4.818497,-9.977336 c -0.15341,0.01 -0.306201,0.0031 -0.457831,0.01407 l 2.033577,10.832162 -4.917171,-10.548262 c -0.169244,0.02198 -0.329127,0.05465 -0.494921,0.07831 l 2.169342,11.338846 -5.067843,-10.80657 c -0.133503,0.03318 -0.275682,0.07387 -0.405344,0.108611 z"
         id="path8735"
         inkscape:connector-curvature="0"
         sodipodi:nodetypes="cccccccccccccccccccccccccccccccccccccccccccccccccccccccccccccccccccccccccccccccccccccc" />
      <path
         sodipodi:nodetypes="cccccccccccccccccccccccccccccccccccccccccccccccccccccccccccccccccccccccccccccccccccccc"
         inkscape:connector-curvature="0"
         id="path8737"
         d="m 72.752838,14.396744 1.511983,8.398894 -3.713459,-7.140847 -0.0215,0.0058 c -0.112623,0.105111 -0.201506,0.204303 -0.307088,0.318106 l 1.285957,7.555473 -2.986766,-4.859431 c -0.11767,0.273905 -0.20823,0.549305 -0.308543,0.829443 l 0.539217,4.768481 -1.475097,-2.749046 C 66.612906,24.109043 67,26 67,26 c 0,0 0.459511,1.264616 2.321334,3.151155 l 0.06016,-2.531558 1.897613,4.325892 c 0.231794,0.197355 0.464696,0.393267 0.708372,0.576614 l 0.150108,-5.640999 2.65912,7.167882 c 0.147074,0.04747 0.298039,0.07964 0.446532,0.116175 l -0.349561,-8.02255 2.890031,8.029648 c 0.110202,-0.02953 0.232111,-0.06012 0.34451,-0.09231 l -0.478448,-8.675829 2.845812,7.864629 c 0.132748,-0.05059 0.26463,-0.0933 0.399284,-0.146287 l -0.489004,-8.456834 2.747554,7.49792 c 0.117218,-0.05285 0.228239,-0.117268 0.346391,-0.171424 l -0.337854,-8.06499 2.609991,6.984528 c 0.120614,-0.06024 0.246705,-0.115963 0.367924,-0.177193 l -0.221823,-7.54583 2.447863,6.379459 c 0.134158,-0.07197 0.266637,-0.152559 0.401162,-0.225402 l -0.09293,-6.89255 2.266084,5.701049 c 0.160817,-0.09102 0.3166,-0.193309 0.477464,-0.28515 l 0.01254,-6.154391 2.069565,4.967632 c 0.201498,-0.118976 0.396001,-0.236806 0.59683,-0.356439 l 0.0897,-5.349686 1.858309,4.179208 c 0.255015,-0.155946 0.4968,-0.319995 0.749432,-0.475935 l 0.148353,-4.441766 1.632308,3.335779 c 0.343531,-0.216376 0.668498,-0.428484 1.004791,-0.642617 l 0.433423,-2.258187 1.08206,1.282212 c 0.39728,-0.256821 0.75842,-0.48806 1.14076,-0.73801 l 0.53326,-1.282693 0.84625,0.402107 c 0.6497,-0.430161 1.1491,-0.797787 1.73456,-1.191892 l 0.76114,-0.518373 c 2.95851,-2.004857 4.9865,-3.438877 4.9865,-3.438877 0,0 -2.4733,-0.227905 -6.03787,-0.484904 l -0.91836,-0.06836 c -0.70407,-0.04857 -1.31546,-0.09892 -2.0932,-0.146594 l -0.53673,0.753024 -1.10316,-0.844215 c -0.4561,-0.02529 -0.884473,-0.04498 -1.356944,-0.06875 l -0.295986,1.651457 -1.504447,-1.738936 c -0.398305,-0.0173 -0.785789,-0.03851 -1.191483,-0.05413 l 0.25427,3.705024 -2.349361,-3.772506 c -0.296756,-0.0087 -0.588172,-0.02991 -0.886995,-0.03745 l 0.480261,4.548454 -2.752522,-4.588115 c -0.23374,-0.0032 -0.461099,-0.008 -0.695089,-0.01027 l 0.69152,5.336877 -3.08806,-5.323586 c -0.185234,8.93e-4 -0.371288,-0.0098 -0.556071,-0.0082 l 0.888038,6.070295 -3.365792,-6.01559 c -0.152922,0.0042 -0.307945,6.34e-4 -0.460117,0.0054 l 1.069817,6.748706 -3.58081,-6.645791 c -0.135591,0.0076 -0.272654,0.02237 -0.407228,0.03051 l 1.231946,7.353776 -3.739905,-7.153413 c -0.129406,0.01216 -0.257754,0.01191 -0.385695,0.02474 l 1.369507,7.867163 -3.804926,-7.568332 c -0.143109,0.02143 -0.278675,0.05039 -0.418933,0.07295 l 1.467769,8.233874 -3.923566,-7.752711 c -0.113383,0.02852 -0.234309,0.06278 -0.34451,0.09231 z"
         style="fill:#b5b5b5;fill-opacity:1;stroke:#616161;stroke-width:1.31650817;stroke-linecap:butt;stroke-linejoin:miter;stroke-miterlimit:4;stroke-opacity:1;stroke-dasharray:none" />
      <path
         style="fill:#b5b5b5;fill-opacity:1;stroke:#616161;stroke-width:1.07164061;stroke-linecap:butt;stroke-linejoin:miter;stroke-miterlimit:4;stroke-opacity:1;stroke-dasharray:none"
         d="m 70.542871,-3.5397381 1.268583,6.9422536 -3.027772,-5.9182153 -0.01722,0.00461 c -0.08973,0.086023 -0.160442,0.1673176 -0.244463,0.260561 l 1.081632,6.2446246 -2.429502,-4.03041133 c -0.09268,0.2253131 -0.163591,0.4520363 -0.242298,0.6826071 L 67.395798,4.5856868 66.193647,2.3070276 C 65.676911,4.4366923 66,6 66,6 c 0,0 0.377143,1.0468025 1.884146,2.6160739 l 0.0318,-2.0891418 1.551632,3.5829329 c 0.187375,0.164408 0.375629,0.327629 0.572452,0.48055 l 0.08375,-4.6550695 2.181504,5.9336585 c 0.118383,0.04014 0.23979,0.06768 0.359241,0.0988 l -0.332917,-6.6240442 2.372501,6.6464582 c 0.08828,-0.02365 0.18595,-0.04812 0.275977,-0.07395 l -0.440647,-7.164097 2.335926,6.509965 c 0.106241,-0.04089 0.211841,-0.07529 0.319599,-0.118141 L 76.74727,4.1605881 79.001921,10.367235 c 0.09376,-0.04286 0.182471,-0.0953 0.276972,-0.139235 l -0.323795,-6.6589998 2.140869,5.7819992 c 0.09644,-0.048935 0.197303,-0.094108 0.294222,-0.1438569 l -0.22726,-6.2297306 2.006764,5.2815221 c 0.107236,-0.058533 0.213068,-0.1241835 0.320593,-0.1834307 l -0.119529,-5.6896767 1.856409,4.720381 c 0.128514,-0.074083 0.252913,-0.157493 0.38146,-0.2322497 l -0.03004,-5.0797178 1.693861,4.1137421 c 0.16099,-0.096889 0.316373,-0.1928769 0.476822,-0.2903121 l 0.03715,-4.4150163 1.51912,3.4616055 C 89.509255,4.5372034 89.702295,4.4033746 89.904095,4.276309 l 0.09015,-3.66524183 1.332186,2.76397103 c 0.274384,-0.1763569 0.533891,-0.3493117 0.802477,-0.5238645 l 0.333243,-1.8610698 0.877055,1.0653817 c 0.317275,-0.2093888 0.605695,-0.397899 0.911021,-0.6017147 l 0.41975,-1.05525233 0.682012,0.33741 c 0.518791,-0.3508186 0.917322,-0.6510008 1.384769,-0.9724768 l 0.60768,-0.42290247 c 2.362084,-1.6355161 3.980842,-2.8059319 3.980842,-2.8059319 0,0 -1.987093,-0.2042295 -4.850476,-0.4395864 l -0.737718,-0.062407 c -0.565559,-0.044682 -1.056725,-0.090218 -1.68142,-0.134639 l -0.425998,0.6180461 -0.891141,-0.7040002 c -0.366327,-0.023845 -0.710362,-0.042891 -1.089824,-0.065589 l -0.226862,1.3611743 -1.219131,-1.4451124 c -0.319879,-0.016873 -0.631096,-0.036906 -0.956898,-0.052442 l 0.228279,3.0597625 -1.910698,-3.1291152 c -0.238296,-0.00914 -0.472389,-0.028523 -0.71234,-0.036696 l 0.415206,3.7573977 -2.239678,-3.8049418 c -0.187671,-0.00416 -0.37023,-0.00959 -0.558096,-0.013007 l 0.589944,4.40953487 -2.513846,-4.41418257 c -0.148703,-4.707e-4 -0.29814,-0.010505 -0.446478,-0.010405 l 0.752493,5.01617447 -2.741324,-4.98716887 c -0.122742,0.00245 -0.247221,-0.00148 -0.369357,0.00144 L 80.64277,1.03617 77.724717,-4.472564 c -0.108806,0.00538 -0.218746,0.016687 -0.326731,0.022527 l 1.036953,6.0777944 -3.049085,-5.9287591 c -0.103809,0.00919 -0.206852,0.00815 -0.309482,0.017905 l 1.150737,6.5024371 -3.103989,-6.271655 c -0.114751,0.016756 -0.223397,0.039779 -0.335851,0.057486 l 1.232011,6.8057582 -3.200437,-6.4246138 c -0.09084,0.022787 -0.187697,0.050293 -0.275977,0.073948 z"
         id="path8739"
         inkscape:connector-curvature="0"
         sodipodi:nodetypes="cccccccccccccccccccccccccccccccccccccccccccccccccccccccccccccccccccccccccccccccccccccc" />
      <path
         sodipodi:nodetypes="cccccccccccccccccccccccccccccccccccccccccccccccccccccccccccccccccccccccccccccccccccccc"
         inkscape:connector-curvature="0"
         id="path8741"
         d="m 66.713698,-29.217747 3.216561,5.271154 -4.331612,-3.882287 -0.01263,0.0091 c -0.04626,0.09844 -0.07848,0.187039 -0.117808,0.28958 l 2.844759,4.760134 -3.250065,-2.528467 c -0.0049,0.213122 0.0084,0.420554 0.01653,0.633579 l 1.616261,3.071496 -1.697493,-1.483348 C 65.245111,-21.175243 66,-20 66,-20 c 0,0 0.636802,0.736446 2.360446,1.544698 l -0.630216,-1.716154 2.392573,2.438754 c 0.204665,0.07541 0.409675,0.149585 0.61845,0.212654 l -1.393742,-3.828016 3.645331,4.160708 c 0.109283,-0.0044 0.217091,-0.02004 0.324419,-0.03215 l -2.352472,-5.305168 4.025203,4.682849 c 0.06467,-0.04705 0.136724,-0.09773 0.20216,-0.147071 l -2.61008,-5.712382 3.952459,4.582865 c 0.07392,-0.06676 0.149364,-0.128019 0.223905,-0.196866 l -2.559084,-5.562603 3.790814,4.360678 c 0.06311,-0.06445 0.119082,-0.135155 0.182468,-0.200703 l -2.356002,-5.33658 3.564511,4.049614 c 0.06338,-0.07026 0.131577,-0.138825 0.195102,-0.209895 l -2.142331,-5.016326 3.297792,3.683007 c 0.06919,-0.08148 0.135,-0.168346 0.204213,-0.250494 l -1.884721,-4.60911 2.998747,3.271957 c 0.08169,-0.100865 0.157078,-0.208065 0.238582,-0.309488 l -1.620046,-4.139078 2.675454,2.827582 c 0.101044,-0.129695 0.197793,-0.256892 0.298225,-0.38686 l -1.356404,-3.617329 2.327913,2.34988 c 0.126463,-0.16775 0.242081,-0.337679 0.366977,-0.504837 l -1.077615,-3.02165 1.956124,1.83885 c 0.168695,-0.230206 0.326301,-0.452969 0.490824,-0.679885 l -0.3124,-1.624572 1.050905,0.594599 c 0.193345,-0.270659 0.369683,-0.515204 0.555019,-0.777557 l 0.01135,-0.993647 0.662966,0.06134 c 0.313496,-0.449458 0.544682,-0.819787 0.825464,-1.229155 l 0.363444,-0.536253 c 1.415361,-2.077616 2.369744,-3.541915 2.369744,-3.541915 0,0 -1.686967,0.457343 -4.099363,1.164508 l -0.622083,0.180744 c -0.475918,0.141146 -0.891346,0.258234 -1.415474,0.418169 l -0.15378,0.638553 -0.948902,-0.295041 c -0.306664,0.09558 -0.593612,0.188093 -0.910641,0.288744 l 0.242267,1.182903 -1.449547,-0.797273 c -0.266536,0.0867 -0.526995,0.168087 -0.797953,0.257726 l 1.147483,2.427141 -2.543273,-1.955348 c -0.197487,0.06738 -0.394753,0.12508 -0.593282,0.193773 l 1.519274,2.938184 -3.02422,-2.403952 c -0.15456,0.05559 -0.305375,0.108447 -0.459872,0.164674 l 1.866813,3.415887 -3.439487,-2.815392 c -0.12159,0.04633 -0.246789,0.08506 -0.367898,0.131743 l 2.190107,3.860262 -3.805237,-3.21189 c -0.09945,0.04061 -0.202368,0.07644 -0.30118,0.117226 l 2.489155,4.271312 -4.113389,-3.582334 c -0.08718,0.03856 -0.173407,0.08234 -0.259762,0.121022 l 2.75587,4.637921 -4.352329,-3.884204 c -0.0819,0.04007 -0.166385,0.0716 -0.247129,0.111824 l 2.982174,4.948978 -4.50487,-4.146993 c -0.08845,0.04973 -0.169955,0.102649 -0.256233,0.152428 l 3.143827,5.171175 -4.631683,-4.241619 c -0.06702,0.04715 -0.13749,0.100032 -0.20216,0.147071 z"
         style="fill:#b5b5b5;fill-opacity:1;stroke:#616161;stroke-width:0.93768555;stroke-linecap:butt;stroke-linejoin:miter;stroke-miterlimit:4;stroke-opacity:1;stroke-dasharray:none" />
      <path
         inkscape:transform-center-x="-2.9904283"
         style="fill:#b5b5b5;fill-opacity:1;stroke:#616161;stroke-width:0.78953832;stroke-linecap:butt;stroke-linejoin:miter;stroke-miterlimit:4;stroke-opacity:1;stroke-dasharray:none"
         d="m 63.532747,-39.362928 4.19453,2.916584 -4.596538,-1.447564 -0.0067,0.0116 c -0.0033,0.09242 9.12e-4,0.172242 0.0043,0.265357 l 3.741831,2.655239 -3.323078,-0.789656 c 0.06593,0.166103 0.144007,0.321311 0.219945,0.482675 l 2.24599,1.791595 -1.788863,-0.537928 C 65.035819,-32.636805 66,-32 66,-32 c 0,0 0.729952,0.340587 2.318063,0.348592 l -1.045375,-1.098421 2.6352,1.026558 c 0.181846,-0.0149 0.363552,-0.03089 0.544516,-0.05677 l -2.32257,-2.454403 4.160569,1.907234 c 0.08248,-0.0424 0.160165,-0.09295 0.238628,-0.140594 l -3.542056,-3.251255 4.623102,2.174277 c 0.03427,-0.05936 0.07307,-0.124149 0.107143,-0.185575 l -3.873101,-3.473317 4.53453,2.123142 c 0.03492,-0.07788 0.07283,-0.152037 0.107561,-0.231728 l -3.784941,-3.376022 4.33771,2.009507 c 0.02738,-0.07222 0.04724,-0.14673 0.07448,-0.219901 l -3.555043,-3.274217 4.062159,1.850415 c 0.0257,-0.07681 0.05563,-0.154021 0.08117,-0.231499 l -3.286189,-3.103531 3.737403,1.662919 c 0.02649,-0.08754 0.04861,-0.178006 0.07489,-0.266057 l -2.955139,-2.881472 3.37328,1.452693 c 0.02974,-0.106943 0.05257,-0.216515 0.08199,-0.323822 l -2.598127,-2.613485 2.979635,1.225422 c 0.03518,-0.136079 0.06786,-0.268703 0.102483,-0.404773 l -2.224977,-2.305263 2.556468,0.981106 c 0.04225,-0.174495 0.07545,-0.346806 0.116689,-0.520288 l -1.816016,-1.945431 2.103776,0.719747 c 0.05425,-0.237737 0.102418,-0.465773 0.154538,-0.699482 l -0.771342,-1.141246 1.001574,0.08339 c 0.05995,-0.27773 0.115375,-0.529249 0.171889,-0.797715 l -0.316322,-0.770285 0.529208,-0.189349 c 0.09373,-0.458495 0.150137,-0.82659 0.231859,-1.242492 l 0.103694,-0.543257 c 0.407339,-2.107335 0.661284,-3.577173 0.661284,-3.577173 0,0 -1.145944,0.954841 -2.767281,2.361275 l -0.418622,0.361431 c -0.319324,0.278723 -0.60006,0.517301 -0.950262,0.827721 l 0.09078,0.5473 -0.825247,0.1112 c -0.204244,0.183173 -0.394354,0.356935 -0.604896,0.54772 l 0.573003,0.825695 -1.374018,-0.09738 c -0.176334,0.161994 -0.349735,0.317731 -0.528503,0.483573 l 1.675199,1.462045 -2.592801,-0.599998 c -0.129644,0.122432 -0.262241,0.237366 -0.392241,0.361199 l 2.127897,1.723414 -3.108904,-0.774254 c -0.100549,0.098 -0.199022,0.192658 -0.299321,0.29112 l 2.551065,1.967728 -3.56241,-0.943296 c -0.07822,0.07913 -0.161724,0.153663 -0.239431,0.232926 l 2.94471,2.195001 -3.972998,-1.118494 c -0.06312,0.06679 -0.130403,0.131185 -0.192953,0.197903 l 3.308834,2.405227 -4.33083,-1.294155 c -0.05434,0.06085 -0.106239,0.125387 -0.159907,0.186041 l 3.633587,2.592726 -4.613075,-1.441648 c -0.04981,0.06013 -0.104319,0.114642 -0.153207,0.174448 l 3.909138,2.751813 -4.81619,-1.589843 c -0.05168,0.0699 -0.09694,0.13982 -0.14692,0.209004 l 4.105968,2.865451 -4.944531,-1.617544 c -0.03607,0.06027 -0.07287,0.126213 -0.107142,0.185575 z"
         id="path8743"
         inkscape:connector-curvature="0"
         sodipodi:nodetypes="cccccccccccccccccccccccccccccccccccccccccccccccccccccccccccccccccccccccccccccccccccccc" />
      <path
         style="fill:#b5b5b5;fill-opacity:1;stroke:#616161;stroke-width:0.93768555;stroke-linecap:butt;stroke-linejoin:miter;stroke-miterlimit:4;stroke-opacity:1;stroke-dasharray:none"
         d="m 69.075113,-17.718921 1.742684,5.924051 -3.179206,-4.871105 -0.01456,0.0055 c -0.07016,0.08311 -0.124215,0.160354 -0.188743,0.249222 l 1.515813,5.334214 -2.484906,-3.28349 c -0.05989,0.204592 -0.100734,0.408398 -0.148016,0.616269 l 0.766227,3.385156 -1.255734,-1.872147 C 65.575008,-10.330578 66,-9 66,-9 c 0,0 0.424497,0.876168 1.880218,2.102992 l -0.164568,-1.82079 1.679852,2.9748992 c 0.178174,0.1258117 0.357,0.2505197 0.542338,0.3654747 l -0.355488,-4.0583069 2.444249,4.9624168 c 0.106698,0.024034 0.21488,0.03683 0.321685,0.052911 l -0.899235,-5.7332628 2.676038,5.5650834 c 0.07464,-0.028709 0.157359,-0.059013 0.233336,-0.089737 l -1.042671,-6.1932764 2.63165,5.44968 c 0.08868,-0.045353 0.177408,-0.084999 0.267228,-0.1322071 l -1.032178,-6.0354019 2.533019,5.1932265 c 0.07764,-0.04592 0.150005,-0.09973 0.228196,-0.146638 l -0.894514,-5.7645185 2.394936,4.8341905 c 0.07941,-0.05146 0.163024,-0.10004 0.242779,-0.152247 l -0.771012,-5.3998755 2.23219,4.4110435 c 0.08792,-0.0608 0.173971,-0.127669 0.262087,-0.189105 l -0.627575,-4.9398605 2.049722,3.936601 c 0.105012,-0.07629 0.205577,-0.160321 0.310554,-0.237193 l -0.493572,-4.417341 1.852458,3.423693 c 0.131168,-0.09912 0.257542,-0.196946 0.38819,-0.296492 l -0.373952,-3.845135 1.640397,2.872318 c 0.165571,-0.129303 0.32123,-0.263517 0.485134,-0.392654 l -0.258835,-3.197597 1.413541,2.282475 c 0.222529,-0.178701 0.43242,-0.353082 0.650067,-0.529684 l 0.118715,-1.650071 0.861203,0.846333 c 0.256808,-0.211396 0.490431,-0.401968 0.737353,-0.607413 l 0.268138,-0.956852 0.6245,0.230838 c 0.419143,-0.353004 0.738299,-0.650879 1.115466,-0.973627 l 0.489853,-0.423914 c 1.90486,-1.640501 3.205712,-2.807892 3.205712,-2.807892 0,0 -1.747855,0.0051 -4.261078,0.06384 l -0.647666,0.01358 c -0.496233,0.01316 -0.92781,0.01874 -1.475473,0.03757 l -0.31381,0.576993 -0.840206,-0.530581 c -0.320953,0.01295 -0.622068,0.02805 -0.954345,0.04321 l -0.07215,1.2053 -1.193806,-1.145277 c -0.279893,0.01476 -0.552542,0.02596 -0.837468,0.04242 l 0.480193,2.641429 -1.950531,-2.546969 c -0.208197,0.01397 -0.413675,0.01865 -0.623219,0.03362 l 0.707048,3.231285 -2.298983,-3.104765 c -0.163682,0.01369 -0.323038,0.02571 -0.486823,0.04004 l 0.919106,3.78266 -2.593612,-3.609664 c -0.129438,0.01328 -0.260395,0.01829 -0.38946,0.03204 l 1.116371,4.295568 -2.844278,-4.087315 c -0.106572,0.01349 -0.215257,0.02146 -0.321258,0.03528 l 1.298842,4.770011 -3.046052,-4.524892 c -0.09419,0.01468 -0.18881,0.03465 -0.282234,0.04967 l 1.461584,5.193159 -3.198721,-4.878318 c -0.08948,0.01751 -0.179247,0.0261 -0.26765,0.04405 l 1.599669,5.552189 -3.27805,-5.171634 c -0.09831,0.02514 -0.190731,0.05516 -0.286953,0.08092 l 1.698305,5.808654 -3.376051,-5.295857 c -0.07694,0.0282 -0.158695,0.06104 -0.233336,0.08974 z"
         id="path8747"
         inkscape:connector-curvature="0"
         sodipodi:nodetypes="cccccccccccccccccccccccccccccccccccccccccccccccccccccccccccccccccccccccccccccccccccccc" />
    </g>
    <g
       id="g8757"
       transform="matrix(-1,0,0,0.94450491,127.80774,4.0037698)">
      <path
         sodipodi:nodetypes="cccccccccccccccccccccccccccccccccccccccccccccccccccccccccccccccccccccccccccccccccccccc"
         inkscape:connector-curvature="0"
         id="path8759"
         d="m 74.252685,36.422297 2.230436,11.566852 -4.786375,-9.958791 -0.0253,0.0068 c -0.128668,0.138004 -0.22938,0.269144 -0.349219,0.419406 l 1.918141,10.401498 -3.804389,-6.800649 c -0.126019,0.368656 -0.219691,0.740746 -0.32473,1.11882 l 0.886368,6.550722 -1.896804,-3.836215 C 67.442268,49.393404 68,52 68,52 c 0,0 0.611813,1.753504 2.924714,4.42968 l -0.05821,-3.459974 2.480591,6.014939 c 0.28603,0.28186 0.573303,0.561801 0.872756,0.825109 l -0.110596,-7.708941 3.532766,9.941708 c 0.177498,0.07248 0.358843,0.124231 0.53747,0.18182 l -0.827484,-10.99242 3.851811,11.132405 c 0.129661,-0.03474 0.273187,-0.0704 0.405343,-0.108611 l -1.014403,-11.892687 3.790716,10.9044 c 0.155417,-0.0624 0.310211,-0.114055 0.467771,-0.179639 l -1.015736,-11.593653 3.654952,10.397719 c 0.136815,-0.06629 0.265663,-0.148716 0.403526,-0.216734 l -0.815728,-11.049878 3.464883,9.688368 c 0.14048,-0.07622 0.28771,-0.145979 0.428859,-0.223522 l -0.650991,-10.333738 3.240872,8.852346 c 0.156,-0.09158 0.30956,-0.195018 0.465951,-0.287768 l -0.464072,-9.433471 2.989708,7.914989 c 0.186755,-0.116268 0.36694,-0.248203 0.55371,-0.365589 l -0.300667,-8.418292 2.718175,6.901629 c 0.23375,-0.152422 0.45923,-0.303633 0.692143,-0.456987 l -0.16756,-7.313535 2.42628,5.812266 c 0.29555,-0.200249 0.57494,-0.412261 0.86765,-0.612627 l -0.0512,-6.068532 2.11402,4.646904 c 0.39781,-0.278378 0.77375,-0.551867 1.16306,-0.827546 l 0.40011,-3.066875 1.35374,1.809498 c 0.45973,-0.330945 0.87775,-0.628753 1.32004,-0.951067 l 0.56897,-1.727323 1.02791,0.593464 c 0.75131,-0.555127 1.3269,-1.032415 2.00356,-1.541509 l 0.87942,-0.670084 c 3.41875,-2.590841 5.75916,-4.448523 5.75916,-4.448523 0,0 -2.9557,-0.438593 -7.21184,-0.972951 l -1.09664,-0.140604 c -0.84056,-0.102555 -1.57089,-0.202772 -2.4991,-0.307872 l -0.60026,1.002578 -1.3564,-1.21142 c -0.54419,-0.05798 -1.05511,-0.106888 -1.61872,-0.16363 l -0.26762,2.243942 -1.87994,-2.455937 c -0.475,-0.04409 -0.93731,-0.09297 -1.42102,-0.135144 l 0.49266,5.081348 -2.989943,-5.281097 c -0.35368,-0.02716 -0.70164,-0.07108 -1.05772,-0.09672 l 0.8049,6.246713 -3.511648,-6.417489 c -0.278388,-0.01636 -0.549261,-0.03456 -0.827902,-0.04969 l 1.096803,7.336075 -3.948761,-7.440787 c -0.220441,-0.0083 -0.442453,-0.03244 -0.662322,-0.03976 l 1.368332,8.349435 -4.314838,-8.40166 c -0.181809,-0.0021 -0.36652,-0.01493 -0.547409,-0.01624 l 1.619495,9.286792 -4.603093,-9.274774 c -0.161005,0.0034 -0.323398,0.01662 -0.483164,0.02085 l 1.843534,10.122796 -4.818497,-9.977336 c -0.15341,0.01 -0.306201,0.0031 -0.457831,0.01407 l 2.033577,10.832162 -4.917171,-10.548262 c -0.169244,0.02198 -0.329127,0.05465 -0.494921,0.07831 l 2.169342,11.338846 -5.067843,-10.80657 c -0.133503,0.03318 -0.275682,0.07387 -0.405344,0.108611 z"
         style="fill:#b5b5b5;fill-opacity:1;stroke:#616161;stroke-width:1.67857146;stroke-linecap:butt;stroke-linejoin:miter;stroke-miterlimit:4;stroke-opacity:1;stroke-dasharray:none" />
      <path
         style="fill:#b5b5b5;fill-opacity:1;stroke:#616161;stroke-width:1.31650817;stroke-linecap:butt;stroke-linejoin:miter;stroke-miterlimit:4;stroke-opacity:1;stroke-dasharray:none"
         d="m 72.752838,14.396744 1.511983,8.398894 -3.713459,-7.140847 -0.0215,0.0058 c -0.112623,0.105111 -0.201506,0.204303 -0.307088,0.318106 l 1.285957,7.555473 -2.986766,-4.859431 c -0.11767,0.273905 -0.20823,0.549305 -0.308543,0.829443 l 0.539217,4.768481 -1.475097,-2.749046 C 66.612906,24.109043 67,26 67,26 c 0,0 0.459511,1.264616 2.321334,3.151155 l 0.06016,-2.531558 1.897613,4.325892 c 0.231794,0.197355 0.464696,0.393267 0.708372,0.576614 l 0.150108,-5.640999 2.65912,7.167882 c 0.147074,0.04747 0.298039,0.07964 0.446532,0.116175 l -0.349561,-8.02255 2.890031,8.029648 c 0.110202,-0.02953 0.232111,-0.06012 0.34451,-0.09231 l -0.478448,-8.675829 2.845812,7.864629 c 0.132748,-0.05059 0.26463,-0.0933 0.399284,-0.146287 l -0.489004,-8.456834 2.747554,7.49792 c 0.117218,-0.05285 0.228239,-0.117268 0.346391,-0.171424 l -0.337854,-8.06499 2.609991,6.984528 c 0.120614,-0.06024 0.246705,-0.115963 0.367924,-0.177193 l -0.221823,-7.54583 2.447863,6.379459 c 0.134158,-0.07197 0.266637,-0.152559 0.401162,-0.225402 l -0.09293,-6.89255 2.266084,5.701049 c 0.160817,-0.09102 0.3166,-0.193309 0.477464,-0.28515 l 0.01254,-6.154391 2.069565,4.967632 c 0.201498,-0.118976 0.396001,-0.236806 0.59683,-0.356439 l 0.0897,-5.349686 1.858309,4.179208 c 0.255015,-0.155946 0.4968,-0.319995 0.749432,-0.475935 l 0.148353,-4.441766 1.632308,3.335779 c 0.343531,-0.216376 0.668498,-0.428484 1.004791,-0.642617 l 0.433423,-2.258187 1.08206,1.282212 c 0.39728,-0.256821 0.75842,-0.48806 1.14076,-0.73801 l 0.53326,-1.282693 0.84625,0.402107 c 0.6497,-0.430161 1.1491,-0.797787 1.73456,-1.191892 l 0.76114,-0.518373 c 2.95851,-2.004857 4.9865,-3.438877 4.9865,-3.438877 0,0 -2.4733,-0.227905 -6.03787,-0.484904 l -0.91836,-0.06836 c -0.70407,-0.04857 -1.31546,-0.09892 -2.0932,-0.146594 l -0.53673,0.753024 -1.10316,-0.844215 c -0.4561,-0.02529 -0.884473,-0.04498 -1.356944,-0.06875 l -0.295986,1.651457 -1.504447,-1.738936 c -0.398305,-0.0173 -0.785789,-0.03851 -1.191483,-0.05413 l 0.25427,3.705024 -2.349361,-3.772506 c -0.296756,-0.0087 -0.588172,-0.02991 -0.886995,-0.03745 l 0.480261,4.548454 -2.752522,-4.588115 c -0.23374,-0.0032 -0.461099,-0.008 -0.695089,-0.01027 l 0.69152,5.336877 -3.08806,-5.323586 c -0.185234,8.93e-4 -0.371288,-0.0098 -0.556071,-0.0082 l 0.888038,6.070295 -3.365792,-6.01559 c -0.152922,0.0042 -0.307945,6.34e-4 -0.460117,0.0054 l 1.069817,6.748706 -3.58081,-6.645791 c -0.135591,0.0076 -0.272654,0.02237 -0.407228,0.03051 l 1.231946,7.353776 -3.739905,-7.153413 c -0.129406,0.01216 -0.257754,0.01191 -0.385695,0.02474 l 1.369507,7.867163 -3.804926,-7.568332 c -0.143109,0.02143 -0.278675,0.05039 -0.418933,0.07295 l 1.467769,8.233874 -3.923566,-7.752711 c -0.113383,0.02852 -0.234309,0.06278 -0.34451,0.09231 z"
         id="path8761"
         inkscape:connector-curvature="0"
         sodipodi:nodetypes="cccccccccccccccccccccccccccccccccccccccccccccccccccccccccccccccccccccccccccccccccccccc" />
      <path
         sodipodi:nodetypes="cccccccccccccccccccccccccccccccccccccccccccccccccccccccccccccccccccccccccccccccccccccc"
         inkscape:connector-curvature="0"
         id="path8763"
         d="m 70.542871,-3.5397381 1.268583,6.9422536 -3.027772,-5.9182153 -0.01722,0.00461 c -0.08973,0.086023 -0.160442,0.1673176 -0.244463,0.260561 l 1.081632,6.2446246 -2.429502,-4.03041133 c -0.09268,0.2253131 -0.163591,0.4520363 -0.242298,0.6826071 L 67.395798,4.5856868 66.193647,2.3070276 C 65.676911,4.4366923 66,6 66,6 c 0,0 0.377143,1.0468025 1.884146,2.6160739 l 0.0318,-2.0891418 1.551632,3.5829329 c 0.187375,0.164408 0.375629,0.327629 0.572452,0.48055 l 0.08375,-4.6550695 2.181504,5.9336585 c 0.118383,0.04014 0.23979,0.06768 0.359241,0.0988 l -0.332917,-6.6240442 2.372501,6.6464582 c 0.08828,-0.02365 0.18595,-0.04812 0.275977,-0.07395 l -0.440647,-7.164097 2.335926,6.509965 c 0.106241,-0.04089 0.211841,-0.07529 0.319599,-0.118141 L 76.74727,4.1605881 79.001921,10.367235 c 0.09376,-0.04286 0.182471,-0.0953 0.276972,-0.139235 l -0.323795,-6.6589998 2.140869,5.7819992 c 0.09644,-0.048935 0.197303,-0.094108 0.294222,-0.1438569 l -0.22726,-6.2297306 2.006764,5.2815221 c 0.107236,-0.058533 0.213068,-0.1241835 0.320593,-0.1834307 l -0.119529,-5.6896767 1.856409,4.720381 c 0.128514,-0.074083 0.252913,-0.157493 0.38146,-0.2322497 l -0.03004,-5.0797178 1.693861,4.1137421 c 0.16099,-0.096889 0.316373,-0.1928769 0.476822,-0.2903121 l 0.03715,-4.4150163 1.51912,3.4616055 C 89.509255,4.5372034 89.702295,4.4033746 89.904095,4.276309 l 0.09015,-3.66524183 1.332186,2.76397103 c 0.274384,-0.1763569 0.533891,-0.3493117 0.802477,-0.5238645 l 0.333243,-1.8610698 0.877055,1.0653817 c 0.317275,-0.2093888 0.605695,-0.397899 0.911021,-0.6017147 l 0.41975,-1.05525233 0.682012,0.33741 c 0.518791,-0.3508186 0.917322,-0.6510008 1.384769,-0.9724768 l 0.60768,-0.42290247 c 2.362084,-1.6355161 3.980842,-2.8059319 3.980842,-2.8059319 0,0 -1.987093,-0.2042295 -4.850476,-0.4395864 l -0.737718,-0.062407 c -0.565559,-0.044682 -1.056725,-0.090218 -1.68142,-0.134639 l -0.425998,0.6180461 -0.891141,-0.7040002 c -0.366327,-0.023845 -0.710362,-0.042891 -1.089824,-0.065589 l -0.226862,1.3611743 -1.219131,-1.4451124 c -0.319879,-0.016873 -0.631096,-0.036906 -0.956898,-0.052442 l 0.228279,3.0597625 -1.910698,-3.1291152 c -0.238296,-0.00914 -0.472389,-0.028523 -0.71234,-0.036696 l 0.415206,3.7573977 -2.239678,-3.8049418 c -0.187671,-0.00416 -0.37023,-0.00959 -0.558096,-0.013007 l 0.589944,4.40953487 -2.513846,-4.41418257 c -0.148703,-4.707e-4 -0.29814,-0.010505 -0.446478,-0.010405 l 0.752493,5.01617447 -2.741324,-4.98716887 c -0.122742,0.00245 -0.247221,-0.00148 -0.369357,0.00144 L 80.64277,1.03617 77.724717,-4.472564 c -0.108806,0.00538 -0.218746,0.016687 -0.326731,0.022527 l 1.036953,6.0777944 -3.049085,-5.9287591 c -0.103809,0.00919 -0.206852,0.00815 -0.309482,0.017905 l 1.150737,6.5024371 -3.103989,-6.271655 c -0.114751,0.016756 -0.223397,0.039779 -0.335851,0.057486 l 1.232011,6.8057582 -3.200437,-6.4246138 c -0.09084,0.022787 -0.187697,0.050293 -0.275977,0.073948 z"
         style="fill:#b5b5b5;fill-opacity:1;stroke:#616161;stroke-width:1.07164061;stroke-linecap:butt;stroke-linejoin:miter;stroke-miterlimit:4;stroke-opacity:1;stroke-dasharray:none" />
      <path
         style="fill:#b5b5b5;fill-opacity:1;stroke:#616161;stroke-width:0.93768555;stroke-linecap:butt;stroke-linejoin:miter;stroke-miterlimit:4;stroke-opacity:1;stroke-dasharray:none"
         d="m 66.713698,-29.217747 3.216561,5.271154 -4.331612,-3.882287 -0.01263,0.0091 c -0.04626,0.09844 -0.07848,0.187039 -0.117808,0.28958 l 2.844759,4.760134 -3.250065,-2.528467 c -0.0049,0.213122 0.0084,0.420554 0.01653,0.633579 l 1.616261,3.071496 -1.697493,-1.483348 C 65.245111,-21.175243 66,-20 66,-20 c 0,0 0.636802,0.736446 2.360446,1.544698 l -0.630216,-1.716154 2.392573,2.438754 c 0.204665,0.07541 0.409675,0.149585 0.61845,0.212654 l -1.393742,-3.828016 3.645331,4.160708 c 0.109283,-0.0044 0.217091,-0.02004 0.324419,-0.03215 l -2.352472,-5.305168 4.025203,4.682849 c 0.06467,-0.04705 0.136724,-0.09773 0.20216,-0.147071 l -2.61008,-5.712382 3.952459,4.582865 c 0.07392,-0.06676 0.149364,-0.128019 0.223905,-0.196866 l -2.559084,-5.562603 3.790814,4.360678 c 0.06311,-0.06445 0.119082,-0.135155 0.182468,-0.200703 l -2.356002,-5.33658 3.564511,4.049614 c 0.06338,-0.07026 0.131577,-0.138825 0.195102,-0.209895 l -2.142331,-5.016326 3.297792,3.683007 c 0.06919,-0.08148 0.135,-0.168346 0.204213,-0.250494 l -1.884721,-4.60911 2.998747,3.271957 c 0.08169,-0.100865 0.157078,-0.208065 0.238582,-0.309488 l -1.620046,-4.139078 2.675454,2.827582 c 0.101044,-0.129695 0.197793,-0.256892 0.298225,-0.38686 l -1.356404,-3.617329 2.327913,2.34988 c 0.126463,-0.16775 0.242081,-0.337679 0.366977,-0.504837 l -1.077615,-3.02165 1.956124,1.83885 c 0.168695,-0.230206 0.326301,-0.452969 0.490824,-0.679885 l -0.3124,-1.624572 1.050905,0.594599 c 0.193345,-0.270659 0.369683,-0.515204 0.555019,-0.777557 l 0.01135,-0.993647 0.662966,0.06134 c 0.313496,-0.449458 0.544682,-0.819787 0.825464,-1.229155 l 0.363444,-0.536253 c 1.415361,-2.077616 2.369744,-3.541915 2.369744,-3.541915 0,0 -1.686967,0.457343 -4.099363,1.164508 l -0.622083,0.180744 c -0.475918,0.141146 -0.891346,0.258234 -1.415474,0.418169 l -0.15378,0.638553 -0.948902,-0.295041 c -0.306664,0.09558 -0.593612,0.188093 -0.910641,0.288744 l 0.242267,1.182903 -1.449547,-0.797273 c -0.266536,0.0867 -0.526995,0.168087 -0.797953,0.257726 l 1.147483,2.427141 -2.543273,-1.955348 c -0.197487,0.06738 -0.394753,0.12508 -0.593282,0.193773 l 1.519274,2.938184 -3.02422,-2.403952 c -0.15456,0.05559 -0.305375,0.108447 -0.459872,0.164674 l 1.866813,3.415887 -3.439487,-2.815392 c -0.12159,0.04633 -0.246789,0.08506 -0.367898,0.131743 l 2.190107,3.860262 -3.805237,-3.21189 c -0.09945,0.04061 -0.202368,0.07644 -0.30118,0.117226 l 2.489155,4.271312 -4.113389,-3.582334 c -0.08718,0.03856 -0.173407,0.08234 -0.259762,0.121022 l 2.75587,4.637921 -4.352329,-3.884204 c -0.0819,0.04007 -0.166385,0.0716 -0.247129,0.111824 l 2.982174,4.948978 -4.50487,-4.146993 c -0.08845,0.04973 -0.169955,0.102649 -0.256233,0.152428 l 3.143827,5.171175 -4.631683,-4.241619 c -0.06702,0.04715 -0.13749,0.100032 -0.20216,0.147071 z"
         id="path8765"
         inkscape:connector-curvature="0"
         sodipodi:nodetypes="cccccccccccccccccccccccccccccccccccccccccccccccccccccccccccccccccccccccccccccccccccccc" />
      <path
         sodipodi:nodetypes="cccccccccccccccccccccccccccccccccccccccccccccccccccccccccccccccccccccccccccccccccccccc"
         inkscape:connector-curvature="0"
         id="path8767"
         d="m 63.532747,-39.362928 4.19453,2.916584 -4.596538,-1.447564 -0.0067,0.0116 c -0.0033,0.09242 9.12e-4,0.172242 0.0043,0.265357 l 3.741831,2.655239 -3.323078,-0.789656 c 0.06593,0.166103 0.144007,0.321311 0.219945,0.482675 l 2.24599,1.791595 -1.788863,-0.537928 C 65.035819,-32.636805 66,-32 66,-32 c 0,0 0.729952,0.340587 2.318063,0.348592 l -1.045375,-1.098421 2.6352,1.026558 c 0.181846,-0.0149 0.363552,-0.03089 0.544516,-0.05677 l -2.32257,-2.454403 4.160569,1.907234 c 0.08248,-0.0424 0.160165,-0.09295 0.238628,-0.140594 l -3.542056,-3.251255 4.623102,2.174277 c 0.03427,-0.05936 0.07307,-0.124149 0.107143,-0.185575 l -3.873101,-3.473317 4.53453,2.123142 c 0.03492,-0.07788 0.07283,-0.152037 0.107561,-0.231728 l -3.784941,-3.376022 4.33771,2.009507 c 0.02738,-0.07222 0.04724,-0.14673 0.07448,-0.219901 l -3.555043,-3.274217 4.062159,1.850415 c 0.0257,-0.07681 0.05563,-0.154021 0.08117,-0.231499 l -3.286189,-3.103531 3.737403,1.662919 c 0.02649,-0.08754 0.04861,-0.178006 0.07489,-0.266057 l -2.955139,-2.881472 3.37328,1.452693 c 0.02974,-0.106943 0.05257,-0.216515 0.08199,-0.323822 l -2.598127,-2.613485 2.979635,1.225422 c 0.03518,-0.136079 0.06786,-0.268703 0.102483,-0.404773 l -2.224977,-2.305263 2.556468,0.981106 c 0.04225,-0.174495 0.07545,-0.346806 0.116689,-0.520288 l -1.816016,-1.945431 2.103776,0.719747 c 0.05425,-0.237737 0.102418,-0.465773 0.154538,-0.699482 l -0.771342,-1.141246 1.001574,0.08339 c 0.05995,-0.27773 0.115375,-0.529249 0.171889,-0.797715 l -0.316322,-0.770285 0.529208,-0.189349 c 0.09373,-0.458495 0.150137,-0.82659 0.231859,-1.242492 l 0.103694,-0.543257 c 0.407339,-2.107335 0.661284,-3.577173 0.661284,-3.577173 0,0 -1.145944,0.954841 -2.767281,2.361275 l -0.418622,0.361431 c -0.319324,0.278723 -0.60006,0.517301 -0.950262,0.827721 l 0.09078,0.5473 -0.825247,0.1112 c -0.204244,0.183173 -0.394354,0.356935 -0.604896,0.54772 l 0.573003,0.825695 -1.374018,-0.09738 c -0.176334,0.161994 -0.349735,0.317731 -0.528503,0.483573 l 1.675199,1.462045 -2.592801,-0.599998 c -0.129644,0.122432 -0.262241,0.237366 -0.392241,0.361199 l 2.127897,1.723414 -3.108904,-0.774254 c -0.100549,0.098 -0.199022,0.192658 -0.299321,0.29112 l 2.551065,1.967728 -3.56241,-0.943296 c -0.07822,0.07913 -0.161724,0.153663 -0.239431,0.232926 l 2.94471,2.195001 -3.972998,-1.118494 c -0.06312,0.06679 -0.130403,0.131185 -0.192953,0.197903 l 3.308834,2.405227 -4.33083,-1.294155 c -0.05434,0.06085 -0.106239,0.125387 -0.159907,0.186041 l 3.633587,2.592726 -4.613075,-1.441648 c -0.04981,0.06013 -0.104319,0.114642 -0.153207,0.174448 l 3.909138,2.751813 -4.81619,-1.589843 c -0.05168,0.0699 -0.09694,0.13982 -0.14692,0.209004 l 4.105968,2.865451 -4.944531,-1.617544 c -0.03607,0.06027 -0.07287,0.126213 -0.107142,0.185575 z"
         style="fill:#b5b5b5;fill-opacity:1;stroke:#616161;stroke-width:0.78953832;stroke-linecap:butt;stroke-linejoin:miter;stroke-miterlimit:4;stroke-opacity:1;stroke-dasharray:none"
         inkscape:transform-center-x="-2.9904283" />
      <path
         sodipodi:nodetypes="cccccccccccccccccccccccccccccccccccccccccccccccccccccccccccccccccccccccccccccccccccccc"
         inkscape:connector-curvature="0"
         id="path8769"
         d="m 69.075113,-17.718921 1.742684,5.924051 -3.179206,-4.871105 -0.01456,0.0055 c -0.07016,0.08311 -0.124215,0.160354 -0.188743,0.249222 l 1.515813,5.334214 -2.484906,-3.28349 c -0.05989,0.204592 -0.100734,0.408398 -0.148016,0.616269 l 0.766227,3.385156 -1.255734,-1.872147 C 65.575008,-10.330578 66,-9 66,-9 c 0,0 0.424497,0.876168 1.880218,2.102992 l -0.164568,-1.82079 1.679852,2.9748992 c 0.178174,0.1258117 0.357,0.2505197 0.542338,0.3654747 l -0.355488,-4.0583069 2.444249,4.9624168 c 0.106698,0.024034 0.21488,0.03683 0.321685,0.052911 l -0.899235,-5.7332628 2.676038,5.5650834 c 0.07464,-0.028709 0.157359,-0.059013 0.233336,-0.089737 l -1.042671,-6.1932764 2.63165,5.44968 c 0.08868,-0.045353 0.177408,-0.084999 0.267228,-0.1322071 l -1.032178,-6.0354019 2.533019,5.1932265 c 0.07764,-0.04592 0.150005,-0.09973 0.228196,-0.146638 l -0.894514,-5.7645185 2.394936,4.8341905 c 0.07941,-0.05146 0.163024,-0.10004 0.242779,-0.152247 l -0.771012,-5.3998755 2.23219,4.4110435 c 0.08792,-0.0608 0.173971,-0.127669 0.262087,-0.189105 l -0.627575,-4.9398605 2.049722,3.936601 c 0.105012,-0.07629 0.205577,-0.160321 0.310554,-0.237193 l -0.493572,-4.417341 1.852458,3.423693 c 0.131168,-0.09912 0.257542,-0.196946 0.38819,-0.296492 l -0.373952,-3.845135 1.640397,2.872318 c 0.165571,-0.129303 0.32123,-0.263517 0.485134,-0.392654 l -0.258835,-3.197597 1.413541,2.282475 c 0.222529,-0.178701 0.43242,-0.353082 0.650067,-0.529684 l 0.118715,-1.650071 0.861203,0.846333 c 0.256808,-0.211396 0.490431,-0.401968 0.737353,-0.607413 l 0.268138,-0.956852 0.6245,0.230838 c 0.419143,-0.353004 0.738299,-0.650879 1.115466,-0.973627 l 0.489853,-0.423914 c 1.90486,-1.640501 3.205712,-2.807892 3.205712,-2.807892 0,0 -1.747855,0.0051 -4.261078,0.06384 l -0.647666,0.01358 c -0.496233,0.01316 -0.92781,0.01874 -1.475473,0.03757 l -0.31381,0.576993 -0.840206,-0.530581 c -0.320953,0.01295 -0.622068,0.02805 -0.954345,0.04321 l -0.07215,1.2053 -1.193806,-1.145277 c -0.279893,0.01476 -0.552542,0.02596 -0.837468,0.04242 l 0.480193,2.641429 -1.950531,-2.546969 c -0.208197,0.01397 -0.413675,0.01865 -0.623219,0.03362 l 0.707048,3.231285 -2.298983,-3.104765 c -0.163682,0.01369 -0.323038,0.02571 -0.486823,0.04004 l 0.919106,3.78266 -2.593612,-3.609664 c -0.129438,0.01328 -0.260395,0.01829 -0.38946,0.03204 l 1.116371,4.295568 -2.844278,-4.087315 c -0.106572,0.01349 -0.215257,0.02146 -0.321258,0.03528 l 1.298842,4.770011 -3.046052,-4.524892 c -0.09419,0.01468 -0.18881,0.03465 -0.282234,0.04967 l 1.461584,5.193159 -3.198721,-4.878318 c -0.08948,0.01751 -0.179247,0.0261 -0.26765,0.04405 l 1.599669,5.552189 -3.27805,-5.171634 c -0.09831,0.02514 -0.190731,0.05516 -0.286953,0.08092 l 1.698305,5.808654 -3.376051,-5.295857 c -0.07694,0.0282 -0.158695,0.06104 -0.233336,0.08974 z"
         style="fill:#b5b5b5;fill-opacity:1;stroke:#616161;stroke-width:0.93768555;stroke-linecap:butt;stroke-linejoin:miter;stroke-miterlimit:4;stroke-opacity:1;stroke-dasharray:none" />
    </g>
  </g>
</svg>
