<?xml version="1.0" encoding="UTF-8" standalone="no"?>
<!-- Created with Inkscape (http://www.inkscape.org/) -->

<svg
   xmlns:dc="http://purl.org/dc/elements/1.1/"
   xmlns:cc="http://creativecommons.org/ns#"
   xmlns:rdf="http://www.w3.org/1999/02/22-rdf-syntax-ns#"
   xmlns:svg="http://www.w3.org/2000/svg"
   xmlns="http://www.w3.org/2000/svg"
   xmlns:sodipodi="http://sodipodi.sourceforge.net/DTD/sodipodi-0.dtd"
   xmlns:inkscape="http://www.inkscape.org/namespaces/inkscape"
   width="128"
   height="128"
   id="svg2985"
   version="1.1"
   inkscape:version="0.48.2 r9819"
   sodipodi:docname="flower_tulip_red.svg"
   inkscape:export-filename="/Users/ianw/drawing.png"
   inkscape:export-xdpi="180"
   inkscape:export-ydpi="180">
  <title
     id="title3119">Template</title>
  <defs
     id="defs2987" />
  <sodipodi:namedview
     id="base"
     pagecolor="#ffffff"
     bordercolor="#000000"
     borderopacity="1"
     inkscape:pageopacity="0.0"
     inkscape:pageshadow="2"
     inkscape:zoom="5.656854"
     inkscape:cx="51.677494"
     inkscape:cy="110.16716"
     inkscape:current-layer="layer1"
     showgrid="true"
     inkscape:document-units="px"
     inkscape:grid-bbox="true"
     inkscape:snap-bbox="false"
     inkscape:snap-nodes="true"
     inkscape:snap-grids="true"
     inkscape:window-width="1388"
     inkscape:window-height="1289"
     inkscape:window-x="1073"
     inkscape:window-y="0"
     inkscape:window-maximized="0"
     inkscape:showpageshadow="false"
     borderlayer="true">
    <inkscape:grid
       type="xygrid"
       id="grid2993"
       empspacing="4"
       visible="true"
       enabled="true"
       snapvisiblegridlinesonly="true"
       spacingx="16px"
       spacingy="16px"
       empcolor="#d60053"
       empopacity="0.29803922" />
    <inkscape:grid
       type="xygrid"
       id="grid3043"
       empspacing="4"
       visible="true"
       enabled="true"
       snapvisiblegridlinesonly="true"
       color="#ff00f8"
       opacity="0.1254902"
       dotted="true" />
  </sodipodi:namedview>
  <metadata
     id="metadata2990">
    <rdf:RDF>
      <cc:Work
         rdf:about="">
        <dc:format>image/svg+xml</dc:format>
        <dc:type
           rdf:resource="http://purl.org/dc/dcmitype/StillImage" />
        <dc:title>Template</dc:title>
        <cc:license
           rdf:resource="https://www.gnu.org/copyleft/gpl.html" />
        <dc:creator>
          <cc:Agent>
            <dc:title>Ian Walters</dc:title>
          </cc:Agent>
        </dc:creator>
        <dc:source>SimpleRP</dc:source>
      </cc:Work>
    </rdf:RDF>
  </metadata>
  <g
     id="layer1"
     inkscape:label="Layer 1"
     inkscape:groupmode="layer"
     transform="translate(0,64)">
    <path
       style="fill:#8ac862;fill-opacity:1;stroke:#558b3a;stroke-width:2;stroke-linecap:butt;stroke-linejoin:miter;stroke-miterlimit:4;stroke-opacity:1;stroke-dasharray:none"
       d="M 68,59 C 68,59 72.163313,43.464009 78.3125,37.6875 84.461687,31.910991 101,28 101,28 101,28 96.836687,43.535991 90.6875,49.3125 84.538313,55.089009 68,59 68,59 z"
       id="path3917"
       inkscape:connector-curvature="0"
       sodipodi:nodetypes="cscsc" />
    <path
       sodipodi:nodetypes="cscsc"
       inkscape:connector-curvature="0"
       id="path3919"
       d="M 60,58 C 60,58 56.089009,41.461687 50.3125,35.3125 44.535991,29.163313 29,25 29,25 29,25 32.910991,41.538313 38.6875,47.6875 44.464009,53.836687 60,58 60,58 z"
       style="fill:#8ac862;fill-opacity:1;stroke:#558b3a;stroke-width:2;stroke-linecap:butt;stroke-linejoin:miter;stroke-miterlimit:4;stroke-opacity:1;stroke-dasharray:none" />
    <g
       id="g5951"
       transform="translate(0,20)"
       style="fill:#ff1137;fill-opacity:1;stroke:#930e2a;stroke-opacity:1">
      <path
         sodipodi:nodetypes="ccccc"
         transform="translate(0,-64)"
         inkscape:connector-curvature="0"
         id="path5949"
         d="m 56,44 8,4 8,-4 c 0,-8 0,-20 -8,-24 -8,4 -8,16 -8,24 z"
         style="fill:#ff1137;stroke:#930e2a;stroke-width:1px;stroke-linecap:butt;stroke-linejoin:miter;stroke-opacity:1;fill-opacity:1" />
      <g
         id="g5942"
         style="fill:#ff1137;fill-opacity:1;stroke:#930e2a;stroke-opacity:1">
        <path
           style="fill:#ff1137;stroke:#930e2a;stroke-width:1px;stroke-linecap:butt;stroke-linejoin:miter;stroke-opacity:1;fill-opacity:1"
           d="m 64,56 c 8,-4 13,-8 16,-12 3.147705,-4.196939 4,-13.966123 4,-20 0,0 -13,2 -16,8 -4,8 -5,16 -4,24 z"
           id="path5940"
           inkscape:connector-curvature="0"
           transform="translate(0,-64)"
           sodipodi:nodetypes="cscsc" />
      </g>
      <g
         transform="matrix(-1,0,0,1,128,0)"
         id="g5945"
         style="fill:#ff1137;fill-opacity:1;stroke:#930e2a;stroke-opacity:1">
        <path
           sodipodi:nodetypes="cscsc"
           transform="translate(0,-64)"
           inkscape:connector-curvature="0"
           id="path5947"
           d="m 64,56 c 8,-4 13,-8 16,-12 3.147705,-4.196939 4,-13.966123 4,-20 0,0 -13,2 -16,8 -4,8 -5,16 -4,24 z"
           style="fill:#ff1137;stroke:#930e2a;stroke-width:1px;stroke-linecap:butt;stroke-linejoin:miter;stroke-opacity:1;fill-opacity:1" />
      </g>
    </g>
    <path
       transform="translate(0,-64)"
       style="fill:#8ac862;fill-opacity:1;stroke:#558b3a;stroke-width:2;stroke-linecap:round;stroke-miterlimit:4;stroke-opacity:1"
       d="m 56,72 c 4,0 8,0 8,0 0,0 4,0 8,0 1.885618,0 4,4 4,4 0,4 -8,4 -8,8 l 0,44 -8,0 0,-44 c 0,-4 -8,-4 -8,-8 0,0 2.114382,-4 4,-4 z"
       id="rect3915"
       inkscape:connector-curvature="0"
       sodipodi:nodetypes="scssccccss" />
  </g>
</svg>
