<?xml version="1.0" encoding="UTF-8" standalone="no"?>
<!-- Created with Inkscape (http://www.inkscape.org/) -->

<svg
   xmlns:dc="http://purl.org/dc/elements/1.1/"
   xmlns:cc="http://creativecommons.org/ns#"
   xmlns:rdf="http://www.w3.org/1999/02/22-rdf-syntax-ns#"
   xmlns:svg="http://www.w3.org/2000/svg"
   xmlns="http://www.w3.org/2000/svg"
   xmlns:xlink="http://www.w3.org/1999/xlink"
   xmlns:sodipodi="http://sodipodi.sourceforge.net/DTD/sodipodi-0.dtd"
   xmlns:inkscape="http://www.inkscape.org/namespaces/inkscape"
   width="128"
   height="128"
   id="svg2985"
   version="1.1"
   inkscape:version="0.48.2 r9819"
   sodipodi:docname="flower_blue_orchid.svg"
   inkscape:export-filename="/Users/ianw/drawing.png"
   inkscape:export-xdpi="180"
   inkscape:export-ydpi="180">
  <title
     id="title3119">Template</title>
  <defs
     id="defs2987">
    <linearGradient
       id="linearGradient4149">
      <stop
         style="stop-color:#9485f7;stop-opacity:1;"
         offset="0"
         id="stop4151" />
      <stop
         id="stop4157"
         offset="0.5"
         style="stop-color:#4f0feb;stop-opacity:1;" />
      <stop
         style="stop-color:#9788f7;stop-opacity:1;"
         offset="1"
         id="stop4153" />
    </linearGradient>
    <linearGradient
       id="linearGradient4141">
      <stop
         id="stop4143"
         offset="0"
         style="stop-color:#1539d1;stop-opacity:1;" />
      <stop
         id="stop4145"
         offset="1"
         style="stop-color:#1584d1;stop-opacity:1;" />
    </linearGradient>
    <linearGradient
       id="linearGradient4117">
      <stop
         style="stop-color:#0477c7;stop-opacity:1;"
         offset="0"
         id="stop4119" />
      <stop
         style="stop-color:#58b7fb;stop-opacity:1;"
         offset="1"
         id="stop4121" />
    </linearGradient>
    <linearGradient
       inkscape:collect="always"
       xlink:href="#linearGradient4149"
       id="linearGradient4165"
       gradientUnits="userSpaceOnUse"
       x1="88"
       y1="24"
       x2="88"
       y2="60" />
    <linearGradient
       inkscape:collect="always"
       xlink:href="#linearGradient4141"
       id="linearGradient4169"
       gradientUnits="userSpaceOnUse"
       gradientTransform="matrix(1,0,0,1.375,0,-36)"
       x1="64"
       y1="9"
       x2="64"
       y2="14" />
    <radialGradient
       inkscape:collect="always"
       xlink:href="#linearGradient4117"
       id="radialGradient4198"
       gradientUnits="userSpaceOnUse"
       gradientTransform="matrix(1.4,0,0,0.9,-26.4,-63.4)"
       cx="66"
       cy="46"
       fx="66"
       fy="46"
       r="10" />
  </defs>
  <sodipodi:namedview
     id="base"
     pagecolor="#ffffff"
     bordercolor="#000000"
     borderopacity="1"
     inkscape:pageopacity="0.0"
     inkscape:pageshadow="2"
     inkscape:zoom="2.828427"
     inkscape:cx="29.536201"
     inkscape:cy="58.27474"
     inkscape:current-layer="layer1"
     showgrid="true"
     inkscape:document-units="px"
     inkscape:grid-bbox="true"
     inkscape:snap-bbox="false"
     inkscape:snap-nodes="true"
     inkscape:snap-grids="true"
     inkscape:window-width="1248"
     inkscape:window-height="1229"
     inkscape:window-x="0"
     inkscape:window-y="0"
     inkscape:window-maximized="0"
     inkscape:showpageshadow="false"
     borderlayer="true">
    <inkscape:grid
       type="xygrid"
       id="grid2993"
       empspacing="4"
       visible="true"
       enabled="true"
       snapvisiblegridlinesonly="true"
       spacingx="16px"
       spacingy="16px"
       empcolor="#d60053"
       empopacity="0.29803922" />
    <inkscape:grid
       type="xygrid"
       id="grid3043"
       empspacing="4"
       visible="true"
       enabled="true"
       snapvisiblegridlinesonly="true"
       color="#ff00f8"
       opacity="0.1254902"
       dotted="true" />
  </sodipodi:namedview>
  <metadata
     id="metadata2990">
    <rdf:RDF>
      <cc:Work
         rdf:about="">
        <dc:format>image/svg+xml</dc:format>
        <dc:type
           rdf:resource="http://purl.org/dc/dcmitype/StillImage" />
        <dc:title>Template</dc:title>
        <cc:license
           rdf:resource="https://www.gnu.org/copyleft/gpl.html" />
        <dc:creator>
          <cc:Agent>
            <dc:title>Ian Walters</dc:title>
          </cc:Agent>
        </dc:creator>
        <dc:source>SimpleRP</dc:source>
      </cc:Work>
    </rdf:RDF>
  </metadata>
  <g
     id="layer1"
     inkscape:label="Layer 1"
     inkscape:groupmode="layer"
     transform="translate(0,64)">
    <path
       style="fill:#8ac862;fill-opacity:1;stroke:#558b3a;stroke-width:2;stroke-linecap:butt;stroke-linejoin:miter;stroke-miterlimit:4;stroke-opacity:1;stroke-dasharray:none"
       d="m 71,22 c 0,0 2.018576,-8.018576 5,-11 2.981424,-2.981424 11,-5 11,-5 0,0 -2.018576,8.018576 -5,11 -2.981424,2.981424 -11,5 -11,5 z"
       id="path3917"
       inkscape:connector-curvature="0"
       sodipodi:nodetypes="cscsc" />
    <path
       sodipodi:nodetypes="cscsc"
       inkscape:connector-curvature="0"
       id="path3919"
       d="m 64.514608,31.121457 c 0,0 -3.673176,-7.408102 -7.219062,-9.689435 -3.545884,-2.281332 -11.810154,-2.553479 -11.810154,-2.553479 0,0 3.673176,7.408102 7.219062,9.689435 3.545884,2.281332 11.810154,2.553479 11.810154,2.553479 z"
       style="fill:#8ac862;fill-opacity:1;stroke:#558b3a;stroke-width:2;stroke-linecap:butt;stroke-linejoin:miter;stroke-miterlimit:4;stroke-opacity:1;stroke-dasharray:none" />
    <rect
       style="fill:#8ac862;fill-opacity:1;stroke:#558b3a;stroke-width:2;stroke-linecap:round;stroke-miterlimit:4;stroke-opacity:1;stroke-dasharray:none"
       id="rect3915"
       width="8"
       height="72"
       x="76"
       y="-148" />
    <image
       y="-112"
       x="0"
       id="image4112"
       xlink:href="file:///Users/ianw/play/SimpleRP/src/default/assets/minecraft/textures/blocks/flower_blue_orchid.png"
       height="32"
       width="32" />
    <path
       style="font-size:medium;font-style:normal;font-variant:normal;font-weight:normal;font-stretch:normal;text-indent:0;text-align:start;text-decoration:none;line-height:normal;letter-spacing:normal;word-spacing:normal;text-transform:none;direction:ltr;block-progression:tb;writing-mode:lr-tb;text-anchor:start;baseline-shift:baseline;color:#000000;fill:#8ac862;fill-opacity:1;stroke:#558b3a;stroke-width:2;stroke-miterlimit:4;stroke-opacity:1;stroke-dasharray:none;marker:none;visibility:visible;display:inline;overflow:visible;enable-background:accumulate;font-family:Sans;-inkscape-font-specification:Sans"
       d="m 101.5625,21.90625 c -2.473311,-0.104325 -8.771401,5.053338 -17.46875,12.53125 -7.574652,6.512626 -15.814476,14.340061 -20.875,22.5 C 61.250598,54.667315 58.733846,51.810625 55.9375,48.78125 52.897049,45.487428 49.613248,42.07492 46.5,39.15625 43.386752,36.23758 40.616049,33.854899 37.78125,32.4375 34.423479,30.758615 30.940315,29.598539 27.4375,29.40625 c -1.167605,-0.0641 -2.334615,-0.04148 -3.5,0.125 -4.661541,0.665934 -9.022972,3.733444 -11.5,8.6875 -4.9540557,9.908111 -2,17.5625 0.5625,18.78125 2.5625,1.21875 5.4375,-0.21875 6,-3 0.5625,-2.78125 -2.483444,-6.126861 0.5625,-12.21875 1.522972,-3.045944 3.161541,-3.978434 5.5,-4.3125 2.338459,-0.334066 5.633278,0.332264 9.15625,2.09375 1.165201,0.582601 3.894498,2.69992 6.78125,5.40625 2.886752,2.70633 6.102951,6.043822 9.0625,9.25 C 54.660408,59.199817 58,63 59,66 c 1.096158,3.288474 0.289203,8.527876 1.21875,13.65625 0.983006,5.423312 3.31822,10.514369 3.78125,16.65625 0.92606,12.28376 -3.75,37.5625 -3.75,37.5625 L 68,136 c 0,0 5.114918,-25.52362 4,-40.3125 C 71.44254,88.293056 69.254318,82.396815 67.9375,77.5625 66.620682,72.728185 66.116191,69.324724 67.6875,65.53125 70.709688,58.235044 80.438453,48.220143 89.3125,40.5 98.355668,32.632726 104.57961,29.093395 105,27 c 0.42039,-2.093395 -0.91165,-4.126688 -3,-5 -0.13052,-0.05458 -0.27261,-0.08679 -0.4375,-0.09375 z"
       transform="translate(0,-64)"
       id="path4171"
       inkscape:connector-curvature="0"
       sodipodi:nodetypes="sscsssssszzssssssssccsssssss" />
    <g
       id="g4159"
       transform="matrix(0.48294093,-0.18875781,0.18875781,0.48294093,-12.999993,14.923706)">
      <path
         sodipodi:nodetypes="zsssssssssz"
         transform="translate(0,-64)"
         inkscape:connector-curvature="0"
         id="path4147"
         d="m 64,24 c -1,0 -5,2 -5,6 0,4 -3,18 -7,22 -2,2 -6,4 -4,6 2,2 12,-2 14,-4 2,-2 1,-8 2,-8 1,0 0,6 2,8 2,2 12,6 14,4 2,-2 -2,-4 -4,-6 -4,-4 -7.063981,-18.804407 -7,-22 0.08007,-3.999199 -4,-6 -5,-6 z"
         style="fill:url(#linearGradient4165);fill-opacity:1;stroke:#116cc8;stroke-width:1px;stroke-linecap:butt;stroke-linejoin:miter;stroke-opacity:1" />
      <path
         sodipodi:nodetypes="ccsssc"
         inkscape:connector-curvature="0"
         id="path4115"
         d="m 64,-20 0,-4 c 4,-2 4,-8 8,-8 4,0 11,4 11,10 0,9 -11,10 -15,10 -2,0 0,-8 -4,-8 z"
         style="fill:url(#radialGradient4198);fill-opacity:1;stroke:#116cc8;stroke-width:1px;stroke-linecap:butt;stroke-linejoin:miter;stroke-opacity:1" />
      <use
         transform="matrix(-1,0,0,1,128,0)"
         height="128"
         width="128"
         inkscape:transform-center-y="-18"
         inkscape:transform-center-x="10"
         id="use4129"
         xlink:href="#path4115"
         y="0"
         x="0" />
      <path
         sodipodi:nodetypes="sssss"
         inkscape:connector-curvature="0"
         id="path4131"
         d="m 64,-25 c 1.054093,0 2.568185,0.05283 3,1.375 1.039949,3.18423 -1,9.625 -3,9.625 -2,0 -4.039949,-6.44077 -3,-9.625 0.431815,-1.322179 1.945907,-1.375 3,-1.375 z"
         style="fill:url(#linearGradient4169);fill-opacity:1;stroke:#114fc8;stroke-width:1.17260396px;stroke-linecap:butt;stroke-linejoin:miter;stroke-opacity:1" />
    </g>
    <use
       x="0"
       y="0"
       xlink:href="#g4159"
       id="use4200"
       transform="matrix(0.97124932,0.2380646,-0.2380646,0.97124932,1.9974824,-31.261691)"
       width="128"
       height="128"
       inkscape:transform-center-x="-2.9129157"
       inkscape:transform-center-y="-3.0751673" />
    <use
       x="0"
       y="0"
       xlink:href="#use4200"
       inkscape:transform-center-x="-3.3594161"
       inkscape:transform-center-y="-0.21797727"
       id="use4202"
       transform="matrix(0.86630947,0.49950766,-0.49950766,0.86630947,7.7309368,-10.762645)"
       width="128"
       height="128" />
    <use
       x="0"
       y="0"
       xlink:href="#g4159"
       id="use4204"
       transform="matrix(1.2017574,0.49247694,-0.49247694,1.2017574,47.680939,-12.116172)"
       width="128"
       height="128" />
    <use
       x="0"
       y="0"
       xlink:href="#g4159"
       id="use4206"
       transform="matrix(0.98086915,0.19466821,-0.19466821,0.98086915,91.230543,-36.821438)"
       width="128"
       height="128" />
    <use
       x="0"
       y="0"
       xlink:href="#g4159"
       id="use4208"
       transform="matrix(1.1223457,0.30947255,-0.30936205,1.121945,68.454428,-26.364197)"
       width="128"
       height="128" />
  </g>
</svg>
