<?xml version="1.0" encoding="UTF-8" standalone="no"?>
<!-- Created with Inkscape (http://www.inkscape.org/) -->

<svg
   xmlns:dc="http://purl.org/dc/elements/1.1/"
   xmlns:cc="http://creativecommons.org/ns#"
   xmlns:rdf="http://www.w3.org/1999/02/22-rdf-syntax-ns#"
   xmlns:svg="http://www.w3.org/2000/svg"
   xmlns="http://www.w3.org/2000/svg"
   xmlns:sodipodi="http://sodipodi.sourceforge.net/DTD/sodipodi-0.dtd"
   xmlns:inkscape="http://www.inkscape.org/namespaces/inkscape"
   width="128"
   height="128"
   id="svg2985"
   version="1.1"
   inkscape:version="0.48.2 r9819"
   sodipodi:docname="grass_side_overlay.svg"
   inkscape:export-filename="/Users/ianw/drawing.png"
   inkscape:export-xdpi="180"
   inkscape:export-ydpi="180">
  <title
     id="title3119">Template</title>
  <defs
     id="defs2987" />
  <sodipodi:namedview
     id="base"
     pagecolor="#ffffff"
     bordercolor="#000000"
     borderopacity="1"
     inkscape:pageopacity="0.0"
     inkscape:pageshadow="2"
     inkscape:zoom="1.4142136"
     inkscape:cx="61.429084"
     inkscape:cy="106.50518"
     inkscape:current-layer="layer1"
     showgrid="true"
     inkscape:document-units="px"
     inkscape:grid-bbox="true"
     inkscape:snap-bbox="false"
     inkscape:snap-nodes="true"
     inkscape:snap-grids="true"
     inkscape:window-width="1383"
     inkscape:window-height="1311"
     inkscape:window-x="0"
     inkscape:window-y="0"
     inkscape:window-maximized="0"
     inkscape:showpageshadow="false"
     borderlayer="true">
    <inkscape:grid
       type="xygrid"
       id="grid2993"
       empspacing="4"
       visible="true"
       enabled="true"
       snapvisiblegridlinesonly="true"
       spacingx="16px"
       spacingy="16px"
       empcolor="#d60053"
       empopacity="0.29803922" />
    <inkscape:grid
       type="xygrid"
       id="grid3043"
       empspacing="4"
       visible="true"
       enabled="true"
       snapvisiblegridlinesonly="true"
       color="#ff00f8"
       opacity="0.1254902"
       dotted="true" />
  </sodipodi:namedview>
  <metadata
     id="metadata2990">
    <rdf:RDF>
      <cc:Work
         rdf:about="">
        <dc:format>image/svg+xml</dc:format>
        <dc:type
           rdf:resource="http://purl.org/dc/dcmitype/StillImage" />
        <dc:title>Template</dc:title>
        <cc:license
           rdf:resource="https://www.gnu.org/copyleft/gpl.html" />
        <dc:creator>
          <cc:Agent>
            <dc:title>Ian Walters</dc:title>
          </cc:Agent>
        </dc:creator>
        <dc:source>SimpleRP</dc:source>
      </cc:Work>
    </rdf:RDF>
  </metadata>
  <g
     id="layer1"
     inkscape:label="Layer 1"
     inkscape:groupmode="layer"
     transform="translate(0,64)">
    <path
       inkscape:connector-curvature="0"
       id="path5518"
       d="m -48.045244,-29.937147 c 0,0 7.481044,-0.532886 11.141981,-3.675942 3.660929,-3.143063 6.735005,-11.006348 6.690942,-13.384227 -0.04406,-2.377879 -11.043943,3.293006 -13.787676,6.997319 -2.74374,3.704306 -4.045247,10.06285 -4.045247,10.06285 z"
       style="fill:#339900;stroke:#015a01;stroke-width:1px;stroke-linecap:butt;stroke-linejoin:miter;stroke-opacity:1" />
    <path
       inkscape:connector-curvature="0"
       id="path5520"
       d="m -42.992026,-32.941049 10.992027,-11.058949"
       style="fill:none;stroke:#98fc66;stroke-width:1px;stroke-linecap:round;stroke-linejoin:miter;stroke-opacity:1" />
    <path
       style="fill:#4d4d4d;fill-opacity:1;stroke:#2e2e2e;stroke-width:1px;stroke-linecap:butt;stroke-linejoin:miter;stroke-opacity:1"
       d="m -8,4 c 4,1 8,1 12,8 2.8065857,4.911525 4,8 4,8 0,0 4.299401,-9.399475 8,-10 3.700599,-0.6005245 7,4 10,7 4,4 6,11 6,11 0,0 1.900333,-8.602668 4,-12 2.099667,-3.397332 8,-8 8,-8 0,0 5,2 9,7 1.766904,2.208631 4,10 7,17 2,-6 3.781108,-16.576748 8,-20 4.218892,-3.4232518 7.664941,-3.8061282 12,-4 2.997004,-0.1340316 8,4 8,4 0,0 6,-4 8,-4 2,0 5.02887,0.5721865 8,8 2,5 5,9 5,9 l 5,-12 c 0,0 3,-6 6,-9 4,1 8,1 12,8 4,7 4,-20 4,-20 L -8,-8 c 0,0 -4,11 0,12 z"
       id="path9785"
       inkscape:connector-curvature="0"
       transform="translate(0,-64)"
       sodipodi:nodetypes="zsczsczcsczsczsccczccz" />
  </g>
</svg>
