<?xml version="1.0" encoding="UTF-8" standalone="no"?>
<!-- Created with Inkscape (http://www.inkscape.org/) -->

<svg
   xmlns:dc="http://purl.org/dc/elements/1.1/"
   xmlns:cc="http://creativecommons.org/ns#"
   xmlns:rdf="http://www.w3.org/1999/02/22-rdf-syntax-ns#"
   xmlns:svg="http://www.w3.org/2000/svg"
   xmlns="http://www.w3.org/2000/svg"
   xmlns:xlink="http://www.w3.org/1999/xlink"
   xmlns:sodipodi="http://sodipodi.sourceforge.net/DTD/sodipodi-0.dtd"
   xmlns:inkscape="http://www.inkscape.org/namespaces/inkscape"
   width="128"
   height="128"
   id="svg2985"
   version="1.1"
   inkscape:version="0.48.5 r10040"
   sodipodi:docname="grass_side_snowed.svg"
   inkscape:export-filename="/Users/ianw/drawing.png"
   inkscape:export-xdpi="180"
   inkscape:export-ydpi="180">
  <title
     id="title3119">Template</title>
  <defs
     id="defs2987">
    <linearGradient
       id="linearGradientSpotGradient">
      <stop
         id="stop5071"
         offset="0"
         style="stop-color:#745623;stop-opacity:1;" />
      <stop
         style="stop-color:#745623;stop-opacity:0.78431374;"
         offset="0.75"
         id="stop5190" />
      <stop
         id="stop5073"
         offset="1"
         style="stop-color:#745623;stop-opacity:0;" />
    </linearGradient>
    <filter
       height="1.6253521"
       y="-0.31267607"
       width="1.5766234"
       x="-0.28831168"
       id="filter5024"
       inkscape:collect="always">
      <feGaussianBlur
         id="feGaussianBlur5026"
         stdDeviation="3.7080861"
         inkscape:collect="always" />
    </filter>
    <filter
       height="1.6890715"
       y="-0.34453577"
       width="1.5313199"
       x="-0.26565996"
       id="filter5020"
       inkscape:collect="always">
      <feGaussianBlur
         id="feGaussianBlur5022"
         stdDeviation="4.8809234"
         inkscape:collect="always" />
    </filter>
    <filter
       height="1.8112317"
       y="-0.40561585"
       width="1.4760454"
       x="-0.23802271"
       id="filter5012"
       inkscape:collect="always">
      <feGaussianBlur
         id="feGaussianBlur5014"
         stdDeviation="4.2704504"
         inkscape:collect="always" />
    </filter>
    <filter
       height="1.6130452"
       y="-0.30652262"
       width="1.5874984"
       x="-0.29374919"
       id="filter5008"
       inkscape:collect="always">
      <feGaussianBlur
         id="feGaussianBlur5010"
         stdDeviation="5.2143049"
         inkscape:collect="always" />
    </filter>
    <filter
       height="1.5292875"
       y="-0.26464377"
       width="1.6925202"
       x="-0.34626012"
       id="filter5004"
       inkscape:collect="always">
      <feGaussianBlur
         id="feGaussianBlur5006"
         stdDeviation="5.5064673"
         inkscape:collect="always" />
    </filter>
    <filter
       height="1.6998528"
       y="-0.34992642"
       width="1.5250828"
       x="-0.26254141"
       id="filter5000"
       inkscape:collect="always">
      <feGaussianBlur
         id="feGaussianBlur5002"
         stdDeviation="6.7584296"
         inkscape:collect="always" />
    </filter>
    <filter
       height="1.4398883"
       y="-0.21994413"
       width="1.9433706"
       x="-0.47168531"
       id="filter4984"
       inkscape:collect="always">
      <feGaussianBlur
         id="feGaussianBlur4986"
         stdDeviation="6.0725913"
         inkscape:collect="always" />
    </filter>
    <filter
       height="1.6108818"
       y="-0.3054409"
       width="1.5894991"
       x="-0.29474955"
       id="filter4976"
       inkscape:collect="always">
      <feGaussianBlur
         id="feGaussianBlur4978"
         stdDeviation="7.4010174"
         inkscape:collect="always" />
    </filter>
    <filter
       height="1.7127821"
       y="-0.35639104"
       width="1.5180327"
       x="-0.25901636"
       id="filter4972"
       inkscape:collect="always">
      <feGaussianBlur
         id="feGaussianBlur4974"
         stdDeviation="7.4248615"
         inkscape:collect="always" />
    </filter>
    <linearGradient
       id="linearGradient3970">
      <stop
         id="stop3972"
         offset="0"
         style="stop-color:#704f29;stop-opacity:1;" />
      <stop
         id="stop3974"
         offset="1"
         style="stop-color:#966534;stop-opacity:0.50196081;" />
    </linearGradient>
    <linearGradient
       inkscape:collect="always"
       xlink:href="#linearGradient3970"
       id="linearGradient5268"
       gradientUnits="userSpaceOnUse"
       gradientTransform="translate(0,24)"
       x1="-16"
       y1="-28"
       x2="24"
       y2="-28" />
    <linearGradient
       inkscape:collect="always"
       xlink:href="#linearGradient3970"
       id="linearGradient5270"
       gradientUnits="userSpaceOnUse"
       gradientTransform="matrix(0,1,-1,0,40,-64)"
       x1="0"
       y1="4"
       x2="0"
       y2="-52" />
    <linearGradient
       inkscape:collect="always"
       xlink:href="#linearGradient3970"
       id="linearGradient5272"
       gradientUnits="userSpaceOnUse"
       gradientTransform="matrix(0,1,-1,0,108,-64)"
       x1="0"
       y1="4"
       x2="0"
       y2="-44" />
    <linearGradient
       inkscape:collect="always"
       xlink:href="#linearGradient3970"
       id="linearGradient5274"
       gradientUnits="userSpaceOnUse"
       gradientTransform="translate(44,20)"
       x1="-28"
       y1="-44"
       x2="24"
       y2="-44" />
    <linearGradient
       inkscape:collect="always"
       xlink:href="#linearGradient3970"
       id="linearGradient5276"
       gradientUnits="userSpaceOnUse"
       gradientTransform="translate(105,16)"
       x1="-28"
       y1="-44"
       x2="11"
       y2="-44" />
    <linearGradient
       inkscape:collect="always"
       xlink:href="#linearGradient3970"
       id="linearGradient5278"
       gradientUnits="userSpaceOnUse"
       gradientTransform="translate(41,68)"
       x1="-34"
       y1="-44"
       x2="3"
       y2="-44" />
    <linearGradient
       inkscape:collect="always"
       xlink:href="#linearGradient3970"
       id="linearGradient5280"
       gradientUnits="userSpaceOnUse"
       gradientTransform="translate(78,68)"
       x1="-33"
       y1="-44"
       x2="9"
       y2="-44" />
    <linearGradient
       inkscape:collect="always"
       xlink:href="#linearGradient3970"
       id="linearGradient5282"
       gradientUnits="userSpaceOnUse"
       gradientTransform="translate(106,56)"
       x1="-37"
       y1="-52"
       x2="3"
       y2="-52" />
    <linearGradient
       inkscape:collect="always"
       xlink:href="#linearGradient3970"
       id="linearGradient5284"
       gradientUnits="userSpaceOnUse"
       gradientTransform="translate(115,80)"
       x1="-27"
       y1="-52"
       x2="3"
       y2="-52" />
  </defs>
  <sodipodi:namedview
     id="base"
     pagecolor="#ffffff"
     bordercolor="#000000"
     borderopacity="1"
     inkscape:pageopacity="0.0"
     inkscape:pageshadow="2"
     inkscape:zoom="1.4142136"
     inkscape:cx="113.87457"
     inkscape:cy="48.591684"
     inkscape:current-layer="layer1"
     showgrid="true"
     inkscape:document-units="px"
     inkscape:grid-bbox="true"
     inkscape:snap-bbox="false"
     inkscape:snap-nodes="true"
     inkscape:snap-grids="true"
     inkscape:window-width="1383"
     inkscape:window-height="856"
     inkscape:window-x="0"
     inkscape:window-y="0"
     inkscape:window-maximized="0"
     inkscape:showpageshadow="false"
     borderlayer="true">
    <inkscape:grid
       type="xygrid"
       id="grid2993"
       empspacing="4"
       visible="true"
       enabled="true"
       snapvisiblegridlinesonly="true"
       spacingx="16px"
       spacingy="16px"
       empcolor="#d60053"
       empopacity="0.29803922" />
    <inkscape:grid
       type="xygrid"
       id="grid3043"
       empspacing="4"
       visible="true"
       enabled="true"
       snapvisiblegridlinesonly="true"
       color="#ff00f8"
       opacity="0.1254902"
       dotted="true" />
  </sodipodi:namedview>
  <metadata
     id="metadata2990">
    <rdf:RDF>
      <cc:Work
         rdf:about="">
        <dc:format>image/svg+xml</dc:format>
        <dc:type
           rdf:resource="http://purl.org/dc/dcmitype/StillImage" />
        <dc:title>Template</dc:title>
        <cc:license
           rdf:resource="https://www.gnu.org/copyleft/gpl.html" />
        <dc:creator>
          <cc:Agent>
            <dc:title>Ian Walters</dc:title>
          </cc:Agent>
        </dc:creator>
        <dc:source>SimpleRP</dc:source>
      </cc:Work>
    </rdf:RDF>
  </metadata>
  <g
     id="layer1"
     inkscape:label="dirt"
     inkscape:groupmode="layer"
     transform="translate(0,64)">
    <g
       id="g5239"
       transform="translate(0,-64)">
      <g
         inkscape:label="outline"
         id="layer2">
        <rect
           y="-64"
           x="-64"
           height="256"
           width="256"
           id="rect7431"
           style="fill:#5a3e28;fill-opacity:1;stroke:none" />
      </g>
      <g
         transform="translate(0,64)"
         inkscape:label="Layer 1"
         id="layer1-2">
        <path
           sodipodi:nodetypes="sssssssssssssss"
           style="fill:url(#linearGradient5268);fill-opacity:1;stroke:none;filter:url(#filter4984)"
           d="m 2.8499982,-30.575001 -6.8500003,-3.425 c -2.003641,-1.001821 -4.6528448,0.937812 -5.4264675,4.419114 L -14.670588,-5.9823562 C -15.368127,-2.8434291 -16,0.0776863 -16,3.2499969 l 0,7.5000001 c 0,4.060854 1.033513,6.628021 2.579999,8.690001 l 7.11,9.480001 C -5.1494179,30.467443 -3.5449092,32 -1.6250001,32 l 3.2500002,0 c 1.994977,0 2.8810501,-1.686834 3.6961013,-4.403671 L 13.013762,1.9541254 C 14.762243,-3.8741424 15.592118,-9.019705 14.189654,-12.525865 L 9.905171,-23.237073 C 8.5717826,-26.570543 5.8013998,-29.0993 2.8499982,-30.575001 z"
           id="path7536"
           inkscape:connector-curvature="0" />
        <use
           height="128"
           width="128"
           transform="translate(128,0)"
           id="use3028"
           xlink:href="#path7536"
           y="0"
           x="0" />
        <path
           inkscape:connector-curvature="0"
           id="path3050"
           d="m 97.737499,-58.787504 -4.175001,-12.525001 c -1.085771,-3.257313 -2.376902,-5.9091 -4.235577,-8.697113 l -2.673077,-4.009616 C 84.894339,-86.658491 81.467338,-88 76.250004,-88 l -21.125001,0 c -5.247392,0 -8.635617,0.906368 -12.14338,3.011026 l -10.992648,6.595589 c -2.371488,1.422893 -3.16318,4.870771 -2.188977,7.793379 L 32,-64 l 2.224998,6.674995 c 1.178434,3.5353 4.428821,6.651915 7.475001,8.175005 L 60.15,-39.925 c 5.089115,2.544558 10.833416,2.433292 14.800005,0.449997 l 17.700001,-8.85 c 2.794223,-1.397112 6.917236,-4.973271 5.087493,-10.462501 z"
           style="fill:url(#linearGradient5270);fill-opacity:1;stroke:none;filter:url(#filter4972)"
           sodipodi:nodetypes="ssssssssscssssss" />
        <use
           height="128"
           width="128"
           transform="translate(0,128)"
           id="use3054"
           xlink:href="#path3050"
           y="0"
           x="0" />
        <path
           sodipodi:nodetypes="sssssssssssssssss"
           style="fill:url(#linearGradient5272);fill-opacity:1;stroke:none;filter:url(#filter4976)"
           d="m 157.325,-60.025003 -3.15,-9.450001 c -1.78035,-5.34104 -3.35574,-7.469585 -7.51036,-10.793288 l -9.31403,-7.45122 C 134.39781,-90.081755 131.89341,-92 129.12501,-92 l -4.5,0 c -2.98546,0 -6.12315,0.998763 -9.47116,3.230764 l -13.99038,9.326924 c -3.297931,2.19862 -4.290983,6.059773 -2.603378,11.122589 l 2.961008,8.883029 c 1.84818,5.544527 4.03399,8.603013 7.4189,11.141695 l 7.64,5.73 c 2.57895,1.934208 5.22121,3.465604 8.07,4.89 l 6.35,3.175001 c 3.67613,1.838065 8.61788,-0.514904 11.81148,-3.176237 l 11.68033,-9.733607 c 2.46387,-2.053223 4.69255,-7.037082 2.83319,-12.615161 z"
           id="path3246"
           inkscape:connector-curvature="0" />
        <use
           height="128"
           width="128"
           transform="translate(-128,0)"
           id="use3250"
           xlink:href="#path3246"
           y="0"
           x="0" />
        <use
           height="128"
           width="128"
           transform="translate(0,128)"
           id="use3252"
           xlink:href="#path3246"
           y="0"
           x="0" />
        <use
           height="128"
           width="128"
           transform="translate(-128,128)"
           id="use3254"
           xlink:href="#path3246"
           y="0"
           x="0" />
        <path
           inkscape:connector-curvature="0"
           id="path3314"
           d="m 59.362341,-37.064781 -17.239484,-8.112698 c -4.7143,-2.218494 -11.228093,-1.122316 -14.614015,1.821964 l -11.317895,9.841648 c -3.020131,2.626201 -4.309579,6.570393 -2.960491,9.718265 l 4.690679,10.944917 c 1.650541,3.8512629 3.1634,5.284499 5.82475,6.3490392 l 10.393251,4.1573004 C 38.434262,-0.62629517 41.69152,0 46.13872,0 l 9.192388,0 c 4.884543,0 6.996949,-1.7460427 10.700204,-4.5234844 l 4.327494,-3.2456203 c 2.745555,-2.0591658 4.977888,-5.9720743 3.795636,-9.0754853 l -3.931794,-10.320959 c -2.381898,-6.252481 -5.160251,-7.216852 -10.860307,-9.899232 z"
           style="fill:url(#linearGradient5274);fill-opacity:1;stroke:none;filter:url(#filter5000)"
           sodipodi:nodetypes="sssssssssssssss" />
        <path
           sodipodi:nodetypes="sssssssssss"
           style="fill:url(#linearGradient5276);fill-opacity:1;stroke:none;filter:url(#filter5008)"
           d="m 113.75954,-38.991198 -5.28636,-4.879715 c -3.19812,-2.952111 -7.98319,-2.48377 -11.828561,-0.681252 l -19.866928,9.312622 c -2.877898,1.349015 -3.825117,4.462217 -2.966126,6.466529 l 5.09757,11.894329 c 1.856147,4.331009 2.525492,5.018386 6.711831,6.363996 l 14.874994,4.7812474 c 5.09138,1.6365157 9.23333,-0.2748704 10.58356,-5.8445724 l 4.68236,-19.314734 c 0.82508,-3.403465 0.1873,-6.077247 -2.00234,-8.09845 z"
           id="path3318"
           inkscape:connector-curvature="0" />
        <path
           sodipodi:nodetypes="sssssssssss"
           style="fill:url(#linearGradient5278);fill-opacity:1;stroke:none;filter:url(#filter5004)"
           d="M 34.204208,0.79207938 25.809406,-2.4059406 C 21.176373,-4.1709057 17.935617,-1.8068524 15.950001,4.149997 L 8.5125006,26.462498 C 6.6629633,32.01111 7.697988,35.273491 11.16,37.87 l 10,7.5 c 2.47547,1.856602 7.618471,2.17461 10.837333,0.48854 l 9.603203,-5.030249 c 3.084989,-1.615947 4.813953,-5.755847 3.952348,-10.063869 L 41.673076,11.365382 C 40.476955,5.3847766 38.530415,2.4401581 34.204208,0.79207938 z"
           id="path3396"
           inkscape:connector-curvature="0" />
        <path
           inkscape:connector-curvature="0"
           id="path3400"
           d="M 55.750003,3 47.250002,3 C 45.012831,3 43.505878,5.4571216 44.122614,8.4526948 L 49.080705,32.534854 C 49.62689,35.187751 51.378509,37 54.375003,37 l 25.375001,0 c 2.985071,0 4.597855,-1.252293 5.440899,-4.287252 l 2.784743,-10.025072 c 0.671776,-2.418396 -2.06601,-5.453598 -4.791028,-7.010752 L 66.546155,6.1692315 C 63.19144,4.2522515 59.147278,3 55.750003,3 z"
           style="fill:url(#linearGradient5280);fill-opacity:1;stroke:none;filter:url(#filter5020)"
           sodipodi:nodetypes="sssssssssss" />
        <path
           inkscape:connector-curvature="0"
           id="path3404"
           d="m 104.61138,-1.4628731 -18.985817,-6.328606 c -5.335049,-1.7783495 -6.374242,-2.3928229 -10.595767,0.7029617 l -6.307249,4.6253165 c -3.818174,2.79999495 -3.712503,4.0243362 2.625444,7.5454179 l 13.283268,7.379594 C 88.549614,14.638675 91.028969,16 95.282644,16 l 9.899496,0 c 3.56717,0 3.78123,-2.383344 3.74755,-4.76772 -0.0228,-1.6180103 0.0548,-3.3074329 0.0703,-3.977602 0.0307,-1.3254468 1.63662,-6.70913856 -4.38862,-8.7175511 z"
           style="fill:url(#linearGradient5282);fill-opacity:1;stroke:none;filter:url(#filter5012)"
           sodipodi:nodetypes="sssssssssss" />
        <path
           sodipodi:nodetypes="sssssssssss"
           style="fill:url(#linearGradient5284);fill-opacity:1;stroke:none;filter:url(#filter5024)"
           d="m 105.71247,19 -8.573671,0 c -3.850859,0 -5.629405,1.962426 -6.48713,5.393323 l -2.443678,9.774712 c -0.606925,2.4277 -0.471332,5.884335 0.832446,7.746876 l 3.064525,4.377892 c 1.665286,2.37898 5.244526,0.722315 8.772278,-1.368207 L 116.7613,35.51182 c 1.58725,-0.940588 2.88741,-4.231641 1.11517,-6.487217 L 112.94764,22.75154 C 111.20413,20.532528 108.98824,19 105.71247,19 z"
           id="path3408"
           inkscape:connector-curvature="0" />
        <use
           height="128"
           width="128"
           transform="translate(128,0)"
           id="use4630"
           xlink:href="#path3396"
           y="0"
           x="0" />
        <use
           height="128"
           width="128"
           transform="translate(128,0)"
           id="use4634"
           xlink:href="#path3314"
           y="0"
           x="0" />
        <use
           height="128"
           width="128"
           transform="translate(0,-128)"
           id="use4636"
           xlink:href="#path3396"
           y="0"
           x="0" />
        <use
           height="128"
           width="128"
           transform="translate(0,128)"
           id="use4638"
           xlink:href="#path3314"
           y="0"
           x="0" />
        <use
           height="128"
           width="128"
           transform="translate(-128,0)"
           id="use4640"
           xlink:href="#path3318"
           y="0"
           x="0" />
        <use
           height="128"
           width="128"
           transform="translate(0,128)"
           id="use4642"
           xlink:href="#path3318"
           y="0"
           x="0" />
        <use
           height="128"
           width="128"
           transform="translate(0,-128)"
           id="use4644"
           xlink:href="#path3408"
           y="0"
           x="0" />
        <use
           height="128"
           width="128"
           transform="translate(-128,0)"
           id="use4646"
           xlink:href="#path3408"
           y="0"
           x="0" />
        <use
           height="128"
           width="128"
           transform="translate(-128,0)"
           id="use4684"
           xlink:href="#path3404"
           y="0"
           x="0" />
        <use
           height="128"
           width="128"
           transform="translate(0,-128)"
           id="use4686"
           xlink:href="#path3400"
           y="0"
           x="0" />
      </g>
    </g>
  </g>
  <g
     inkscape:groupmode="layer"
     id="layer3"
     inkscape:label="snow"
     sodipodi:insensitive="true">
    <g
       transform="translate(0,64)"
       inkscape:label="Layer 1"
       id="layer1-71"
       style="fill:#ffffff;fill-opacity:1;stroke:#cccccf">
      <path
         sodipodi:nodetypes="zzccz"
         transform="translate(0,-64)"
         inkscape:connector-curvature="0"
         id="path9785"
         d="m 0,16 c 48,16 80,-16 128,0 48,16 8,-24 8,-24 L -8,-8 c 0,0 -40,8 8,24 z"
         style="fill:#ffffff;fill-opacity:1;stroke:#cccccf;stroke-width:1px;stroke-linecap:butt;stroke-linejoin:miter;stroke-opacity:1" />
    </g>
  </g>
</svg>
