<?xml version="1.0" encoding="UTF-8" standalone="no"?>
<!-- Created with Inkscape (http://www.inkscape.org/) -->

<svg
   xmlns:dc="http://purl.org/dc/elements/1.1/"
   xmlns:cc="http://creativecommons.org/ns#"
   xmlns:rdf="http://www.w3.org/1999/02/22-rdf-syntax-ns#"
   xmlns:svg="http://www.w3.org/2000/svg"
   xmlns="http://www.w3.org/2000/svg"
   xmlns:xlink="http://www.w3.org/1999/xlink"
   xmlns:sodipodi="http://sodipodi.sourceforge.net/DTD/sodipodi-0.dtd"
   xmlns:inkscape="http://www.inkscape.org/namespaces/inkscape"
   width="128"
   height="128"
   id="svg2985"
   version="1.1"
   inkscape:version="0.48.2 r9819"
   sodipodi:docname="nether_brick.svg"
   inkscape:export-filename="/Users/ianw/drawing.png"
   inkscape:export-xdpi="180"
   inkscape:export-ydpi="180">
  <title
     id="title3119">Template</title>
  <defs
     id="defs2987" />
  <sodipodi:namedview
     id="base"
     pagecolor="#ffffff"
     bordercolor="#000000"
     borderopacity="1"
     inkscape:pageopacity="0.0"
     inkscape:pageshadow="2"
     inkscape:zoom="3.9999998"
     inkscape:cx="63.235987"
     inkscape:cy="112.08066"
     inkscape:current-layer="layer1"
     showgrid="true"
     inkscape:document-units="px"
     inkscape:grid-bbox="true"
     inkscape:snap-bbox="true"
     inkscape:snap-nodes="false"
     inkscape:snap-grids="true"
     inkscape:window-width="1579"
     inkscape:window-height="1286"
     inkscape:window-x="0"
     inkscape:window-y="0"
     inkscape:window-maximized="0"
     inkscape:showpageshadow="false"
     borderlayer="true">
    <inkscape:grid
       type="xygrid"
       id="grid2993"
       empspacing="4"
       visible="true"
       enabled="true"
       snapvisiblegridlinesonly="true"
       spacingx="16px"
       spacingy="16px"
       empcolor="#d60053"
       empopacity="0.29803922" />
    <inkscape:grid
       type="xygrid"
       id="grid3043"
       empspacing="4"
       visible="true"
       enabled="true"
       snapvisiblegridlinesonly="true"
       color="#ff00f8"
       opacity="0.1254902"
       dotted="true" />
  </sodipodi:namedview>
  <metadata
     id="metadata2990">
    <rdf:RDF>
      <cc:Work
         rdf:about="">
        <dc:format>image/svg+xml</dc:format>
        <dc:type
           rdf:resource="http://purl.org/dc/dcmitype/StillImage" />
        <dc:title>Template</dc:title>
        <cc:license
           rdf:resource="https://www.gnu.org/copyleft/gpl.html" />
        <dc:creator>
          <cc:Agent>
            <dc:title>Ian Walters</dc:title>
          </cc:Agent>
        </dc:creator>
        <dc:source>SimpleRP</dc:source>
      </cc:Work>
    </rdf:RDF>
  </metadata>
  <g
     id="layer1"
     inkscape:label="Layer 1"
     inkscape:groupmode="layer"
     transform="translate(0,64)">
    <rect
       style="fill:#241417;fill-opacity:1;stroke:none"
       id="rect5548"
       width="128"
       height="128"
       x="0"
       y="0"
       transform="translate(0,-64)" />
    <path
       style="fill:#4c262c;fill-opacity:1;stroke:none"
       d="m 6,-62 c 0,0 6,0 9.467962,0 1.651241,0 3.079784,2.78585 4.532038,2 0.594224,-0.32155 -1,-2 0.329321,-2 C 28,-62 58,-62 58,-62 c 2.216,0 4,1.784 4,4 l 0,20 c 0,2.216 -1.784,4 -4,4 0,0 -8,0 -12.187498,0 -1.370732,0 -1.44177,-3 -2.812502,-3 -4,0 -1.144898,3 -3,3 -6.312502,0 -34,0 -34,0 -2.216,0 -4,-1.784 -4,-4 l 0,-20 c 0,-2.216 1.784,-4 4,-4 z"
       id="rect5550"
       inkscape:connector-curvature="0"
       sodipodi:nodetypes="sssssssssssssss" />
    <path
       sodipodi:nodetypes="ssssssssssssssssss"
       inkscape:connector-curvature="0"
       id="path5553"
       d="m 70,-62 c 0,0 6.070437,0 9,0 2.929563,0 0.949418,1 5,1 4.05058,0 0.63694,-1 4,-1 3.36306,0 15.27165,0 16.13864,0 1.65124,0 1.86136,2 2.86136,3 0.47775,0.477751 0.67068,-3 2,-3 7.67068,0 13,0 13,0 2.216,0 4,1.784 4,4 l 0,20 c 0,2.216 -1.784,4 -4,4 0,0 -24,0 -28.1875,0 -1.37073,0 -0.44177,-2 -1.8125,-2 -3,0 -2.1449,2 -4,2 -6.3125,0 -18,0 -18,0 -2.216,0 -4,-1.784 -4,-4 l 0,-20 c 0,-2.216 1.784,-4 4,-4 z"
       style="fill:#3b1f23;fill-opacity:1;stroke:none" />
    <path
       style="fill:#391d21;fill-opacity:1;stroke:none"
       d="m -44,-30 c 0,0 6.070437,0 9,0 2.929563,0 0.949418,1 5,1 4.05058,0 0.63694,-1 4,-1 3.36306,0 15.27165,0 16.13864,0 1.65124,0 1.86136,2 2.86136,3 0.47775,0.477751 0.67068,-3 2,-3 7.67068,0 13,0 13,0 2.216,0 4,1.784 4,4 l 0,20 c 0,2.216 -1.784,4 -4,4 0,0 -24,0 -28.1875,0 -1.37073,0 -0.44177,-2 -1.8125,-2 -3,0 -2.1449,2 -4,2 -6.3125,0 -18,0 -18,0 -2.216,0 -4,-1.784 -4,-4 l 0,-20 c 0,-2.216 1.784,-4 4,-4 z"
       id="path6063"
       inkscape:connector-curvature="0"
       sodipodi:nodetypes="ssssssssssssssssss" />
    <path
       style="fill:#46262c;fill-opacity:1;stroke:none"
       d="m 20,-30 c 0,0 6.070437,0 9,0 2.929563,0 0.949418,1 5,1 4.05058,0 0.63694,-1 4,-1 3.36306,0 15.27165,0 16.13864,0 1.65124,0 1.86136,2 2.86136,3 0.47775,0.477751 0.67068,-3 2,-3 7.67068,0 13,0 13,0 2.216,0 4,1.784 4,4 l 0,20 c 0,2.216 -1.784,4 -4,4 0,0 -24,0 -28.1875,0 -1.37073,0 -0.44177,-2 -1.8125,-2 -3,0 -2.1449,2 -4,2 -6.3125,0 -18,0 -18,0 -2.216,0 -4,-1.784 -4,-4 l 0,-20 c 0,-2.216 1.784,-4 4,-4 z"
       id="path6065"
       inkscape:connector-curvature="0"
       sodipodi:nodetypes="ssssssssssssssssss" />
    <path
       sodipodi:nodetypes="sssssssssssssss"
       inkscape:connector-curvature="0"
       id="path6067"
       d="m 84,-30 c 0,0 6,0 9.46796,0 1.65124,0 3.07979,2.78585 4.53204,2 0.59422,-0.32155 -1,-2 0.32932,-2 C 106,-30 136,-30 136,-30 c 2.216,0 4,1.784 4,4 l 0,20 c 0,2.216 -1.784,4 -4,4 0,0 -8,0 -12.1875,0 -1.37073,0 -1.44177,-3 -2.8125,-3 -4,0 -1.1449,3 -3,3 -6.3125,0 -34,0 -34,0 -2.216,0 -4,-1.784 -4,-4 l 0,-20 c 0,-2.216 1.784,-4 4,-4 z"
       style="fill:#391d21;fill-opacity:1;stroke:none" />
    <path
       style="fill:#422126;fill-opacity:1;stroke:none"
       d="M 6,2 C 6,2 12,2 15.46796,2 17.1192,2 18.54775,4.78585 20,4 20.59422,3.67845 19,2 20.32932,2 28,2 26.187498,1.9375 26.187498,1.9375 c 2.216,0 4,1.784 4,4 l 0,20 c 0,2.216 -1.784,4 -4,4 L 6,30 C 3.784,30 2,28.216 2,26 L 2,6 C 2,3.784 3.784,2 6,2 z"
       id="path6069"
       inkscape:connector-curvature="0"
       sodipodi:nodetypes="sssssssccsss" />
    <path
       style="fill:#4c262c;fill-opacity:1;stroke:none"
       d="M 102.875,1.9375 104.13864,2 C 105.78988,2 106,4 107,5 c 0.47775,0.477751 0.67068,-3 2,-3 7.67068,0 13,0 13,0 2.216,0 4,1.784 4,4 l 0,20 c 0,2.216 -1.784,4 -4,4 l -19.125,-0.0625 c -2.216,0 -3.999998,-1.784 -3.999998,-4 l 0,-20 c 0,-2.216 1.783998,-4 3.999998,-4 z"
       id="path6071"
       inkscape:connector-curvature="0"
       sodipodi:nodetypes="ccsssssccssc" />
    <path
       style="fill:#5e2f36;fill-opacity:1;stroke:none"
       d="m 70,34 c 0,0 6,0 9.46796,0 1.65124,0 3.07979,2.78585 4.53204,2 0.59422,-0.32155 -1,-2 0.32932,-2 C 92,34 122,34 122,34 c 2.216,0 4,1.784 4,4 l 0,20 c 0,2.216 -1.784,4 -4,4 0,0 -8,0 -12.1875,0 -1.37073,0 -1.44177,-3 -2.8125,-3 -4,0 -1.1449,3 -3,3 -6.3125,0 -34,0 -34,0 -2.216,0 -4,-1.784 -4,-4 l 0,-20 c 0,-2.216 1.784,-4 4,-4 z"
       id="path6075"
       inkscape:connector-curvature="0"
       sodipodi:nodetypes="sssssssssssssss" />
    <path
       style="fill:#4a282e;fill-opacity:1;stroke:none"
       d="m 6,34 c 0,0 6.070437,0 9,0 2.929563,0 0.949418,1 5,1 4.05058,0 0.63694,-1 4,-1 3.36306,0 15.27165,0 16.13864,0 C 41.78988,34 42,36 43,37 c 0.47775,0.477751 0.67068,-3 2,-3 7.67068,0 13,0 13,0 2.216,0 4,1.784 4,4 l 0,20 c 0,2.216 -1.784,4 -4,4 0,0 -24,0 -28.1875,0 C 28.44177,62 29.37073,60 28,60 25,60 25.8551,62 24,62 17.6875,62 6,62 6,62 3.784,62 2,60.216 2,58 L 2,38 c 0,-2.216 1.784,-4 4,-4 z"
       id="path6077"
       inkscape:connector-curvature="0"
       sodipodi:nodetypes="ssssssssssssssssss" />
    <image
       y="-128"
       x="192"
       id="image3359"
       xlink:href="file:///Users/ianw/play/SimpleRP/src/default/assets/minecraft/textures/blocks/nether_brick.png"
       height="64"
       width="64" />
    <path
       sodipodi:nodetypes="ccssssssccsssssc"
       inkscape:connector-curvature="0"
       id="path4130"
       d="m 38.999998,2 19.125,0.0625 c 2.216,0 4,1.784 4,4 0,0 0.29865,1.6202228 0,2.3412265 -0.398629,0.9623745 -1.81108,1.247334 -2.209709,2.2097085 -0.270598,0.653282 -0.277249,1.470834 0,2.121321 0.400341,0.939288 2.209709,1.100274 2.209709,2.12132 l 0,11.206424 c 0,2.216 -1.784,4 -4,4 L 38.999998,30 C 36.783998,30 35,28.216 35,26 l 0,-6.459341 c 0,-1.147537 2.740129,-1.164272 2.563262,-2.298097 C 37.418947,16.317408 35,17.029856 35,16.093513 L 35,6 c 0,-2.216 1.783998,-4 3.999998,-4 z"
       style="fill:#4c262c;fill-opacity:1;stroke:none" />
    <path
       style="fill:#49292e;fill-opacity:1;stroke:none"
       d="m 69.999998,2 19.125,0.0625 c 2.216,0 4,1.784 4,4 l 0,20 c 0,2.216 -1.784,4 -4,4 l -5.862542,-0.01916 c -0.976063,-0.0032 1.000945,-2.400375 0.176508,-2.922882 -1.702485,-1.078991 -3.287091,2.912717 -5.302689,2.90613 L 69.999998,30 C 67.783998,30 66,28.216 66,26 L 66,6 c 0,-2.216 1.783998,-4 3.999998,-4 z"
       id="path4132"
       inkscape:connector-curvature="0"
       sodipodi:nodetypes="ccsscssscssc" />
  </g>
</svg>
