<?xml version="1.0" encoding="UTF-8" standalone="no"?>
<!-- Created with Inkscape (http://www.inkscape.org/) -->

<svg
   xmlns:dc="http://purl.org/dc/elements/1.1/"
   xmlns:cc="http://creativecommons.org/ns#"
   xmlns:rdf="http://www.w3.org/1999/02/22-rdf-syntax-ns#"
   xmlns:svg="http://www.w3.org/2000/svg"
   xmlns="http://www.w3.org/2000/svg"
   xmlns:sodipodi="http://sodipodi.sourceforge.net/DTD/sodipodi-0.dtd"
   xmlns:inkscape="http://www.inkscape.org/namespaces/inkscape"
   width="128"
   height="128"
   id="svg2985"
   version="1.1"
   inkscape:version="0.48.4 r9939"
   sodipodi:docname="planks_jungle.svg"
   inkscape:export-filename="/Users/ianw/drawing.png"
   inkscape:export-xdpi="180"
   inkscape:export-ydpi="180">
  <title
     id="title3119">Template</title>
  <defs
     id="defs2987" />
  <sodipodi:namedview
     id="base"
     pagecolor="#ffffff"
     bordercolor="#000000"
     borderopacity="1"
     inkscape:pageopacity="0.0"
     inkscape:pageshadow="2"
     inkscape:zoom="3.9999998"
     inkscape:cx="66.108942"
     inkscape:cy="59.262778"
     inkscape:current-layer="layer1"
     showgrid="true"
     inkscape:document-units="px"
     inkscape:grid-bbox="true"
     inkscape:snap-bbox="false"
     inkscape:snap-nodes="true"
     inkscape:snap-grids="true"
     inkscape:window-width="2560"
     inkscape:window-height="1305"
     inkscape:window-x="0"
     inkscape:window-y="0"
     inkscape:window-maximized="1"
     inkscape:showpageshadow="false"
     borderlayer="true">
    <inkscape:grid
       type="xygrid"
       id="grid2993"
       empspacing="4"
       visible="true"
       enabled="true"
       snapvisiblegridlinesonly="true"
       spacingx="16px"
       spacingy="16px"
       empcolor="#d60053"
       empopacity="0.29803922" />
    <inkscape:grid
       type="xygrid"
       id="grid3043"
       empspacing="4"
       visible="true"
       enabled="true"
       snapvisiblegridlinesonly="true"
       color="#ff00f8"
       opacity="0.1254902"
       dotted="true" />
  </sodipodi:namedview>
  <metadata
     id="metadata2990">
    <rdf:RDF>
      <cc:Work
         rdf:about="">
        <dc:format>image/svg+xml</dc:format>
        <dc:type
           rdf:resource="http://purl.org/dc/dcmitype/StillImage" />
        <dc:title>Template</dc:title>
        <cc:license
           rdf:resource="https://www.gnu.org/copyleft/gpl.html" />
        <dc:creator>
          <cc:Agent>
            <dc:title>Ian Walters</dc:title>
          </cc:Agent>
        </dc:creator>
        <dc:source>SimpleRP</dc:source>
      </cc:Work>
    </rdf:RDF>
  </metadata>
  <g
     id="layer1"
     inkscape:label="Layer 1"
     inkscape:groupmode="layer"
     transform="translate(0,64)">
    <g
       inkscape:label="Layer 1"
       id="layer1-3"
       transform="translate(-100,-4)">
      <rect
         ry="4"
         y="-60"
         x="4"
         height="12"
         width="12"
         id="rect3064"
         style="fill:#af874c;fill-opacity:1;stroke:none" />
      <rect
         ry="4"
         y="-60"
         x="20"
         height="12"
         width="12"
         id="rect3066"
         style="fill:#836638;fill-opacity:1;stroke:none" />
      <rect
         style="fill:#aa9960;fill-opacity:1;stroke:none"
         id="rect4124"
         width="12"
         height="12"
         x="20"
         y="-44"
         ry="4" />
      <rect
         style="fill:#cfc277;fill-opacity:1;stroke:none"
         id="rect4126"
         width="12"
         height="12"
         x="4"
         y="-44"
         ry="4" />
      <rect
         ry="4"
         y="-28"
         x="20"
         height="12"
         width="12"
         id="rect4128"
         style="fill:#4e371f;fill-opacity:1;stroke:none" />
      <rect
         ry="4"
         y="-28"
         x="4"
         height="12"
         width="12"
         id="rect4130"
         style="fill:#835218;fill-opacity:1;stroke:none" />
      <rect
         style="fill:#8c5c3d;fill-opacity:1;stroke:none"
         id="rect4320"
         width="12"
         height="12"
         x="20"
         y="-12"
         ry="4" />
      <rect
         style="fill:#af6a48;fill-opacity:1;stroke:none"
         id="rect4322"
         width="12"
         height="12"
         x="4"
         y="-12"
         ry="4" />
      <text
         sodipodi:linespacing="125%"
         id="text4452"
         y="-51"
         x="36"
         style="font-size:10px;font-style:normal;font-weight:normal;line-height:125%;letter-spacing:0px;word-spacing:0px;fill:#000000;fill-opacity:1;stroke:none;font-family:Sans"
         xml:space="preserve"><tspan
           y="-51"
           x="36"
           id="tspan4454"
           sodipodi:role="line">Oak</tspan></text>
      <text
         sodipodi:linespacing="125%"
         id="text4456"
         y="-35"
         x="36"
         style="font-size:10px;font-style:normal;font-weight:normal;line-height:125%;letter-spacing:0px;word-spacing:0px;fill:#000000;fill-opacity:1;stroke:none;font-family:Sans"
         xml:space="preserve"><tspan
           y="-35"
           x="36"
           id="tspan4458"
           sodipodi:role="line">Birch</tspan></text>
      <text
         sodipodi:linespacing="125%"
         id="text4460"
         y="-19"
         x="36"
         style="font-size:10px;font-style:normal;font-weight:normal;line-height:125%;letter-spacing:0px;word-spacing:0px;fill:#000000;fill-opacity:1;stroke:none;font-family:Sans"
         xml:space="preserve"><tspan
           y="-19"
           x="36"
           id="tspan4462"
           sodipodi:role="line">Spruce</tspan></text>
      <text
         sodipodi:linespacing="125%"
         id="text4464"
         y="-3"
         x="36"
         style="font-size:10px;font-style:normal;font-weight:normal;line-height:125%;letter-spacing:0px;word-spacing:0px;fill:#000000;fill-opacity:1;stroke:none;font-family:Sans"
         xml:space="preserve"><tspan
           y="-3"
           x="36"
           id="tspan4466"
           sodipodi:role="line">Jungle</tspan></text>
    </g>
    <rect
       style="fill:#8c5c3d;fill-opacity:1;stroke:none"
       id="rect3363"
       width="128"
       height="128"
       x="0"
       y="0"
       transform="translate(0,-64)" />
    <path
       style="fill:#af6a48;fill-opacity:1;stroke:none;stroke-width:1px;stroke-linecap:butt;stroke-linejoin:miter;stroke-opacity:1"
       d="m 0,8 c 12,-1 25,0 33,0 8,0 27,-4 31,-4 4,0 20,3 28,3 8,0 28,2 36,1 8,-1 8,50 0,48 -8,-2 -32,-4 -36,0 -4,4 -20,4 -24,4 -4,0 -20,-4 -24,-4 -4,0 -4,0 -12,0 -8,0 -5.145623,0.735089 -14,2 C 11,59 8,58 0,56 -8,54 -12,9 0,8 z"
       id="path3365"
       inkscape:connector-curvature="0"
       transform="translate(0,-64)"
       sodipodi:nodetypes="zssszzssssszz" />
    <path
       style="fill:#af6a48;fill-opacity:1;stroke:none"
       d="m 0,68 c 8,0 23.926153,-3 36,-3 12.073847,0 28,3 36,3 8,0 16.23886,1.940285 24,0 8,-2 24,0 32,0 8,0 8,48 0,52 -8,4 -30,3 -38,1 -8.677218,-2.1693 -50.33739,-2.29878 -58,0 -10,3 -24,-5 -32,-1 -8,4 -8,-52 0,-52 z"
       id="path3367"
       inkscape:connector-curvature="0"
       transform="translate(0,-64)"
       sodipodi:nodetypes="zzsszzsszz" />
    <path
       sodipodi:type="arc"
       style="fill:#8c5c3d;fill-opacity:1;stroke:none"
       id="path3549"
       sodipodi:cx="32"
       sodipodi:cy="-34"
       sodipodi:rx="8"
       sodipodi:ry="2"
       d="m 40,-34 a 8,2 0 1 1 -16,0 8,2 0 1 1 16,0 z"
       transform="translate(40,20)" />
  </g>
</svg>
