<?xml version="1.0" encoding="UTF-8" standalone="no"?>
<!-- Created with Inkscape (http://www.inkscape.org/) -->

<svg
   xmlns:dc="http://purl.org/dc/elements/1.1/"
   xmlns:cc="http://creativecommons.org/ns#"
   xmlns:rdf="http://www.w3.org/1999/02/22-rdf-syntax-ns#"
   xmlns:svg="http://www.w3.org/2000/svg"
   xmlns="http://www.w3.org/2000/svg"
   xmlns:sodipodi="http://sodipodi.sourceforge.net/DTD/sodipodi-0.dtd"
   xmlns:inkscape="http://www.inkscape.org/namespaces/inkscape"
   width="128"
   height="128"
   id="svg2985"
   version="1.1"
   inkscape:version="0.48.2 r9819"
   sodipodi:docname="planks_oak.svg"
   inkscape:export-filename="/Users/ianw/drawing.png"
   inkscape:export-xdpi="180"
   inkscape:export-ydpi="180">
  <title
     id="title3119">Template</title>
  <defs
     id="defs2987" />
  <sodipodi:namedview
     id="base"
     pagecolor="#ffffff"
     bordercolor="#000000"
     borderopacity="1"
     inkscape:pageopacity="0.0"
     inkscape:pageshadow="2"
     inkscape:zoom="1.9999999"
     inkscape:cx="157.69202"
     inkscape:cy="50.815093"
     inkscape:current-layer="layer1"
     showgrid="true"
     inkscape:document-units="px"
     inkscape:grid-bbox="true"
     inkscape:snap-bbox="false"
     inkscape:snap-nodes="true"
     inkscape:snap-grids="true"
     inkscape:window-width="2560"
     inkscape:window-height="1305"
     inkscape:window-x="0"
     inkscape:window-y="0"
     inkscape:window-maximized="1"
     inkscape:showpageshadow="false"
     borderlayer="true">
    <inkscape:grid
       type="xygrid"
       id="grid2993"
       empspacing="4"
       visible="true"
       enabled="true"
       snapvisiblegridlinesonly="true"
       spacingx="16px"
       spacingy="16px"
       empcolor="#d60053"
       empopacity="0.29803922" />
    <inkscape:grid
       type="xygrid"
       id="grid3043"
       empspacing="4"
       visible="true"
       enabled="true"
       snapvisiblegridlinesonly="true"
       color="#ff00f8"
       opacity="0.1254902"
       dotted="true" />
  </sodipodi:namedview>
  <metadata
     id="metadata2990">
    <rdf:RDF>
      <cc:Work
         rdf:about="">
        <dc:format>image/svg+xml</dc:format>
        <dc:type
           rdf:resource="http://purl.org/dc/dcmitype/StillImage" />
        <dc:title>Template</dc:title>
        <cc:license
           rdf:resource="https://www.gnu.org/copyleft/gpl.html" />
        <dc:creator>
          <cc:Agent>
            <dc:title>Ian Walters</dc:title>
          </cc:Agent>
        </dc:creator>
        <dc:source>SimpleRP</dc:source>
      </cc:Work>
    </rdf:RDF>
  </metadata>
  <g
     id="layer1"
     inkscape:label="Layer 1"
     inkscape:groupmode="layer"
     transform="translate(0,64)">
    <rect
       style="fill:#836638;fill-opacity:1;stroke:none"
       id="rect3363"
       width="128"
       height="128"
       x="0"
       y="0"
       transform="translate(0,-64)" />
    <path
       style="fill:#af874c;fill-opacity:1;stroke:none;stroke-width:1px;stroke-linecap:butt;stroke-linejoin:miter;stroke-opacity:1"
       d="m 0,8 c 12,-1 25,0 33,0 8,0 27,-4 31,-4 4,0 20,3 28,3 8,0 28,2 36,1 8,-1 8,50 0,48 -8,-2 -32,-4 -36,0 -4,4 -20,4 -24,4 -4,0 -20,-4 -24,-4 -4,0 -4,0 -12,0 -8,0 -5.145623,0.735089 -14,2 C 11,59 8,58 0,56 -8,54 -12,9 0,8 z"
       id="path3365"
       inkscape:connector-curvature="0"
       transform="translate(0,-64)"
       sodipodi:nodetypes="zssszzssssszz" />
    <path
       style="fill:#af874c;fill-opacity:1;stroke:none"
       d="m 0,68 c 8,0 23.926153,-3 36,-3 12.073847,0 28,3 36,3 8,0 16.23886,1.940285 24,0 8,-2 24,0 32,0 8,0 8,48 0,52 -8,4 -30,3 -38,1 -8.677218,-2.1693 -50.33739,-2.29878 -58,0 -10,3 -24,-5 -32,-1 -8,4 -8,-52 0,-52 z"
       id="path3367"
       inkscape:connector-curvature="0"
       transform="translate(0,-64)"
       sodipodi:nodetypes="zzsszzsszz" />
    <path
       sodipodi:type="arc"
       style="fill:#836638;fill-opacity:1;stroke:none"
       id="path3549"
       sodipodi:cx="32"
       sodipodi:cy="-34"
       sodipodi:rx="8"
       sodipodi:ry="2"
       d="m 40,-34 c 0,1.104569 -3.581722,2 -8,2 -4.418278,0 -8,-0.895431 -8,-2 0,-1.104569 3.581722,-2 8,-2 4.418278,0 8,0.895431 8,2 z"
       transform="translate(40,20)" />
  </g>
</svg>
