<?xml version="1.0" encoding="UTF-8" standalone="no"?>
<!-- Created with Inkscape (http://www.inkscape.org/) -->

<svg
   xmlns:dc="http://purl.org/dc/elements/1.1/"
   xmlns:cc="http://creativecommons.org/ns#"
   xmlns:rdf="http://www.w3.org/1999/02/22-rdf-syntax-ns#"
   xmlns:svg="http://www.w3.org/2000/svg"
   xmlns="http://www.w3.org/2000/svg"
   xmlns:xlink="http://www.w3.org/1999/xlink"
   xmlns:sodipodi="http://sodipodi.sourceforge.net/DTD/sodipodi-0.dtd"
   xmlns:inkscape="http://www.inkscape.org/namespaces/inkscape"
   width="64px"
   height="64px"
   id="svg2985"
   version="1.1"
   inkscape:version="0.48.2 r9819"
   sodipodi:docname="planks_oak.svg"
   inkscape:export-filename="/Users/ianw/play/so_very_good/assets/minecraft/textures/blocks/planks_oak.png"
   inkscape:export-xdpi="180"
   inkscape:export-ydpi="180">
  <title
     id="title3119">Template</title>
  <defs
     id="defs2987">
    <linearGradient
       inkscape:collect="always"
       id="linearGradient3181">
      <stop
         style="stop-color:#af874c;stop-opacity:1;"
         offset="0"
         id="stop3183" />
      <stop
         style="stop-color:#af874c;stop-opacity:0;"
         offset="1"
         id="stop3185" />
    </linearGradient>
    <linearGradient
       id="linearGradient4011">
      <stop
         id="stop4013"
         offset="0"
         style="stop-color:#816647;stop-opacity:1" />
      <stop
         id="stop4015"
         offset="1"
         style="stop-color:#000000;stop-opacity:0" />
    </linearGradient>
    <linearGradient
       inkscape:collect="always"
       xlink:href="#linearGradient3181"
       id="linearGradient3179"
       x1="17"
       y1="50"
       x2="5"
       y2="50"
       gradientUnits="userSpaceOnUse" />
  </defs>
  <sodipodi:namedview
     id="base"
     pagecolor="#ffffff"
     bordercolor="#000000"
     borderopacity="1"
     inkscape:pageopacity="0.0"
     inkscape:pageshadow="2"
     inkscape:zoom="11.313708"
     inkscape:cx="5.598626"
     inkscape:cy="23.948418"
     inkscape:current-layer="layer1"
     showgrid="true"
     inkscape:document-units="px"
     inkscape:grid-bbox="true"
     inkscape:snap-bbox="false"
     inkscape:snap-nodes="true"
     inkscape:snap-grids="true"
     inkscape:window-width="2560"
     inkscape:window-height="1305"
     inkscape:window-x="0"
     inkscape:window-y="0"
     inkscape:window-maximized="1"
     inkscape:showpageshadow="false"
     borderlayer="true"
     inkscape:snap-global="true">
    <inkscape:grid
       type="xygrid"
       id="grid2993"
       empspacing="8"
       visible="true"
       enabled="true"
       snapvisiblegridlinesonly="true"
       spacingx="2px"
       spacingy="2px"
       empcolor="#d60053"
       empopacity="0.29803922" />
  </sodipodi:namedview>
  <metadata
     id="metadata2990">
    <rdf:RDF>
      <cc:Work
         rdf:about="">
        <dc:format>image/svg+xml</dc:format>
        <dc:type
           rdf:resource="http://purl.org/dc/dcmitype/StillImage" />
        <dc:title>Template</dc:title>
        <cc:license
           rdf:resource="https://www.gnu.org/copyleft/gpl.html" />
        <dc:creator>
          <cc:Agent>
            <dc:title>Ian Walters</dc:title>
          </cc:Agent>
        </dc:creator>
      </cc:Work>
    </rdf:RDF>
  </metadata>
  <g
     id="layer1"
     inkscape:label="Layer 1"
     inkscape:groupmode="layer">
    <rect
       style="fill:#af874c;fill-opacity:1;stroke:none"
       id="rect3151"
       width="64"
       height="64"
       x="0"
       y="0" />
    <rect
       style="fill:#604c29;fill-opacity:0.54901961;stroke:none"
       id="rect3153"
       width="64"
       height="4"
       x="0"
       y="28" />
    <path
       style="fill:#8e7239;fill-opacity:1;stroke:none"
       d="M 72,46 C 44,42 48,42 42,42 c -6,0 -12,0 -16,0 -4,0 -8,-2 -8,-2 0,0 6,-2 8,-2 2,0 24,2 30,2 6,0 8,-2 12,-2 4,0 6,2 6,2 0,0 -4,2 -6,2 -2,0 -6,0 -6,0 0,0 8,2 10,4 z"
       id="path3161"
       inkscape:connector-curvature="0" />
    <path
       style="fill:#8e7239;fill-opacity:1;stroke:none"
       d="M -4,8 C 2,6 18,6 20,6 22,6 28,6 30,8 24,10 20,10 18,10 16,10 -4,8 -4,8 z"
       id="path3163"
       inkscape:connector-curvature="0"
       sodipodi:nodetypes="cscsc" />
    <path
       style="fill:#8e7239;fill-opacity:1;stroke:none"
       d="M 92,24 C 92,24 70,24 62,22.666667 54,21.333333 50,20 46,20 c -4,0 -6,1.333333 -8,0 2,-1.333333 6,-1.333333 10,-1.333333 4,0 12,1.333333 16,1.333333 4,0 6,2.666667 10,2.666667 C 78,22.666667 92,24 92,24 z"
       id="path3169"
       inkscape:connector-curvature="0"
       sodipodi:nodetypes="csscsssc" />
    <path
       style="fill:#8e7239;fill-opacity:1;stroke:none"
       d="M 58,50 C 46,48 46,48 42,48 c -4,0 -14,-2 -18,0 -4,2 -10,0 -12,0 -2,0 -6,2 -8,2 -2,0 4,2 6,2 2,0 8,0 10,0 2,0 4,0 4,0 0,0 -4,2 -6,2 -2,0 -6,2 -8,2 -2,0 12,2 16,0 4,-2 6,-4 10,-4 4,0 8,2 10,2 2,0 2,-2 6,-2 4,0 6,-2 6,-2 z"
       id="path3187"
       inkscape:connector-curvature="0" />
    <path
       sodipodi:nodetypes="cscsc"
       inkscape:connector-curvature="0"
       id="path3189"
       d="M 60,8 C 66,6 82,6 84,6 86,6 92,6 94,8 88,10 84,10 82,10 80,10 60,8 60,8 z"
       style="fill:#8e7239;fill-opacity:1;stroke:none" />
    <path
       sodipodi:nodetypes="csscsssc"
       inkscape:connector-curvature="0"
       id="path3191"
       d="m 46.444444,11 c 0,0 -9.777778,0 -13.333333,1 -3.555556,1 -5.333334,2 -7.111111,2 -1.777778,0 -2.666667,-1 -3.555556,0 0.888889,1 2.666667,1 4.444444,1 1.777778,0 5.333334,-1 7.111112,-1 1.777777,0 2.666666,-2 4.444444,-2 1.777778,0 8,-1 8,-1 z"
       style="fill:#8e7239;fill-opacity:1;stroke:none" />
    <path
       sodipodi:nodetypes="csscsssc"
       inkscape:connector-curvature="0"
       id="path3193"
       d="M 28,24 C 28,24 6,24 -2,22.666667 -10,21.333333 -14,20 -18,20 c -4,0 -6,1.333333 -8,0 2,-1.333333 6,-1.333333 10,-1.333333 C -12,18.666667 -4,20 0,20 4,20 6,22.666667 10,22.666667 14,22.666667 28,24 28,24 z"
       style="fill:#8e7239;fill-opacity:1;stroke:none" />
    <path
       inkscape:connector-curvature="0"
       id="path3195"
       d="m 8,46 c -28,-4 -24,-4 -30,-4 -6,0 -12,0 -16,0 -4,0 -8,-2 -8,-2 0,0 6,-2 8,-2 2,0 24,2 30,2 6,0 8,-2 12,-2 4,0 6,2 6,2 0,0 -4,2 -6,2 -2,0 -6,0 -6,0 0,0 8,2 10,4 z"
       style="fill:#8e7239;fill-opacity:1;stroke:none" />
    <path
       style="fill:#8e7239;stroke:none;stroke-width:1px;stroke-linecap:butt;stroke-linejoin:miter;stroke-opacity:1;fill-opacity:1"
       d="m 56,56 c 0,0 6,-2 10,-2 4,0 6,2 6,2 l -16,0"
       id="path3199"
       inkscape:connector-curvature="0" />
    <path
       inkscape:connector-curvature="0"
       id="path3201"
       d="m -8,56 c 0,0 6,-2 10,-2 4,0 6,2 6,2 l -16,0"
       style="fill:#8e7239;fill-opacity:1;stroke:none" />
    <rect
       y="0"
       x="0"
       height="4"
       width="64"
       id="rect3349"
       style="fill:#ccb088;fill-opacity:0.54901961;stroke:none" />
    <rect
       y="60"
       x="0"
       height="4"
       width="64"
       id="rect4163"
       style="fill:#604c29;fill-opacity:0.54901961;stroke:none" />
    <rect
       style="fill:#ccb088;fill-opacity:0.54901961;stroke:none"
       id="rect4165"
       width="64"
       height="4"
       x="0"
       y="32" />
  </g>
</svg>
