<?xml version="1.0" encoding="UTF-8" standalone="no"?>
<!-- Created with Inkscape (http://www.inkscape.org/) -->

<svg
   xmlns:dc="http://purl.org/dc/elements/1.1/"
   xmlns:cc="http://creativecommons.org/ns#"
   xmlns:rdf="http://www.w3.org/1999/02/22-rdf-syntax-ns#"
   xmlns:svg="http://www.w3.org/2000/svg"
   xmlns="http://www.w3.org/2000/svg"
   xmlns:xlink="http://www.w3.org/1999/xlink"
   xmlns:sodipodi="http://sodipodi.sourceforge.net/DTD/sodipodi-0.dtd"
   xmlns:inkscape="http://www.inkscape.org/namespaces/inkscape"
   width="128"
   height="128"
   id="svg2985"
   version="1.1"
   inkscape:version="0.48.2 r9819"
   sodipodi:docname="pumpkin_face_on.svg"
   inkscape:export-filename="/Users/ianw/drawing.png"
   inkscape:export-xdpi="180"
   inkscape:export-ydpi="180">
  <title
     id="title3119">Template</title>
  <defs
     id="defs2987">
    <linearGradient
       id="linearGradient4343">
      <stop
         id="stop4345"
         offset="0"
         style="stop-color:#fff663;stop-opacity:1;" />
      <stop
         id="stop4347"
         offset="1"
         style="stop-color:#ffbb3e;stop-opacity:1;" />
    </linearGradient>
    <linearGradient
       id="linearGradient4240">
      <stop
         style="stop-color:#000000;stop-opacity:1;"
         offset="0"
         id="stop4242" />
      <stop
         style="stop-color:#624917;stop-opacity:1;"
         offset="1"
         id="stop4244" />
    </linearGradient>
    <linearGradient
       id="linearGradient4224">
      <stop
         style="stop-color:#fb9d00;stop-opacity:1;"
         offset="0"
         id="stop4226" />
      <stop
         style="stop-color:#e89a00;stop-opacity:1;"
         offset="1"
         id="stop4228" />
    </linearGradient>
    <linearGradient
       id="linearGradient4213">
      <stop
         style="stop-color:#ef9e11;stop-opacity:1;"
         offset="0"
         id="stop4215" />
      <stop
         style="stop-color:#eec73e;stop-opacity:1;"
         offset="1"
         id="stop4217" />
    </linearGradient>
    <linearGradient
       id="linearGradient4205">
      <stop
         style="stop-color:#ffd02c;stop-opacity:0.63963962;"
         offset="0"
         id="stop4207" />
      <stop
         style="stop-color:#eec73e;stop-opacity:1;"
         offset="1"
         id="stop4209" />
    </linearGradient>
    <linearGradient
       id="linearGradient3827">
      <stop
         style="stop-color:#e89a00;stop-opacity:1;"
         offset="0"
         id="stop3829" />
      <stop
         style="stop-color:#eebd5e;stop-opacity:1;"
         offset="1"
         id="stop3831" />
    </linearGradient>
    <linearGradient
       id="linearGradient7292">
      <stop
         style="stop-color:#fcfcf4;stop-opacity:1;"
         offset="0"
         id="stop7294" />
      <stop
         id="stop7302"
         offset="0.16666667"
         style="stop-color:#fcfcf4;stop-opacity:0;" />
      <stop
         id="stop7300"
         offset="0.83333331"
         style="stop-color:#d3d270;stop-opacity:0;" />
      <stop
         style="stop-color:#d3d270;stop-opacity:1;"
         offset="1"
         id="stop7296" />
    </linearGradient>
    <linearGradient
       id="linearGradient4011">
      <stop
         id="stop4013"
         offset="0"
         style="stop-color:#816647;stop-opacity:1" />
      <stop
         id="stop4015"
         offset="1"
         style="stop-color:#000000;stop-opacity:0" />
    </linearGradient>
    <linearGradient
       inkscape:collect="always"
       xlink:href="#linearGradient7292"
       id="linearGradient7298"
       x1="160"
       y1="16"
       x2="288"
       y2="48"
       gradientUnits="userSpaceOnUse"
       gradientTransform="translate(-16,-112)" />
    <linearGradient
       inkscape:collect="always"
       xlink:href="#linearGradient7292"
       id="linearGradient7306"
       gradientUnits="userSpaceOnUse"
       gradientTransform="translate(-16,-112)"
       x1="220"
       y1="0"
       x2="228"
       y2="64" />
    <linearGradient
       inkscape:collect="always"
       xlink:href="#linearGradient7292"
       id="linearGradient7312"
       gradientUnits="userSpaceOnUse"
       gradientTransform="translate(-16,-112)"
       x1="160"
       y1="16"
       x2="288"
       y2="48" />
    <linearGradient
       inkscape:collect="always"
       xlink:href="#linearGradient7292"
       id="linearGradient7314"
       gradientUnits="userSpaceOnUse"
       gradientTransform="translate(-16,-112)"
       x1="220"
       y1="0"
       x2="228"
       y2="64" />
    <radialGradient
       inkscape:collect="always"
       xlink:href="#linearGradient3827"
       id="radialGradient3833"
       cx="128"
       cy="128"
       fx="128"
       fy="128"
       r="64"
       gradientUnits="userSpaceOnUse"
       gradientTransform="matrix(0,-3,3,0,-256,512)" />
    <radialGradient
       inkscape:collect="always"
       xlink:href="#linearGradient3827"
       id="radialGradient4087"
       gradientUnits="userSpaceOnUse"
       gradientTransform="matrix(0,-3,3,0,-256,512)"
       cx="128"
       cy="128"
       fx="128"
       fy="128"
       r="64" />
    <radialGradient
       inkscape:collect="always"
       xlink:href="#linearGradient3827"
       id="radialGradient4089"
       gradientUnits="userSpaceOnUse"
       gradientTransform="matrix(0,-3,3,0,-256,512)"
       cx="128"
       cy="128"
       fx="128"
       fy="128"
       r="64" />
    <radialGradient
       inkscape:collect="always"
       xlink:href="#linearGradient3827"
       id="radialGradient4155"
       gradientUnits="userSpaceOnUse"
       gradientTransform="matrix(0,-3,3,0,-256,512)"
       cx="128"
       cy="128"
       fx="128"
       fy="128"
       r="64" />
    <radialGradient
       inkscape:collect="always"
       xlink:href="#linearGradient3827"
       id="radialGradient4157"
       gradientUnits="userSpaceOnUse"
       gradientTransform="matrix(0,-3,3,0,-256,512)"
       cx="128"
       cy="128"
       fx="128"
       fy="128"
       r="64" />
    <radialGradient
       inkscape:collect="always"
       xlink:href="#linearGradient4213"
       id="radialGradient4221"
       cx="64"
       cy="-64"
       fx="64"
       fy="-64"
       r="64"
       gradientUnits="userSpaceOnUse"
       gradientTransform="matrix(2,0,0,2,-64,192)" />
    <radialGradient
       inkscape:collect="always"
       xlink:href="#linearGradient4224"
       id="radialGradient4230"
       cx="64"
       cy="192"
       fx="64"
       fy="192"
       r="64"
       gradientUnits="userSpaceOnUse"
       gradientTransform="matrix(0,-2,2,0,-320,64)" />
    <linearGradient
       inkscape:collect="always"
       xlink:href="#linearGradient4240"
       id="linearGradient4246"
       x1="31.988363"
       y1="24.732212"
       x2="51.339294"
       y2="41.40456"
       gradientUnits="userSpaceOnUse" />
    <linearGradient
       inkscape:collect="always"
       xlink:href="#linearGradient4240"
       id="linearGradient4254"
       x1="78.073326"
       y1="29.778028"
       x2="110.4144"
       y2="47.359772"
       gradientUnits="userSpaceOnUse" />
    <linearGradient
       inkscape:collect="always"
       xlink:href="#linearGradient4240"
       id="linearGradient4262"
       x1="57.881115"
       y1="53.277584"
       x2="82.77285"
       y2="66.918594"
       gradientUnits="userSpaceOnUse" />
    <linearGradient
       inkscape:collect="always"
       xlink:href="#linearGradient4240"
       id="linearGradient4270"
       x1="13.843578"
       y1="68.460556"
       x2="107.79061"
       y2="107.26165"
       gradientUnits="userSpaceOnUse" />
    <linearGradient
       inkscape:collect="always"
       xlink:href="#linearGradient4343"
       id="linearGradient4349"
       gradientUnits="userSpaceOnUse"
       x1="31.988363"
       y1="24.732212"
       x2="51.339294"
       y2="41.40456" />
    <linearGradient
       inkscape:collect="always"
       xlink:href="#linearGradient4343"
       id="linearGradient4351"
       gradientUnits="userSpaceOnUse"
       x1="78.073326"
       y1="29.778028"
       x2="110.4144"
       y2="47.359772" />
    <linearGradient
       inkscape:collect="always"
       xlink:href="#linearGradient4343"
       id="linearGradient4353"
       gradientUnits="userSpaceOnUse"
       x1="57.881115"
       y1="53.277584"
       x2="82.77285"
       y2="66.918594" />
    <linearGradient
       inkscape:collect="always"
       xlink:href="#linearGradient4343"
       id="linearGradient4355"
       gradientUnits="userSpaceOnUse"
       x1="13.843578"
       y1="68.460556"
       x2="107.79061"
       y2="107.26165" />
    <filter
       inkscape:label="Glow"
       inkscape:menu="Shadows and Glows"
       inkscape:menu-tooltip="Glow of object's own color at the edges"
       color-interpolation-filters="sRGB"
       id="filter4693">
      <feGaussianBlur
         stdDeviation="5"
         result="result91"
         id="feGaussianBlur4695" />
      <feComposite
         in="SourceGraphic"
         operator="over"
         in2="result91"
         id="feComposite4697" />
    </filter>
    <filter
       inkscape:label="Glow"
       inkscape:menu="Shadows and Glows"
       inkscape:menu-tooltip="Glow of object's own color at the edges"
       color-interpolation-filters="sRGB"
       id="filter4699">
      <feGaussianBlur
         stdDeviation="5"
         result="result91"
         id="feGaussianBlur4701" />
      <feComposite
         in="SourceGraphic"
         operator="over"
         in2="result91"
         id="feComposite4703" />
    </filter>
    <filter
       inkscape:label="Glow"
       inkscape:menu="Shadows and Glows"
       inkscape:menu-tooltip="Glow of object's own color at the edges"
       color-interpolation-filters="sRGB"
       id="filter4705">
      <feGaussianBlur
         stdDeviation="5"
         result="result91"
         id="feGaussianBlur4707" />
      <feComposite
         in="SourceGraphic"
         operator="over"
         in2="result91"
         id="feComposite4709" />
    </filter>
    <filter
       inkscape:label="Glow"
       inkscape:menu="Shadows and Glows"
       inkscape:menu-tooltip="Glow of object's own color at the edges"
       color-interpolation-filters="sRGB"
       id="filter4711">
      <feGaussianBlur
         stdDeviation="3.2529189189189189"
         result="result91"
         id="feGaussianBlur4713" />
      <feComposite
         in="SourceGraphic"
         operator="over"
         in2="result91"
         id="feComposite4715" />
    </filter>
    <radialGradient
       inkscape:collect="always"
       xlink:href="#linearGradient4343"
       id="radialGradient4726"
       cx="63.724075"
       cy="73.860695"
       fx="63.724075"
       fy="73.860695"
       r="60.187702"
       gradientTransform="matrix(-0.00242989,-1.4127656,1.1255514,-0.00193591,198.62059,184.85061)"
       gradientUnits="userSpaceOnUse" />
  </defs>
  <sodipodi:namedview
     id="base"
     pagecolor="#ffffff"
     bordercolor="#000000"
     borderopacity="1"
     inkscape:pageopacity="0.0"
     inkscape:pageshadow="2"
     inkscape:zoom="2.3326578"
     inkscape:cx="91.81182"
     inkscape:cy="187.56382"
     inkscape:current-layer="layer2"
     showgrid="true"
     inkscape:document-units="px"
     inkscape:grid-bbox="true"
     inkscape:snap-bbox="true"
     inkscape:snap-nodes="true"
     inkscape:snap-grids="true"
     inkscape:window-width="2560"
     inkscape:window-height="1305"
     inkscape:window-x="0"
     inkscape:window-y="0"
     inkscape:window-maximized="1"
     inkscape:showpageshadow="false"
     borderlayer="true"
     inkscape:snap-to-guides="false">
    <inkscape:grid
       type="xygrid"
       id="grid2993"
       empspacing="4"
       visible="true"
       enabled="true"
       snapvisiblegridlinesonly="true"
       spacingx="16px"
       spacingy="16px"
       empcolor="#d60053"
       empopacity="0.29803922" />
    <inkscape:grid
       type="xygrid"
       id="grid3043"
       empspacing="4"
       visible="true"
       enabled="true"
       snapvisiblegridlinesonly="true"
       color="#ff00f8"
       opacity="0.1254902"
       dotted="true" />
  </sodipodi:namedview>
  <metadata
     id="metadata2990">
    <rdf:RDF>
      <cc:Work
         rdf:about="">
        <dc:format>image/svg+xml</dc:format>
        <dc:type
           rdf:resource="http://purl.org/dc/dcmitype/StillImage" />
        <dc:title>Template</dc:title>
        <cc:license
           rdf:resource="https://www.gnu.org/copyleft/gpl.html" />
        <dc:creator>
          <cc:Agent>
            <dc:title>Ian Walters</dc:title>
          </cc:Agent>
        </dc:creator>
        <dc:source>SimpleRP</dc:source>
      </cc:Work>
    </rdf:RDF>
  </metadata>
  <g
     inkscape:groupmode="layer"
     id="layer2"
     inkscape:label="base"
     style="display:inline">
    <g
       id="g3835"
       transform="translate(210.91821,26.579124)">
      <rect
         y="0"
         x="0"
         height="128"
         width="128"
         id="rect3012"
         style="color:#000000;fill:url(#radialGradient3833);fill-opacity:1;fill-rule:nonzero;stroke:none;stroke-width:0.2;marker:none;visibility:visible;display:inline;overflow:visible;enable-background:accumulate" />
      <g
         style="opacity:0.7"
         id="g3049">
        <path
           style="fill:#fb8b00;fill-opacity:1;stroke:none"
           d="m 56,128 -16,0 0,-16 c 2.666667,5.33333 0.861623,10.11435 16,16 z"
           id="path3037"
           inkscape:connector-curvature="0"
           sodipodi:nodetypes="cccc" />
        <path
           style="fill:#eec73e;stroke:none"
           d="M 48,0 32,0 40,128 C 42.666667,85.33333 32.861623,47.085202 48,0 z"
           id="path3014"
           inkscape:connector-curvature="0"
           sodipodi:nodetypes="cccc" />
        <path
           sodipodi:nodetypes="cccc"
           inkscape:connector-curvature="0"
           id="path3033"
           d="m 16,0 16,0 0,16 C 29.333333,10.666666 31.138377,5.8856503 16,0 z"
           style="fill:#eec73e;stroke:none" />
        <path
           sodipodi:nodetypes="cccc"
           inkscape:connector-curvature="0"
           id="path3029"
           d="M 24,128 40,128 32,0 c -2.666667,42.66667 7.138377,80.914798 -8,128 z"
           style="fill:#fb8b00;stroke:none" />
        <path
           sodipodi:nodetypes="cccc"
           inkscape:connector-curvature="0"
           id="path3041"
           d="m 120,128 -16,0 0,-16 c 2.66667,5.33333 0.86162,10.11435 16,16 z"
           style="fill:#fb8b00;fill-opacity:1;stroke:none" />
        <path
           sodipodi:nodetypes="cccc"
           inkscape:connector-curvature="0"
           id="path3043"
           d="m 112,0 -16,0 8,128 C 106.66667,85.33333 96.861623,47.085202 112,0 z"
           style="fill:#eec73e;stroke:none" />
        <path
           style="fill:#eec73e;stroke:none"
           d="m 80,0 16,0 0,16 C 93.333333,10.666666 95.138377,5.8856503 80,0 z"
           id="path3045"
           inkscape:connector-curvature="0"
           sodipodi:nodetypes="cccc" />
        <path
           style="fill:#fb8b00;stroke:none"
           d="m 88,128 16,0 L 96,0 c -2.666667,42.66667 7.13838,80.914798 -8,128 z"
           id="path3047"
           inkscape:connector-curvature="0"
           sodipodi:nodetypes="cccc" />
      </g>
    </g>
    <g
       id="g3847">
      <rect
         style="color:#000000;fill:url(#radialGradient4087);fill-opacity:1;fill-rule:nonzero;stroke:none;stroke-width:0.2;marker:none;visibility:visible;display:inline;overflow:visible;enable-background:accumulate"
         id="rect3849"
         width="128"
         height="128"
         x="0"
         y="0" />
      <g
         id="g3851"
         style="opacity:0.7">
        <path
           sodipodi:nodetypes="cccc"
           inkscape:connector-curvature="0"
           id="path3853"
           d="m 56,128 -16,0 0,-16 c 2.666667,5.33333 0.861623,10.11435 16,16 z"
           style="fill:#fb8b00;fill-opacity:1;stroke:none" />
        <path
           sodipodi:nodetypes="cccc"
           inkscape:connector-curvature="0"
           id="path3855"
           d="M 48,0 32,0 40,128 C 42.666667,85.33333 32.861623,47.085202 48,0 z"
           style="fill:#eec73e;stroke:none" />
        <path
           style="fill:#eec73e;stroke:none"
           d="m 16,0 16,0 0,16 C 29.333333,10.666666 31.138377,5.8856503 16,0 z"
           id="path3857"
           inkscape:connector-curvature="0"
           sodipodi:nodetypes="cccc" />
        <path
           style="fill:#fb8b00;stroke:none"
           d="M 24,128 40,128 32,0 c -2.666667,42.66667 7.138377,80.914798 -8,128 z"
           id="path3859"
           inkscape:connector-curvature="0"
           sodipodi:nodetypes="cccc" />
        <path
           style="fill:#fb8b00;fill-opacity:1;stroke:none"
           d="m 120,128 -16,0 0,-16 c 2.66667,5.33333 0.86162,10.11435 16,16 z"
           id="path3861"
           inkscape:connector-curvature="0"
           sodipodi:nodetypes="cccc" />
        <path
           style="fill:#eec73e;stroke:none"
           d="m 112,0 -16,0 8,128 C 106.66667,85.33333 96.861623,47.085202 112,0 z"
           id="path3863"
           inkscape:connector-curvature="0"
           sodipodi:nodetypes="cccc" />
        <path
           sodipodi:nodetypes="cccc"
           inkscape:connector-curvature="0"
           id="path3865"
           d="m 80,0 16,0 0,16 C 93.333333,10.666666 95.138377,5.8856503 80,0 z"
           style="fill:#eec73e;stroke:none" />
        <path
           sodipodi:nodetypes="cccc"
           inkscape:connector-curvature="0"
           id="path3867"
           d="m 88,128 16,0 L 96,0 c -2.666667,42.66667 7.13838,80.914798 -8,128 z"
           style="fill:#fb8b00;stroke:none" />
      </g>
      <rect
         y="0"
         x="0"
         height="128"
         width="128"
         id="rect4085"
         style="color:#000000;fill:url(#radialGradient4089);fill-opacity:1;fill-rule:nonzero;stroke:none;stroke-width:0.2;marker:none;visibility:visible;display:inline;overflow:visible;enable-background:accumulate" />
    </g>
    <path
       id="use4111"
       style="fill:url(#radialGradient4221);fill-opacity:1;stroke:none"
       d="m 128,16 -64,47.999998 64,-16 z M 16,-2.9999998e-7 64,63.999998 48,-2.9999998e-7 z M 0,112 64,63.999998 l -64,16 z M 112,128 64,63.999998 80,128 z m 16,-16 -64,-48.000002 64,16 z M 112,-3e-7 64,63.999998 80,-3e-7 z M 0,16 l 64,47.999998 -64,-16 z M 16,128 64,63.999998 48,128 z"
       inkscape:connector-curvature="0" />
    <path
       style="fill:#339900;stroke:#015a01;stroke-width:1px;stroke-linecap:butt;stroke-linejoin:miter;stroke-opacity:1"
       d="m 48,63.999998 -4,-8 8,-4 4,-8 8,4 8,-4 4,8 8,4 -4,8 4,8 -8,4 -4,8 -8,-4 -8,4 -4,-8 -8,-4 z"
       id="path4091"
       inkscape:connector-curvature="0"
       sodipodi:nodetypes="ccccccccccccccccc" />
    <g
       transform="translate(0,-128)"
       id="g4113">
      <rect
         y="0"
         x="0"
         height="128"
         width="128"
         id="rect4115"
         style="color:#000000;fill:url(#radialGradient4155);fill-opacity:1;fill-rule:nonzero;stroke:none;stroke-width:0.2;marker:none;visibility:visible;display:inline;overflow:visible;enable-background:accumulate" />
      <g
         style="opacity:0.7"
         id="g4117">
        <path
           style="fill:#fb8b00;fill-opacity:1;stroke:none"
           d="m 56,128 -16,0 0,-16 c 2.666667,5.33333 0.861623,10.11435 16,16 z"
           id="path4119"
           inkscape:connector-curvature="0"
           sodipodi:nodetypes="cccc" />
        <path
           style="fill:#eec73e;stroke:none"
           d="M 48,0 32,0 40,128 C 42.666667,85.33333 32.861623,47.085202 48,0 z"
           id="path4121"
           inkscape:connector-curvature="0"
           sodipodi:nodetypes="cccc" />
        <path
           sodipodi:nodetypes="cccc"
           inkscape:connector-curvature="0"
           id="path4123"
           d="m 16,0 16,0 0,16 C 29.333333,10.666666 31.138377,5.8856503 16,0 z"
           style="fill:#eec73e;stroke:none" />
        <path
           sodipodi:nodetypes="cccc"
           inkscape:connector-curvature="0"
           id="path4125"
           d="M 24,128 40,128 32,0 c -2.666667,42.66667 7.138377,80.914798 -8,128 z"
           style="fill:#fb8b00;stroke:none" />
        <path
           sodipodi:nodetypes="cccc"
           inkscape:connector-curvature="0"
           id="path4127"
           d="m 120,128 -16,0 0,-16 c 2.66667,5.33333 0.86162,10.11435 16,16 z"
           style="fill:#fb8b00;fill-opacity:1;stroke:none" />
        <path
           sodipodi:nodetypes="cccc"
           inkscape:connector-curvature="0"
           id="path4129"
           d="m 112,0 -16,0 8,128 C 106.66667,85.33333 96.861623,47.085202 112,0 z"
           style="fill:#eec73e;stroke:none" />
        <path
           style="fill:#eec73e;stroke:none"
           d="m 80,0 16,0 0,16 C 93.333333,10.666666 95.138377,5.8856503 80,0 z"
           id="path4131"
           inkscape:connector-curvature="0"
           sodipodi:nodetypes="cccc" />
        <path
           style="fill:#fb8b00;stroke:none"
           d="m 88,128 16,0 L 96,0 c -2.666667,42.66667 7.13838,80.914798 -8,128 z"
           id="path4133"
           inkscape:connector-curvature="0"
           sodipodi:nodetypes="cccc" />
      </g>
      <rect
         style="color:#000000;fill:url(#radialGradient4157);fill-opacity:1;fill-rule:nonzero;stroke:none;stroke-width:0.2;marker:none;visibility:visible;display:inline;overflow:visible;enable-background:accumulate"
         id="rect4135"
         width="128"
         height="128"
         x="0"
         y="0" />
    </g>
    <path
       id="use4173"
       style="opacity:0.7;fill:url(#radialGradient4230);fill-opacity:1;stroke:none"
       d="M 104,0 64,-64 72,0 z M 0,-24 64,-64 0,-56 z m 24,-104 40,64 -8,-64 z M 0,-120 64,-64 0,-88 z M 8,0 64,-64 40,0 z m 120,-8 -64,-56 64,24 z m -8,-120 -56,64 24,-64 z m 8,24 -64,40 64,-8 z"
       inkscape:connector-curvature="0" />
    <path
       sodipodi:nodetypes="ccccccccccccccccc"
       inkscape:connector-curvature="0"
       id="path4153"
       d="M 58.666667,-64 57.333333,-66.66667 60,-68 61.333333,-70.66667 64,-69.33333 66.666667,-70.66667 68,-68 70.666667,-66.66667 69.333333,-64 70.666667,-61.33333 68,-60 66.666667,-57.33333 64,-58.66667 61.333333,-57.33333 60,-60 57.333333,-61.33333 z"
       style="fill:#d97800;fill-opacity:1;stroke:none" />
    <path
       style="fill:url(#linearGradient4270);fill-opacity:1;stroke:#000000;stroke-width:1;stroke-linecap:butt;stroke-linejoin:miter;stroke-miterlimit:4;stroke-opacity:1;stroke-dasharray:none;display:none"
       d="m 13.737311,68.524778 c 0,0 17.218526,32.743792 31.189573,40.014952 12.128961,6.31247 27.015,4.59137 39.67139,0 C 94.738999,104.86097 113.05015,75.407098 113.05015,75.407098 98.585634,83.526056 96.992812,87.164392 83.400206,89.015241 l 0,5.281363 -8.815864,0 0,-5.281363 C 51.109271,91.155849 28.86477,78.762319 13.737311,68.524778 z"
       id="path4232"
       inkscape:connector-curvature="0"
       sodipodi:nodetypes="csscccccc" />
    <path
       style="fill:url(#linearGradient4246);fill-opacity:1;stroke:#000000;stroke-width:1;stroke-linecap:butt;stroke-linejoin:miter;stroke-miterlimit:4;stroke-opacity:1;stroke-dasharray:none;display:none"
       d="m 23.69749,45.995969 c 0,0 7.600077,-19.417828 15.693019,-22.978736 C 49.235998,18.6852 62.055234,34.421488 62.055234,34.421488 46.024685,37.571452 38.697962,34.927406 23.69749,45.995969 z"
       id="path4234"
       inkscape:connector-curvature="0"
       sodipodi:nodetypes="cscc" />
    <path
       style="fill:url(#linearGradient4254);fill-opacity:1;stroke:#000000;stroke-width:1;stroke-linecap:butt;stroke-linejoin:miter;stroke-miterlimit:4;stroke-opacity:1;stroke-dasharray:none;display:none"
       d="m 74.632593,34.188935 c 0,0 12.835864,-13.008051 19.98782,-10.764758 9.325007,2.924897 14.990857,26.911894 14.990857,26.911894 C 99.196744,42.271587 88.970476,33.801503 74.632593,34.188935 z"
       id="path4236"
       inkscape:connector-curvature="0"
       sodipodi:nodetypes="cscc" />
    <path
       style="fill:url(#linearGradient4262);fill-opacity:1;stroke:#000000;stroke-width:1;stroke-linecap:butt;stroke-linejoin:miter;stroke-miterlimit:4;stroke-opacity:1;stroke-dasharray:none;display:none"
       d="m 53.834109,63.739688 c 1.668445,0 27.529339,2.847864 27.529339,2.847864 L 68.850112,44.211483 z"
       id="path4238"
       inkscape:connector-curvature="0" />
  </g>
  <g
     id="layer1"
     inkscape:label="mouth"
     inkscape:groupmode="layer"
     transform="translate(0,64)"
     style="display:none">
    <path
       style="fill:url(#linearGradient4270);fill-opacity:1;stroke:#000000;stroke-width:1;stroke-linecap:butt;stroke-linejoin:miter;stroke-miterlimit:4;stroke-opacity:1;stroke-dasharray:none;display:inline"
       d="m 13.737311,68.524778 c 0,0 17.218526,32.743792 31.189573,40.014952 12.128961,6.31247 27.015,4.59137 39.67139,0 C 94.738999,104.86097 113.05015,75.407098 113.05015,75.407098 98.585634,83.526056 96.992812,87.164392 83.400206,89.015241 l 0,5.281363 -8.815864,0 0,-5.281363 C 51.109271,91.155849 28.86477,78.762319 13.737311,68.524778 z"
       id="path4331"
       inkscape:connector-curvature="0"
       sodipodi:nodetypes="csscccccc"
       transform="translate(0,-64)" />
    <path
       style="fill:url(#linearGradient4246);fill-opacity:1;stroke:#000000;stroke-width:1;stroke-linecap:butt;stroke-linejoin:miter;stroke-miterlimit:4;stroke-opacity:1;stroke-dasharray:none;display:inline"
       d="m 23.69749,45.995969 c 0,0 7.600077,-19.417828 15.693019,-22.978736 C 49.235998,18.6852 62.055234,34.421488 62.055234,34.421488 46.024685,37.571452 38.697962,34.927406 23.69749,45.995969 z"
       id="path4333"
       inkscape:connector-curvature="0"
       sodipodi:nodetypes="cscc"
       transform="translate(0,-64)" />
    <path
       style="fill:url(#linearGradient4254);fill-opacity:1;stroke:#000000;stroke-width:1;stroke-linecap:butt;stroke-linejoin:miter;stroke-miterlimit:4;stroke-opacity:1;stroke-dasharray:none;display:inline"
       d="m 74.632593,34.188935 c 0,0 12.835864,-13.008051 19.98782,-10.764758 9.325007,2.924897 14.990857,26.911894 14.990857,26.911894 C 99.196744,42.271587 88.970476,33.801503 74.632593,34.188935 z"
       id="path4335"
       inkscape:connector-curvature="0"
       sodipodi:nodetypes="cscc"
       transform="translate(0,-64)" />
    <path
       style="fill:url(#linearGradient4262);fill-opacity:1;stroke:#000000;stroke-width:1;stroke-linecap:butt;stroke-linejoin:miter;stroke-miterlimit:4;stroke-opacity:1;stroke-dasharray:none;display:inline"
       d="m 53.834109,63.739688 c 1.668445,0 27.529339,2.847864 27.529339,2.847864 L 68.850112,44.211483 z"
       id="path4337"
       inkscape:connector-curvature="0"
       transform="translate(0,-64)" />
  </g>
  <g
     inkscape:groupmode="layer"
     id="layer3"
     inkscape:label="mouth light"
     style="display:inline">
    <path
       id="path4279"
       style="fill:url(#radialGradient4726);fill-opacity:1;stroke:#8f7103;stroke-width:1;stroke-linecap:butt;stroke-linejoin:miter;stroke-miterlimit:4;stroke-opacity:1;stroke-dasharray:none;display:inline;filter:url(#filter4711)"
       d="m 264.75232,90.318812 c 1.66844,0 27.52933,2.847864 27.52933,2.847864 L 279.76832,70.790607 z M 285.5508,60.768059 c 0,0 12.83586,-13.008051 19.98782,-10.764758 9.32501,2.924897 14.99086,26.911894 14.99086,26.911894 -10.41453,-8.064484 -20.6408,-16.534568 -34.97868,-16.147136 z m -50.9351,11.807034 c 0,0 7.60007,-19.417828 15.69302,-22.978736 9.84548,-4.332033 22.66472,11.404255 22.66472,11.404255 -16.03055,3.149964 -23.35727,0.505918 -38.35774,11.574481 z m -9.96018,22.528809 c 0,0 17.21852,32.743788 31.18957,40.014948 12.12896,6.31247 27.015,4.59137 39.67139,0 10.14073,-3.67876 28.45188,-33.13263 28.45188,-33.13263 -14.46452,8.11896 -16.05734,11.7573 -29.64995,13.60814 l 0,5.28137 -8.81586,0 0,-5.28137 c -23.47507,2.14061 -45.71957,-10.25292 -60.84703,-20.490458 z"
       inkscape:connector-curvature="0" />
  </g>
</svg>
