<?xml version="1.0" encoding="UTF-8" standalone="no"?>
<!-- Created with Inkscape (http://www.inkscape.org/) -->

<svg
   xmlns:dc="http://purl.org/dc/elements/1.1/"
   xmlns:cc="http://creativecommons.org/ns#"
   xmlns:rdf="http://www.w3.org/1999/02/22-rdf-syntax-ns#"
   xmlns:svg="http://www.w3.org/2000/svg"
   xmlns="http://www.w3.org/2000/svg"
   xmlns:xlink="http://www.w3.org/1999/xlink"
   xmlns:sodipodi="http://sodipodi.sourceforge.net/DTD/sodipodi-0.dtd"
   xmlns:inkscape="http://www.inkscape.org/namespaces/inkscape"
   width="128"
   height="128"
   id="svg2985"
   version="1.1"
   inkscape:version="0.48.4 r9939"
   sodipodi:docname="sand.svg"
   inkscape:export-filename="/Users/ianw/drawing.png"
   inkscape:export-xdpi="180"
   inkscape:export-ydpi="180">
  <title
     id="title3119">Template</title>
  <defs
     id="defs2987">
    <linearGradient
       id="linearGradient3849">
      <stop
         id="stop3851"
         offset="0"
         style="stop-color:#ffffff;stop-opacity:1;" />
      <stop
         style="stop-color:#d2b258;stop-opacity:1;"
         offset="0.17857143"
         id="stop3853" />
      <stop
         id="stop3855"
         offset="0.75"
         style="stop-color:#f7df9b;stop-opacity:0.71551722;" />
      <stop
         id="stop3857"
         offset="1"
         style="stop-color:#ffe9ab;stop-opacity:0" />
    </linearGradient>
    <filter
       id="filter3994"
       inkscape:label="Feather"
       inkscape:menu="ABCs"
       inkscape:menu-tooltip="Blurred mask on the edge without altering the contents"
       color-interpolation-filters="sRGB">
      <feGaussianBlur
         id="feGaussianBlur3996"
         result="result6"
         stdDeviation="1" />
      <feComposite
         id="feComposite3998"
         in2="result6"
         operator="atop"
         in="SourceGraphic"
         result="result91" />
      <feComposite
         id="feComposite4000"
         in2="result91"
         operator="in"
         result="result92" />
      <feComposite
         id="feComposite4002"
         in2="result92"
         operator="in" />
    </filter>
    <linearGradient
       inkscape:collect="always"
       xlink:href="#linearGradient3849"
       id="linearGradient3020"
       gradientUnits="userSpaceOnUse"
       gradientTransform="translate(205.6,71.2)"
       x1="64"
       y1="8"
       x2="64"
       y2="40" />
    <filter
       id="filter3030"
       inkscape:label="Feather"
       inkscape:menu="ABCs"
       inkscape:menu-tooltip="Blurred mask on the edge without altering the contents"
       color-interpolation-filters="sRGB">
      <feGaussianBlur
         id="feGaussianBlur3032"
         result="result6"
         stdDeviation="3" />
      <feComposite
         id="feComposite3034"
         in2="result6"
         operator="atop"
         in="SourceGraphic"
         result="result91" />
      <feComposite
         id="feComposite3036"
         in2="result91"
         operator="in"
         result="result92" />
      <feComposite
         id="feComposite3038"
         in2="result92"
         operator="in" />
    </filter>
  </defs>
  <sodipodi:namedview
     id="base"
     pagecolor="#ffffff"
     bordercolor="#000000"
     borderopacity="1"
     inkscape:pageopacity="0.0"
     inkscape:pageshadow="2"
     inkscape:zoom="3.9999998"
     inkscape:cx="126.40784"
     inkscape:cy="66.711558"
     inkscape:current-layer="layer1"
     showgrid="true"
     inkscape:document-units="px"
     inkscape:grid-bbox="true"
     inkscape:snap-bbox="true"
     inkscape:snap-nodes="true"
     inkscape:snap-grids="true"
     inkscape:window-width="1920"
     inkscape:window-height="1040"
     inkscape:window-x="-2"
     inkscape:window-y="-3"
     inkscape:window-maximized="1"
     inkscape:showpageshadow="false"
     borderlayer="true">
    <inkscape:grid
       type="xygrid"
       id="grid2993"
       empspacing="4"
       visible="true"
       enabled="true"
       snapvisiblegridlinesonly="true"
       spacingx="16px"
       spacingy="16px"
       empcolor="#d60053"
       empopacity="0.29803922" />
    <inkscape:grid
       type="xygrid"
       id="grid3043"
       empspacing="4"
       visible="true"
       enabled="true"
       snapvisiblegridlinesonly="true"
       color="#ff00f8"
       opacity="0.1254902"
       dotted="true" />
  </sodipodi:namedview>
  <metadata
     id="metadata2990">
    <rdf:RDF>
      <cc:Work
         rdf:about="">
        <dc:format>image/svg+xml</dc:format>
        <dc:type
           rdf:resource="http://purl.org/dc/dcmitype/StillImage" />
        <dc:title>Template</dc:title>
        <cc:license
           rdf:resource="https://www.gnu.org/copyleft/gpl.html" />
        <dc:creator>
          <cc:Agent>
            <dc:title>Ian Walters</dc:title>
          </cc:Agent>
        </dc:creator>
        <dc:source>SimpleRP</dc:source>
      </cc:Work>
    </rdf:RDF>
  </metadata>
  <g
     id="layer1"
     inkscape:label="Layer 1"
     inkscape:groupmode="layer"
     transform="translate(0,64)">
    <rect
       style="fill:#ffe9ab;fill-opacity:1"
       id="rect3047"
       width="128"
       height="128"
       x="0"
       y="0"
       transform="translate(0,-64)" />
    <path
       d="m 237.6,79.2 c 16,0 48,8 64,8 16,0 48,-8 64,-8 l 0,24 c -16,0 -48,8 -64,8 -16,0 -48,-8 -64,-8 z m 128,0 c 16,0 48,8 64,8 16,0 48,-8 64,-8 l 0,24 c -16,0 -48,8 -64,8 -16,0 -48,-8 -64,-8 z"
       style="fill:url(#linearGradient3020);fill-opacity:1;stroke:none;filter:url(#filter3994)"
       id="path4016"
       inkscape:connector-curvature="0" />
    <path
       style="fill:#fff6d5;stroke:none;filter:url(#filter3030)"
       d="m -25.6,-59.2 c 16,0 48,-16 64,-16 16,0 48,16 64,16 16,0 48,-16 64,-16 16,0 48,16 64,16 16,0 48,-16 64,-16 16,0 48,16 64,16 l 0,32 c -16,0 -48,-16 -64,-16 -16,0 -48,16 -64,16 -16,0 -48,-16 -64,-16 -16,0 -48,16 -64,16 -16,0 -48,-16 -64,-16 -16,0 -48,16 -64,16 l 0,-32"
       id="path3022"
       inkscape:connector-curvature="0"
       sodipodi:nodetypes="csssssccssssscc" />
    <path
       sodipodi:nodetypes="csssssccssssscc"
       inkscape:connector-curvature="0"
       id="path3200"
       d="m -25.6,4.8 c 16,0 48,-16 64,-16 16,0 48,16 64,16 16,0 48,-16 64,-16 16,0 48,16 64,16 16,0 48,-16 64,-16 16,0 48,16 64,16 l 0,32 c -16,0 -48,-16 -64,-16 -16,0 -48,16 -64,16 -16,0 -48,-16 -64,-16 -16,0 -48,16 -64,16 -16,0 -48,-16 -64,-16 -16,0 -48,16 -64,16 l 0,-32"
       style="fill:#fff6d5;stroke:none;filter:url(#filter3030)" />
    <path
       style="fill:#fff6d5;stroke:none;filter:url(#filter3030)"
       d="m -25.6,68.8 c 16,0 48,-16 64,-16 16,0 48,16 64,16 16,0 48,-16 64,-16 16,0 48,16 64,16 16,0 48,-16 64,-16 16,0 48,16 64,16 l 0,32 c -16,0 -48,-16 -64,-16 -16,0 -48,16 -64,16 -16,0 -48,-16 -64,-16 -16,0 -48,16 -64,16 -16,0 -48,-16 -64,-16 -16,0 -48,16 -64,16 l 0,-32"
       id="path3202"
       inkscape:connector-curvature="0"
       sodipodi:nodetypes="csssssccssssscc" />
  </g>
</svg>
