<?xml version="1.0" encoding="UTF-8" standalone="no"?>
<!-- Created with Inkscape (http://www.inkscape.org/) -->

<svg
   xmlns:dc="http://purl.org/dc/elements/1.1/"
   xmlns:cc="http://creativecommons.org/ns#"
   xmlns:rdf="http://www.w3.org/1999/02/22-rdf-syntax-ns#"
   xmlns:svg="http://www.w3.org/2000/svg"
   xmlns="http://www.w3.org/2000/svg"
   xmlns:xlink="http://www.w3.org/1999/xlink"
   xmlns:sodipodi="http://sodipodi.sourceforge.net/DTD/sodipodi-0.dtd"
   xmlns:inkscape="http://www.inkscape.org/namespaces/inkscape"
   width="128"
   height="128"
   id="svg2985"
   version="1.1"
   inkscape:version="0.48.2 r9819"
   sodipodi:docname="stonebrick_mossy.svg"
   inkscape:export-filename="/Users/ianw/drawing.png"
   inkscape:export-xdpi="180"
   inkscape:export-ydpi="180">
  <title
     id="title3119">Template</title>
  <defs
     id="defs2987">
    <linearGradient
       id="linearGradient3970">
      <stop
         id="stop3972"
         offset="0"
         style="stop-color:#b6b6b6;stop-opacity:1;" />
      <stop
         style="stop-color:#a5a4a8;stop-opacity:0.58823532;"
         offset="0.29749998"
         id="stop3736" />
      <stop
         style="stop-color:#95929a;stop-opacity:0.50196081;"
         offset="0.80242187"
         id="stop3734" />
      <stop
         id="stop3974"
         offset="1"
         style="stop-color:#756e7e;stop-opacity:0.50196081;" />
    </linearGradient>
    <linearGradient
       inkscape:collect="always"
       xlink:href="#linearGradient3970"
       id="linearGradient3724"
       x1="4"
       y1="4"
       x2="124"
       y2="60"
       gradientUnits="userSpaceOnUse" />
    <linearGradient
       inkscape:collect="always"
       xlink:href="#linearGradient3970"
       id="linearGradient3740"
       gradientUnits="userSpaceOnUse"
       x1="56"
       y1="-4"
       x2="64"
       y2="64"
       gradientTransform="translate(0,-64)" />
    <linearGradient
       inkscape:collect="always"
       xlink:href="#linearGradient3970"
       id="linearGradient3772"
       gradientUnits="userSpaceOnUse"
       x1="4"
       y1="4"
       x2="124"
       y2="60" />
    <linearGradient
       inkscape:collect="always"
       xlink:href="#linearGradient3970"
       id="linearGradient3774"
       gradientUnits="userSpaceOnUse"
       gradientTransform="translate(0,-64)"
       x1="56"
       y1="-4"
       x2="64"
       y2="64" />
    <linearGradient
       inkscape:collect="always"
       xlink:href="#linearGradient3970"
       id="linearGradient3782"
       gradientUnits="userSpaceOnUse"
       x1="4"
       y1="4"
       x2="124"
       y2="60" />
    <linearGradient
       inkscape:collect="always"
       xlink:href="#linearGradient3970"
       id="linearGradient3784"
       gradientUnits="userSpaceOnUse"
       gradientTransform="translate(0,-64)"
       x1="56"
       y1="-4"
       x2="64"
       y2="64" />
  </defs>
  <sodipodi:namedview
     id="base"
     pagecolor="#ffffff"
     bordercolor="#000000"
     borderopacity="1"
     inkscape:pageopacity="0.0"
     inkscape:pageshadow="2"
     inkscape:zoom="3.9999998"
     inkscape:cx="132.28799"
     inkscape:cy="18.213083"
     inkscape:current-layer="layer1"
     showgrid="true"
     inkscape:document-units="px"
     inkscape:grid-bbox="true"
     inkscape:snap-bbox="false"
     inkscape:snap-nodes="true"
     inkscape:snap-grids="false"
     inkscape:window-width="2560"
     inkscape:window-height="1305"
     inkscape:window-x="0"
     inkscape:window-y="0"
     inkscape:window-maximized="1"
     inkscape:showpageshadow="false"
     borderlayer="true">
    <inkscape:grid
       type="xygrid"
       id="grid2993"
       empspacing="4"
       visible="true"
       enabled="true"
       snapvisiblegridlinesonly="true"
       spacingx="16px"
       spacingy="16px"
       empcolor="#d60053"
       empopacity="0.29803922" />
    <inkscape:grid
       type="xygrid"
       id="grid3043"
       empspacing="4"
       visible="true"
       enabled="true"
       snapvisiblegridlinesonly="true"
       color="#ff00f8"
       opacity="0.1254902"
       dotted="true" />
  </sodipodi:namedview>
  <metadata
     id="metadata2990">
    <rdf:RDF>
      <cc:Work
         rdf:about="">
        <dc:format>image/svg+xml</dc:format>
        <dc:type
           rdf:resource="http://purl.org/dc/dcmitype/StillImage" />
        <dc:title>Template</dc:title>
        <cc:license
           rdf:resource="https://www.gnu.org/copyleft/gpl.html" />
        <dc:creator>
          <cc:Agent>
            <dc:title>Ian Walters</dc:title>
          </cc:Agent>
        </dc:creator>
        <dc:source>SimpleRP</dc:source>
      </cc:Work>
    </rdf:RDF>
  </metadata>
  <g
     id="layer1"
     inkscape:label="Layer 1"
     inkscape:groupmode="layer"
     transform="translate(0,64)">
    <rect
       style="fill:#585960;fill-opacity:1;stroke:none"
       id="rect3720"
       width="128"
       height="128"
       x="0"
       y="0"
       transform="translate(0,-64)" />
    <g
       id="g3762">
      <rect
         ry="8"
         transform="translate(0,-64)"
         y="4"
         x="4"
         height="56"
         width="120"
         id="rect3722"
         style="fill:url(#linearGradient3724);fill-opacity:1;stroke:none" />
      <rect
         style="fill:url(#linearGradient3740);fill-opacity:1;stroke:none"
         id="rect3738"
         width="120"
         height="56"
         x="4"
         y="-60"
         ry="8" />
    </g>
    <g
       id="g3766"
       transform="translate(-64,64)">
      <rect
         style="fill:url(#linearGradient3772);fill-opacity:1;stroke:none"
         id="rect3768"
         width="120"
         height="56"
         x="4"
         y="4"
         transform="translate(0,-64)"
         ry="8" />
      <rect
         ry="8"
         y="-60"
         x="4"
         height="56"
         width="120"
         id="rect3770"
         style="fill:url(#linearGradient3774);fill-opacity:1;stroke:none" />
    </g>
    <g
       transform="translate(64,64)"
       id="g3776">
      <rect
         ry="8"
         transform="translate(0,-64)"
         y="4"
         x="4"
         height="56"
         width="120"
         id="rect3778"
         style="fill:url(#linearGradient3782);fill-opacity:1;stroke:none" />
      <rect
         style="fill:url(#linearGradient3784);fill-opacity:1;stroke:none"
         id="rect3780"
         width="120"
         height="56"
         x="4"
         y="-60"
         ry="8" />
    </g>
    <g
       transform="matrix(0.50795426,0.55108134,-0.55881793,0.50092185,-54.762888,-31.572049)"
       id="g3114">
      <g
         id="g3116"
         transform="matrix(-0.99634391,0.08543304,-0.08543304,-0.99634391,34.83547,-25.02087)">
        <path
           transform="translate(0,-64)"
           inkscape:connector-curvature="0"
           id="path3118"
           d="m -41.012193,78.856079 c 0,0 -5.303301,-5.303301 -10.076272,-6.010408 -4.772971,-0.707107 -12.727922,2.12132 -14.495689,3.712311 -1.767767,1.59099 9.722718,6.187184 14.318912,5.833631 4.596194,-0.353554 10.253049,-3.535534 10.253049,-3.535534 z"
           style="fill:#339900;stroke:#015a01;stroke-width:1px;stroke-linecap:butt;stroke-linejoin:miter;stroke-opacity:1" />
        <path
           inkscape:connector-curvature="0"
           id="path3120"
           d="m -44.90128,14.325748 -15.55635,-1.06066"
           style="fill:none;stroke:#98fc66;stroke-width:1px;stroke-linecap:round;stroke-linejoin:miter;stroke-opacity:1" />
      </g>
    </g>
    <g
       id="g5408"
       transform="matrix(-0.87149925,0.49039683,-0.49039683,-0.87149925,480.51467,240.30609)"
       inkscape:transform-center-x="75.25"
       inkscape:transform-center-y="-23.25" />
    <g
       id="g3122"
       transform="matrix(-0.41298617,0.62542033,-0.62045141,-0.42218506,96.14563,-76.0261)">
      <g
         transform="matrix(-0.99634391,0.08543304,-0.08543304,-0.99634391,34.83547,-25.02087)"
         id="g3124">
        <path
           style="fill:#339900;stroke:#015a01;stroke-width:1px;stroke-linecap:butt;stroke-linejoin:miter;stroke-opacity:1"
           d="m -41.012193,78.856079 c 0,0 -5.303301,-5.303301 -10.076272,-6.010408 -4.772971,-0.707107 -12.727922,2.12132 -14.495689,3.712311 -1.767767,1.59099 9.722718,6.187184 14.318912,5.833631 4.596194,-0.353554 10.253049,-3.535534 10.253049,-3.535534 z"
           id="path3126"
           inkscape:connector-curvature="0"
           transform="translate(0,-64)" />
        <path
           style="fill:none;stroke:#98fc66;stroke-width:1px;stroke-linecap:round;stroke-linejoin:miter;stroke-opacity:1"
           d="m -44.90128,14.325748 -15.55635,-1.06066"
           id="path3128"
           inkscape:connector-curvature="0" />
      </g>
    </g>
    <g
       id="g5844"
       transform="matrix(-0.67881251,0.73431163,-0.73431163,-0.67881251,86.395834,-111.56753)">
      <g
         transform="matrix(-0.99634391,0.08543304,-0.08543304,-0.99634391,34.83547,-25.02087)"
         id="g5846">
        <path
           style="fill:#339900;stroke:#015a01;stroke-width:1px;stroke-linecap:butt;stroke-linejoin:miter;stroke-opacity:1"
           d="m -41.012193,78.856079 c 0,0 -5.303301,-5.303301 -10.076272,-6.010408 -4.772971,-0.707107 -12.727922,2.12132 -14.495689,3.712311 -1.767767,1.59099 9.722718,6.187184 14.318912,5.833631 4.596194,-0.353554 10.253049,-3.535534 10.253049,-3.535534 z"
           id="path5848"
           inkscape:connector-curvature="0"
           transform="translate(0,-64)" />
        <path
           style="fill:none;stroke:#98fc66;stroke-width:1px;stroke-linecap:round;stroke-linejoin:miter;stroke-opacity:1"
           d="m -44.90128,14.325748 -15.55635,-1.06066"
           id="path5850"
           inkscape:connector-curvature="0" />
      </g>
    </g>
    <path
       style="fill:#339900;fill-opacity:1;stroke:#015a01;stroke-width:1px;stroke-linecap:butt;stroke-linejoin:miter;stroke-opacity:1"
       d="m 16.04846,-0.59277 c -0.34093,-1.13579 0.47597,-2.77829 1.59099,-3.18198 2.90288,-1.05099 5.39873,3.77881 8.48528,3.71231 6.7109,-0.1446 13.82026,-0.33358 19.44544,-1.41422 4.46679,-0.8581 1.31548,-9.74831 3.61181,-9.81371 2.30922,-0.0658 5.21192,-1.29212 4.66942,0.95343 -0.62974,2.60662 -0.0416,6.54248 0.3986,9.83693998 0.63915,4.78345002 10.195626,6.18353182 16.213199,4.06712952 4.896922,-1.7222652 18.27265,-4.91279 13.645821,0.50888 -2.746607,3.2184445 -6.993498,2.6880172 -12.17094,5.1302103 -2.3264,1.0312902 -4.81901,6.6221202 -5.04442,9.1568502 -0.38738,4.35602 0.08814,12.95957 0.0769,17.42615 -0.006,2.50347 1.70763,9.31431 1.26409,11.77817 -0.21421,1.18993 -0.55879,1.9581 -1.76777,1.94455 -3.45837,-0.0388 -1.69419,-5.58824 -4.8085,-7.09252 -2.94185,-1.42097 -5.44849,7.21166 -7.97272,5.13756 -0.86383,-0.70979 -1.74471,-2.29763 -1.06066,-3.18198 2.13197,-2.75628 4.545022,-5.828026 6.42982,-8.75888 1.94196,-3.01974 2.255999,-9.851309 1.32475,-16.30635 C 59.522847,13.371318 61.301115,9.3894625 57.25,6.7499999 54.086402,4.6887896 51.71371,4.68213 48,4 45.767126,3.6723606 25.36399,3.3782949 24,4 21.164298,5.2925098 26.18954,9.78241 24,12 23.01592,12.99669 20.94234,11.9116 19.93414,10.93934 17.27715,8.37703 20.78977,6.89516 18.5,4 16.60027,1.59802 16.92891,2.34036 16.04846,-0.59277 z"
       id="path3112"
       inkscape:connector-curvature="0"
       sodipodi:nodetypes="ssssssssscsssssssssscsssss" />
  </g>
</svg>
