<?xml version="1.0" encoding="UTF-8" standalone="no"?>
<!-- Created with Inkscape (http://www.inkscape.org/) -->

<svg
   xmlns:dc="http://purl.org/dc/elements/1.1/"
   xmlns:cc="http://creativecommons.org/ns#"
   xmlns:rdf="http://www.w3.org/1999/02/22-rdf-syntax-ns#"
   xmlns:svg="http://www.w3.org/2000/svg"
   xmlns="http://www.w3.org/2000/svg"
   xmlns:xlink="http://www.w3.org/1999/xlink"
   xmlns:sodipodi="http://sodipodi.sourceforge.net/DTD/sodipodi-0.dtd"
   xmlns:inkscape="http://www.inkscape.org/namespaces/inkscape"
   width="128"
   height="128"
   id="svg2985"
   version="1.1"
   inkscape:version="0.48.2 r9819"
   sodipodi:docname="stone.svg"
   inkscape:export-filename="/Users/ianw/drawing.png"
   inkscape:export-xdpi="180"
   inkscape:export-ydpi="180">
  <title
     id="title3119">Template</title>
  <defs
     id="defs2987">
    <linearGradient
       id="linearGradient4002">
      <stop
         id="stop4004"
         offset="0"
         style="stop-color:#ababab;stop-opacity:0.54237288;" />
      <stop
         style="stop-color:#ababab;stop-opacity:0;"
         offset="0.83333331"
         id="stop4006" />
      <stop
         id="stop4008"
         offset="1"
         style="stop-color:#676767;stop-opacity:1;" />
    </linearGradient>
    <linearGradient
       id="linearGradient3982">
      <stop
         style="stop-color:#afacac;stop-opacity:1;"
         offset="0"
         id="stop3992" />
      <stop
         id="stop3994"
         offset="0.83333331"
         style="stop-color:#ababab;stop-opacity:1;" />
      <stop
         style="stop-color:#ffffff;stop-opacity:1;"
         offset="1"
         id="stop3986" />
    </linearGradient>
    <radialGradient
       inkscape:collect="always"
       xlink:href="#linearGradient3982"
       id="radialGradient5623"
       gradientUnits="userSpaceOnUse"
       gradientTransform="matrix(-2.3095275e-7,-1.6666665,2.3333334,-3.2333388e-7,-297.33335,-10.666627)"
       cx="-64"
       cy="100"
       fx="-64"
       fy="100"
       r="12" />
    <radialGradient
       inkscape:collect="always"
       xlink:href="#linearGradient4002"
       id="radialGradient5625"
       gradientUnits="userSpaceOnUse"
       gradientTransform="matrix(-2.3095275e-7,-1.6666665,2.3333334,-3.2333388e-7,-297.33335,-10.666627)"
       cx="-64"
       cy="100"
       fx="-64"
       fy="100"
       r="12" />
    <filter
       id="filter6354"
       inkscape:label="Feather"
       inkscape:menu="ABCs"
       inkscape:menu-tooltip="Blurred mask on the edge without altering the contents"
       color-interpolation-filters="sRGB">
      <feGaussianBlur
         id="feGaussianBlur6356"
         result="result6"
         stdDeviation="0.5" />
      <feComposite
         id="feComposite6358"
         in2="result6"
         operator="atop"
         in="SourceGraphic"
         result="result91" />
      <feComposite
         id="feComposite6360"
         in2="result91"
         operator="in"
         result="result92" />
      <feComposite
         id="feComposite6362"
         in2="result92"
         operator="in" />
    </filter>
  </defs>
  <sodipodi:namedview
     id="base"
     pagecolor="#ffffff"
     bordercolor="#000000"
     borderopacity="1"
     inkscape:pageopacity="0.0"
     inkscape:pageshadow="2"
     inkscape:zoom="4"
     inkscape:cx="125.05178"
     inkscape:cy="79.048165"
     inkscape:current-layer="layer1"
     showgrid="true"
     inkscape:document-units="px"
     inkscape:grid-bbox="true"
     inkscape:snap-bbox="true"
     inkscape:snap-nodes="false"
     inkscape:snap-grids="true"
     inkscape:window-width="1580"
     inkscape:window-height="1281"
     inkscape:window-x="0"
     inkscape:window-y="0"
     inkscape:window-maximized="0"
     inkscape:showpageshadow="false"
     borderlayer="true"
     inkscape:snap-global="true">
    <inkscape:grid
       type="xygrid"
       id="grid2993"
       empspacing="4"
       visible="true"
       enabled="true"
       snapvisiblegridlinesonly="true"
       spacingx="16px"
       spacingy="16px"
       empcolor="#d60053"
       empopacity="0.29803922" />
    <inkscape:grid
       type="xygrid"
       id="grid3043"
       empspacing="4"
       visible="true"
       enabled="true"
       snapvisiblegridlinesonly="true"
       color="#ff00f8"
       opacity="0.1254902"
       dotted="true" />
  </sodipodi:namedview>
  <metadata
     id="metadata2990">
    <rdf:RDF>
      <cc:Work
         rdf:about="">
        <dc:format>image/svg+xml</dc:format>
        <dc:type
           rdf:resource="http://purl.org/dc/dcmitype/StillImage" />
        <dc:title>Template</dc:title>
        <cc:license
           rdf:resource="https://www.gnu.org/copyleft/gpl.html" />
        <dc:creator>
          <cc:Agent>
            <dc:title>Ian Walters</dc:title>
          </cc:Agent>
        </dc:creator>
        <dc:source>SimpleRP</dc:source>
      </cc:Work>
    </rdf:RDF>
  </metadata>
  <g
     id="layer1"
     inkscape:label="Layer 1"
     inkscape:groupmode="layer"
     transform="translate(0,64)">
    <rect
       style="fill:#666666;fill-opacity:1;stroke:#666666;stroke-width:0.25252819;stroke-miterlimit:4;stroke-opacity:1;stroke-dasharray:none"
       id="rect4827"
       width="63.747467"
       height="63.747471"
       x="-159.87373"
       y="64.126266" />
    <path
       style="fill:#339900;stroke:#015a01;stroke-width:1px;stroke-linecap:butt;stroke-linejoin:miter;stroke-opacity:1"
       d="m -67.5,185.34375 c 4,0 27.43811,6.37693 31.327197,13.09445 3.889088,6.71751 16.528621,4.94974 21.478369,9.01561 4.949747,4.06586 10.006866,11.7522 8.701826,13.05724 -1,1 -6.645899,4.6459 -10,8 -4,4 -4,8 -4,12 0,4 0.260038,8.83883 0.260038,8.83883 l 5.419417,0 c -0.0029,-0.13306 -1.679455,-0.83883 -1.679455,-8.83883 0,-8 8.280853,-16.44023 13.053824,-18.38478 4.772971,-1.94454 12.020815,-5.12652 18.915106,-3.71231 6.894292,1.41422 1.679379,-2.91681 6.098796,0.0884 4.419414,3.0052 27.665554,-1.5026 27.665554,-1.5026 l -4.59619,-1.41421 c 0,0 -4.41942,1.41421 -6.18719,1.23743 -1.76777,-0.17677 -3.35876,-7.95495 -5.83363,-10.25305 -2.474874,-2.29809 -4.949748,-1.94454 -6.894291,-1.59099 -1.944544,0.35356 -1.944544,-2.47487 -1.767767,3.18198 0.176776,5.65686 -5.656854,7.24785 -5.656854,7.24785 0,0 -15.733126,0.70711 -17.67767,0.35355 -1.944544,-0.35356 -8.131728,-8.13174 -11.667262,-10.78339 -3.535534,-2.65165 -9.192388,-1.59099 -16.440233,-6.71751 -7.247844,-5.12652 -15.026019,-12.55115 -19.622213,-14.31891 C -51.198822,182.17474 -63.484375,180.5 -67.484375,180.5 z"
       id="path5402"
       inkscape:connector-curvature="0"
       sodipodi:nodetypes="csssszcczsssccsssscsssscc" />
    <g
       id="g4829"
       transform="matrix(2.5545969,0,0,2.8318953,86.58614,103.36209)"
       style="stroke:#666666">
      <path
         transform="translate(-8,-68)"
         d="m -64,88 c 0,4.418278 -5.372583,8 -12,8 -6.627417,0 -12,-3.581722 -12,-8 0,-4.418278 5.372583,-8 12,-8 6.627417,0 12,3.581722 12,8 z"
         sodipodi:ry="8"
         sodipodi:rx="12"
         sodipodi:cy="88"
         sodipodi:cx="-76"
         id="path4831"
         style="fill:url(#radialGradient5623);fill-opacity:1;stroke:#666666"
         sodipodi:type="arc" />
      <path
         sodipodi:type="arc"
         style="fill:url(#radialGradient5625);fill-opacity:1;stroke:#666666"
         id="path4833"
         sodipodi:cx="-76"
         sodipodi:cy="88"
         sodipodi:rx="12"
         sodipodi:ry="8"
         d="m -64,88 c 0,4.418278 -5.372583,8 -12,8 -6.627417,0 -12,-3.581722 -12,-8 0,-4.418278 5.372583,-8 12,-8 6.627417,0 12,3.581722 12,8 z"
         transform="matrix(-1,0,0,-1,-160,108)" />
    </g>
    <g
       id="g5408"
       transform="matrix(-0.87149925,0.49039683,-0.49039683,-0.87149925,-67.531985,224.675)"
       inkscape:transform-center-x="75.25"
       inkscape:transform-center-y="-23.25">
      <path
         transform="translate(0,-64)"
         inkscape:connector-curvature="0"
         id="path5404"
         d="m -41.012193,78.856079 c 0,0 -5.303301,-5.303301 -10.076272,-6.010408 -4.772971,-0.707107 -12.727922,2.12132 -14.495689,3.712311 -1.767767,1.59099 9.722718,6.187184 14.318912,5.833631 4.596194,-0.353554 10.253049,-3.535534 10.253049,-3.535534 z"
         style="fill:#339900;stroke:#015a01;stroke-width:1px;stroke-linecap:butt;stroke-linejoin:miter;stroke-opacity:1" />
      <path
         inkscape:connector-curvature="0"
         id="path5406"
         d="m -44.90128,14.325748 -15.55635,-1.06066"
         style="fill:none;stroke:#98fc66;stroke-width:1px;stroke-linecap:round;stroke-linejoin:miter;stroke-opacity:1" />
    </g>
    <g
       id="g5422"
       transform="matrix(0.83268999,-0.55373944,0.55373944,0.83268999,56.178314,155.82955)">
      <path
         transform="translate(0,-64)"
         inkscape:connector-curvature="0"
         id="path5424"
         d="m -41.012193,78.856079 c 0,0 -5.303301,-5.303301 -10.076272,-6.010408 -4.772971,-0.707107 -12.727922,2.12132 -14.495689,3.712311 -1.767767,1.59099 9.722718,6.187184 14.318912,5.833631 4.596194,-0.353554 10.253049,-3.535534 10.253049,-3.535534 z"
         style="fill:#339900;stroke:#015a01;stroke-width:1px;stroke-linecap:butt;stroke-linejoin:miter;stroke-opacity:1" />
      <path
         inkscape:connector-curvature="0"
         id="path5426"
         d="m -44.90128,14.325748 -15.55635,-1.06066"
         style="fill:none;stroke:#98fc66;stroke-width:1px;stroke-linecap:round;stroke-linejoin:miter;stroke-opacity:1" />
    </g>
    <g
       id="g5522"
       transform="matrix(0.6275033,-0.7786139,0.7786139,0.6275033,73.668137,172.01907)">
      <path
         transform="translate(0,-64)"
         inkscape:connector-curvature="0"
         id="path5524"
         d="m -41.012193,78.856079 c 0,0 -5.303301,-5.303301 -10.076272,-6.010408 -4.772971,-0.707107 -12.727922,2.12132 -14.495689,3.712311 -1.767767,1.59099 9.722718,6.187184 14.318912,5.833631 4.596194,-0.353554 10.253049,-3.535534 10.253049,-3.535534 z"
         style="fill:#339900;stroke:#015a01;stroke-width:1px;stroke-linecap:butt;stroke-linejoin:miter;stroke-opacity:1" />
      <path
         inkscape:connector-curvature="0"
         id="path5526"
         d="m -44.90128,14.325748 -15.55635,-1.06066"
         style="fill:none;stroke:#98fc66;stroke-width:1px;stroke-linecap:round;stroke-linejoin:miter;stroke-opacity:1" />
    </g>
    <g
       id="g5844"
       transform="matrix(-0.67881251,0.73431163,-0.73431163,-0.67881251,-5.7920919,128.92074)">
      <g
         transform="matrix(-0.99634391,0.08543304,-0.08543304,-0.99634391,34.83547,-25.02087)"
         id="g5846">
        <path
           style="fill:#339900;stroke:#015a01;stroke-width:1px;stroke-linecap:butt;stroke-linejoin:miter;stroke-opacity:1"
           d="m -41.012193,78.856079 c 0,0 -5.303301,-5.303301 -10.076272,-6.010408 -4.772971,-0.707107 -12.727922,2.12132 -14.495689,3.712311 -1.767767,1.59099 9.722718,6.187184 14.318912,5.833631 4.596194,-0.353554 10.253049,-3.535534 10.253049,-3.535534 z"
           id="path5848"
           inkscape:connector-curvature="0"
           transform="translate(0,-64)" />
        <path
           style="fill:none;stroke:#98fc66;stroke-width:1px;stroke-linecap:round;stroke-linejoin:miter;stroke-opacity:1"
           d="m -44.90128,14.325748 -15.55635,-1.06066"
           id="path5850"
           inkscape:connector-curvature="0" />
      </g>
    </g>
    <rect
       style="fill:#acabab;fill-opacity:1;stroke:none"
       id="rect5049"
       width="128"
       height="128"
       x="0"
       y="-64" />
    <g
       id="g6277"
       style="filter:url(#filter6354);fill:#b9b9b9;fill-opacity:1">
      <path
         sodipodi:type="arc"
         style="fill:#b9b9b9;fill-opacity:1;stroke:none"
         id="use5648"
         sodipodi:cx="-14.495689"
         sodipodi:cy="69.398521"
         sodipodi:rx="4.7729707"
         sodipodi:ry="4.3310289"
         d="m -9.7227187,69.398521 a 4.7729707,4.3310289 0 1 1 -9.5459413,0 4.7729707,4.3310289 0 1 1 9.5459413,0 z"
         transform="matrix(1.4206831,0,0,1.4206831,56.251729,-54.259099)" />
      <path
         sodipodi:type="arc"
         style="fill:#b9b9b9;fill-opacity:1;stroke:none"
         id="use5650"
         sodipodi:cx="-14.495689"
         sodipodi:cy="69.398521"
         sodipodi:rx="4.7729707"
         sodipodi:ry="4.3310289"
         d="m -9.7227187,69.398521 a 4.7729707,4.3310289 0 1 1 -9.5459413,0 4.7729707,4.3310289 0 1 1 9.5459413,0 z"
         transform="matrix(0.28421309,0,0,0.28421309,90.337206,-41.052734)" />
      <path
         sodipodi:type="arc"
         style="fill:#b9b9b9;fill-opacity:1;stroke:none"
         id="use5652"
         sodipodi:cx="-14.495689"
         sodipodi:cy="69.398521"
         sodipodi:rx="4.7729707"
         sodipodi:ry="4.3310289"
         d="m -9.7227187,69.398521 a 4.7729707,4.3310289 0 1 1 -9.5459413,0 4.7729707,4.3310289 0 1 1 9.5459413,0 z"
         transform="matrix(0.91358688,0,0,0.91358688,79.575472,-117.95728)" />
      <path
         sodipodi:type="arc"
         style="fill:#b9b9b9;fill-opacity:1;stroke:none"
         id="use5654"
         sodipodi:cx="-14.495689"
         sodipodi:cy="69.398521"
         sodipodi:rx="4.7729707"
         sodipodi:ry="4.3310289"
         d="m -9.7227187,69.398521 a 4.7729707,4.3310289 0 1 1 -9.5459413,0 4.7729707,4.3310289 0 1 1 9.5459413,0 z"
         transform="matrix(1.7124309,0,0,1.7124309,132.99625,-179.42358)" />
      <path
         sodipodi:type="arc"
         style="fill:#b9b9b9;fill-opacity:1;stroke:none"
         id="use5658"
         sodipodi:cx="-14.495689"
         sodipodi:cy="69.398521"
         sodipodi:rx="4.7729707"
         sodipodi:ry="4.3310289"
         d="m -9.7227187,69.398521 a 4.7729707,4.3310289 0 1 1 -9.5459413,0 4.7729707,4.3310289 0 1 1 9.5459413,0 z"
         transform="matrix(0.7753894,0,0,0.7753894,135.4764,-75.761829)" />
      <path
         sodipodi:type="arc"
         style="fill:#b9b9b9;fill-opacity:1;stroke:none"
         id="use5660"
         sodipodi:cx="-14.495689"
         sodipodi:cy="69.398521"
         sodipodi:rx="4.7729707"
         sodipodi:ry="4.3310289"
         d="m -9.7227187,69.398521 a 4.7729707,4.3310289 0 1 1 -9.5459413,0 4.7729707,4.3310289 0 1 1 9.5459413,0 z"
         transform="matrix(1.034541,0,0,1.034541,143.93422,-131.31499)" />
      <path
         sodipodi:type="arc"
         style="fill:#b9b9b9;fill-opacity:1;stroke:none"
         id="use5664"
         sodipodi:cx="-14.495689"
         sodipodi:cy="69.398521"
         sodipodi:rx="4.7729707"
         sodipodi:ry="4.3310289"
         d="m -9.7227187,69.398521 a 4.7729707,4.3310289 0 1 1 -9.5459413,0 4.7729707,4.3310289 0 1 1 9.5459413,0 z"
         transform="matrix(0.78260699,0,0,0.78260699,135.23562,-89.657749)" />
      <path
         sodipodi:type="arc"
         style="fill:#b9b9b9;fill-opacity:1;stroke:none"
         id="use5666"
         sodipodi:cx="-14.495689"
         sodipodi:cy="69.398521"
         sodipodi:rx="4.7729707"
         sodipodi:ry="4.3310289"
         d="m -9.7227187,69.398521 a 4.7729707,4.3310289 0 1 1 -9.5459413,0 4.7729707,4.3310289 0 1 1 9.5459413,0 z"
         transform="matrix(1.6302117,0,0,1.6302117,132.27029,-112.12099)" />
      <path
         sodipodi:type="arc"
         style="fill:#b9b9b9;fill-opacity:1;stroke:none"
         id="use5668"
         sodipodi:cx="-14.495689"
         sodipodi:cy="69.398521"
         sodipodi:rx="4.7729707"
         sodipodi:ry="4.3310289"
         d="m -9.7227187,69.398521 a 4.7729707,4.3310289 0 1 1 -9.5459413,0 4.7729707,4.3310289 0 1 1 9.5459413,0 z"
         transform="matrix(1.0397929,0,0,1.0397929,113.71389,-33.614636)" />
      <path
         sodipodi:type="arc"
         style="fill:#b9b9b9;fill-opacity:1;stroke:none"
         id="use5670"
         sodipodi:cx="-14.495689"
         sodipodi:cy="69.398521"
         sodipodi:rx="4.7729707"
         sodipodi:ry="4.3310289"
         d="m -9.7227187,69.398521 a 4.7729707,4.3310289 0 1 1 -9.5459413,0 4.7729707,4.3310289 0 1 1 9.5459413,0 z"
         transform="matrix(0.3432862,0,0,0.3432862,99.725177,1.2934396)" />
      <path
         sodipodi:type="arc"
         style="fill:#b9b9b9;fill-opacity:1;stroke:none"
         id="use5672"
         sodipodi:cx="-14.495689"
         sodipodi:cy="69.398521"
         sodipodi:rx="4.7729707"
         sodipodi:ry="4.3310289"
         d="m -9.7227187,69.398521 a 4.7729707,4.3310289 0 1 1 -9.5459413,0 4.7729707,4.3310289 0 1 1 9.5459413,0 z"
         transform="matrix(1.4576757,0,0,1.4576757,121.3127,-68.518054)" />
      <path
         sodipodi:type="arc"
         style="fill:#b9b9b9;fill-opacity:1;stroke:none"
         id="use5674"
         sodipodi:cx="-14.495689"
         sodipodi:cy="69.398521"
         sodipodi:rx="4.7729707"
         sodipodi:ry="4.3310289"
         d="m -9.7227187,69.398521 a 4.7729707,4.3310289 0 1 1 -9.5459413,0 4.7729707,4.3310289 0 1 1 9.5459413,0 z"
         transform="matrix(1.2658129,0,0,1.2658129,105.20602,-32.269736)" />
      <path
         sodipodi:type="arc"
         style="fill:#b9b9b9;fill-opacity:1;stroke:none"
         id="use5676"
         sodipodi:cx="-14.495689"
         sodipodi:cy="69.398521"
         sodipodi:rx="4.7729707"
         sodipodi:ry="4.3310289"
         d="m -9.7227187,69.398521 a 4.7729707,4.3310289 0 1 1 -9.5459413,0 4.7729707,4.3310289 0 1 1 9.5459413,0 z"
         transform="matrix(0.54831577,0,0,0.54831577,58.059621,-1.9464045)" />
      <path
         sodipodi:type="arc"
         style="fill:#b9b9b9;fill-opacity:1;stroke:none"
         id="use5678"
         sodipodi:cx="-14.495689"
         sodipodi:cy="69.398521"
         sodipodi:rx="4.7729707"
         sodipodi:ry="4.3310289"
         d="m -9.7227187,69.398521 a 4.7729707,4.3310289 0 1 1 -9.5459413,0 4.7729707,4.3310289 0 1 1 9.5459413,0 z"
         transform="matrix(1.3529866,0,0,1.3529866,71.153975,-79.221463)" />
      <path
         sodipodi:type="arc"
         style="fill:#b9b9b9;fill-opacity:1;stroke:none"
         id="use5680"
         sodipodi:cx="-14.495689"
         sodipodi:cy="69.398521"
         sodipodi:rx="4.7729707"
         sodipodi:ry="4.3310289"
         d="m -9.7227187,69.398521 a 4.7729707,4.3310289 0 1 1 -9.5459413,0 4.7729707,4.3310289 0 1 1 9.5459413,0 z"
         transform="matrix(0.57082837,0,0,0.57082837,76.516521,-20.579496)" />
      <path
         sodipodi:type="arc"
         style="fill:#b9b9b9;fill-opacity:1;stroke:none"
         id="use5682"
         sodipodi:cx="-14.495689"
         sodipodi:cy="69.398521"
         sodipodi:rx="4.7729707"
         sodipodi:ry="4.3310289"
         d="m -9.7227187,69.398521 a 4.7729707,4.3310289 0 1 1 -9.5459413,0 4.7729707,4.3310289 0 1 1 9.5459413,0 z"
         transform="matrix(1.4757147,0,0,1.4757147,91.43019,-116.79326)" />
      <path
         sodipodi:type="arc"
         style="fill:#b9b9b9;fill-opacity:1;stroke:none"
         id="use5684"
         sodipodi:cx="-14.495689"
         sodipodi:cy="69.398521"
         sodipodi:rx="4.7729707"
         sodipodi:ry="4.3310289"
         d="m -9.7227187,69.398521 a 4.7729707,4.3310289 0 1 1 -9.5459413,0 4.7729707,4.3310289 0 1 1 9.5459413,0 z"
         transform="matrix(0.95066018,0,0,0.95066018,77.883682,-66.072861)" />
      <path
         sodipodi:type="arc"
         style="fill:#b9b9b9;fill-opacity:1;stroke:none"
         id="use5686"
         sodipodi:cx="-14.495689"
         sodipodi:cy="69.398521"
         sodipodi:rx="4.7729707"
         sodipodi:ry="4.3310289"
         d="m -9.7227187,69.398521 a 4.7729707,4.3310289 0 1 1 -9.5459413,0 4.7729707,4.3310289 0 1 1 9.5459413,0 z"
         transform="matrix(0.67514465,0,0,0.67514465,70.447654,-42.53275)" />
      <path
         sodipodi:type="arc"
         style="fill:#b9b9b9;fill-opacity:1;stroke:none"
         id="use5688"
         sodipodi:cx="-14.495689"
         sodipodi:cy="69.398521"
         sodipodi:rx="4.7729707"
         sodipodi:ry="4.3310289"
         d="m -9.7227187,69.398521 a 4.7729707,4.3310289 0 1 1 -9.5459413,0 4.7729707,4.3310289 0 1 1 9.5459413,0 z"
         transform="matrix(1.2988069,0,0,1.2988069,66.679329,-108.50299)" />
      <path
         sodipodi:type="arc"
         style="fill:#b9b9b9;fill-opacity:1;stroke:none"
         id="use5690"
         sodipodi:cx="-14.495689"
         sodipodi:cy="69.398521"
         sodipodi:rx="4.7729707"
         sodipodi:ry="4.3310289"
         d="m -9.7227187,69.398521 a 4.7729707,4.3310289 0 1 1 -9.5459413,0 4.7729707,4.3310289 0 1 1 9.5459413,0 z"
         transform="matrix(1.1654878,0,0,1.1654878,14.457388,-67.835369)" />
      <path
         sodipodi:type="arc"
         style="fill:#b9b9b9;fill-opacity:1;stroke:none"
         id="use5692"
         sodipodi:cx="-14.495689"
         sodipodi:cy="69.398521"
         sodipodi:rx="4.7729707"
         sodipodi:ry="4.3310289"
         d="m -9.7227187,69.398521 a 4.7729707,4.3310289 0 1 1 -9.5459413,0 4.7729707,4.3310289 0 1 1 9.5459413,0 z"
         transform="matrix(1.3594269,0,0,1.3594269,48.926725,-72.029362)" />
      <path
         sodipodi:type="arc"
         style="fill:#b9b9b9;fill-opacity:1;stroke:none"
         id="use5694"
         sodipodi:cx="-14.495689"
         sodipodi:cy="69.398521"
         sodipodi:rx="4.7729707"
         sodipodi:ry="4.3310289"
         d="m -9.7227187,69.398521 a 4.7729707,4.3310289 0 1 1 -9.5459413,0 4.7729707,4.3310289 0 1 1 9.5459413,0 z"
         transform="matrix(1.2175902,0,0,1.2175902,27.511465,-64.143748)" />
      <path
         sodipodi:type="arc"
         style="fill:#b9b9b9;fill-opacity:1;stroke:none"
         id="use5696"
         sodipodi:cx="-14.495689"
         sodipodi:cy="69.398521"
         sodipodi:rx="4.7729707"
         sodipodi:ry="4.3310289"
         d="m -9.7227187,69.398521 a 4.7729707,4.3310289 0 1 1 -9.5459413,0 4.7729707,4.3310289 0 1 1 9.5459413,0 z"
         transform="matrix(0.48152452,0,0,0.48152452,34.094738,-18.983387)" />
      <path
         sodipodi:type="arc"
         style="fill:#b9b9b9;fill-opacity:1;stroke:none"
         id="use5698"
         sodipodi:cx="-14.495689"
         sodipodi:cy="69.398521"
         sodipodi:rx="4.7729707"
         sodipodi:ry="4.3310289"
         d="m -9.7227187,69.398521 a 4.7729707,4.3310289 0 1 1 -9.5459413,0 4.7729707,4.3310289 0 1 1 9.5459413,0 z"
         transform="matrix(0.55073891,0,0,0.55073891,26.647923,-11.597051)" />
      <path
         sodipodi:type="arc"
         style="fill:#b9b9b9;fill-opacity:1;stroke:none"
         id="use5700"
         sodipodi:cx="-14.495689"
         sodipodi:cy="69.398521"
         sodipodi:rx="4.7729707"
         sodipodi:ry="4.3310289"
         d="m -9.7227187,69.398521 a 4.7729707,4.3310289 0 1 1 -9.5459413,0 4.7729707,4.3310289 0 1 1 9.5459413,0 z"
         transform="matrix(1.7000084,0,0,1.7000084,42.386478,-67.593552)" />
      <path
         sodipodi:type="arc"
         style="fill:#b9b9b9;fill-opacity:1;stroke:none"
         id="use5702"
         sodipodi:cx="-14.495689"
         sodipodi:cy="69.398521"
         sodipodi:rx="4.7729707"
         sodipodi:ry="4.3310289"
         d="m -9.7227187,69.398521 a 4.7729707,4.3310289 0 1 1 -9.5459413,0 4.7729707,4.3310289 0 1 1 9.5459413,0 z"
         transform="matrix(0.39430405,0,0,0.39430405,40.793343,50.92814)" />
      <path
         sodipodi:type="arc"
         style="fill:#b9b9b9;fill-opacity:1;stroke:none"
         id="use5708"
         sodipodi:cx="-14.495689"
         sodipodi:cy="69.398521"
         sodipodi:rx="4.7729707"
         sodipodi:ry="4.3310289"
         d="m -9.7227187,69.398521 a 4.7729707,4.3310289 0 1 1 -9.5459413,0 4.7729707,4.3310289 0 1 1 9.5459413,0 z"
         transform="matrix(1.2581543,0,0,1.2581543,144.23268,-29.864945)" />
      <path
         sodipodi:type="arc"
         style="fill:#b9b9b9;fill-opacity:1;stroke:none"
         id="use5710"
         sodipodi:cx="-14.495689"
         sodipodi:cy="69.398521"
         sodipodi:rx="4.7729707"
         sodipodi:ry="4.3310289"
         d="m -9.7227187,69.398521 a 4.7729707,4.3310289 0 1 1 -9.5459413,0 4.7729707,4.3310289 0 1 1 9.5459413,0 z"
         transform="matrix(0.84726824,0,0,0.84726824,122.98462,-34.72273)" />
      <path
         sodipodi:type="arc"
         style="fill:#b9b9b9;fill-opacity:1;stroke:none"
         id="use5712"
         sodipodi:cx="-14.495689"
         sodipodi:cy="69.398521"
         sodipodi:rx="4.7729707"
         sodipodi:ry="4.3310289"
         d="m -9.7227187,69.398521 a 4.7729707,4.3310289 0 1 1 -9.5459413,0 4.7729707,4.3310289 0 1 1 9.5459413,0 z"
         transform="matrix(0.81266368,0,0,0.81266368,105.39902,-19.586662)" />
      <path
         sodipodi:type="arc"
         style="fill:#b9b9b9;fill-opacity:1;stroke:none"
         id="use5714"
         sodipodi:cx="-14.495689"
         sodipodi:cy="69.398521"
         sodipodi:rx="4.7729707"
         sodipodi:ry="4.3310289"
         d="m -9.7227187,69.398521 a 4.7729707,4.3310289 0 1 1 -9.5459413,0 4.7729707,4.3310289 0 1 1 9.5459413,0 z"
         transform="matrix(0.4783424,0,0,0.4783424,105.8693,8.6506951)" />
      <path
         sodipodi:type="arc"
         style="fill:#b9b9b9;fill-opacity:1;stroke:none"
         id="use5716"
         sodipodi:cx="-14.495689"
         sodipodi:cy="69.398521"
         sodipodi:rx="4.7729707"
         sodipodi:ry="4.3310289"
         d="m -9.7227187,69.398521 a 4.7729707,4.3310289 0 1 1 -9.5459413,0 4.7729707,4.3310289 0 1 1 9.5459413,0 z"
         transform="matrix(1.136962,0,0,1.136962,117.87901,-39.935783)" />
      <path
         sodipodi:type="arc"
         style="fill:#b9b9b9;fill-opacity:1;stroke:none"
         id="use5718"
         sodipodi:cx="-14.495689"
         sodipodi:cy="69.398521"
         sodipodi:rx="4.7729707"
         sodipodi:ry="4.3310289"
         d="m -9.7227187,69.398521 a 4.7729707,4.3310289 0 1 1 -9.5459413,0 4.7729707,4.3310289 0 1 1 9.5459413,0 z"
         transform="matrix(0.53039525,0,0,0.53039525,81.705806,-31.164794)" />
      <path
         sodipodi:type="arc"
         style="fill:#b9b9b9;fill-opacity:1;stroke:none"
         id="use5720"
         sodipodi:cx="-14.495689"
         sodipodi:cy="69.398521"
         sodipodi:rx="4.7729707"
         sodipodi:ry="4.3310289"
         d="m -9.7227187,69.398521 a 4.7729707,4.3310289 0 1 1 -9.5459413,0 4.7729707,4.3310289 0 1 1 9.5459413,0 z"
         transform="matrix(1.6364177,0,0,1.6364177,109.54604,-121.52502)" />
      <path
         sodipodi:type="arc"
         style="fill:#b9b9b9;fill-opacity:1;stroke:none"
         id="use5722"
         sodipodi:cx="-14.495689"
         sodipodi:cy="69.398521"
         sodipodi:rx="4.7729707"
         sodipodi:ry="4.3310289"
         d="m -9.7227187,69.398521 a 4.7729707,4.3310289 0 1 1 -9.5459413,0 4.7729707,4.3310289 0 1 1 9.5459413,0 z"
         transform="matrix(0.96205007,0,0,0.96205007,70.136582,-98.461501)" />
      <path
         sodipodi:type="arc"
         style="fill:#b9b9b9;fill-opacity:1;stroke:none"
         id="use5724"
         sodipodi:cx="-14.495689"
         sodipodi:cy="69.398521"
         sodipodi:rx="4.7729707"
         sodipodi:ry="4.3310289"
         d="m -9.7227187,69.398521 a 4.7729707,4.3310289 0 1 1 -9.5459413,0 4.7729707,4.3310289 0 1 1 9.5459413,0 z"
         transform="matrix(1.128963,0,0,1.128963,62.976589,-141.45879)" />
      <path
         sodipodi:type="arc"
         style="fill:#b9b9b9;fill-opacity:1;stroke:none"
         id="use5728"
         sodipodi:cx="-14.495689"
         sodipodi:cy="69.398521"
         sodipodi:rx="4.7729707"
         sodipodi:ry="4.3310289"
         d="m -9.7227187,69.398521 a 4.7729707,4.3310289 0 1 1 -9.5459413,0 4.7729707,4.3310289 0 1 1 9.5459413,0 z"
         transform="matrix(1.0651338,0,0,1.0651338,25.980612,-126.39674)" />
      <path
         sodipodi:type="arc"
         style="fill:#b9b9b9;fill-opacity:1;stroke:none"
         id="use5734"
         sodipodi:cx="-14.495689"
         sodipodi:cy="69.398521"
         sodipodi:rx="4.7729707"
         sodipodi:ry="4.3310289"
         d="m -9.7227187,69.398521 a 4.7729707,4.3310289 0 1 1 -9.5459413,0 4.7729707,4.3310289 0 1 1 9.5459413,0 z"
         transform="matrix(1.1870945,0,0,1.1870945,36.105983,-125.05598)" />
      <path
         sodipodi:type="arc"
         style="fill:#b9b9b9;fill-opacity:1;stroke:none"
         id="use5740"
         sodipodi:cx="-14.495689"
         sodipodi:cy="69.398521"
         sodipodi:rx="4.7729707"
         sodipodi:ry="4.3310289"
         d="m -9.7227187,69.398521 a 4.7729707,4.3310289 0 1 1 -9.5459413,0 4.7729707,4.3310289 0 1 1 9.5459413,0 z"
         transform="matrix(0.53342151,0,0,0.53342151,18.375892,-55.434854)" />
      <path
         sodipodi:type="arc"
         style="fill:#b9b9b9;fill-opacity:1;stroke:none"
         id="use5744"
         sodipodi:cx="-14.495689"
         sodipodi:cy="69.398521"
         sodipodi:rx="4.7729707"
         sodipodi:ry="4.3310289"
         d="m -9.7227187,69.398521 a 4.7729707,4.3310289 0 1 1 -9.5459413,0 4.7729707,4.3310289 0 1 1 9.5459413,0 z"
         transform="matrix(0.93985411,0,0,0.93985411,14.109729,-85.15395)" />
      <path
         sodipodi:type="arc"
         style="fill:#b9b9b9;fill-opacity:1;stroke:none"
         id="use5746"
         sodipodi:cx="-14.495689"
         sodipodi:cy="69.398521"
         sodipodi:rx="4.7729707"
         sodipodi:ry="4.3310289"
         d="m -9.7227187,69.398521 a 4.7729707,4.3310289 0 1 1 -9.5459413,0 4.7729707,4.3310289 0 1 1 9.5459413,0 z"
         transform="matrix(1.0543817,0,0,1.0543817,53.455142,-92.795962)" />
      <path
         sodipodi:type="arc"
         style="fill:#b9b9b9;fill-opacity:1;stroke:none"
         id="use5748"
         sodipodi:cx="-14.495689"
         sodipodi:cy="69.398521"
         sodipodi:rx="4.7729707"
         sodipodi:ry="4.3310289"
         d="m -9.7227187,69.398521 a 4.7729707,4.3310289 0 1 1 -9.5459413,0 4.7729707,4.3310289 0 1 1 9.5459413,0 z"
         transform="matrix(0.81173593,0,0,0.81173593,45.797082,-76.848376)" />
      <path
         sodipodi:type="arc"
         style="fill:#b9b9b9;fill-opacity:1;stroke:none"
         id="use5750"
         sodipodi:cx="-14.495689"
         sodipodi:cy="69.398521"
         sodipodi:rx="4.7729707"
         sodipodi:ry="4.3310289"
         d="m -9.7227187,69.398521 a 4.7729707,4.3310289 0 1 1 -9.5459413,0 4.7729707,4.3310289 0 1 1 9.5459413,0 z"
         transform="matrix(1.1477285,0,0,1.1477285,49.759556,-94.399026)" />
      <path
         sodipodi:type="arc"
         style="fill:#b9b9b9;fill-opacity:1;stroke:none"
         id="use5752"
         sodipodi:cx="-14.495689"
         sodipodi:cy="69.398521"
         sodipodi:rx="4.7729707"
         sodipodi:ry="4.3310289"
         d="m -9.7227187,69.398521 a 4.7729707,4.3310289 0 1 1 -9.5459413,0 4.7729707,4.3310289 0 1 1 9.5459413,0 z"
         transform="matrix(1.2315461,0,0,1.2315461,91.020031,-109.70936)" />
      <path
         sodipodi:type="arc"
         style="fill:#b9b9b9;fill-opacity:1;stroke:none"
         id="use5754"
         sodipodi:cx="-14.495689"
         sodipodi:cy="69.398521"
         sodipodi:rx="4.7729707"
         sodipodi:ry="4.3310289"
         d="m -9.7227187,69.398521 a 4.7729707,4.3310289 0 1 1 -9.5459413,0 4.7729707,4.3310289 0 1 1 9.5459413,0 z"
         transform="matrix(0.70705346,0,0,0.70705346,84.057676,-82.624851)" />
      <path
         sodipodi:type="arc"
         style="fill:#b9b9b9;fill-opacity:1;stroke:none"
         id="use5756"
         sodipodi:cx="-14.495689"
         sodipodi:cy="69.398521"
         sodipodi:rx="4.7729707"
         sodipodi:ry="4.3310289"
         d="m -9.7227187,69.398521 a 4.7729707,4.3310289 0 1 1 -9.5459413,0 4.7729707,4.3310289 0 1 1 9.5459413,0 z"
         transform="matrix(0.92110599,0,0,0.92110599,73.270002,-73.966358)" />
      <path
         sodipodi:type="arc"
         style="fill:#b9b9b9;fill-opacity:1;stroke:none"
         id="use5758"
         sodipodi:cx="-14.495689"
         sodipodi:cy="69.398521"
         sodipodi:rx="4.7729707"
         sodipodi:ry="4.3310289"
         d="m -9.7227187,69.398521 a 4.7729707,4.3310289 0 1 1 -9.5459413,0 4.7729707,4.3310289 0 1 1 9.5459413,0 z"
         transform="matrix(1.3867109,0,0,1.3867109,98.720061,-158.24157)" />
      <path
         sodipodi:type="arc"
         style="fill:#b9b9b9;fill-opacity:1;stroke:none"
         id="use5760"
         sodipodi:cx="-14.495689"
         sodipodi:cy="69.398521"
         sodipodi:rx="4.7729707"
         sodipodi:ry="4.3310289"
         d="m -9.7227187,69.398521 a 4.7729707,4.3310289 0 1 1 -9.5459413,0 4.7729707,4.3310289 0 1 1 9.5459413,0 z"
         transform="matrix(1.1625171,0,0,1.1625171,106.14287,-123.75468)" />
      <path
         sodipodi:type="arc"
         style="fill:#b9b9b9;fill-opacity:1;stroke:none"
         id="use5764"
         sodipodi:cx="-14.495689"
         sodipodi:cy="69.398521"
         sodipodi:rx="4.7729707"
         sodipodi:ry="4.3310289"
         d="m -9.7227187,69.398521 a 4.7729707,4.3310289 0 1 1 -9.5459413,0 4.7729707,4.3310289 0 1 1 9.5459413,0 z"
         transform="matrix(0.94066271,0,0,0.94066271,119.0393,-71.673732)" />
      <path
         sodipodi:type="arc"
         style="fill:#b9b9b9;fill-opacity:1;stroke:none"
         id="use5766"
         sodipodi:cx="-14.495689"
         sodipodi:cy="69.398521"
         sodipodi:rx="4.7729707"
         sodipodi:ry="4.3310289"
         d="m -9.7227187,69.398521 a 4.7729707,4.3310289 0 1 1 -9.5459413,0 4.7729707,4.3310289 0 1 1 9.5459413,0 z"
         transform="matrix(1.028264,0,0,1.028264,98.668153,-41.141402)" />
      <path
         sodipodi:type="arc"
         style="fill:#b9b9b9;fill-opacity:1;stroke:none"
         id="use5772"
         sodipodi:cx="-14.495689"
         sodipodi:cy="69.398521"
         sodipodi:rx="4.7729707"
         sodipodi:ry="4.3310289"
         d="m -9.7227187,69.398521 a 4.7729707,4.3310289 0 1 1 -9.5459413,0 4.7729707,4.3310289 0 1 1 9.5459413,0 z"
         transform="matrix(0.78569033,0,0,0.78569033,99.94822,-7.673327)" />
      <path
         sodipodi:type="arc"
         style="fill:#b9b9b9;fill-opacity:1;stroke:none"
         id="use5774"
         sodipodi:cx="-14.495689"
         sodipodi:cy="69.398521"
         sodipodi:rx="4.7729707"
         sodipodi:ry="4.3310289"
         d="m -9.7227187,69.398521 a 4.7729707,4.3310289 0 1 1 -9.5459413,0 4.7729707,4.3310289 0 1 1 9.5459413,0 z"
         transform="matrix(1.0261492,0,0,1.0261492,37.568967,-57.340774)" />
      <path
         sodipodi:type="arc"
         style="fill:#b9b9b9;fill-opacity:1;stroke:none"
         id="use5778"
         sodipodi:cx="-14.495689"
         sodipodi:cy="69.398521"
         sodipodi:rx="4.7729707"
         sodipodi:ry="4.3310289"
         d="m -9.7227187,69.398521 a 4.7729707,4.3310289 0 1 1 -9.5459413,0 4.7729707,4.3310289 0 1 1 9.5459413,0 z"
         transform="matrix(1.7144894,0,0,1.7144894,137.03591,-59.557526)" />
      <path
         sodipodi:type="arc"
         style="fill:#b9b9b9;fill-opacity:1;stroke:none"
         id="use5782"
         sodipodi:cx="-14.495689"
         sodipodi:cy="69.398521"
         sodipodi:rx="4.7729707"
         sodipodi:ry="4.3310289"
         d="m -9.7227187,69.398521 a 4.7729707,4.3310289 0 1 1 -9.5459413,0 4.7729707,4.3310289 0 1 1 9.5459413,0 z"
         transform="matrix(1.1115323,0,0,1.1115323,89.417738,-16.32462)" />
      <path
         sodipodi:type="arc"
         style="fill:#b9b9b9;fill-opacity:1;stroke:none"
         id="use5784"
         sodipodi:cx="-14.495689"
         sodipodi:cy="69.398521"
         sodipodi:rx="4.7729707"
         sodipodi:ry="4.3310289"
         d="m -9.7227187,69.398521 a 4.7729707,4.3310289 0 1 1 -9.5459413,0 4.7729707,4.3310289 0 1 1 9.5459413,0 z"
         transform="matrix(0.76381054,0,0,0.76381054,98.62474,-20.371008)" />
      <path
         sodipodi:type="arc"
         style="fill:#b9b9b9;fill-opacity:1;stroke:none"
         id="use5788"
         sodipodi:cx="-14.495689"
         sodipodi:cy="69.398521"
         sodipodi:rx="4.7729707"
         sodipodi:ry="4.3310289"
         d="m -9.7227187,69.398521 a 4.7729707,4.3310289 0 1 1 -9.5459413,0 4.7729707,4.3310289 0 1 1 9.5459413,0 z"
         transform="matrix(0.51555695,0,0,0.51555695,84.618779,-65.001008)" />
      <path
         sodipodi:type="arc"
         style="fill:#b9b9b9;fill-opacity:1;stroke:none"
         id="use5790"
         sodipodi:cx="-14.495689"
         sodipodi:cy="69.398521"
         sodipodi:rx="4.7729707"
         sodipodi:ry="4.3310289"
         d="m -9.7227187,69.398521 a 4.7729707,4.3310289 0 1 1 -9.5459413,0 4.7729707,4.3310289 0 1 1 9.5459413,0 z"
         transform="matrix(0.67326543,0,0,0.67326543,87.404874,-61.629871)" />
      <path
         sodipodi:type="arc"
         style="fill:#b9b9b9;fill-opacity:1;stroke:none"
         id="use5800"
         sodipodi:cx="-14.495689"
         sodipodi:cy="69.398521"
         sodipodi:rx="4.7729707"
         sodipodi:ry="4.3310289"
         d="m -9.7227187,69.398521 a 4.7729707,4.3310289 0 1 1 -9.5459413,0 4.7729707,4.3310289 0 1 1 9.5459413,0 z"
         transform="matrix(0.93292749,0,0,0.93292749,70.659651,-105.05085)" />
      <path
         sodipodi:type="arc"
         style="fill:#b9b9b9;fill-opacity:1;stroke:none"
         id="use5802"
         sodipodi:cx="-14.495689"
         sodipodi:cy="69.398521"
         sodipodi:rx="4.7729707"
         sodipodi:ry="4.3310289"
         d="m -9.7227187,69.398521 a 4.7729707,4.3310289 0 1 1 -9.5459413,0 4.7729707,4.3310289 0 1 1 9.5459413,0 z"
         transform="matrix(1.4850507,0,0,1.4850507,77.292548,-106.00222)" />
      <path
         sodipodi:type="arc"
         style="fill:#b9b9b9;fill-opacity:1;stroke:none"
         id="use5806"
         sodipodi:cx="-14.495689"
         sodipodi:cy="69.398521"
         sodipodi:rx="4.7729707"
         sodipodi:ry="4.3310289"
         d="m -9.7227187,69.398521 a 4.7729707,4.3310289 0 1 1 -9.5459413,0 4.7729707,4.3310289 0 1 1 9.5459413,0 z"
         transform="matrix(0.49797707,0,0,0.49797707,110.68187,-67.499655)" />
      <path
         sodipodi:type="arc"
         style="fill:#b9b9b9;fill-opacity:1;stroke:none"
         id="use5808"
         sodipodi:cx="-14.495689"
         sodipodi:cy="69.398521"
         sodipodi:rx="4.7729707"
         sodipodi:ry="4.3310289"
         d="m -9.7227187,69.398521 a 4.7729707,4.3310289 0 1 1 -9.5459413,0 4.7729707,4.3310289 0 1 1 9.5459413,0 z"
         transform="matrix(0.39633472,0,0,0.39633472,37.151358,-85.789028)" />
      <path
         sodipodi:type="arc"
         style="fill:#b9b9b9;fill-opacity:1;stroke:none"
         id="use5810"
         sodipodi:cx="-14.495689"
         sodipodi:cy="69.398521"
         sodipodi:rx="4.7729707"
         sodipodi:ry="4.3310289"
         d="m -9.7227187,69.398521 a 4.7729707,4.3310289 0 1 1 -9.5459413,0 4.7729707,4.3310289 0 1 1 9.5459413,0 z"
         transform="matrix(1.6108303,0,0,1.6108303,141.84374,-80.936436)" />
      <path
         sodipodi:type="arc"
         style="fill:#b9b9b9;fill-opacity:1;stroke:none"
         id="use5814"
         sodipodi:cx="-14.495689"
         sodipodi:cy="69.398521"
         sodipodi:rx="4.7729707"
         sodipodi:ry="4.3310289"
         d="m -9.7227187,69.398521 a 4.7729707,4.3310289 0 1 1 -9.5459413,0 4.7729707,4.3310289 0 1 1 9.5459413,0 z"
         transform="matrix(1.4463007,0,0,1.4463007,110.06197,-34.6351)" />
      <path
         sodipodi:type="arc"
         style="fill:#b9b9b9;fill-opacity:1;stroke:none"
         id="use5830"
         sodipodi:cx="-14.495689"
         sodipodi:cy="69.398521"
         sodipodi:rx="4.7729707"
         sodipodi:ry="4.3310289"
         d="m -9.7227187,69.398521 a 4.7729707,4.3310289 0 1 1 -9.5459413,0 4.7729707,4.3310289 0 1 1 9.5459413,0 z"
         transform="matrix(1.0357743,0,0,1.0357743,23.957983,-28.367173)" />
      <path
         sodipodi:type="arc"
         style="fill:#b9b9b9;fill-opacity:1;stroke:none"
         id="use5838"
         sodipodi:cx="-14.495689"
         sodipodi:cy="69.398521"
         sodipodi:rx="4.7729707"
         sodipodi:ry="4.3310289"
         d="m -9.7227187,69.398521 a 4.7729707,4.3310289 0 1 1 -9.5459413,0 4.7729707,4.3310289 0 1 1 9.5459413,0 z"
         transform="matrix(1.0495751,0,0,1.0495751,76.223906,-6.3847002)" />
      <path
         sodipodi:type="arc"
         style="fill:#b9b9b9;fill-opacity:1;stroke:none"
         id="use5846"
         sodipodi:cx="-14.495689"
         sodipodi:cy="69.398521"
         sodipodi:rx="4.7729707"
         sodipodi:ry="4.3310289"
         d="m -9.7227187,69.398521 a 4.7729707,4.3310289 0 1 1 -9.5459413,0 4.7729707,4.3310289 0 1 1 9.5459413,0 z"
         transform="matrix(1.128963,0,0,1.128963,62.976589,-13.458791)" />
      <path
         sodipodi:type="arc"
         style="fill:#b9b9b9;fill-opacity:1;stroke:none"
         id="use5848"
         sodipodi:cx="-14.495689"
         sodipodi:cy="69.398521"
         sodipodi:rx="4.7729707"
         sodipodi:ry="4.3310289"
         d="m -9.7227187,69.398521 a 4.7729707,4.3310289 0 1 1 -9.5459413,0 4.7729707,4.3310289 0 1 1 9.5459413,0 z"
         transform="matrix(1.3867109,0,0,1.3867109,98.720061,-30.229801)" />
      <path
         sodipodi:type="arc"
         style="fill:#b9b9b9;fill-opacity:1;stroke:none"
         id="use5850"
         sodipodi:cx="-14.495689"
         sodipodi:cy="69.398521"
         sodipodi:rx="4.7729707"
         sodipodi:ry="4.3310289"
         d="m -9.7227187,69.398521 a 4.7729707,4.3310289 0 1 1 -9.5459413,0 4.7729707,4.3310289 0 1 1 9.5459413,0 z"
         transform="matrix(1.7124309,0,0,1.7124309,132.99625,-51.423585)" />
      <path
         sodipodi:type="arc"
         style="fill:#b9b9b9;fill-opacity:1;stroke:none"
         id="use5852"
         sodipodi:cx="-14.495689"
         sodipodi:cy="69.398521"
         sodipodi:rx="4.7729707"
         sodipodi:ry="4.3310289"
         d="m -9.7227187,69.398521 a 4.7729707,4.3310289 0 1 1 -9.5459413,0 4.7729707,4.3310289 0 1 1 9.5459413,0 z"
         transform="matrix(1.034541,0,0,1.034541,15.934219,-131.31499)" />
      <path
         sodipodi:type="arc"
         style="fill:#b9b9b9;fill-opacity:1;stroke:none"
         id="use5854"
         sodipodi:cx="-14.495689"
         sodipodi:cy="69.398521"
         sodipodi:rx="4.7729707"
         sodipodi:ry="4.3310289"
         d="m -9.7227187,69.398521 a 4.7729707,4.3310289 0 1 1 -9.5459413,0 4.7729707,4.3310289 0 1 1 9.5459413,0 z"
         transform="matrix(0.93985411,0,0,0.93985411,142.10973,-85.15395)" />
      <path
         transform="matrix(1.1654878,0,0,1.1654878,142.45739,-67.835369)"
         d="m -9.7227187,69.398521 a 4.7729707,4.3310289 0 1 1 -9.5459413,0 4.7729707,4.3310289 0 1 1 9.5459413,0 z"
         sodipodi:ry="4.3310289"
         sodipodi:rx="4.7729707"
         sodipodi:cy="69.398521"
         sodipodi:cx="-14.495689"
         id="path6002"
         style="fill:#b9b9b9;fill-opacity:1;stroke:none"
         sodipodi:type="arc" />
      <path
         transform="matrix(1.0495751,0,0,1.0495751,76.223906,-134.29322)"
         d="m -9.7227187,69.398521 a 4.7729707,4.3310289 0 1 1 -9.5459413,0 4.7729707,4.3310289 0 1 1 9.5459413,0 z"
         sodipodi:ry="4.3310289"
         sodipodi:rx="4.7729707"
         sodipodi:cy="69.398521"
         sodipodi:cx="-14.495689"
         id="path6004"
         style="fill:#b9b9b9;fill-opacity:1;stroke:none"
         sodipodi:type="arc" />
      <path
         transform="matrix(1.1115323,0,0,1.1115323,89.417738,-144.32462)"
         d="m -9.7227187,69.398521 a 4.7729707,4.3310289 0 1 1 -9.5459413,0 4.7729707,4.3310289 0 1 1 9.5459413,0 z"
         sodipodi:ry="4.3310289"
         sodipodi:rx="4.7729707"
         sodipodi:cy="69.398521"
         sodipodi:cx="-14.495689"
         id="path6006"
         style="fill:#b9b9b9;fill-opacity:1;stroke:none"
         sodipodi:type="arc" />
      <path
         transform="matrix(1.4463007,0,0,1.4463007,110.06197,-162.6351)"
         d="m -9.7227187,69.398521 a 4.7729707,4.3310289 0 1 1 -9.5459413,0 4.7729707,4.3310289 0 1 1 9.5459413,0 z"
         sodipodi:ry="4.3310289"
         sodipodi:rx="4.7729707"
         sodipodi:cy="69.398521"
         sodipodi:cx="-14.495689"
         id="path6008"
         style="fill:#b9b9b9;fill-opacity:1;stroke:none"
         sodipodi:type="arc" />
      <path
         transform="matrix(1.7144894,0,0,1.7144894,137.03591,-187.55753)"
         d="m -9.7227187,69.398521 a 4.7729707,4.3310289 0 1 1 -9.5459413,0 4.7729707,4.3310289 0 1 1 9.5459413,0 z"
         sodipodi:ry="4.3310289"
         sodipodi:rx="4.7729707"
         sodipodi:cy="69.398521"
         sodipodi:cx="-14.495689"
         id="path6010"
         style="fill:#b9b9b9;fill-opacity:1;stroke:none"
         sodipodi:type="arc" />
      <path
         transform="matrix(1.2581543,0,0,1.2581543,16.23268,-29.864945)"
         d="m -9.7227187,69.398521 a 4.7729707,4.3310289 0 1 1 -9.5459413,0 4.7729707,4.3310289 0 1 1 9.5459413,0 z"
         sodipodi:ry="4.3310289"
         sodipodi:rx="4.7729707"
         sodipodi:cy="69.398521"
         sodipodi:cx="-14.495689"
         id="path6012"
         style="fill:#b9b9b9;fill-opacity:1;stroke:none"
         sodipodi:type="arc" />
    </g>
    <image
       y="-64"
       x="192"
       id="image6104"
       xlink:href="file:///Users/ianw/play/SimpleRP/build/64/assets/minecraft/textures/blocks/stone.png"
       height="64"
       width="64" />
    <image
       width="64"
       height="64"
       xlink:href="file:///Users/ianw/play/SimpleRP/build/64/assets/minecraft/textures/blocks/stone.png"
       id="image6107"
       x="256"
       y="-64" />
    <image
       y="0"
       x="192"
       id="image6109"
       xlink:href="file:///Users/ianw/play/SimpleRP/build/64/assets/minecraft/textures/blocks/stone.png"
       height="64"
       width="64" />
    <image
       width="64"
       height="64"
       xlink:href="file:///Users/ianw/play/SimpleRP/build/64/assets/minecraft/textures/blocks/stone.png"
       id="image6111"
       x="256"
       y="0" />
    <image
       y="80"
       x="192"
       id="image6458"
       xlink:href="file:///Users/ianw/play/SimpleRP/build/16/assets/minecraft/textures/blocks/stone.png"
       height="64"
       width="64" />
    <image
       width="64"
       height="64"
       xlink:href="file:///Users/ianw/play/SimpleRP/build/16/assets/minecraft/textures/blocks/stone.png"
       id="image6461"
       x="256"
       y="80" />
    <image
       y="144"
       x="192"
       id="image6463"
       xlink:href="file:///Users/ianw/play/SimpleRP/build/16/assets/minecraft/textures/blocks/stone.png"
       height="64"
       width="64" />
    <image
       width="64"
       height="64"
       xlink:href="file:///Users/ianw/play/SimpleRP/build/16/assets/minecraft/textures/blocks/stone.png"
       id="image6465"
       x="256"
       y="144" />
  </g>
</svg>
