<?xml version="1.0" encoding="UTF-8" standalone="no"?>
<!-- Created with Inkscape (http://www.inkscape.org/) -->

<svg
   xmlns:dc="http://purl.org/dc/elements/1.1/"
   xmlns:cc="http://creativecommons.org/ns#"
   xmlns:rdf="http://www.w3.org/1999/02/22-rdf-syntax-ns#"
   xmlns:svg="http://www.w3.org/2000/svg"
   xmlns="http://www.w3.org/2000/svg"
   xmlns:xlink="http://www.w3.org/1999/xlink"
   xmlns:sodipodi="http://sodipodi.sourceforge.net/DTD/sodipodi-0.dtd"
   xmlns:inkscape="http://www.inkscape.org/namespaces/inkscape"
   width="128"
   height="128"
   id="svg2985"
   version="1.1"
   inkscape:version="0.48.2 r9819"
   sodipodi:docname="stonebrick_cracked.svg"
   inkscape:export-filename="/Users/ianw/drawing.png"
   inkscape:export-xdpi="180"
   inkscape:export-ydpi="180">
  <title
     id="title3119">Template</title>
  <defs
     id="defs2987">
    <linearGradient
       id="linearGradient3970">
      <stop
         id="stop3972"
         offset="0"
         style="stop-color:#b6b6b6;stop-opacity:1;" />
      <stop
         style="stop-color:#a5a4a8;stop-opacity:0.58823532;"
         offset="0.29749998"
         id="stop3736" />
      <stop
         style="stop-color:#95929a;stop-opacity:0.50196081;"
         offset="0.80242187"
         id="stop3734" />
      <stop
         id="stop3974"
         offset="1"
         style="stop-color:#756e7e;stop-opacity:0.50196081;" />
    </linearGradient>
    <linearGradient
       inkscape:collect="always"
       xlink:href="#linearGradient3970"
       id="linearGradient3724"
       x1="4"
       y1="4"
       x2="124"
       y2="60"
       gradientUnits="userSpaceOnUse" />
    <linearGradient
       inkscape:collect="always"
       xlink:href="#linearGradient3970"
       id="linearGradient3740"
       gradientUnits="userSpaceOnUse"
       x1="56"
       y1="-4"
       x2="64"
       y2="64"
       gradientTransform="translate(0,-64)" />
    <linearGradient
       inkscape:collect="always"
       xlink:href="#linearGradient3970"
       id="linearGradient3782"
       gradientUnits="userSpaceOnUse"
       x1="4"
       y1="4"
       x2="124"
       y2="60" />
    <linearGradient
       inkscape:collect="always"
       xlink:href="#linearGradient3970"
       id="linearGradient3784"
       gradientUnits="userSpaceOnUse"
       gradientTransform="translate(0,-64)"
       x1="56"
       y1="-4"
       x2="64"
       y2="64" />
    <linearGradient
       inkscape:collect="always"
       xlink:href="#linearGradient3970"
       id="linearGradient3969"
       gradientUnits="userSpaceOnUse"
       gradientTransform="translate(-64,0)"
       x1="56"
       y1="-4"
       x2="64"
       y2="64" />
    <linearGradient
       inkscape:collect="always"
       xlink:href="#linearGradient3970"
       id="linearGradient3972"
       gradientUnits="userSpaceOnUse"
       x1="4"
       y1="4"
       x2="124"
       y2="60"
       gradientTransform="translate(-64,0)" />
  </defs>
  <sodipodi:namedview
     id="base"
     pagecolor="#ffffff"
     bordercolor="#000000"
     borderopacity="1"
     inkscape:pageopacity="0.0"
     inkscape:pageshadow="2"
     inkscape:zoom="5.656854"
     inkscape:cx="120.65906"
     inkscape:cy="48.252915"
     inkscape:current-layer="layer1"
     showgrid="true"
     inkscape:document-units="px"
     inkscape:grid-bbox="true"
     inkscape:snap-bbox="false"
     inkscape:snap-nodes="true"
     inkscape:snap-grids="true"
     inkscape:window-width="2560"
     inkscape:window-height="1305"
     inkscape:window-x="0"
     inkscape:window-y="0"
     inkscape:window-maximized="1"
     inkscape:showpageshadow="false"
     borderlayer="true">
    <inkscape:grid
       type="xygrid"
       id="grid2993"
       empspacing="4"
       visible="true"
       enabled="true"
       snapvisiblegridlinesonly="true"
       spacingx="16px"
       spacingy="16px"
       empcolor="#d60053"
       empopacity="0.29803922" />
    <inkscape:grid
       type="xygrid"
       id="grid3043"
       empspacing="4"
       visible="true"
       enabled="true"
       snapvisiblegridlinesonly="true"
       color="#ff00f8"
       opacity="0.1254902"
       dotted="true" />
  </sodipodi:namedview>
  <metadata
     id="metadata2990">
    <rdf:RDF>
      <cc:Work
         rdf:about="">
        <dc:format>image/svg+xml</dc:format>
        <dc:type
           rdf:resource="http://purl.org/dc/dcmitype/StillImage" />
        <dc:title>Template</dc:title>
        <cc:license
           rdf:resource="https://www.gnu.org/copyleft/gpl.html" />
        <dc:creator>
          <cc:Agent>
            <dc:title>Ian Walters</dc:title>
          </cc:Agent>
        </dc:creator>
        <dc:source>SimpleRP</dc:source>
      </cc:Work>
    </rdf:RDF>
  </metadata>
  <g
     id="layer1"
     inkscape:label="Layer 1"
     inkscape:groupmode="layer"
     transform="translate(0,64)">
    <rect
       style="fill:#585960;fill-opacity:1;stroke:none"
       id="rect3720"
       width="128"
       height="128"
       x="0"
       y="0"
       transform="translate(0,-64)" />
    <g
       id="g3762">
      <rect
         ry="8"
         transform="translate(0,-64)"
         y="4"
         x="4"
         height="56"
         width="120"
         id="rect3722"
         style="fill:url(#linearGradient3724);fill-opacity:1;stroke:none" />
      <rect
         style="fill:url(#linearGradient3740);fill-opacity:1;stroke:none"
         id="rect3738"
         width="120"
         height="56"
         x="4"
         y="-60"
         ry="8" />
    </g>
    <g
       id="g3976">
      <rect
         style="fill:url(#linearGradient3972);fill-opacity:1;stroke:none"
         id="rect3768"
         width="120"
         height="56"
         x="-60"
         y="4"
         ry="8" />
      <rect
         ry="8"
         y="4"
         x="-60"
         height="56"
         width="120"
         id="rect3770"
         style="fill:url(#linearGradient3969);fill-opacity:1;stroke:none" />
    </g>
    <path
       inkscape:connector-curvature="0"
       id="path3960"
       d="m 32,4 5,12 -9,12 -4,8 -12,4 12,0 8,-8 0,-4 8,-8 0,-8 8,-4 -11,0 -1,-4 z"
       style="fill:#585960;fill-opacity:1;stroke:none" />
    <g
       transform="translate(64,64)"
       id="g3776">
      <rect
         ry="8"
         transform="translate(0,-64)"
         y="4"
         x="4"
         height="56"
         width="120"
         id="rect3778"
         style="fill:url(#linearGradient3782);fill-opacity:1;stroke:none" />
      <rect
         style="fill:url(#linearGradient3784);fill-opacity:1;stroke:none"
         id="rect3780"
         width="120"
         height="56"
         x="4"
         y="-60"
         ry="8" />
    </g>
    <path
       style="fill:#585960;fill-opacity:1;stroke:none"
       d="m 124,60 -8,-8 0,-12 -8,-8 -9,-1 8,-2 4,1 2,4 6,-6 -2,-5 4,2 2,4 6,0 -6,3 -3,-1 -4,5 4,4 -1,7 5,0 -5,2 1,3 8,8 z"
       id="path3974"
       inkscape:connector-curvature="0" />
    <path
       style="fill:#585960;stroke:none;stroke-width:1px;stroke-linecap:butt;stroke-linejoin:miter;stroke-opacity:1;fill-opacity:1"
       d="m 68,112 12,-3 7,1 -6,-4 -8,1 -5,1 z"
       id="path3980"
       inkscape:connector-curvature="0"
       transform="translate(0,-64)" />
    <path
       style="fill:#585960;stroke:none;stroke-width:1px;stroke-linecap:butt;stroke-linejoin:miter;stroke-opacity:1;fill-opacity:1"
       d="m 68,4 -4,14 3,5 -7,7 5,-2 3,-3 1,6 5,9 -8,4 -4,6 -6,-3 2,4 3,1 -5,4 0,4 3,0 0,-4 7,-4 1,-5 8,-4 10,-1 -3,-2 -4,0 -5,-8 4,-2 -5,-1 -2,-7 -4,-4 4,-7 0,-4 1,-3 z"
       id="path3982"
       inkscape:connector-curvature="0"
       transform="translate(0,-64)" />
    <path
       style="fill:#585960;stroke:none;stroke-width:1px;stroke-linecap:butt;stroke-linejoin:miter;stroke-opacity:1;fill-opacity:1"
       d="m 4,24 12,4 4,8 8,0 8,-4 -8,1 -5,0 -4,-7 -15,-6 z"
       id="path3984"
       inkscape:connector-curvature="0"
       transform="translate(0,-64)" />
  </g>
</svg>
