<?xml version="1.0" encoding="UTF-8" standalone="no"?>
<!-- Created with Inkscape (http://www.inkscape.org/) -->

<svg
   xmlns:dc="http://purl.org/dc/elements/1.1/"
   xmlns:cc="http://creativecommons.org/ns#"
   xmlns:rdf="http://www.w3.org/1999/02/22-rdf-syntax-ns#"
   xmlns:svg="http://www.w3.org/2000/svg"
   xmlns="http://www.w3.org/2000/svg"
   xmlns:xlink="http://www.w3.org/1999/xlink"
   xmlns:sodipodi="http://sodipodi.sourceforge.net/DTD/sodipodi-0.dtd"
   xmlns:inkscape="http://www.inkscape.org/namespaces/inkscape"
   width="128"
   height="128"
   id="svg2985"
   version="1.1"
   inkscape:version="0.48.5 r10040"
   sodipodi:docname="furnace15.svg"
   inkscape:export-filename="/Users/ianw/drawing.png"
   inkscape:export-xdpi="180"
   inkscape:export-ydpi="180">
  <title
     id="title3119">Template</title>
  <defs
     id="defs2987">
    <linearGradient
       id="linearGradient4572">
      <stop
         style="stop-color:#e25a0a;stop-opacity:1;"
         offset="0"
         id="stop4574" />
      <stop
         style="stop-color:#7c0a14;stop-opacity:1;"
         offset="1"
         id="stop4576" />
    </linearGradient>
    <linearGradient
       inkscape:collect="always"
       id="linearGradient4558">
      <stop
         style="stop-color:#d45500;stop-opacity:1;"
         offset="0"
         id="stop4560" />
      <stop
         style="stop-color:#d45500;stop-opacity:0;"
         offset="1"
         id="stop4562" />
    </linearGradient>
    <linearGradient
       id="linearGradient4307">
      <stop
         style="stop-color:#000000;stop-opacity:1;"
         offset="0"
         id="stop4309" />
      <stop
         style="stop-color:#a1a09f;stop-opacity:0;"
         offset="1"
         id="stop4311" />
    </linearGradient>
    <linearGradient
       id="linearGradient4289">
      <stop
         style="stop-color:#333133;stop-opacity:1;"
         offset="0"
         id="stop4291" />
      <stop
         style="stop-color:#6f6d6f;stop-opacity:1;"
         offset="1"
         id="stop4293" />
    </linearGradient>
    <linearGradient
       id="linearGradient4011">
      <stop
         id="stop4013"
         offset="0"
         style="stop-color:#816647;stop-opacity:1" />
      <stop
         id="stop4015"
         offset="1"
         style="stop-color:#000000;stop-opacity:0" />
    </linearGradient>
    <linearGradient
       id="linearGradient3970">
      <stop
         id="stop3972"
         offset="0"
         style="stop-color:#77448e;stop-opacity:1;" />
      <stop
         id="stop3974"
         offset="1"
         style="stop-color:#4c1e61;stop-opacity:0.43846154;" />
    </linearGradient>
    <linearGradient
       y2="-44"
       x2="9"
       y1="-44"
       x1="-33"
       gradientTransform="translate(78,68)"
       gradientUnits="userSpaceOnUse"
       id="linearGradient3402-7"
       xlink:href="#linearGradient3970-4"
       inkscape:collect="always" />
    <linearGradient
       id="linearGradient3970-4">
      <stop
         id="stop3972-5"
         offset="0"
         style="stop-color:#77448e;stop-opacity:1;" />
      <stop
         id="stop3974-6"
         offset="1"
         style="stop-color:#4c1e61;stop-opacity:0.43846154;" />
    </linearGradient>
    <filter
       id="filter6354"
       inkscape:label="Feather"
       inkscape:menu="ABCs"
       inkscape:menu-tooltip="Blurred mask on the edge without altering the contents"
       color-interpolation-filters="sRGB">
      <feGaussianBlur
         id="feGaussianBlur6356"
         result="result6"
         stdDeviation="0.5" />
      <feComposite
         id="feComposite6358"
         in2="result6"
         operator="atop"
         in="SourceGraphic"
         result="result91" />
      <feComposite
         id="feComposite6360"
         in2="result91"
         operator="in"
         result="result92" />
      <feComposite
         id="feComposite6362"
         in2="result92"
         operator="in" />
    </filter>
    <linearGradient
       id="linearGradient4907">
      <stop
         id="stop4909"
         offset="0"
         style="stop-color:#743a43;stop-opacity:1;" />
      <stop
         style="stop-color:#5d2f36;stop-opacity:1;"
         offset="0.16666667"
         id="stop4915" />
      <stop
         id="stop4911"
         offset="1"
         style="stop-color:#432127;stop-opacity:1;" />
    </linearGradient>
    <linearGradient
       id="linearGradient4921">
      <stop
         style="stop-color:#743a43;stop-opacity:1;"
         offset="0"
         id="stop4923" />
      <stop
         id="stop4925"
         offset="0.16666667"
         style="stop-color:#743a43;stop-opacity:0.11764706;" />
      <stop
         style="stop-color:#743a43;stop-opacity:0;"
         offset="1"
         id="stop4927" />
    </linearGradient>
    <linearGradient
       inkscape:collect="always"
       xlink:href="#linearGradient4907"
       id="linearGradient4403"
       gradientUnits="userSpaceOnUse"
       gradientTransform="translate(-196,-68)"
       x1="64"
       y1="120"
       x2="48"
       y2="0" />
    <linearGradient
       inkscape:collect="always"
       xlink:href="#linearGradient4921"
       id="linearGradient4405"
       gradientUnits="userSpaceOnUse"
       gradientTransform="translate(-196,-68)"
       x1="124"
       y1="72"
       x2="0"
       y2="60" />
    <linearGradient
       inkscape:collect="always"
       xlink:href="#linearGradient4907"
       id="linearGradient4507"
       gradientUnits="userSpaceOnUse"
       gradientTransform="translate(-196,-68)"
       x1="64"
       y1="120"
       x2="48"
       y2="0" />
    <linearGradient
       inkscape:collect="always"
       xlink:href="#linearGradient4921"
       id="linearGradient4509"
       gradientUnits="userSpaceOnUse"
       gradientTransform="translate(-196,-68)"
       x1="124"
       y1="72"
       x2="0"
       y2="60" />
    <linearGradient
       inkscape:collect="always"
       xlink:href="#linearGradient4907"
       id="linearGradient4524"
       gradientUnits="userSpaceOnUse"
       gradientTransform="translate(-196,-68)"
       x1="64"
       y1="120"
       x2="48"
       y2="0" />
    <linearGradient
       inkscape:collect="always"
       xlink:href="#linearGradient4921"
       id="linearGradient4526"
       gradientUnits="userSpaceOnUse"
       gradientTransform="translate(-196,-68)"
       x1="124"
       y1="72"
       x2="0"
       y2="60" />
    <linearGradient
       inkscape:collect="always"
       xlink:href="#linearGradient4907"
       id="linearGradient4533"
       gradientUnits="userSpaceOnUse"
       gradientTransform="translate(-196,-68)"
       x1="64"
       y1="120"
       x2="48"
       y2="0" />
    <linearGradient
       inkscape:collect="always"
       xlink:href="#linearGradient4921"
       id="linearGradient4535"
       gradientUnits="userSpaceOnUse"
       gradientTransform="translate(-196,-68)"
       x1="124"
       y1="72"
       x2="0"
       y2="60" />
    <linearGradient
       inkscape:collect="always"
       xlink:href="#linearGradient4921"
       id="linearGradient4538"
       gradientUnits="userSpaceOnUse"
       gradientTransform="matrix(1,0,0,0.5,-256,0)"
       x1="124"
       y1="72"
       x2="0"
       y2="60" />
    <linearGradient
       inkscape:collect="always"
       xlink:href="#linearGradient4907"
       id="linearGradient4541"
       gradientUnits="userSpaceOnUse"
       gradientTransform="matrix(1,0,0,0.5,-256,0)"
       x1="64"
       y1="120"
       x2="48"
       y2="0" />
    <linearGradient
       inkscape:collect="always"
       xlink:href="#linearGradient4307"
       id="linearGradient4373"
       gradientUnits="userSpaceOnUse"
       gradientTransform="translate(-448,-648)"
       x1="448"
       y1="120"
       x2="464"
       y2="120" />
    <linearGradient
       inkscape:collect="always"
       xlink:href="#linearGradient4307"
       id="linearGradient4375"
       gradientUnits="userSpaceOnUse"
       gradientTransform="translate(-448,-680)"
       x1="448"
       y1="120"
       x2="464"
       y2="120" />
    <linearGradient
       inkscape:collect="always"
       xlink:href="#linearGradient4307"
       id="linearGradient4377"
       gradientUnits="userSpaceOnUse"
       gradientTransform="translate(-448,-712)"
       x1="448"
       y1="120"
       x2="464"
       y2="120" />
    <linearGradient
       inkscape:collect="always"
       xlink:href="#linearGradient4307"
       id="linearGradient4379"
       gradientUnits="userSpaceOnUse"
       gradientTransform="translate(-448,-744)"
       x1="448"
       y1="120"
       x2="464"
       y2="120" />
    <linearGradient
       inkscape:collect="always"
       xlink:href="#linearGradient4307"
       id="linearGradient4381"
       gradientUnits="userSpaceOnUse"
       gradientTransform="translate(-576.00011,503.99992)"
       x1="448"
       y1="120"
       x2="464"
       y2="120" />
    <linearGradient
       inkscape:collect="always"
       xlink:href="#linearGradient4307"
       id="linearGradient4383"
       gradientUnits="userSpaceOnUse"
       gradientTransform="translate(-576.00011,407.99992)"
       x1="448"
       y1="120"
       x2="464"
       y2="120" />
    <linearGradient
       inkscape:collect="always"
       xlink:href="#linearGradient4307"
       id="linearGradient4385"
       gradientUnits="userSpaceOnUse"
       gradientTransform="translate(63.99989,-56.00008)"
       x1="448"
       y1="120"
       x2="464"
       y2="120" />
    <linearGradient
       inkscape:collect="always"
       xlink:href="#linearGradient4307"
       id="linearGradient4387"
       gradientUnits="userSpaceOnUse"
       gradientTransform="translate(-1088.0001,-184.00008)"
       x1="448"
       y1="120"
       x2="464"
       y2="120" />
    <radialGradient
       inkscape:collect="always"
       xlink:href="#linearGradient4558"
       id="radialGradient4564"
       cx="768"
       cy="256"
       fx="768"
       fy="256"
       r="64"
       gradientUnits="userSpaceOnUse" />
    <radialGradient
       inkscape:collect="always"
       xlink:href="#linearGradient4572"
       id="radialGradient4578"
       cx="576"
       cy="278.3927"
       fx="576"
       fy="278.3927"
       r="40.289914"
       gradientTransform="matrix(1,0,0,0.49640206,-512,-70.19471)"
       gradientUnits="userSpaceOnUse" />
  </defs>
  <sodipodi:namedview
     id="base"
     pagecolor="#ffffff"
     bordercolor="#000000"
     borderopacity="1"
     inkscape:pageopacity="0.0"
     inkscape:pageshadow="2"
     inkscape:zoom="2.8284272"
     inkscape:cx="106.499"
     inkscape:cy="92.365252"
     inkscape:current-layer="layer7"
     showgrid="true"
     inkscape:document-units="px"
     inkscape:grid-bbox="true"
     inkscape:snap-bbox="true"
     inkscape:snap-nodes="true"
     inkscape:snap-grids="true"
     inkscape:window-width="1440"
     inkscape:window-height="768"
     inkscape:window-x="0"
     inkscape:window-y="0"
     inkscape:window-maximized="1"
     inkscape:showpageshadow="false"
     borderlayer="true">
    <inkscape:grid
       type="xygrid"
       id="grid2993"
       empspacing="4"
       visible="true"
       enabled="true"
       snapvisiblegridlinesonly="true"
       spacingx="16px"
       spacingy="16px"
       empcolor="#d60053"
       empopacity="0.29803922" />
    <inkscape:grid
       type="xygrid"
       id="grid3043"
       empspacing="4"
       visible="true"
       enabled="true"
       snapvisiblegridlinesonly="true"
       color="#ff00f8"
       opacity="0.1254902"
       dotted="true" />
  </sodipodi:namedview>
  <metadata
     id="metadata2990">
    <rdf:RDF>
      <cc:Work
         rdf:about="">
        <dc:format>image/svg+xml</dc:format>
        <dc:type
           rdf:resource="http://purl.org/dc/dcmitype/StillImage" />
        <dc:title>Template</dc:title>
        <cc:license
           rdf:resource="https://www.gnu.org/copyleft/gpl.html" />
        <dc:creator>
          <cc:Agent>
            <dc:title>Ian Walters</dc:title>
          </cc:Agent>
        </dc:creator>
        <dc:source>SimpleRP</dc:source>
      </cc:Work>
    </rdf:RDF>
  </metadata>
  <g
     inkscape:groupmode="layer"
     id="layer2"
     inkscape:label="default"
     style="display:none">
    <image
       style="display:inline"
       y="2.6645353e-15"
       x="704"
       id="image3525"
       xlink:href="file:///Users/ianw/play/SimpleRP/src/default/assets/thaumcraft/textures/blocks/furnace16.png"
       height="128"
       width="128" />
    <image
       style="display:inline"
       y="192"
       x="512"
       id="image3855"
       xlink:href="file:///Users/ianw/play/SimpleRP/src/default/assets/thaumcraft/textures/blocks/furnace15.png"
       height="128"
       width="128" />
  </g>
  <g
     id="layer1"
     inkscape:label="Layer 1"
     inkscape:groupmode="layer"
     transform="translate(0,64)"
     style="display:inline" />
  <g
     inkscape:groupmode="layer"
     id="layer3"
     inkscape:label="brick-overlay"
     style="display:inline" />
  <g
     inkscape:groupmode="layer"
     id="layer4"
     inkscape:label="bellows"
     style="display:inline" />
  <g
     inkscape:groupmode="layer"
     id="layer5"
     inkscape:label="grate"
     style="display:inline" />
  <g
     inkscape:groupmode="layer"
     id="layer6"
     inkscape:label="glow_inner"
     style="display:inline">
    <rect
       style="fill:#241417;fill-opacity:1;stroke:none;display:inline"
       id="rect5548"
       width="128"
       height="128"
       x="0"
       y="-5.9468844e-06" />
    <path
       style="fill:#4c262c;fill-opacity:1;stroke:none;display:inline"
       d="m 2,25.99999 c 0,0 1e-5,-6 0,-9.467958 C 1.99999,14.880796 4.78585,13.452255 4,12 3.67842,11.405798 2,12.99999 2,11.670668 1.99999,4.0000004 2,5.9999968 2,5.9999968 2,3.7839981 3.78399,1.9999948 5.99999,2.000001 L 26,1.9999989 c 2.216,-1.1e-5 4,1.7839972 4,3.9999989 0,0 0,7.9999942 0,12.1874932 -10e-6,1.370742 -3,1.441776 -3,2.812503 0,4.000001 3,1.144904 2.99999,3.000003 2e-5,6.312494 10e-6,1.999994 10e-6,1.999994 0,2.215999 -1.78399,4.000002 -3.99999,3.999996 L 6,29.99999 c -2.216,10e-6 -4,-1.783999 -4,-4 z"
       id="rect5550"
       inkscape:connector-curvature="0"
       sodipodi:nodetypes="sssssssssssssss" />
    <path
       sodipodi:nodetypes="ccssssssccsssssc"
       inkscape:connector-curvature="0"
       id="path4130"
       d="m 5.74227,33.999994 19.125,0.0625 c 2.216,0 5.13273,1.7215 5.13273,3.9375 0,0 0.29865,1.62022 0,2.34123 -0.39863,0.96237 -1.81108,1.24733 -2.20971,2.20971 -0.2706,0.65328 -0.27725,1.47083 0,2.12132 C 28.19063,45.611534 30,45.772524 30,46.793574 l 0,11.20642 c 0,2.216 -1.784,4 -4,4 l -20.25773,0 c -2.216,0 -4,-1.784 -4,-4 l 0,-6.45934 c 0,-1.14754 2.74013,-1.16427 2.56326,-2.2981 -0.14431,-0.92515 -2.56326,-0.2127 -2.56326,-1.14905 l 0,-10.09351 c 0,-2.216 1.784,-4 4,-4 z"
       style="fill:#4c262c;fill-opacity:1;stroke:none;display:inline" />
    <path
       sodipodi:nodetypes="sssssssssssssss"
       inkscape:connector-curvature="0"
       id="path6067"
       d="m 125.83223,37.858964 c 0,0 -10e-6,5.999987 0,9.467951 0,1.651237 -2.78586,3.079789 -2,4.532039 0.32155,0.594228 2,-1 2,0.329321 1e-5,7.670689 -10e-6,5.999996 -10e-6,5.999996 2e-5,2.216014 -1.78399,4.000003 -3.99999,4.000003 l -20,-10e-7 c -2.216,5e-6 -4,-1.783998 -4,-4 0,0 0,-7.999997 -10e-6,-12.187497 2e-5,-1.370717 3.00001,-1.441767 3.00001,-2.812499 0,-3.999999 -3,-1.144895 -2.99999,-2.999993 -2e-5,-6.31251 0,-2.329319 0,-2.329319 -2e-5,-2.216013 1.78399,-4.000002 3.99999,-4.000003 l 20,2e-6 c 2.216,-5e-6 4,1.783998 4,4 z"
       style="fill:#391d21;fill-opacity:1;stroke:none;display:inline" />
    <path
       style="fill:#422126;fill-opacity:1;stroke:none;display:inline"
       d="m 38,34.062494 c 0,0 6,0 9.46796,0 1.65124,0 3.07979,2.78585 4.53204,2 0.59422,-0.32155 -1,-2 0.32932,-2 7.67068,0 5.85818,-0.0625 5.85818,-0.0625 2.216,0 4,1.784 4,4 l 0,20 c 0,2.216 -1.784,4 -4,4 L 38,62.062494 c -2.216,0 -4,-1.784 -4,-4 l 0,-20 c 0,-2.216 1.784,-4 4,-4 z"
       id="path6069"
       inkscape:connector-curvature="0"
       sodipodi:nodetypes="sssssssccsss" />
    <path
       style="fill:#4a282e;fill-opacity:1;stroke:none;display:inline"
       d="m 102,65.999994 c 0,0 1.07044,0 4,0 2.92956,0 0.94942,1 5,1 4.05058,0 0.63694,-1 4,-1 l 7,0 c 2.216,0 4,1.784 4,4 l 0,20 c 0,2.216 -1.784,4 -4,4 l -20,0 c -2.216,0 -4,-1.784 -4,-4 l 0,-20 c 0,-2.216 1.784,-4 4,-4 z"
       id="path6077"
       inkscape:connector-curvature="0"
       sodipodi:nodetypes="sssccssccsss" />
    <path
       style="fill:#5e2f36;fill-opacity:1;stroke:none;display:inline"
       d="m 102,1.999994 c 0,0 6,0 9.46796,0 1.65124,0 3.07979,2.78585 4.53204,2 0.59422,-0.32155 -1,-2 0.32932,-2 7.67068,0 5.67068,0 5.67068,0 2.216,0 4,1.784 4,4 l 0,20 c 0,2.216 -1.784,4 -4,4 0,0 -8,0 -12.1875,0 -1.37073,0 -1.44177,-3 -2.8125,-3 -4,0 -1.1449,3 -3,3 -6.3125,0 -2,0 -2,0 -2.216,0 -4,-1.784 -4,-4 l 0,-20 c 0,-2.216 1.784,-4 4,-4 z"
       id="path6075"
       inkscape:connector-curvature="0"
       sodipodi:nodetypes="sssssssssssssss" />
    <path
       sodipodi:nodetypes="sssssssssssssss"
       inkscape:connector-curvature="0"
       id="path4548"
       d="m 6,65.999994 c 0,0 6,0 9.46796,0 1.65124,0 3.07979,2.78585 4.53204,2 0.59422,-0.32155 -1,-2 0.32932,-2 7.67068,0 5.67068,0 5.67068,0 2.216,0 4,1.784 4,4 l 0,20 c 0,2.216 -1.784,4 -4,4 0,0 -8,0 -12.1875,0 -1.37073,0 -1.44177,-3 -2.8125,-3 -4,0 -1.1449,3 -3,3 -6.3125,0 -2,0 -2,0 -2.216,0 -4,-1.784 -4,-4 l 0,-20 c 0,-2.216 1.784,-4 4,-4 z"
       style="fill:#5e2f36;fill-opacity:1;stroke:none;display:inline" />
    <rect
       style="fill:#673940;fill-opacity:1;stroke:none"
       id="rect4550"
       width="124"
       height="28"
       x="2"
       y="98"
       ry="4" />
    <rect
       ry="4"
       y="1.999994"
       x="34"
       height="92"
       width="28"
       id="rect4552"
       style="fill:#622d35;fill-opacity:1;stroke:none" />
    <rect
       style="fill:#4e2b30;fill-opacity:1;stroke:none"
       id="rect4554"
       width="28"
       height="92"
       x="66"
       y="1.999994"
       ry="4" />
    <path
       sodipodi:type="arc"
       style="opacity:0.6;fill:url(#radialGradient4564);fill-opacity:1;stroke:none"
       id="path4556"
       sodipodi:cx="768"
       sodipodi:cy="256"
       sodipodi:rx="64"
       sodipodi:ry="64"
       d="m 832,256 a 64,64 0 1 1 -128,0 64,64 0 1 1 128,0 z"
       transform="translate(-704,-128.00001)" />
  </g>
  <g
     inkscape:groupmode="layer"
     id="layer7"
     inkscape:label="eyes" />
</svg>
