<?xml version="1.0" encoding="UTF-8" standalone="no"?>
<!-- Created with Inkscape (http://www.inkscape.org/) -->

<svg
   xmlns:dc="http://purl.org/dc/elements/1.1/"
   xmlns:cc="http://creativecommons.org/ns#"
   xmlns:rdf="http://www.w3.org/1999/02/22-rdf-syntax-ns#"
   xmlns:svg="http://www.w3.org/2000/svg"
   xmlns="http://www.w3.org/2000/svg"
   xmlns:xlink="http://www.w3.org/1999/xlink"
   xmlns:sodipodi="http://sodipodi.sourceforge.net/DTD/sodipodi-0.dtd"
   xmlns:inkscape="http://www.inkscape.org/namespaces/inkscape"
   width="128"
   height="128"
   id="svg2985"
   version="1.1"
   inkscape:version="0.48.5 r10040"
   sodipodi:docname="furnace25.svg"
   inkscape:export-filename="/Users/ianw/drawing.png"
   inkscape:export-xdpi="180"
   inkscape:export-ydpi="180">
  <title
     id="title3119">Template</title>
  <defs
     id="defs2987">
    <linearGradient
       id="linearGradient4572">
      <stop
         style="stop-color:#e25a0a;stop-opacity:1;"
         offset="0"
         id="stop4574" />
      <stop
         style="stop-color:#7c0a14;stop-opacity:1;"
         offset="1"
         id="stop4576" />
    </linearGradient>
    <linearGradient
       inkscape:collect="always"
       id="linearGradient4558">
      <stop
         style="stop-color:#d45500;stop-opacity:1;"
         offset="0"
         id="stop4560" />
      <stop
         style="stop-color:#d45500;stop-opacity:0;"
         offset="1"
         id="stop4562" />
    </linearGradient>
    <linearGradient
       id="linearGradient4307">
      <stop
         style="stop-color:#000000;stop-opacity:1;"
         offset="0"
         id="stop4309" />
      <stop
         style="stop-color:#a1a09f;stop-opacity:0;"
         offset="1"
         id="stop4311" />
    </linearGradient>
    <linearGradient
       id="linearGradient4289">
      <stop
         style="stop-color:#333133;stop-opacity:1;"
         offset="0"
         id="stop4291" />
      <stop
         style="stop-color:#6f6d6f;stop-opacity:1;"
         offset="1"
         id="stop4293" />
    </linearGradient>
    <linearGradient
       id="linearGradient4011">
      <stop
         id="stop4013"
         offset="0"
         style="stop-color:#816647;stop-opacity:1" />
      <stop
         id="stop4015"
         offset="1"
         style="stop-color:#000000;stop-opacity:0" />
    </linearGradient>
    <linearGradient
       id="linearGradient3970">
      <stop
         id="stop3972"
         offset="0"
         style="stop-color:#77448e;stop-opacity:1;" />
      <stop
         id="stop3974"
         offset="1"
         style="stop-color:#4c1e61;stop-opacity:0.43846154;" />
    </linearGradient>
    <linearGradient
       y2="-44"
       x2="9"
       y1="-44"
       x1="-33"
       gradientTransform="translate(78,68)"
       gradientUnits="userSpaceOnUse"
       id="linearGradient3402-7"
       xlink:href="#linearGradient3970-4"
       inkscape:collect="always" />
    <linearGradient
       id="linearGradient3970-4">
      <stop
         id="stop3972-5"
         offset="0"
         style="stop-color:#77448e;stop-opacity:1;" />
      <stop
         id="stop3974-6"
         offset="1"
         style="stop-color:#4c1e61;stop-opacity:0.43846154;" />
    </linearGradient>
    <filter
       id="filter6354"
       inkscape:label="Feather"
       inkscape:menu="ABCs"
       inkscape:menu-tooltip="Blurred mask on the edge without altering the contents"
       color-interpolation-filters="sRGB">
      <feGaussianBlur
         id="feGaussianBlur6356"
         result="result6"
         stdDeviation="0.5" />
      <feComposite
         id="feComposite6358"
         in2="result6"
         operator="atop"
         in="SourceGraphic"
         result="result91" />
      <feComposite
         id="feComposite6360"
         in2="result91"
         operator="in"
         result="result92" />
      <feComposite
         id="feComposite6362"
         in2="result92"
         operator="in" />
    </filter>
    <linearGradient
       id="linearGradient4907">
      <stop
         id="stop4909"
         offset="0"
         style="stop-color:#743a43;stop-opacity:1;" />
      <stop
         style="stop-color:#5d2f36;stop-opacity:1;"
         offset="0.16666667"
         id="stop4915" />
      <stop
         id="stop4911"
         offset="1"
         style="stop-color:#432127;stop-opacity:1;" />
    </linearGradient>
    <linearGradient
       id="linearGradient4921">
      <stop
         style="stop-color:#743a43;stop-opacity:1;"
         offset="0"
         id="stop4923" />
      <stop
         id="stop4925"
         offset="0.16666667"
         style="stop-color:#743a43;stop-opacity:0.11764706;" />
      <stop
         style="stop-color:#743a43;stop-opacity:0;"
         offset="1"
         id="stop4927" />
    </linearGradient>
    <linearGradient
       inkscape:collect="always"
       xlink:href="#linearGradient4907"
       id="linearGradient4403"
       gradientUnits="userSpaceOnUse"
       gradientTransform="translate(-196,-68)"
       x1="64"
       y1="120"
       x2="48"
       y2="0" />
    <linearGradient
       inkscape:collect="always"
       xlink:href="#linearGradient4921"
       id="linearGradient4405"
       gradientUnits="userSpaceOnUse"
       gradientTransform="translate(-196,-68)"
       x1="124"
       y1="72"
       x2="0"
       y2="60" />
    <linearGradient
       inkscape:collect="always"
       xlink:href="#linearGradient4907"
       id="linearGradient4507"
       gradientUnits="userSpaceOnUse"
       gradientTransform="translate(-196,-68)"
       x1="64"
       y1="120"
       x2="48"
       y2="0" />
    <linearGradient
       inkscape:collect="always"
       xlink:href="#linearGradient4921"
       id="linearGradient4509"
       gradientUnits="userSpaceOnUse"
       gradientTransform="translate(-196,-68)"
       x1="124"
       y1="72"
       x2="0"
       y2="60" />
    <linearGradient
       inkscape:collect="always"
       xlink:href="#linearGradient4907"
       id="linearGradient4524"
       gradientUnits="userSpaceOnUse"
       gradientTransform="translate(-196,-68)"
       x1="64"
       y1="120"
       x2="48"
       y2="0" />
    <linearGradient
       inkscape:collect="always"
       xlink:href="#linearGradient4921"
       id="linearGradient4526"
       gradientUnits="userSpaceOnUse"
       gradientTransform="translate(-196,-68)"
       x1="124"
       y1="72"
       x2="0"
       y2="60" />
    <linearGradient
       inkscape:collect="always"
       xlink:href="#linearGradient4907"
       id="linearGradient4533"
       gradientUnits="userSpaceOnUse"
       gradientTransform="translate(-196,-68)"
       x1="64"
       y1="120"
       x2="48"
       y2="0" />
    <linearGradient
       inkscape:collect="always"
       xlink:href="#linearGradient4921"
       id="linearGradient4535"
       gradientUnits="userSpaceOnUse"
       gradientTransform="translate(-196,-68)"
       x1="124"
       y1="72"
       x2="0"
       y2="60" />
    <linearGradient
       inkscape:collect="always"
       xlink:href="#linearGradient4921"
       id="linearGradient4538"
       gradientUnits="userSpaceOnUse"
       gradientTransform="matrix(1,0,0,0.5,-256,0)"
       x1="124"
       y1="72"
       x2="0"
       y2="60" />
    <linearGradient
       inkscape:collect="always"
       xlink:href="#linearGradient4907"
       id="linearGradient4541"
       gradientUnits="userSpaceOnUse"
       gradientTransform="matrix(1,0,0,0.5,-256,0)"
       x1="64"
       y1="120"
       x2="48"
       y2="0" />
    <radialGradient
       inkscape:collect="always"
       xlink:href="#linearGradient4558"
       id="radialGradient4564"
       cx="768"
       cy="256"
       fx="768"
       fy="256"
       r="64"
       gradientUnits="userSpaceOnUse" />
  </defs>
  <sodipodi:namedview
     id="base"
     pagecolor="#ffffff"
     bordercolor="#000000"
     borderopacity="1"
     inkscape:pageopacity="0.0"
     inkscape:pageshadow="2"
     inkscape:zoom="8.0000002"
     inkscape:cx="112.9012"
     inkscape:cy="112.22867"
     inkscape:current-layer="layer7"
     showgrid="true"
     inkscape:document-units="px"
     inkscape:grid-bbox="true"
     inkscape:snap-bbox="true"
     inkscape:snap-nodes="true"
     inkscape:snap-grids="true"
     inkscape:window-width="1440"
     inkscape:window-height="768"
     inkscape:window-x="0"
     inkscape:window-y="0"
     inkscape:window-maximized="1"
     inkscape:showpageshadow="false"
     borderlayer="true">
    <inkscape:grid
       type="xygrid"
       id="grid2993"
       empspacing="4"
       visible="true"
       enabled="true"
       snapvisiblegridlinesonly="true"
       spacingx="16px"
       spacingy="16px"
       empcolor="#d60053"
       empopacity="0.29803922" />
    <inkscape:grid
       type="xygrid"
       id="grid3043"
       empspacing="4"
       visible="true"
       enabled="true"
       snapvisiblegridlinesonly="true"
       color="#ff00f8"
       opacity="0.1254902"
       dotted="true" />
  </sodipodi:namedview>
  <metadata
     id="metadata2990">
    <rdf:RDF>
      <cc:Work
         rdf:about="">
        <dc:format>image/svg+xml</dc:format>
        <dc:type
           rdf:resource="http://purl.org/dc/dcmitype/StillImage" />
        <dc:title>Template</dc:title>
        <cc:license
           rdf:resource="https://www.gnu.org/copyleft/gpl.html" />
        <dc:creator>
          <cc:Agent>
            <dc:title>Ian Walters</dc:title>
          </cc:Agent>
        </dc:creator>
        <dc:source>SimpleRP</dc:source>
      </cc:Work>
    </rdf:RDF>
  </metadata>
  <g
     inkscape:groupmode="layer"
     id="layer2"
     inkscape:label="default"
     style="display:none">
    <image
       style="display:inline"
       y="2.6645353e-15"
       x="704"
       id="image3525"
       xlink:href="file:///Users/ianw/play/SimpleRP/src/default/assets/thaumcraft/textures/blocks/furnace16.png"
       height="128"
       width="128" />
    <image
       style="display:inline"
       y="192"
       x="512"
       id="image3855"
       xlink:href="file:///Users/ianw/play/SimpleRP/src/default/assets/thaumcraft/textures/blocks/furnace15.png"
       height="128"
       width="128" />
  </g>
  <g
     id="layer1"
     inkscape:label="Layer 1"
     inkscape:groupmode="layer"
     transform="translate(0,64)"
     style="display:inline" />
  <g
     inkscape:groupmode="layer"
     id="layer3"
     inkscape:label="brick-overlay"
     style="display:inline" />
  <g
     inkscape:groupmode="layer"
     id="layer4"
     inkscape:label="bellows"
     style="display:inline" />
  <g
     inkscape:groupmode="layer"
     id="layer5"
     inkscape:label="grate"
     style="display:inline" />
  <g
     inkscape:groupmode="layer"
     id="layer6"
     inkscape:label="glow_inner"
     style="display:inline">
    <rect
       style="fill:#241417;fill-opacity:1;stroke:none;display:inline"
       id="rect5548"
       width="128"
       height="128"
       x="0"
       y="-128"
       transform="matrix(0,1,-1,0,0,0)" />
    <path
       style="fill:#4c262c;fill-opacity:1;stroke:none;display:inline"
       d="m 102.00003,1.9999554 c 0,0 5.99999,3.4e-5 9.46795,2.9e-5 1.65122,-5e-6 3.07976,2.78586 4.53204,1.999988 0.59419,-0.321546 -0.99999,-1.999995 0.32933,-2.000015 7.67066,-10e-7 5.67067,7e-6 5.67067,7e-6 2.21601,10e-7 3.99998,1.784003 3.99998,3.999992 l 0,20.0000256 c 3e-5,2.216006 -1.78397,3.999993 -3.99998,3.999997 0,0 -7.99999,9e-6 -12.18752,7e-6 -1.37071,-3.2e-5 -1.44176,-3.000011 -2.8125,-2.999991 -4,-2.4e-5 -1.14488,2.999991 -2.99997,2.999966 -6.3125,1.7e-5 -2.00001,1.2e-5 -2.00001,1.2e-5 -2.21601,2e-5 -4,-1.78397 -3.99998,-3.999978 l -3e-5,-20.0000226 c 0,-2.216 1.784,-4.000002 4.00002,-4.000017 z"
       id="rect5550"
       inkscape:connector-curvature="0"
       sodipodi:nodetypes="sssssssssssssss" />
    <path
       sodipodi:nodetypes="ccssssssccsssssc"
       inkscape:connector-curvature="0"
       id="path4130"
       d="m 94.00001,5.7422544 -0.0625,19.1249906 c 1e-5,2.216002 -1.72151,5.13275 -3.9375,5.132731 0,0 -1.6202,0.298636 -2.34122,7e-6 -0.96236,-0.39865 -1.24734,-1.81109 -2.20972,-2.209718 -0.65327,-0.270588 -1.47083,-0.277235 -2.121322,9e-6 -0.939264,0.400356 -1.100262,2.209722 -2.121317,2.209707 l -11.206407,-7e-6 c -2.216008,2.2e-5 -4.000004,-1.78397 -4.000005,-3.999991 l 7e-6,-20.2577476 c -5e-6,-2.216009 1.783989,-3.99998 3.999988,-3.999978 l 6.459352,-1.9e-5 c 1.147524,-2.6e-5 1.164273,2.740145 2.298105,2.563252 0.925136,-0.144299 0.212677,-2.563257 1.149037,-2.56324 l 10.093522,-1.1e-5 c 2.21597,-1e-6 4,1.784003 4,4.000007 z"
       style="fill:#4c262c;fill-opacity:1;stroke:none;display:inline" />
    <path
       sodipodi:nodetypes="sssssssssssssss"
       inkscape:connector-curvature="0"
       id="path6067"
       d="m 90.14103,125.83221 c 0,0 -5.99998,-2e-5 -9.467932,1e-5 -1.651237,2e-5 -3.079793,-2.78586 -4.532045,-2.00002 -0.594269,0.32151 0.999994,2.00003 -0.329321,2.00002 -7.670699,2e-5 -5.999999,-2e-5 -5.999999,-2e-5 -2.216012,2e-5 -4.000009,-1.78398 -4.000011,-3.99997 l 1.2e-5,-20.00001 c -1.2e-5,-2.216015 1.784002,-4.000018 4.000001,-4.000009 0,0 8.000003,1e-5 12.187495,-1e-5 1.370722,2.2e-5 1.44177,3.000019 2.81251,3.000029 3.99999,-10e-6 1.14489,-3.000016 2.99998,-3.000007 6.3125,-3.3e-5 2.32932,-10e-7 2.32932,-10e-7 2.21601,-2e-5 3.99999,1.783973 4,3.999988 l 2e-5,20.00002 c 0,2.21599 -1.78401,3.99999 -4.00003,3.99998 z"
       style="fill:#391d21;fill-opacity:1;stroke:none;display:inline" />
    <path
       style="fill:#422126;fill-opacity:1;stroke:none;display:inline"
       d="m 93.93751,37.999972 c 0,0 1e-5,6.000008 1e-5,9.467967 -1e-5,1.651254 -2.78585,3.079789 -2.00002,4.53205 0.32159,0.594191 2.00001,-1.000004 2.00002,0.329319 0,7.670675 0.0625,5.858174 0.0625,5.858174 -1e-5,2.21599 -1.78401,3.999999 -4.00001,3.999994 l -20.000001,2e-6 c -2.215998,3e-6 -4.000002,-1.783998 -3.999996,-3.999999 l -0.0625,-20.1875 c -2e-6,-2.215989 1.784,-3.999994 3.999988,-3.999995 l 19.999999,4e-6 c 2.21601,-5e-6 4.00001,1.783986 4.00002,3.999984 z"
       id="path6069"
       inkscape:connector-curvature="0"
       sodipodi:nodetypes="sssssssccsss" />
    <path
       style="fill:#4a282e;fill-opacity:1;stroke:none;display:inline"
       d="m 62.000011,101.99998 c 0,0 -10e-7,1.07044 10e-6,4.00001 -1.2e-5,2.92956 -1.00003,0.9494 -1.000003,5 -10e-6,4.05059 1.000002,0.63693 0.999996,3.99998 l -3e-6,7.00001 c -4e-6,2.21601 -1.783995,4.00001 -3.99999,4.00002 l -20.000011,-1e-5 c -2.216008,2e-5 -3.999982,-1.78399 -4.000003,-4 l 0,-20 c -3e-6,-2.216005 1.784005,-4.000005 4.000014,-4.000005 l 19.999994,-10e-6 c 2.216008,10e-6 4.000017,1.78401 4.000001,4.000005 z"
       id="path6077"
       inkscape:connector-curvature="0"
       sodipodi:nodetypes="sssccssccsss" />
    <path
       style="fill:#5e2f36;fill-opacity:1;stroke:none;display:inline"
       d="m 126.00003,101.99998 c 0,0 -3e-5,6.00001 -10e-6,9.46796 10e-6,1.65124 -2.78585,3.0798 -2.00004,4.53203 0.3216,0.59422 2.00003,-0.99998 2.00004,0.32934 0,7.67069 -1e-5,5.67068 -1e-5,5.67068 1e-5,2.21599 -1.78398,4 -3.99999,4 l -20.00001,0 C 99.78402,126 98.00002,124.21598 98.00002,122 c 0,0 10e-6,-8.00001 0,-12.18751 -1e-5,-1.37074 2.99998,-1.44176 2.99999,-2.8125 1e-5,-3.99999 -2.99999,-1.1449 -3,-3 -1e-5,-6.312517 0,-2 0,-2 2e-5,-2.216005 1.784,-4.000015 3.99999,-4.000005 l 20.00001,0 c 2.21599,0 4,1.78398 4.00002,3.999995 z"
       id="path6075"
       inkscape:connector-curvature="0"
       sodipodi:nodetypes="sssssssssssssss" />
    <path
       sodipodi:nodetypes="sssssssssssssss"
       inkscape:connector-curvature="0"
       id="path4548"
       d="m 62.000026,5.9999714 c 0,0 -8e-6,6.0000066 -2.6e-5,9.4679756 3e-6,1.651224 -2.785837,3.079791 -1.999998,4.532037 0.321596,0.594201 2.000021,-0.999999 2.000003,0.329311 10e-7,7.670664 1.1e-5,5.670679 1.1e-5,5.670679 -5e-6,2.216011 -1.784001,3.999997 -4.000004,4.00002 L 38.00002,30 c -2.216004,-1.9e-5 -4.000009,-1.784018 -3.999996,-4.000002 0,0 -1e-5,-8.000049 -3e-6,-12.187503 -9e-6,-1.370738 2.999982,-1.441805 2.999992,-2.81251 1.5e-5,-3.9999886 -3.000014,-1.1449156 -3.000006,-3.0000056 4e-6,-6.31249 1.7e-5,-2.000001 1.7e-5,-2.000001 -1.3e-5,-2.216005 1.783991,-3.999989 3.999989,-3.999993 l 20.000013,-1.8e-5 c 2.215993,1.5e-5 3.999986,1.78402 4,4.000004 z"
       style="fill:#5e2f36;fill-opacity:1;stroke:none;display:inline" />
    <rect
       style="fill:#673940;fill-opacity:1;stroke:none"
       id="rect4550"
       width="124"
       height="28"
       x="1.999985"
       y="-30.000008"
       ry="4"
       transform="matrix(0,1,-1,0,0,0)" />
    <rect
       ry="4"
       y="-126"
       x="33.999969"
       height="92"
       width="28"
       id="rect4552"
       style="fill:#622d35;fill-opacity:1;stroke:none"
       transform="matrix(0,1,-1,0,0,0)" />
    <rect
       style="fill:#4e2b30;fill-opacity:1;stroke:none"
       id="rect4554"
       width="28"
       height="92"
       x="65.999962"
       y="-126"
       ry="4"
       transform="matrix(0,1,-1,0,0,0)" />
    <path
       sodipodi:type="arc"
       style="opacity:0.6;fill:url(#radialGradient4564);fill-opacity:1;stroke:none"
       id="path4556"
       sodipodi:cx="768"
       sodipodi:cy="256"
       sodipodi:rx="64"
       sodipodi:ry="64"
       d="m 832,256 a 64,64 0 1 1 -128,0 64,64 0 1 1 128,0 z"
       transform="matrix(0,1,-1,0,256.00003,-703.99998)" />
  </g>
  <g
     inkscape:groupmode="layer"
     id="layer7"
     inkscape:label="eyes" />
</svg>
