<?xml version="1.0" encoding="UTF-8" standalone="no"?>
<!-- Created with Inkscape (http://www.inkscape.org/) -->

<svg
   xmlns:dc="http://purl.org/dc/elements/1.1/"
   xmlns:cc="http://creativecommons.org/ns#"
   xmlns:rdf="http://www.w3.org/1999/02/22-rdf-syntax-ns#"
   xmlns:svg="http://www.w3.org/2000/svg"
   xmlns="http://www.w3.org/2000/svg"
   xmlns:xlink="http://www.w3.org/1999/xlink"
   xmlns:sodipodi="http://sodipodi.sourceforge.net/DTD/sodipodi-0.dtd"
   xmlns:inkscape="http://www.inkscape.org/namespaces/inkscape"
   width="128"
   height="128"
   id="svg2985"
   version="1.1"
   inkscape:version="0.48.2 r9819"
   sodipodi:docname="planks_silverwood.svg"
   inkscape:export-filename="/Users/ianw/drawing.png"
   inkscape:export-xdpi="180"
   inkscape:export-ydpi="180">
  <title
     id="title3119">Template</title>
  <defs
     id="defs2987">
    <linearGradient
       gradientUnits="userSpaceOnUse"
       y2="64"
       x2="128"
       y1="64"
       x1="0"
       id="linearGradient4309"
       xlink:href="#linearGradient4303"
       inkscape:collect="always" />
    <linearGradient
       id="linearGradient4001">
      <stop
         style="stop-color:#383530;stop-opacity:1;"
         offset="0"
         id="stop4003" />
      <stop
         id="stop4009"
         offset="0.5"
         style="stop-color:#706a60;stop-opacity:1;" />
      <stop
         style="stop-color:#9e988e;stop-opacity:1;"
         offset="1"
         id="stop4005" />
    </linearGradient>
    <linearGradient
       id="linearGradient4011">
      <stop
         style="stop-color:#816647;stop-opacity:1"
         offset="0"
         id="stop4013" />
      <stop
         style="stop-color:#000000;stop-opacity:0"
         offset="1"
         id="stop4015" />
    </linearGradient>
    <linearGradient
       id="linearGradient4303">
      <stop
         id="stop4305"
         offset="0"
         style="stop-color:#e1ded5;stop-opacity:1;" />
      <stop
         id="stop4307"
         offset="1"
         style="stop-color:#c0baa6;stop-opacity:1;" />
    </linearGradient>
    <filter
       inkscape:collect="always"
       id="filter10890">
      <feGaussianBlur
         inkscape:collect="always"
         stdDeviation="2.8"
         id="feGaussianBlur10892" />
    </filter>
  </defs>
  <sodipodi:namedview
     id="base"
     pagecolor="#ffffff"
     bordercolor="#000000"
     borderopacity="1"
     inkscape:pageopacity="0.0"
     inkscape:pageshadow="2"
     inkscape:zoom="5.656854"
     inkscape:cx="28.556705"
     inkscape:cy="44.610041"
     inkscape:current-layer="layer1"
     showgrid="true"
     inkscape:document-units="px"
     inkscape:grid-bbox="true"
     inkscape:snap-bbox="false"
     inkscape:snap-nodes="true"
     inkscape:snap-grids="true"
     inkscape:window-width="2205"
     inkscape:window-height="1174"
     inkscape:window-x="74"
     inkscape:window-y="17"
     inkscape:window-maximized="0"
     inkscape:showpageshadow="false"
     borderlayer="true">
    <inkscape:grid
       type="xygrid"
       id="grid2993"
       empspacing="4"
       visible="true"
       enabled="true"
       snapvisiblegridlinesonly="true"
       spacingx="16px"
       spacingy="16px"
       empcolor="#d60053"
       empopacity="0.29803922" />
    <inkscape:grid
       type="xygrid"
       id="grid3043"
       empspacing="4"
       visible="true"
       enabled="true"
       snapvisiblegridlinesonly="true"
       color="#ff00f8"
       opacity="0.1254902"
       dotted="true" />
  </sodipodi:namedview>
  <metadata
     id="metadata2990">
    <rdf:RDF>
      <cc:Work
         rdf:about="">
        <dc:format>image/svg+xml</dc:format>
        <dc:type
           rdf:resource="http://purl.org/dc/dcmitype/StillImage" />
        <dc:title>Template</dc:title>
        <cc:license
           rdf:resource="https://www.gnu.org/copyleft/gpl.html" />
        <dc:creator>
          <cc:Agent>
            <dc:title>Ian Walters</dc:title>
          </cc:Agent>
        </dc:creator>
        <dc:source>SimpleRP</dc:source>
      </cc:Work>
    </rdf:RDF>
  </metadata>
  <g
     id="layer1"
     inkscape:label="Layer 1"
     inkscape:groupmode="layer"
     transform="translate(0,64)">
    <rect
       style="fill:#a29e8e;fill-opacity:1;stroke:none"
       id="rect3363"
       width="128"
       height="128"
       x="0"
       y="0"
       transform="translate(0,-64)" />
    <path
       style="fill:#d3cfc4;fill-opacity:1;stroke:none"
       d="M 64,4 C 60,4 41,8 33,8 25,8 12,7 0,8 c -12,1 -8,46 0,48 8,2 11,3 18,2 8.854377,-1.264911 6,-2 14,-2 l 12,0 c 4,0 20,4 24,4 4,0 20,0 24,-4 4,-4 28,-2 36,0 8,2 8,-49 0,-48 C 120,9 100,7 92,7 84,7 68,4 64,4 z"
       transform="translate(0,-64)"
       id="path3365"
       inkscape:connector-curvature="0"
       sodipodi:nodetypes="sssssssssssss" />
    <path
       style="fill:#d3cfc4;fill-opacity:1;stroke:none"
       d="m 0,68 c 8,0 23.926153,-3 36,-3 12.073847,0 28,3 36,3 8,0 16.23886,1.940285 24,0 8,-2 24,0 32,0 8,0 8,48 0,52 -8,4 -30,3 -38,1 -8.677218,-2.1693 -50.33739,-2.29878 -58,0 -10,3 -24,-5 -32,-1 -8,4 -8,-52 0,-52 z"
       id="path3367"
       inkscape:connector-curvature="0"
       transform="translate(0,-64)"
       sodipodi:nodetypes="zzsszzsszz" />
    <path
       id="use10857"
       style="fill:#f0eadf;fill-opacity:1;stroke:none;filter:url(#filter10890)"
       d="m 120,40 0,12 c 0,1.885618 -2.11438,4 -4,4 l -12,0 c -1.88562,0 -4,-2.114382 -4,-4 0,-1.885618 2.11438,-4 4,-4 l 4,0 c 1.88562,0 4,-2.114382 4,-4 l 0,-4 c 0,-1.885618 2.11438,-4 4,-4 1.88562,0 4,2.114382 4,4 z M 24,56 12,56 C 10.11438,56 8,53.88562 8,52 L 8,40 c 0,-1.88562 2.11438,-4 4,-4 1.88562,0 4,2.11438 4,4 l 0,4 c 0,1.88562 2.11438,4 4,4 l 4,0 c 1.88562,0 4,2.11438 4,4 0,1.88562 -2.11438,4 -4,4 z m 80,-112 12,0 c 1.88562,0 4,2.11438 4,4 l 0,12 c 0,1.88562 -2.11438,4 -4,4 -1.88562,0 -4,-2.11438 -4,-4 l 0,-4 c 0,-1.88562 -2.11438,-4 -4,-4 l -4,0 c -1.88562,0 -4,-2.11438 -4,-4 0,-1.88562 2.11438,-4 4,-4 z M 8,-40 8,-52 c 0,-1.885618 2.11438,-4 4,-4 l 12,0 c 1.88562,0 4,2.114382 4,4 0,1.885618 -2.11438,4 -4,4 l -4,0 c -1.88562,0 -4,2.114382 -4,4 l 0,4 c 0,1.885618 -2.11438,4 -4,4 -1.88562,0 -4,-2.114382 -4,-4 z M 72,0 c 0,4.418278 -3.58172,8 -8,8 -4.41828,0 -8,-3.581722 -8,-8 0,-4.418278 3.58172,-8 8,-8 4.41828,0 8,3.581722 8,8 z M 52,-29.65625 C 42.07194,-28.080582 32.66274,-18.191453 33,-8 c 0.16537,4.997264 6.97976,3.992985 8.375,0 1.89497,-5.423146 5.94407,-9.594265 10.625,-12.78125 4.24397,-2.889482 4.27582,-9.55361 0,-8.875 z m 24,0 c -4.27582,-0.67861 -4.24397,5.985518 0,8.875 4.68093,3.186985 8.73003,7.358104 10.625,12.78125 1.39524,3.992985 8.20963,4.997264 8.375,0 0.33726,-10.191453 -9.07194,-20.080582 -19,-21.65625 z M 34.3125,12 c 1.11175,8.581448 9.10732,16.520889 17.6875,17.65625 4.29193,0.567924 4.21107,-5.937786 0,-8.875 C 48.55224,18.376442 45.62274,15.448234 43.21875,12 40.28248,7.788269 33.75472,7.694592 34.3125,12 z m 50.46875,0 C 82.37726,15.448234 79.44776,18.376442 76,20.78125 c -4.21107,2.937214 -4.29193,9.442924 0,8.875 C 84.58018,28.520889 92.57575,20.581448 93.6875,12 94.24528,7.694592 87.71752,7.788269 84.78125,12 z M 64,-48 c -26.50967,0 -48,21.490332 -48,48 0,26.509668 21.49033,48 48,48 26.50967,0 48,-21.490332 48,-48 0,-26.509668 -21.49033,-48 -48,-48 z m 0,8 c 22.09139,0 40,17.90861 40,40 C 104,22.09139 86.09139,40 64,40 41.90861,40 24,22.09139 24,0 24,-22.09139 41.90861,-40 64,-40 z"
       inkscape:connector-curvature="0" />
    <path
       inkscape:connector-curvature="0"
       d="m 120,40 0,12 c 0,1.885618 -2.11438,4 -4,4 l -12,0 c -1.88562,0 -4,-2.114382 -4,-4 0,-1.885618 2.11438,-4 4,-4 l 4,0 c 1.88562,0 4,-2.114382 4,-4 l 0,-4 c 0,-1.885618 2.11438,-4 4,-4 1.88562,0 4,2.114382 4,4 z M 24,56 12,56 C 10.11438,56 8,53.88562 8,52 L 8,40 c 0,-1.88562 2.11438,-4 4,-4 1.88562,0 4,2.11438 4,4 l 0,4 c 0,1.88562 2.11438,4 4,4 l 4,0 c 1.88562,0 4,2.11438 4,4 0,1.88562 -2.11438,4 -4,4 z m 80,-112 12,0 c 1.88562,0 4,2.11438 4,4 l 0,12 c 0,1.88562 -2.11438,4 -4,4 -1.88562,0 -4,-2.11438 -4,-4 l 0,-4 c 0,-1.88562 -2.11438,-4 -4,-4 l -4,0 c -1.88562,0 -4,-2.11438 -4,-4 0,-1.88562 2.11438,-4 4,-4 z M 8,-40 8,-52 c 0,-1.885618 2.11438,-4 4,-4 l 12,0 c 1.88562,0 4,2.114382 4,4 0,1.885618 -2.11438,4 -4,4 l -4,0 c -1.88562,0 -4,2.114382 -4,4 l 0,4 c 0,1.885618 -2.11438,4 -4,4 -1.88562,0 -4,-2.114382 -4,-4 z M 72,-1.8000001e-7 C 72,4.4182777 68.41828,7.9999997 64,7.9999997 59.58172,7.9999997 56,4.4182777 56,-1.8000001e-7 56,-4.4182782 59.58172,-8.0000002 64,-8.0000002 c 4.41828,0 8,3.581722 8,8.00000001999999 z M 52,-29.65625 c -9.92806,1.575668 -19.33726,11.464797 -19,21.6562498 0.16537,4.997264 6.97976,3.992985 8.375,0 1.89497,-5.4231458 5.94407,-9.5942648 10.625,-12.7812498 4.24397,-2.889482 4.27582,-9.55361 0,-8.875 z m 24,0 c -4.27582,-0.67861 -4.24397,5.985518 0,8.875 4.68093,3.186985 8.730033,7.358104 10.625003,12.7812498 1.39524,3.992985 8.20963,4.997264 8.375,0 C 95.337263,-18.191453 85.928063,-28.080582 76,-29.65625 z M 34.3125,12 c 1.11175,8.581448 9.10732,16.520889 17.6875,17.65625 4.29193,0.567924 4.21107,-5.937786 0,-8.875 C 48.55224,18.376442 45.62274,15.448234 43.21875,12 40.28248,7.7882687 33.75472,7.6945917 34.3125,12 z m 50.468753,0 C 82.37726,15.448234 79.44776,18.376442 76,20.78125 c -4.21107,2.937214 -4.29193,9.442924 0,8.875 C 84.580183,28.520889 92.575753,20.581448 93.687503,12 c 0.55778,-4.3054083 -5.96998,-4.2117313 -8.90625,0 z M 64,-48 C 37.49033,-48 16,-26.509668 16,-1.8000001e-7 16,26.509668 37.49033,48 64,48 90.509673,48 112,26.509668 112,-1.8000001e-7 112,-26.509668 90.509673,-48 64,-48 z m 0,8 C 86.091393,-40 104,-22.09139 104,-1.8000001e-7 104,22.09139 86.091393,40 64,40 41.90861,40 24,22.09139 24,-1.8000001e-7 24,-22.09139 41.90861,-40 64,-40 z"
       style="opacity:0.2;fill:#42361b;fill-opacity:1;stroke:none"
       id="path10884" />
  </g>
</svg>
