<?xml version="1.0" encoding="UTF-8" standalone="no"?>
<!-- Created with Inkscape (http://www.inkscape.org/) -->

<svg
   xmlns:dc="http://purl.org/dc/elements/1.1/"
   xmlns:cc="http://creativecommons.org/ns#"
   xmlns:rdf="http://www.w3.org/1999/02/22-rdf-syntax-ns#"
   xmlns:svg="http://www.w3.org/2000/svg"
   xmlns="http://www.w3.org/2000/svg"
   xmlns:xlink="http://www.w3.org/1999/xlink"
   xmlns:sodipodi="http://sodipodi.sourceforge.net/DTD/sodipodi-0.dtd"
   xmlns:inkscape="http://www.inkscape.org/namespaces/inkscape"
   width="128"
   height="128"
   id="svg2985"
   version="1.1"
   inkscape:version="0.48.5 r10040"
   sodipodi:docname="silverwoodknottside.svg"
   inkscape:export-filename="/Users/ianw/drawing.png"
   inkscape:export-xdpi="180"
   inkscape:export-ydpi="180">
  <title
     id="title3119">Template</title>
  <defs
     id="defs2987">
    <linearGradient
       inkscape:collect="always"
       id="linearGradient4334">
      <stop
         style="stop-color:#000000;stop-opacity:1;"
         offset="0"
         id="stop4336" />
      <stop
         style="stop-color:#000000;stop-opacity:0;"
         offset="1"
         id="stop4338" />
    </linearGradient>
    <linearGradient
       id="linearGradient4303">
      <stop
         style="stop-color:#e1ded5;stop-opacity:1;"
         offset="0"
         id="stop4305" />
      <stop
         style="stop-color:#c0baa6;stop-opacity:1;"
         offset="1"
         id="stop4307" />
    </linearGradient>
    <linearGradient
       id="linearGradient4011">
      <stop
         id="stop4013"
         offset="0"
         style="stop-color:#816647;stop-opacity:1" />
      <stop
         id="stop4015"
         offset="1"
         style="stop-color:#000000;stop-opacity:0" />
    </linearGradient>
    <linearGradient
       id="linearGradient4001">
      <stop
         id="stop4003"
         offset="0"
         style="stop-color:#383530;stop-opacity:1;" />
      <stop
         style="stop-color:#706a60;stop-opacity:1;"
         offset="0.5"
         id="stop4009" />
      <stop
         id="stop4005"
         offset="1"
         style="stop-color:#9e988e;stop-opacity:1;" />
    </linearGradient>
    <linearGradient
       inkscape:collect="always"
       xlink:href="#linearGradient4303"
       id="linearGradient4309"
       x1="0"
       y1="64"
       x2="128"
       y2="64"
       gradientUnits="userSpaceOnUse" />
    <radialGradient
       inkscape:collect="always"
       xlink:href="#linearGradient4334"
       id="radialGradient4340"
       cx="-192"
       cy="64"
       fx="-192"
       fy="64"
       r="32"
       gradientUnits="userSpaceOnUse" />
    <radialGradient
       inkscape:collect="always"
       xlink:href="#linearGradient4334"
       id="radialGradient4344"
       gradientUnits="userSpaceOnUse"
       cx="-192"
       cy="64"
       fx="-192"
       fy="64"
       r="32" />
    <radialGradient
       inkscape:collect="always"
       xlink:href="#linearGradient4334"
       id="radialGradient4348"
       gradientUnits="userSpaceOnUse"
       cx="-192"
       cy="64"
       fx="-192"
       fy="64"
       r="32" />
    <filter
       inkscape:collect="always"
       id="filter4374"
       x="-0.21"
       width="1.42"
       y="-0.21"
       height="1.42">
      <feGaussianBlur
         inkscape:collect="always"
         stdDeviation="5.6"
         id="feGaussianBlur4376" />
    </filter>
    <filter
       inkscape:collect="always"
       id="filter4378"
       x="-0.21"
       width="1.42"
       y="-0.21"
       height="1.42">
      <feGaussianBlur
         inkscape:collect="always"
         stdDeviation="5.6"
         id="feGaussianBlur4380" />
    </filter>
    <filter
       inkscape:collect="always"
       id="filter4382"
       x="-0.13125"
       width="1.2625"
       y="-0.13125"
       height="1.2625">
      <feGaussianBlur
         inkscape:collect="always"
         stdDeviation="3.5"
         id="feGaussianBlur4384" />
    </filter>
    <radialGradient
       inkscape:collect="always"
       xlink:href="#linearGradient4334"
       id="radialGradient4391"
       gradientUnits="userSpaceOnUse"
       cx="-192"
       cy="64"
       fx="-192"
       fy="64"
       r="32" />
    <radialGradient
       inkscape:collect="always"
       xlink:href="#linearGradient4334"
       id="radialGradient4393"
       gradientUnits="userSpaceOnUse"
       cx="-192"
       cy="64"
       fx="-192"
       fy="64"
       r="32" />
    <radialGradient
       inkscape:collect="always"
       xlink:href="#linearGradient4334"
       id="radialGradient4395"
       gradientUnits="userSpaceOnUse"
       cx="-192"
       cy="64"
       fx="-192"
       fy="64"
       r="32" />
  </defs>
  <sodipodi:namedview
     id="base"
     pagecolor="#ffffff"
     bordercolor="#000000"
     borderopacity="1"
     inkscape:pageopacity="0.0"
     inkscape:pageshadow="2"
     inkscape:zoom="2.5190623"
     inkscape:cx="5.53999"
     inkscape:cy="42.936597"
     inkscape:current-layer="layer1"
     showgrid="true"
     inkscape:document-units="px"
     inkscape:grid-bbox="true"
     inkscape:snap-bbox="true"
     inkscape:snap-nodes="true"
     inkscape:snap-grids="false"
     inkscape:window-width="1440"
     inkscape:window-height="778"
     inkscape:window-x="0"
     inkscape:window-y="0"
     inkscape:window-maximized="1"
     inkscape:showpageshadow="false"
     borderlayer="true">
    <inkscape:grid
       type="xygrid"
       id="grid2993"
       empspacing="4"
       visible="true"
       enabled="true"
       snapvisiblegridlinesonly="true"
       spacingx="16px"
       spacingy="16px"
       empcolor="#d60053"
       empopacity="0.29803922" />
    <inkscape:grid
       type="xygrid"
       id="grid3043"
       empspacing="4"
       visible="true"
       enabled="true"
       snapvisiblegridlinesonly="true"
       color="#ff00f8"
       opacity="0.1254902"
       dotted="true" />
  </sodipodi:namedview>
  <metadata
     id="metadata2990">
    <rdf:RDF>
      <cc:Work
         rdf:about="">
        <dc:format>image/svg+xml</dc:format>
        <dc:type
           rdf:resource="http://purl.org/dc/dcmitype/StillImage" />
        <dc:title>Template</dc:title>
        <cc:license
           rdf:resource="https://www.gnu.org/copyleft/gpl.html" />
        <dc:creator>
          <cc:Agent>
            <dc:title>Ian Walters</dc:title>
          </cc:Agent>
        </dc:creator>
        <dc:source>SimpleRP</dc:source>
      </cc:Work>
    </rdf:RDF>
  </metadata>
  <g
     id="layer1"
     inkscape:label="Layer 1"
     inkscape:groupmode="layer"
     transform="translate(0,64)">
    <rect
       style="fill:url(#linearGradient4309);fill-rule:evenodd;stroke:none;stroke-width:1px;stroke-linecap:butt;stroke-linejoin:miter;stroke-opacity:1;fill-opacity:1"
       id="rect3165"
       width="128"
       height="128"
       x="0"
       y="0"
       transform="translate(0,-64)" />
    <use
       x="0"
       y="0"
       xlink:href="#path3505"
       id="use3521"
       transform="translate(-128,0)"
       width="128"
       height="128"
       style="opacity:0.5" />
    <use
       x="0"
       y="0"
       xlink:href="#path3505"
       id="use3519"
       transform="translate(2.542859e-7,-128)"
       width="128"
       height="128"
       style="opacity:0.5" />
    <path
       style="fill:#c9c6ba;fill-opacity:1;stroke:none;opacity:0.5"
       d="m 76.070622,76.173963 c -13.735488,-9.12888 -12,-32 -12,-48 0,-16 26.719264,-29.8969445 43.999998,-27.99999951 18.74359,2.05752601 44,31.99999951 40,39.99999951 -4,8 -8,20 -20,28 -12,8 -37.39433,17.70722 -51.999998,8 z"
       id="path3505"
       inkscape:connector-curvature="0"
       sodipodi:nodetypes="ssssss" />
    <path
       style="fill:#a9a285;fill-opacity:1;stroke:none;opacity:0.5"
       d="m -14.975724,61 c 8.8383862,13.403757 40,12 48,4 8,-8 20,-28 8,-36 -12,-8 -16,-4 -28,-4 -11.9999999,0 -19.9999999,8 -19.9999999,12 0,4 -12.6421481,16.960002 -8.0000001,24 z"
       id="path3507"
       inkscape:connector-curvature="0"
       sodipodi:nodetypes="ssssss" />
    <path
       style="fill:#767363;fill-opacity:1;stroke:none;stroke-width:1px;stroke-linecap:butt;stroke-linejoin:miter;stroke-opacity:1;opacity:0.5"
       d="m 68,-40 c -9.170665,4.360047 -20,8 -12,28 10.504515,26.261287 36,40 44,28 8,-12 12,-24 12,-28 0,-4 0,-20 -16,-20 -16,0 -19.233529,-12.167879 -28,-8 z"
       id="path3509"
       inkscape:connector-curvature="0"
       sodipodi:nodetypes="ssssss" />
    <path
       style="fill:#aca68d;fill-opacity:1;stroke:none;stroke-width:0.68812406000000004px;stroke-linecap:butt;stroke-linejoin:miter;stroke-opacity:1;opacity:0.5"
       d="m 58.153846,3.584823 c -8.307692,0 -24.923077,-2.7358628 -24.923077,10.943451 C 33.230769,28.207588 35.350889,32 48,32 c 8,0 8,8 21.230769,1.679314 C 74.764322,31.03579 72,28.207588 72,20 72,11.792411 66.910923,3.584823 58.153846,3.584823 z"
       id="path3511"
       inkscape:connector-curvature="0"
       sodipodi:nodetypes="ssssss" />
    <path
       style="fill:#959074;fill-opacity:1;stroke:none;opacity:0.5"
       d="m 38.300643,-65.928913 c -9.297504,5.395551 -24,16 -16,28 8,12 24.410534,18.529822 32,16 12,-4 22.305735,-19.634491 20,-32 -1.222037,-6.553707 -9.675445,-9.891815 -16,-12 -6.324555,-2.108185 -14.233933,-3.346179 -20,0 z"
       id="path3513"
       inkscape:connector-curvature="0"
       sodipodi:nodetypes="ssssss" />
    <path
       sodipodi:nodetypes="ssssss"
       inkscape:connector-curvature="0"
       id="path3515"
       d="m -6.800921,-2.2462057 c -10.467881,-5.48325 -9.145258,-19.2207593 -9.145258,-28.8311393 0,-9.610379 20.36288,-17.957562 33.53261,-16.818164 14.28458,1.23585 33.532606,19.220759 30.484196,24.025949 -3.04842,4.80519 -6.096843,12.012975 -15.2421,16.8181643 -9.145258,4.80519 -28.498398,10.635819 -39.629448,4.80519 z"
       style="fill:#c9c6ba;fill-opacity:1;stroke:none;opacity:0.5" />
    <path
       sodipodi:nodetypes="ssssss"
       inkscape:connector-curvature="0"
       id="path3517"
       d="m 122.46934,-37.776839 c -3.96228,-7.301924 -9.48219,-23.210619 -21.50542,-16.686396 -12.023236,6.524223 -20.794808,1.831988 -15.274899,17.740682 5.519908,15.908695 9.482186,23.210621 15.612239,23.034905 6.13006,-0.175715 6.13006,-0.175715 13.34399,-4.090249 7.21395,-3.914534 12.0007,-12.30204 7.82409,-19.998942 z"
       style="fill:#aca68d;fill-opacity:1;stroke:none;opacity:0.5" />
    <use
       x="0"
       y="0"
       xlink:href="#path3505"
       id="use3523"
       transform="translate(-128,-128)"
       width="128"
       height="128"
       style="opacity:0.5" />
    <use
       x="0"
       y="0"
       xlink:href="#path3515"
       id="use3525"
       transform="translate(128,0)"
       width="128"
       height="128"
       style="opacity:0.5" />
    <use
       x="0"
       y="0"
       xlink:href="#path3513"
       id="use3527"
       transform="translate(-2.3091696e-7,128)"
       width="128"
       height="128"
       style="opacity:0.5" />
    <use
       x="0"
       y="0"
       xlink:href="#path3507"
       id="use3529"
       transform="translate(4.9471282e-8,-128)"
       width="128"
       height="128"
       style="opacity:0.5" />
    <use
       x="0"
       y="0"
       xlink:href="#path3507"
       id="use3531"
       transform="translate(128,0)"
       width="128"
       height="128"
       style="opacity:0.5" />
    <use
       x="0"
       y="0"
       xlink:href="#path3507"
       id="use3533"
       transform="translate(128,-128)"
       width="128"
       height="128"
       style="opacity:0.5" />
    <g
       id="g4386"
       transform="translate(253.26885,1.587892)">
      <path
         transform="matrix(0.83333333,0,0,0.83333333,-26.666667,-44)"
         d="m -160,64 c 0,17.673112 -14.32689,32 -32,32 -17.67311,0 -32,-14.326888 -32,-32 0,-17.673112 14.32689,-32 32,-32 17.67311,0 32,14.326888 32,32 z"
         sodipodi:ry="32"
         sodipodi:rx="32"
         sodipodi:cy="64"
         sodipodi:cx="-192"
         id="path4332"
         style="fill:url(#radialGradient4391);fill-opacity:1;stroke:none;filter:url(#filter4382)"
         sodipodi:type="arc" />
      <path
         sodipodi:type="arc"
         style="fill:url(#radialGradient4393);fill-opacity:1;stroke:none;filter:url(#filter4378)"
         id="path4342"
         sodipodi:cx="-192"
         sodipodi:cy="64"
         sodipodi:rx="32"
         sodipodi:ry="32"
         d="m -160,64 c 0,17.673112 -14.32689,32 -32,32 -17.67311,0 -32,-14.326888 -32,-32 0,-17.673112 14.32689,-32 32,-32 17.67311,0 32,14.326888 32,32 z"
         transform="matrix(0.52083333,0,0,0.52083333,-100,-40.666667)" />
      <path
         transform="matrix(0.52083333,0,0,0.52083333,-86.666667,-37.333333)"
         d="m -160,64 c 0,17.673112 -14.32689,32 -32,32 -17.67311,0 -32,-14.326888 -32,-32 0,-17.673112 14.32689,-32 32,-32 17.67311,0 32,14.326888 32,32 z"
         sodipodi:ry="32"
         sodipodi:rx="32"
         sodipodi:cy="64"
         sodipodi:cx="-192"
         id="path4346"
         style="fill:url(#radialGradient4395);fill-opacity:1;stroke:none;filter:url(#filter4374)"
         sodipodi:type="arc" />
    </g>
  </g>
</svg>
